<?xml version="1.0" encoding="UTF-8"?>
<svg xmlns="http://www.w3.org/2000/svg" version="1.2">
  <font id="MobiliarRealistWeb-SemiLight">
    <font-face font-family="Mobiliar Realist Web" units-per-em="1000" ascent="1200" descent="-400" font-style="normal"
               font-weight="300" font-stretch="condensed" cap-height="690" x-height="485" underline-position="-109"
               underline-thickness="44"/>
    <missing-glyph horiz-adv-x="508"
                   d="M56 0 L56 700 L452 700 L452 0 L56 0 Z M106 50 L402 50 L402 650 L106 650 L106 50 Z "/>
    <glyph glyph-name="space" unicode="&#x20;" horiz-adv-x="252" d=""/>
    <glyph glyph-name="uni200B" unicode="&#x200b;" d=""/>
    <glyph glyph-name="uni00A0" unicode="&#xa0;" horiz-adv-x="252" d=""/>
    <glyph glyph-name="A" unicode="A" horiz-adv-x="609"
           d="M577 0 L513 0 L432 241 L175 241 L93 0 L31 0 L275 690 L337 690 L577 0 Z M305 622 L304 622 L192 292 L415 292 L305 622 Z "/>
    <glyph glyph-name="Aacute" unicode="&#xc1;" horiz-adv-x="609"
           d="M577 0 L513 0 L432 241 L175 241 L93 0 L31 0 L275 690 L337 690 L577 0 Z M305 622 L304 622 L192 292 L415 292 L305 622 Z M443 845 L334 729 L276 729 L370 847 L443 847 L443 845 Z "/>
    <glyph glyph-name="Abreve" unicode="&#x102;" horiz-adv-x="609"
           d="M577 0 L513 0 L432 241 L175 241 L93 0 L31 0 L275 690 L337 690 L577 0 Z M305 622 L304 622 L192 292 L415 292 L305 622 Z M418 841 Q417 791 389.5 761.5 Q362 732 306 732 Q249 732 222 761.5 Q195 791 194 841 L236 841 Q236 810 253.5 792 Q271 774 306 774 Q340 774 357.5 792 Q375 810 375 841 L418 841 L418 841 Z "/>
    <glyph glyph-name="Acircumflex" unicode="&#xc2;" horiz-adv-x="609"
           d="M577 0 L513 0 L432 241 L175 241 L93 0 L31 0 L275 690 L337 690 L577 0 Z M305 622 L304 622 L192 292 L415 292 L305 622 Z M373 729 L306 810 L304 810 L237 729 L188 729 L270 845 L340 845 L422 729 L373 729 Z "/>
    <glyph glyph-name="Adieresis" unicode="&#xc4;" horiz-adv-x="609"
           d="M577 0 L513 0 L432 241 L175 241 L93 0 L31 0 L275 690 L337 690 L577 0 Z M305 622 L304 622 L192 292 L415 292 L305 622 Z M235 827 Q251 827 259 817 Q267 807 267 790 L267 782 Q267 766 259 755.5 Q251 745 235 745 Q219 745 210.5 755.5 Q202 766 202 782 L202 790 Q202 807 210.5 817 Q219 827 235 827 Z M377 827 Q393 827 401 817 Q409 807 409 790 L409 782 Q409 766 401 755.5 Q393 745 377 745 Q361 745 352.5 755.5 Q344 766 344 782 L344 790 Q344 807 352.5 817 Q361 827 377 827 Z "/>
    <glyph glyph-name="AE" unicode="&#xc6;" horiz-adv-x="855"
           d="M804 636 L482 636 L482 377 L776 377 L776 323 L482 323 L482 54 L814 54 L814 0 L421 0 L421 241 L178 241 L93 0 L31 0 L275 690 L804 690 L804 636 Z M315 636 L195 292 L421 292 L421 636 L315 636 Z "/>
    <glyph glyph-name="AEacute" unicode="&#x1fc;" horiz-adv-x="855"
           d="M804 636 L482 636 L482 377 L776 377 L776 323 L482 323 L482 54 L814 54 L814 0 L421 0 L421 241 L178 241 L93 0 L31 0 L275 690 L804 690 L804 636 Z M315 636 L195 292 L421 292 L421 636 L315 636 Z M588 845 L479 729 L421 729 L515 847 L588 847 L588 845 Z "/>
    <glyph glyph-name="Agrave" unicode="&#xc0;" horiz-adv-x="609"
           d="M577 0 L513 0 L432 241 L175 241 L93 0 L31 0 L275 690 L337 690 L577 0 Z M305 622 L304 622 L192 292 L415 292 L305 622 Z M277 729 L168 845 L168 847 L241 847 L335 729 L277 729 Z "/>
    <glyph glyph-name="Amacron" unicode="&#x100;" horiz-adv-x="609"
           d="M577 0 L513 0 L432 241 L175 241 L93 0 L31 0 L275 690 L337 690 L577 0 Z M305 622 L304 622 L192 292 L415 292 L305 622 Z M411 755 L200 755 L200 801 L411 801 L411 755 Z "/>
    <glyph glyph-name="Aogonek" unicode="&#x104;" horiz-adv-x="609"
           d="M579 -196 Q573 -200 559 -204.5 Q545 -209 520 -209 Q478 -209 455.5 -187.5 Q433 -166 433 -124 Q433 -100 440.5 -78.5 Q448 -57 459 -39.5 Q470 -22 483.5 -8.5 Q497 5 508 14 L432 241 L175 241 L93 0 L31 0 L275 690 L337 690 L577 0 L544 0 Q526 -17 508 -44 Q490 -71 490 -109 Q490 -133 502 -145 Q514 -157 534 -157 Q551 -157 562.5 -153.5 Q574 -150 579 -147 L579 -196 Z M305 622 L304 622 L192 292 L415 292 L305 622 Z "/>
    <glyph glyph-name="Aring" unicode="&#xc5;" horiz-adv-x="609"
           d="M577 0 L513 0 L432 241 L175 241 L93 0 L31 0 L275 690 L337 690 L577 0 Z M305 622 L304 622 L192 292 L415 292 L305 622 Z M385 803 Q385 768 362.5 748 Q340 728 306 728 Q271 728 248.5 748 Q226 768 226 803 Q226 837 248.5 857 Q271 877 306 877 Q340 877 362.5 857 Q385 837 385 803 Z M349 803 Q349 823 337 833 Q325 843 306 843 Q287 843 274.5 833 Q262 823 262 803 Q262 783 274.5 772.5 Q287 762 306 762 Q325 762 337 772.5 Q349 783 349 803 Z "/>
    <glyph glyph-name="Aringacute" unicode="&#x1fa;" horiz-adv-x="609"
           d="M385 726 Q385 706 374 691 Q363 676 344 668 L577 0 L513 0 L432 241 L175 241 L93 0 L31 0 L267 668 Q227 684 227 726 Q227 755 248.5 773 Q270 791 306 791 Q341 791 363 773 Q385 755 385 726 Z M305 622 L304 622 L192 292 L415 292 L305 622 Z M383 853 L230 792 L230 823 L383 894 L383 853 Z M350 726 Q350 744 337 753 Q324 762 306 762 Q287 762 274.5 753 Q262 744 262 726 Q262 709 274.5 699.5 Q287 690 306 690 L311 690 Q328 692 339 700.5 Q350 709 350 726 Z "/>
    <glyph glyph-name="Atilde" unicode="&#xc3;" horiz-adv-x="609"
           d="M577 0 L513 0 L432 241 L175 241 L93 0 L31 0 L275 690 L337 690 L577 0 Z M305 622 L304 622 L192 292 L415 292 L305 622 Z M439 817 Q436 731 369 731 Q348 731 331.5 738 Q315 745 301 754 Q287 763 272.5 770 Q258 777 241 777 Q209 777 207 734 L171 734 Q172 778 190.5 799 Q209 820 241 820 Q262 820 278 813 Q294 806 308.5 797 Q323 788 337 781 Q351 774 368 774 Q402 774 404 817 L439 817 L439 817 Z "/>
    <glyph glyph-name="B" unicode="B" horiz-adv-x="598"
           d="M537 183 Q537 101 472.5 50.5 Q408 0 278 0 L86 0 L86 690 L269 690 Q399 690 459 645.5 Q519 601 519 520 Q519 449 479 407 Q439 365 368 353 L368 351 Q449 343 493 297.5 Q537 252 537 183 Z M459 513 Q459 577 412 606.5 Q365 636 265 636 L147 636 L147 376 L264 376 Q315 376 352 386.5 Q389 397 413 415 Q437 433 448 458 Q459 483 459 513 Z M475 189 Q475 250 427 286.5 Q379 323 281 323 L147 323 L147 54 L274 54 Q378 54 426.5 89.5 Q475 125 475 189 Z "/>
    <glyph glyph-name="C" unicode="C" horiz-adv-x="586"
           d="M52 345 Q52 439 78 506.5 Q104 574 147 617.5 Q190 661 245 681.5 Q300 702 359 702 Q402 702 433.5 694.5 Q465 687 487.5 676.5 Q510 666 525 654.5 Q540 643 550 635 L522 588 Q513 596 499.5 606 Q486 616 467 625 Q448 634 422 640 Q396 646 362 646 Q313 646 268 628.5 Q223 611 189 574 Q155 537 134.5 480 Q114 423 114 345 Q114 268 132.5 211 Q151 154 183.5 117 Q216 80 260.5 62 Q305 44 358 44 Q395 44 422 50 Q449 56 469 64.5 Q489 73 502.5 82.5 Q516 92 525 100 L548 54 Q539 46 524.5 35 Q510 24 487.5 13.5 Q465 3 433 -4.5 Q401 -12 355 -12 Q292 -12 237 9 Q182 30 140.5 73.5 Q99 117 75.5 184.5 Q52 252 52 345 Z "/>
    <glyph glyph-name="Cacute" unicode="&#x106;" horiz-adv-x="586"
           d="M52 345 Q52 439 78 506.5 Q104 574 147 617.5 Q190 661 245 681.5 Q300 702 359 702 Q402 702 433.5 694.5 Q465 687 487.5 676.5 Q510 666 525 654.5 Q540 643 550 635 L522 588 Q513 596 499.5 606 Q486 616 467 625 Q448 634 422 640 Q396 646 362 646 Q313 646 268 628.5 Q223 611 189 574 Q155 537 134.5 480 Q114 423 114 345 Q114 268 132.5 211 Q151 154 183.5 117 Q216 80 260.5 62 Q305 44 358 44 Q395 44 422 50 Q449 56 469 64.5 Q489 73 502.5 82.5 Q516 92 525 100 L548 54 Q539 46 524.5 35 Q510 24 487.5 13.5 Q465 3 433 -4.5 Q401 -12 355 -12 Q292 -12 237 9 Q182 30 140.5 73.5 Q99 117 75.5 184.5 Q52 252 52 345 Z M485 853 L376 737 L318 737 L412 855 L485 855 L485 853 Z "/>
    <glyph glyph-name="Ccaron" unicode="&#x10c;" horiz-adv-x="586"
           d="M52 345 Q52 439 78 506.5 Q104 574 147 617.5 Q190 661 245 681.5 Q300 702 359 702 Q402 702 433.5 694.5 Q465 687 487.5 676.5 Q510 666 525 654.5 Q540 643 550 635 L522 588 Q513 596 499.5 606 Q486 616 467 625 Q448 634 422 640 Q396 646 362 646 Q313 646 268 628.5 Q223 611 189 574 Q155 537 134.5 480 Q114 423 114 345 Q114 268 132.5 211 Q151 154 183.5 117 Q216 80 260.5 62 Q305 44 358 44 Q395 44 422 50 Q449 56 469 64.5 Q489 73 502.5 82.5 Q516 92 525 100 L548 54 Q539 46 524.5 35 Q510 24 487.5 13.5 Q465 3 433 -4.5 Q401 -12 355 -12 Q292 -12 237 9 Q182 30 140.5 73.5 Q99 117 75.5 184.5 Q52 252 52 345 Z M382 740 L312 740 L230 856 L279 856 L346 775 L348 775 L415 856 L464 856 L382 740 Z "/>
    <glyph glyph-name="Ccedilla" unicode="&#xc7;" horiz-adv-x="586"
           d="M426 -129 Q426 -166 399.5 -186 Q373 -206 325 -206 Q301 -206 286.5 -202 Q272 -198 261 -193 L261 -159 Q271 -164 284 -167 Q297 -170 316 -170 Q346 -170 361 -159 Q376 -148 376 -128 Q376 -81 292 -81 L289 -78 L324 -10 Q266 -6 216.5 17.5 Q167 41 130.5 84.5 Q94 128 73 193 Q52 258 52 345 Q52 439 78 506.5 Q104 574 147 617.5 Q190 661 245 681.5 Q300 702 359 702 Q402 702 433.5 694.5 Q465 687 487.5 676.5 Q510 666 525 654.5 Q540 643 550 635 L522 588 Q513 596 499.5 606 Q486 616 467 625 Q448 634 422 640 Q396 646 362 646 Q313 646 268 628.5 Q223 611 189 574 Q155 537 134.5 480 Q114 423 114 345 Q114 268 132.5 211 Q151 154 183.5 117 Q216 80 260.5 62 Q305 44 358 44 Q395 44 422 50 Q449 56 469 64.5 Q489 73 502.5 82.5 Q516 92 525 100 L548 54 Q539 46 525 35.5 Q511 25 489.5 14.5 Q468 4 437 -3.5 Q406 -11 363 -12 L341 -58 Q384 -60 405 -79.5 Q426 -99 426 -129 Z "/>
    <glyph glyph-name="Ccircumflex" unicode="&#x108;" horiz-adv-x="586"
           d="M52 345 Q52 439 78 506.5 Q104 574 147 617.5 Q190 661 245 681.5 Q300 702 359 702 Q402 702 433.5 694.5 Q465 687 487.5 676.5 Q510 666 525 654.5 Q540 643 550 635 L522 588 Q513 596 499.5 606 Q486 616 467 625 Q448 634 422 640 Q396 646 362 646 Q313 646 268 628.5 Q223 611 189 574 Q155 537 134.5 480 Q114 423 114 345 Q114 268 132.5 211 Q151 154 183.5 117 Q216 80 260.5 62 Q305 44 358 44 Q395 44 422 50 Q449 56 469 64.5 Q489 73 502.5 82.5 Q516 92 525 100 L548 54 Q539 46 524.5 35 Q510 24 487.5 13.5 Q465 3 433 -4.5 Q401 -12 355 -12 Q292 -12 237 9 Q182 30 140.5 73.5 Q99 117 75.5 184.5 Q52 252 52 345 Z M415 737 L348 818 L346 818 L279 737 L230 737 L312 853 L382 853 L464 737 L415 737 Z "/>
    <glyph glyph-name="Cdotaccent" unicode="&#x10a;" horiz-adv-x="586"
           d="M52 345 Q52 439 78 506.5 Q104 574 147 617.5 Q190 661 245 681.5 Q300 702 359 702 Q402 702 433.5 694.5 Q465 687 487.5 676.5 Q510 666 525 654.5 Q540 643 550 635 L522 588 Q513 596 499.5 606 Q486 616 467 625 Q448 634 422 640 Q396 646 362 646 Q313 646 268 628.5 Q223 611 189 574 Q155 537 134.5 480 Q114 423 114 345 Q114 268 132.5 211 Q151 154 183.5 117 Q216 80 260.5 62 Q305 44 358 44 Q395 44 422 50 Q449 56 469 64.5 Q489 73 502.5 82.5 Q516 92 525 100 L548 54 Q539 46 524.5 35 Q510 24 487.5 13.5 Q465 3 433 -4.5 Q401 -12 355 -12 Q292 -12 237 9 Q182 30 140.5 73.5 Q99 117 75.5 184.5 Q52 252 52 345 Z M348 840 Q384 840 384 799 L384 794 Q384 753 348 753 Q311 753 311 794 L311 799 Q311 840 348 840 Z "/>
    <glyph glyph-name="D" unicode="D" horiz-adv-x="673"
           d="M624 352 Q624 260 596.5 194 Q569 128 518 84.5 Q467 41 393 20.5 Q319 0 226 0 L86 0 L86 690 L226 690 Q318 690 391.5 671 Q465 652 517 611.5 Q569 571 596.5 506.5 Q624 442 624 352 Z M562 352 Q562 427 539 480.5 Q516 534 472.5 568.5 Q429 603 367 619.5 Q305 636 227 636 L147 636 L147 54 L227 54 Q305 54 367 71.5 Q429 89 472.5 125 Q516 161 539 217.5 Q562 274 562 352 Z "/>
    <glyph glyph-name="Dcaron" unicode="&#x10e;" horiz-adv-x="673"
           d="M624 352 Q624 260 596.5 194 Q569 128 518 84.5 Q467 41 393 20.5 Q319 0 226 0 L86 0 L86 690 L226 690 Q318 690 391.5 671 Q465 652 517 611.5 Q569 571 596.5 506.5 Q624 442 624 352 Z M562 352 Q562 427 539 480.5 Q516 534 472.5 568.5 Q429 603 367 619.5 Q305 636 227 636 L147 636 L147 54 L227 54 Q305 54 367 71.5 Q429 89 472.5 125 Q516 161 539 217.5 Q562 274 562 352 Z M345 732 L275 732 L193 848 L242 848 L309 767 L311 767 L378 848 L427 848 L345 732 Z "/>
    <glyph glyph-name="Dcroat" unicode="&#x110;" horiz-adv-x="694"
           d="M644 352 Q644 260 616.5 194 Q589 128 538 84.5 Q487 41 413 20.5 Q339 0 246 0 L106 0 L106 323 L23 323 L23 377 L106 377 L106 690 L246 690 Q338 690 411.5 671 Q485 652 537 611.5 Q589 571 616.5 506.5 Q644 442 644 352 Z M582 352 Q582 427 559 480.5 Q536 534 492.5 568.5 Q449 603 387 619.5 Q325 636 247 636 L167 636 L167 377 L354 377 L354 323 L167 323 L167 54 L247 54 Q325 54 387 71.5 Q449 89 492.5 125 Q536 161 559 217.5 Q582 274 582 352 Z "/>
    <glyph glyph-name="Eth" unicode="&#xd0;" horiz-adv-x="694"
           d="M644 352 Q644 260 616.5 194 Q589 128 538 84.5 Q487 41 413 20.5 Q339 0 246 0 L106 0 L106 323 L23 323 L23 377 L106 377 L106 690 L246 690 Q338 690 411.5 671 Q485 652 537 611.5 Q589 571 616.5 506.5 Q644 442 644 352 Z M582 352 Q582 427 559 480.5 Q536 534 492.5 568.5 Q449 603 387 619.5 Q325 636 247 636 L167 636 L167 377 L354 377 L354 323 L167 323 L167 54 L247 54 Q325 54 387 71.5 Q449 89 492.5 125 Q536 161 559 217.5 Q582 274 582 352 Z "/>
    <glyph glyph-name="E" unicode="E" horiz-adv-x="521"
           d="M470 636 L147 636 L147 377 L441 377 L441 323 L147 323 L147 54 L479 54 L479 0 L86 0 L86 690 L470 690 L470 636 Z "/>
    <glyph glyph-name="Eacute" unicode="&#xc9;" horiz-adv-x="521"
           d="M470 636 L147 636 L147 377 L441 377 L441 323 L147 323 L147 54 L479 54 L479 0 L86 0 L86 690 L470 690 L470 636 Z M415 845 L306 729 L248 729 L342 847 L415 847 L415 845 Z "/>
    <glyph glyph-name="Ebreve" unicode="&#x114;" horiz-adv-x="521"
           d="M470 636 L147 636 L147 377 L441 377 L441 323 L147 323 L147 54 L479 54 L479 0 L86 0 L86 690 L470 690 L470 636 Z M390 841 Q389 791 361.5 761.5 Q334 732 278 732 Q221 732 194 761.5 Q167 791 166 841 L208 841 Q208 810 225.5 792 Q243 774 278 774 Q312 774 329.5 792 Q347 810 347 841 L390 841 L390 841 Z "/>
    <glyph glyph-name="Ecaron" unicode="&#x11a;" horiz-adv-x="521"
           d="M470 636 L147 636 L147 377 L441 377 L441 323 L147 323 L147 54 L479 54 L479 0 L86 0 L86 690 L470 690 L470 636 Z M313 732 L243 732 L161 848 L210 848 L277 767 L279 767 L346 848 L395 848 L313 732 Z "/>
    <glyph glyph-name="Ecircumflex" unicode="&#xca;" horiz-adv-x="521"
           d="M470 636 L147 636 L147 377 L441 377 L441 323 L147 323 L147 54 L479 54 L479 0 L86 0 L86 690 L470 690 L470 636 Z M346 729 L279 810 L277 810 L210 729 L161 729 L243 845 L313 845 L395 729 L346 729 Z "/>
    <glyph glyph-name="Edieresis" unicode="&#xcb;" horiz-adv-x="521"
           d="M470 636 L147 636 L147 377 L441 377 L441 323 L147 323 L147 54 L479 54 L479 0 L86 0 L86 690 L470 690 L470 636 Z M207 827 Q223 827 231 817 Q239 807 239 790 L239 782 Q239 766 231 755.5 Q223 745 207 745 Q191 745 182.5 755.5 Q174 766 174 782 L174 790 Q174 807 182.5 817 Q191 827 207 827 Z M349 827 Q365 827 373 817 Q381 807 381 790 L381 782 Q381 766 373 755.5 Q365 745 349 745 Q333 745 324.5 755.5 Q316 766 316 782 L316 790 Q316 807 324.5 817 Q333 827 349 827 Z "/>
    <glyph glyph-name="Edotaccent" unicode="&#x116;" horiz-adv-x="521"
           d="M470 636 L147 636 L147 377 L441 377 L441 323 L147 323 L147 54 L479 54 L479 0 L86 0 L86 690 L470 690 L470 636 Z M278 832 Q314 832 314 791 L314 786 Q314 745 278 745 Q241 745 241 786 L241 791 Q241 832 278 832 Z "/>
    <glyph glyph-name="Egrave" unicode="&#xc8;" horiz-adv-x="521"
           d="M470 636 L147 636 L147 377 L441 377 L441 323 L147 323 L147 54 L479 54 L479 0 L86 0 L86 690 L470 690 L470 636 Z M249 729 L140 845 L140 847 L213 847 L307 729 L249 729 Z "/>
    <glyph glyph-name="Emacron" unicode="&#x112;" horiz-adv-x="521"
           d="M470 636 L147 636 L147 377 L441 377 L441 323 L147 323 L147 54 L479 54 L479 0 L86 0 L86 690 L470 690 L470 636 Z M383 755 L172 755 L172 801 L383 801 L383 755 Z "/>
    <glyph glyph-name="Eogonek" unicode="&#x118;" horiz-adv-x="521"
           d="M455 -196 Q449 -200 435 -204.5 Q421 -209 396 -209 Q354 -209 331.5 -187.5 Q309 -166 309 -124 Q309 -84 328.5 -52 Q348 -20 368 0 L86 0 L86 690 L470 690 L470 636 L147 636 L147 377 L441 377 L441 323 L147 323 L147 54 L479 54 L479 0 L420 0 Q402 -17 384 -44 Q366 -71 366 -109 Q366 -133 378 -145 Q390 -157 410 -157 Q427 -157 438.5 -153.5 Q450 -150 455 -147 L455 -196 Z "/>
    <glyph glyph-name="uni018F" unicode="&#x18f;" horiz-adv-x="634"
           d="M581 333 Q581 252 563.5 187.5 Q546 123 513 79 Q480 35 431 11.5 Q382 -12 319 -12 Q180 -12 116 73.5 Q52 159 52 327 L52 363 L520 363 Q515 507 457.5 576.5 Q400 646 291 646 Q253 646 223.5 638.5 Q194 631 171 619.5 Q148 608 131.5 595 Q115 582 103 571 L74 615 Q87 627 106.5 642.5 Q126 658 153 671 Q180 684 215 693 Q250 702 295 702 Q431 702 506 612.5 Q581 523 581 333 Z M317 44 Q417 44 466.5 115.5 Q516 187 520 310 L111 310 Q111 183 160 113.5 Q209 44 317 44 Z "/>
    <glyph glyph-name="F" unicode="F" horiz-adv-x="500"
           d="M471 636 L147 636 L147 351 L442 351 L442 296 L147 296 L147 0 L86 0 L86 690 L471 690 L471 636 Z "/>
    <glyph glyph-name="G" unicode="G" horiz-adv-x="639"
           d="M566 45 Q556 37 541 27.5 Q526 18 503 9 Q480 0 447.5 -6 Q415 -12 370 -12 Q303 -12 245 8.5 Q187 29 144 72 Q101 115 76.5 182.5 Q52 250 52 345 Q52 439 78.5 506.5 Q105 574 149.5 617.5 Q194 661 252.5 681.5 Q311 702 375 702 Q419 702 451 694.5 Q483 687 506.5 676.5 Q530 666 545 654.5 Q560 643 569 635 L541 587 Q532 595 518 605.5 Q504 616 484.5 625 Q465 634 438 640 Q411 646 376 646 Q323 646 275.5 629.5 Q228 613 192 577 Q156 541 135 484 Q114 427 114 345 Q114 266 133.5 209 Q153 152 187.5 115.5 Q222 79 270 61.5 Q318 44 374 44 Q420 44 452 51 Q484 58 506 69 L506 302 L391 302 L391 356 L566 356 L566 45 Z "/>
    <glyph glyph-name="Gbreve" unicode="&#x11e;" horiz-adv-x="639"
           d="M566 45 Q556 37 541 27.5 Q526 18 503 9 Q480 0 447.5 -6 Q415 -12 370 -12 Q303 -12 245 8.5 Q187 29 144 72 Q101 115 76.5 182.5 Q52 250 52 345 Q52 439 78.5 506.5 Q105 574 149.5 617.5 Q194 661 252.5 681.5 Q311 702 375 702 Q419 702 451 694.5 Q483 687 506.5 676.5 Q530 666 545 654.5 Q560 643 569 635 L541 587 Q532 595 518 605.5 Q504 616 484.5 625 Q465 634 438 640 Q411 646 376 646 Q323 646 275.5 629.5 Q228 613 192 577 Q156 541 135 484 Q114 427 114 345 Q114 266 133.5 209 Q153 152 187.5 115.5 Q222 79 270 61.5 Q318 44 374 44 Q420 44 452 51 Q484 58 506 69 L506 302 L391 302 L391 356 L566 356 L566 45 Z M471 849 Q470 799 442.5 769.5 Q415 740 359 740 Q302 740 275 769.5 Q248 799 247 849 L289 849 Q289 818 306.5 800 Q324 782 359 782 Q393 782 410.5 800 Q428 818 428 849 L471 849 L471 849 Z "/>
    <glyph glyph-name="Gcircumflex" unicode="&#x11c;" horiz-adv-x="639"
           d="M566 45 Q556 37 541 27.5 Q526 18 503 9 Q480 0 447.5 -6 Q415 -12 370 -12 Q303 -12 245 8.5 Q187 29 144 72 Q101 115 76.5 182.5 Q52 250 52 345 Q52 439 78.5 506.5 Q105 574 149.5 617.5 Q194 661 252.5 681.5 Q311 702 375 702 Q419 702 451 694.5 Q483 687 506.5 676.5 Q530 666 545 654.5 Q560 643 569 635 L541 587 Q532 595 518 605.5 Q504 616 484.5 625 Q465 634 438 640 Q411 646 376 646 Q323 646 275.5 629.5 Q228 613 192 577 Q156 541 135 484 Q114 427 114 345 Q114 266 133.5 209 Q153 152 187.5 115.5 Q222 79 270 61.5 Q318 44 374 44 Q420 44 452 51 Q484 58 506 69 L506 302 L391 302 L391 356 L566 356 L566 45 Z M427 737 L360 818 L358 818 L291 737 L242 737 L324 853 L394 853 L476 737 L427 737 Z "/>
    <glyph glyph-name="Gcommaaccent" unicode="&#x122;" horiz-adv-x="639"
           d="M566 45 Q556 37 541 27.5 Q526 18 503 9 Q480 0 447.5 -6 Q415 -12 370 -12 Q303 -12 245 8.5 Q187 29 144 72 Q101 115 76.5 182.5 Q52 250 52 345 Q52 439 78.5 506.5 Q105 574 149.5 617.5 Q194 661 252.5 681.5 Q311 702 375 702 Q419 702 451 694.5 Q483 687 506.5 676.5 Q530 666 545 654.5 Q560 643 569 635 L541 587 Q532 595 518 605.5 Q504 616 484.5 625 Q465 634 438 640 Q411 646 376 646 Q323 646 275.5 629.5 Q228 613 192 577 Q156 541 135 484 Q114 427 114 345 Q114 266 133.5 209 Q153 152 187.5 115.5 Q222 79 270 61.5 Q318 44 374 44 Q420 44 452 51 Q484 58 506 69 L506 302 L391 302 L391 356 L566 356 L566 45 Z M410 -113 Q410 -137 403 -154.5 Q396 -172 385 -184 Q374 -196 360 -204 Q346 -212 332 -216 L323 -194 Q340 -186 357 -169 Q374 -152 374 -119 L374 -111 L365 -111 Q351 -111 342.5 -102.5 Q334 -94 334 -80 Q334 -64 343 -55.5 Q352 -47 364 -47 Q384 -47 397 -63.5 Q410 -80 410 -113 Z "/>
    <glyph glyph-name="Gdotaccent" unicode="&#x120;" horiz-adv-x="639"
           d="M566 45 Q556 37 541 27.5 Q526 18 503 9 Q480 0 447.5 -6 Q415 -12 370 -12 Q303 -12 245 8.5 Q187 29 144 72 Q101 115 76.5 182.5 Q52 250 52 345 Q52 439 78.5 506.5 Q105 574 149.5 617.5 Q194 661 252.5 681.5 Q311 702 375 702 Q419 702 451 694.5 Q483 687 506.5 676.5 Q530 666 545 654.5 Q560 643 569 635 L541 587 Q532 595 518 605.5 Q504 616 484.5 625 Q465 634 438 640 Q411 646 376 646 Q323 646 275.5 629.5 Q228 613 192 577 Q156 541 135 484 Q114 427 114 345 Q114 266 133.5 209 Q153 152 187.5 115.5 Q222 79 270 61.5 Q318 44 374 44 Q420 44 452 51 Q484 58 506 69 L506 302 L391 302 L391 356 L566 356 L566 45 Z M359 840 Q395 840 395 799 L395 794 Q395 753 359 753 Q322 753 322 794 L322 799 Q322 840 359 840 Z "/>
    <glyph glyph-name="H" unicode="H" horiz-adv-x="663"
           d="M577 0 L517 0 L517 323 L147 323 L147 0 L86 0 L86 690 L147 690 L147 377 L517 377 L517 690 L577 690 L577 0 Z "/>
    <glyph glyph-name="Hbar" unicode="&#x126;" horiz-adv-x="702"
           d="M596 570 L680 570 L680 531 L596 531 L596 0 L536 0 L536 323 L166 323 L166 0 L105 0 L105 531 L23 531 L23 570 L105 570 L105 690 L166 690 L166 570 L536 570 L536 690 L596 690 L596 570 Z M536 377 L536 531 L166 531 L166 377 L536 377 Z "/>
    <glyph glyph-name="Hcircumflex" unicode="&#x124;" horiz-adv-x="663"
           d="M577 0 L517 0 L517 323 L147 323 L147 0 L86 0 L86 690 L147 690 L147 377 L517 377 L517 690 L577 690 L577 0 Z M399 729 L332 810 L330 810 L263 729 L214 729 L296 845 L366 845 L448 729 L399 729 Z "/>
    <glyph glyph-name="I" unicode="I" horiz-adv-x="333"
           d="M274 637 L196 637 L196 53 L274 53 L274 0 L58 0 L58 53 L136 53 L136 637 L58 637 L58 690 L274 690 L274 637 Z "/>
    <glyph glyph-name="Iacute" unicode="&#xcd;" horiz-adv-x="333"
           d="M274 637 L196 637 L196 53 L274 53 L274 0 L58 0 L58 53 L136 53 L136 637 L58 637 L58 690 L274 690 L274 637 Z M304 845 L195 729 L137 729 L231 847 L304 847 L304 845 Z "/>
    <glyph glyph-name="Ibreve" unicode="&#x12c;" horiz-adv-x="333"
           d="M274 637 L196 637 L196 53 L274 53 L274 0 L58 0 L58 53 L136 53 L136 637 L58 637 L58 690 L274 690 L274 637 Z M279 841 Q278 791 250.5 761.5 Q223 732 167 732 Q110 732 83 761.5 Q56 791 55 841 L97 841 Q97 810 114.5 792 Q132 774 167 774 Q201 774 218.5 792 Q236 810 236 841 L279 841 L279 841 Z "/>
    <glyph glyph-name="Icircumflex" unicode="&#xce;" horiz-adv-x="333"
           d="M274 637 L196 637 L196 53 L274 53 L274 0 L58 0 L58 53 L136 53 L136 637 L58 637 L58 690 L274 690 L274 637 Z M235 729 L168 810 L166 810 L99 729 L50 729 L132 845 L202 845 L284 729 L235 729 Z "/>
    <glyph glyph-name="Idieresis" unicode="&#xcf;" horiz-adv-x="333"
           d="M274 637 L196 637 L196 53 L274 53 L274 0 L58 0 L58 53 L136 53 L136 637 L58 637 L58 690 L274 690 L274 637 Z M96 827 Q112 827 120 817 Q128 807 128 790 L128 782 Q128 766 120 755.5 Q112 745 96 745 Q80 745 71.5 755.5 Q63 766 63 782 L63 790 Q63 807 71.5 817 Q80 827 96 827 Z M238 827 Q254 827 262 817 Q270 807 270 790 L270 782 Q270 766 262 755.5 Q254 745 238 745 Q222 745 213.5 755.5 Q205 766 205 782 L205 790 Q205 807 213.5 817 Q222 827 238 827 Z "/>
    <glyph glyph-name="Idotaccent" unicode="&#x130;" horiz-adv-x="333"
           d="M274 637 L196 637 L196 53 L274 53 L274 0 L58 0 L58 53 L136 53 L136 637 L58 637 L58 690 L274 690 L274 637 Z M167 832 Q203 832 203 791 L203 786 Q203 745 167 745 Q130 745 130 786 L130 791 Q130 832 167 832 Z "/>
    <glyph glyph-name="Igrave" unicode="&#xcc;" horiz-adv-x="333"
           d="M274 637 L196 637 L196 53 L274 53 L274 0 L58 0 L58 53 L136 53 L136 637 L58 637 L58 690 L274 690 L274 637 Z M140 729 L31 845 L31 847 L104 847 L198 729 L140 729 Z "/>
    <glyph glyph-name="IJ" unicode="&#x132;" horiz-adv-x="757"
           d="M674 223 Q674 157 661 112 Q648 67 622.5 39.5 Q597 12 559 0 Q521 -12 472 -12 Q434 -12 409 -5.5 Q384 1 375 5 L387 60 Q395 55 416.5 49.5 Q438 44 469 44 Q505 44 532 53 Q559 62 577 83 Q595 104 604 138 Q613 172 613 223 L613 636 L380 636 L380 690 L674 690 L674 223 Z M274 637 L196 637 L196 53 L274 53 L274 0 L58 0 L58 53 L136 53 L136 637 L58 637 L58 690 L274 690 L274 637 Z "/>
    <glyph glyph-name="Imacron" unicode="&#x12a;" horiz-adv-x="333"
           d="M274 637 L196 637 L196 53 L274 53 L274 0 L58 0 L58 53 L136 53 L136 637 L58 637 L58 690 L274 690 L274 637 Z M272 755 L61 755 L61 801 L272 801 L272 755 Z "/>
    <glyph glyph-name="Iogonek" unicode="&#x12e;" horiz-adv-x="333"
           d="M272 -196 Q266 -200 252 -204.5 Q238 -209 213 -209 Q171 -209 148.5 -187.5 Q126 -166 126 -124 Q126 -84 145.5 -52 Q165 -20 185 0 L58 0 L58 53 L136 53 L136 637 L58 637 L58 690 L274 690 L274 637 L196 637 L196 53 L274 53 L274 0 L237 0 Q219 -17 201 -44 Q183 -71 183 -109 Q183 -133 195 -145 Q207 -157 227 -157 Q244 -157 255.5 -153.5 Q267 -150 272 -147 L272 -196 Z "/>
    <glyph glyph-name="Itilde" unicode="&#x128;" horiz-adv-x="333"
           d="M274 637 L196 637 L196 53 L274 53 L274 0 L58 0 L58 53 L136 53 L136 637 L58 637 L58 690 L274 690 L274 637 Z M303 817 Q300 731 233 731 Q212 731 195.5 738 Q179 745 165 754 Q151 763 136.5 770 Q122 777 105 777 Q73 777 71 734 L35 734 Q36 778 54.5 799 Q73 820 105 820 Q126 820 142 813 Q158 806 172.5 797 Q187 788 201 781 Q215 774 232 774 Q266 774 268 817 L303 817 L303 817 Z "/>
    <glyph glyph-name="J" unicode="J" horiz-adv-x="436"
           d="M354 223 Q354 157 341 112 Q328 67 302.5 39.5 Q277 12 239 0 Q201 -12 152 -12 Q114 -12 89 -5.5 Q64 1 55 5 L67 60 Q75 55 96.5 49.5 Q118 44 149 44 Q185 44 212 53 Q239 62 257 83 Q275 104 284 138 Q293 172 293 223 L293 636 L60 636 L60 690 L354 690 L354 223 Z "/>
    <glyph glyph-name="Jcircumflex" unicode="&#x134;" horiz-adv-x="436"
           d="M354 223 Q354 157 341 112 Q328 67 302.5 39.5 Q277 12 239 0 Q201 -12 152 -12 Q114 -12 89 -5.5 Q64 1 55 5 L67 60 Q75 55 96.5 49.5 Q118 44 149 44 Q185 44 212 53 Q239 62 257 83 Q275 104 284 138 Q293 172 293 223 L293 636 L60 636 L60 690 L354 690 L354 223 Z M274 729 L207 810 L205 810 L138 729 L89 729 L171 845 L241 845 L323 729 L274 729 Z "/>
    <glyph glyph-name="K" unicode="K" horiz-adv-x="584"
           d="M280 354 L573 0 L495 0 L230 325 L147 325 L147 0 L86 0 L86 690 L147 690 L147 378 L228 378 L478 690 L551 690 L280 354 Z "/>
    <glyph glyph-name="Kcommaaccent" unicode="&#x136;" horiz-adv-x="584"
           d="M280 354 L573 0 L495 0 L230 325 L147 325 L147 0 L86 0 L86 690 L147 690 L147 378 L228 378 L478 690 L551 690 L280 354 Z M341 -92 Q341 -116 334 -133.5 Q327 -151 316 -163 Q305 -175 291 -183 Q277 -191 263 -195 L254 -173 Q271 -165 288 -148 Q305 -131 305 -98 L305 -90 L296 -90 Q282 -90 273.5 -81.5 Q265 -73 265 -59 Q265 -43 274 -34.5 Q283 -26 295 -26 Q315 -26 328 -42.5 Q341 -59 341 -92 Z "/>
    <glyph glyph-name="L" unicode="L" horiz-adv-x="495" d="M147 54 L481 54 L481 0 L86 0 L86 690 L147 690 L147 54 Z "/>
    <glyph glyph-name="Lacute" unicode="&#x139;" horiz-adv-x="495"
           d="M147 54 L481 54 L481 0 L86 0 L86 690 L147 690 L147 54 Z M253 845 L144 729 L86 729 L180 847 L253 847 L253 845 Z "/>
    <glyph glyph-name="Lcaron" unicode="&#x13d;" horiz-adv-x="492"
           d="M147 54 L481 54 L481 0 L86 0 L86 690 L147 690 L147 54 Z M398 630 Q398 606 391 588.5 Q384 571 373 559 Q362 547 348 539 Q334 531 320 527 L311 549 Q328 557 345 574 Q362 591 362 624 L362 632 L353 632 Q339 632 330.5 640.5 Q322 649 322 663 Q322 679 331 687.5 Q340 696 352 696 Q372 696 385 679.5 Q398 663 398 630 Z "/>
    <glyph glyph-name="Lcommaaccent" unicode="&#x13b;" horiz-adv-x="495"
           d="M147 54 L481 54 L481 0 L86 0 L86 690 L147 690 L147 54 Z M327 -113 Q327 -137 320 -154.5 Q313 -172 302 -184 Q291 -196 277 -204 Q263 -212 249 -216 L240 -194 Q257 -186 274 -169 Q291 -152 291 -119 L291 -111 L282 -111 Q268 -111 259.5 -102.5 Q251 -94 251 -80 Q251 -64 260 -55.5 Q269 -47 281 -47 Q301 -47 314 -63.5 Q327 -80 327 -113 Z "/>
    <glyph glyph-name="Ldot" unicode="&#x13f;" horiz-adv-x="492"
           d="M351 426 Q368 426 377.5 416 Q387 406 387 386 L387 381 Q387 361 377.5 350.5 Q368 340 351 340 Q314 340 314 381 L314 386 Q314 426 351 426 Z M147 54 L481 54 L481 0 L86 0 L86 690 L147 690 L147 54 Z "/>
    <glyph glyph-name="Lslash" unicode="&#x141;" horiz-adv-x="515"
           d="M166 338 L373 477 L373 431 L166 292 L166 54 L500 54 L500 0 L105 0 L105 252 L23 197 L23 243 L105 298 L105 690 L166 690 L166 338 Z "/>
    <glyph glyph-name="M" unicode="M" horiz-adv-x="803"
           d="M716 0 L656 0 L656 560 L654 560 L430 0 L373 0 L148 560 L147 560 L147 0 L86 0 L86 690 L157 690 L401 88 L403 88 L647 690 L716 690 L716 0 Z "/>
    <glyph glyph-name="N" unicode="N" horiz-adv-x="663"
           d="M577 0 L523 0 L148 572 L147 572 L147 0 L86 0 L86 690 L140 690 L516 118 L517 118 L517 690 L577 690 L577 0 Z "/>
    <glyph glyph-name="Nacute" unicode="&#x143;" horiz-adv-x="663"
           d="M577 0 L523 0 L148 572 L147 572 L147 0 L86 0 L86 690 L140 690 L516 118 L517 118 L517 690 L577 690 L577 0 Z M468 845 L359 729 L301 729 L395 847 L468 847 L468 845 Z "/>
    <glyph glyph-name="Ncaron" unicode="&#x147;" horiz-adv-x="663"
           d="M577 0 L523 0 L148 572 L147 572 L147 0 L86 0 L86 690 L140 690 L516 118 L517 118 L517 690 L577 690 L577 0 Z M366 732 L296 732 L214 848 L263 848 L330 767 L332 767 L399 848 L448 848 L366 732 Z "/>
    <glyph glyph-name="Ncommaaccent" unicode="&#x145;" horiz-adv-x="663"
           d="M577 0 L523 0 L148 572 L147 572 L147 0 L86 0 L86 690 L140 690 L516 118 L517 118 L517 690 L577 690 L577 0 Z M375 -92 Q375 -116 368 -133.5 Q361 -151 350 -163 Q339 -175 325 -183 Q311 -191 297 -195 L288 -173 Q305 -165 322 -148 Q339 -131 339 -98 L339 -90 L330 -90 Q316 -90 307.5 -81.5 Q299 -73 299 -59 Q299 -43 308 -34.5 Q317 -26 329 -26 Q349 -26 362 -42.5 Q375 -59 375 -92 Z "/>
    <glyph glyph-name="Ntilde" unicode="&#xd1;" horiz-adv-x="663"
           d="M577 0 L523 0 L148 572 L147 572 L147 0 L86 0 L86 690 L140 690 L516 118 L517 118 L517 690 L577 690 L577 0 Z M465 817 Q462 731 395 731 Q374 731 357.5 738 Q341 745 327 754 Q313 763 298.5 770 Q284 777 267 777 Q235 777 233 734 L197 734 Q198 778 216.5 799 Q235 820 267 820 Q288 820 304 813 Q320 806 334.5 797 Q349 788 363 781 Q377 774 394 774 Q428 774 430 817 L465 817 L465 817 Z "/>
    <glyph glyph-name="Eng" unicode="&#x14a;" horiz-adv-x="663"
           d="M577 40 Q577 -17 565.5 -55 Q554 -93 533 -115.5 Q512 -138 481 -147.5 Q450 -157 411 -157 Q388 -157 370.5 -153.5 Q353 -150 345 -148 L354 -94 Q361 -96 374.5 -99 Q388 -102 406 -102 Q460 -102 486 -77 Q512 -52 516 10 L148 572 L147 572 L147 0 L86 0 L86 690 L140 690 L515 118 L517 118 L517 690 L577 690 L577 40 Z "/>
    <glyph glyph-name="O" unicode="O" horiz-adv-x="685"
           d="M632 345 Q632 257 611.5 190.5 Q591 124 553 79 Q515 34 461.5 11 Q408 -12 342 -12 Q277 -12 223.5 11 Q170 34 132 79 Q94 124 73 190.5 Q52 257 52 345 Q52 433 73 499.5 Q94 566 132 611 Q170 656 223.5 679 Q277 702 342 702 Q408 702 461.5 679 Q515 656 553 611 Q591 566 611.5 499.5 Q632 433 632 345 Z M571 345 Q571 492 509.5 569 Q448 646 342 646 Q236 646 175 569 Q114 492 114 345 Q114 198 175 121 Q236 44 342 44 Q448 44 509.5 121 Q571 198 571 345 Z "/>
    <glyph glyph-name="Ograve" unicode="&#xd2;" horiz-adv-x="685"
           d="M632 345 Q632 257 611.5 190.5 Q591 124 553 79 Q515 34 461.5 11 Q408 -12 342 -12 Q277 -12 223.5 11 Q170 34 132 79 Q94 124 73 190.5 Q52 257 52 345 Q52 433 73 499.5 Q94 566 132 611 Q170 656 223.5 679 Q277 702 342 702 Q408 702 461.5 679 Q515 656 553 611 Q591 566 611.5 499.5 Q632 433 632 345 Z M571 345 Q571 492 509.5 569 Q448 646 342 646 Q236 646 175 569 Q114 492 114 345 Q114 198 175 121 Q236 44 342 44 Q448 44 509.5 121 Q571 198 571 345 Z M313 737 L204 853 L204 855 L277 855 L371 737 L313 737 Z "/>
    <glyph glyph-name="Oacute" unicode="&#xd3;" horiz-adv-x="685"
           d="M632 345 Q632 257 611.5 190.5 Q591 124 553 79 Q515 34 461.5 11 Q408 -12 342 -12 Q277 -12 223.5 11 Q170 34 132 79 Q94 124 73 190.5 Q52 257 52 345 Q52 433 73 499.5 Q94 566 132 611 Q170 656 223.5 679 Q277 702 342 702 Q408 702 461.5 679 Q515 656 553 611 Q591 566 611.5 499.5 Q632 433 632 345 Z M571 345 Q571 492 509.5 569 Q448 646 342 646 Q236 646 175 569 Q114 492 114 345 Q114 198 175 121 Q236 44 342 44 Q448 44 509.5 121 Q571 198 571 345 Z M479 853 L370 737 L312 737 L406 855 L479 855 L479 853 Z "/>
    <glyph glyph-name="Obreve" unicode="&#x14e;" horiz-adv-x="685"
           d="M632 345 Q632 257 611.5 190.5 Q591 124 553 79 Q515 34 461.5 11 Q408 -12 342 -12 Q277 -12 223.5 11 Q170 34 132 79 Q94 124 73 190.5 Q52 257 52 345 Q52 433 73 499.5 Q94 566 132 611 Q170 656 223.5 679 Q277 702 342 702 Q408 702 461.5 679 Q515 656 553 611 Q591 566 611.5 499.5 Q632 433 632 345 Z M571 345 Q571 492 509.5 569 Q448 646 342 646 Q236 646 175 569 Q114 492 114 345 Q114 198 175 121 Q236 44 342 44 Q448 44 509.5 121 Q571 198 571 345 Z M454 849 Q453 799 425.5 769.5 Q398 740 342 740 Q285 740 258 769.5 Q231 799 230 849 L272 849 Q272 818 289.5 800 Q307 782 342 782 Q376 782 393.5 800 Q411 818 411 849 L454 849 L454 849 Z "/>
    <glyph glyph-name="Ocircumflex" unicode="&#xd4;" horiz-adv-x="685"
           d="M632 345 Q632 257 611.5 190.5 Q591 124 553 79 Q515 34 461.5 11 Q408 -12 342 -12 Q277 -12 223.5 11 Q170 34 132 79 Q94 124 73 190.5 Q52 257 52 345 Q52 433 73 499.5 Q94 566 132 611 Q170 656 223.5 679 Q277 702 342 702 Q408 702 461.5 679 Q515 656 553 611 Q591 566 611.5 499.5 Q632 433 632 345 Z M571 345 Q571 492 509.5 569 Q448 646 342 646 Q236 646 175 569 Q114 492 114 345 Q114 198 175 121 Q236 44 342 44 Q448 44 509.5 121 Q571 198 571 345 Z M410 737 L343 818 L341 818 L274 737 L225 737 L307 853 L377 853 L459 737 L410 737 Z "/>
    <glyph glyph-name="Odieresis" unicode="&#xd6;" horiz-adv-x="687"
           d="M632 345 Q632 257 611.5 190.5 Q591 124 553 79 Q515 34 461.5 11 Q408 -12 342 -12 Q277 -12 223.5 11 Q170 34 132 79 Q94 124 73 190.5 Q52 257 52 345 Q52 433 73 499.5 Q94 566 132 611 Q170 656 223.5 679 Q277 702 342 702 Q408 702 461.5 679 Q515 656 553 611 Q591 566 611.5 499.5 Q632 433 632 345 Z M571 345 Q571 492 509.5 569 Q448 646 342 646 Q236 646 175 569 Q114 492 114 345 Q114 198 175 121 Q236 44 342 44 Q448 44 509.5 121 Q571 198 571 345 Z M271 835 Q287 835 295 825 Q303 815 303 798 L303 790 Q303 774 295 763.5 Q287 753 271 753 Q255 753 246.5 763.5 Q238 774 238 790 L238 798 Q238 815 246.5 825 Q255 835 271 835 Z M413 835 Q429 835 437 825 Q445 815 445 798 L445 790 Q445 774 437 763.5 Q429 753 413 753 Q397 753 388.5 763.5 Q380 774 380 790 L380 798 Q380 815 388.5 825 Q397 835 413 835 Z "/>
    <glyph glyph-name="OE" unicode="&#x152;" horiz-adv-x="944"
           d="M894 636 L569 636 L569 377 L864 377 L864 323 L569 323 L569 54 L903 54 L903 0 L509 0 Q488 -5 458.5 -8.5 Q429 -12 378 -12 Q307 -12 247 9.5 Q187 31 143.5 75 Q100 119 76 186 Q52 253 52 345 Q52 436 76.5 503 Q101 570 144.5 614.5 Q188 659 247.5 680.5 Q307 702 378 702 Q429 702 457.5 698.5 Q486 695 509 690 L894 690 L894 636 Z M385 43 Q433 43 461 46.5 Q489 50 509 55 L509 634 Q489 639 460.5 643 Q432 647 385 647 Q325 647 275 629 Q225 611 189.5 573.5 Q154 536 134 479 Q114 422 114 345 Q114 267 134 210 Q154 153 189.5 116 Q225 79 275 61 Q325 43 385 43 Z "/>
    <glyph glyph-name="Ohungarumlaut" unicode="&#x150;" horiz-adv-x="685"
           d="M632 345 Q632 257 611.5 190.5 Q591 124 553 79 Q515 34 461.5 11 Q408 -12 342 -12 Q277 -12 223.5 11 Q170 34 132 79 Q94 124 73 190.5 Q52 257 52 345 Q52 433 73 499.5 Q94 566 132 611 Q170 656 223.5 679 Q277 702 342 702 Q408 702 461.5 679 Q515 656 553 611 Q591 566 611.5 499.5 Q632 433 632 345 Z M571 345 Q571 492 509.5 569 Q448 646 342 646 Q236 646 175 569 Q114 492 114 345 Q114 198 175 121 Q236 44 342 44 Q448 44 509.5 121 Q571 198 571 345 Z M386 853 L305 737 L262 737 L330 855 L386 855 L386 853 Z M500 853 L420 737 L375 737 L444 855 L500 855 L500 853 Z "/>
    <glyph glyph-name="Omacron" unicode="&#x14c;" horiz-adv-x="685"
           d="M632 345 Q632 257 611.5 190.5 Q591 124 553 79 Q515 34 461.5 11 Q408 -12 342 -12 Q277 -12 223.5 11 Q170 34 132 79 Q94 124 73 190.5 Q52 257 52 345 Q52 433 73 499.5 Q94 566 132 611 Q170 656 223.5 679 Q277 702 342 702 Q408 702 461.5 679 Q515 656 553 611 Q591 566 611.5 499.5 Q632 433 632 345 Z M571 345 Q571 492 509.5 569 Q448 646 342 646 Q236 646 175 569 Q114 492 114 345 Q114 198 175 121 Q236 44 342 44 Q448 44 509.5 121 Q571 198 571 345 Z M447 763 L236 763 L236 809 L447 809 L447 763 Z "/>
    <glyph glyph-name="Oslash" unicode="&#xd8;" horiz-adv-x="685"
           d="M632 345 Q632 257 611.5 190.5 Q591 124 553 79 Q515 34 461.5 11 Q408 -12 342 -12 Q239 -12 168 44 L131 -12 L86 -12 L139 70 Q97 115 74.5 183.5 Q52 252 52 345 Q52 433 73 499.5 Q94 566 132 611 Q170 656 223.5 679 Q277 702 342 702 Q446 702 517 645 L554 702 L599 702 L545 620 Q587 575 609.5 506.5 Q632 438 632 345 Z M114 345 Q114 201 174 123 L484 595 Q425 646 342 646 Q236 646 175 569 Q114 492 114 345 Z M571 345 Q571 417 555 473 Q539 529 510 567 L201 94 Q257 44 342 44 Q448 44 509.5 121 Q571 198 571 345 Z "/>
    <glyph glyph-name="Oslashacute" unicode="&#x1fe;" horiz-adv-x="685"
           d="M632 345 Q632 257 611.5 190.5 Q591 124 553 79 Q515 34 461.5 11 Q408 -12 342 -12 Q239 -12 168 44 L131 -12 L86 -12 L139 70 Q97 115 74.5 183.5 Q52 252 52 345 Q52 433 73 499.5 Q94 566 132 611 Q170 656 223.5 679 Q277 702 342 702 Q446 702 517 645 L554 702 L599 702 L545 620 Q587 575 609.5 506.5 Q632 438 632 345 Z M114 345 Q114 201 174 123 L484 595 Q425 646 342 646 Q236 646 175 569 Q114 492 114 345 Z M571 345 Q571 417 555 473 Q539 529 510 567 L201 94 Q257 44 342 44 Q448 44 509.5 121 Q571 198 571 345 Z M479 852 L370 736 L312 736 L406 854 L479 854 L479 852 Z "/>
    <glyph glyph-name="Otilde" unicode="&#xd5;" horiz-adv-x="685"
           d="M632 345 Q632 257 611.5 190.5 Q591 124 553 79 Q515 34 461.5 11 Q408 -12 342 -12 Q277 -12 223.5 11 Q170 34 132 79 Q94 124 73 190.5 Q52 257 52 345 Q52 433 73 499.5 Q94 566 132 611 Q170 656 223.5 679 Q277 702 342 702 Q408 702 461.5 679 Q515 656 553 611 Q591 566 611.5 499.5 Q632 433 632 345 Z M571 345 Q571 492 509.5 569 Q448 646 342 646 Q236 646 175 569 Q114 492 114 345 Q114 198 175 121 Q236 44 342 44 Q448 44 509.5 121 Q571 198 571 345 Z M476 825 Q473 739 406 739 Q385 739 368.5 746 Q352 753 338 762 Q324 771 309.5 778 Q295 785 278 785 Q246 785 244 742 L208 742 Q209 786 227.5 807 Q246 828 278 828 Q299 828 315 821 Q331 814 345.5 805 Q360 796 374 789 Q388 782 405 782 Q439 782 441 825 L476 825 L476 825 Z "/>
    <glyph glyph-name="P" unicode="P" horiz-adv-x="550"
           d="M515 480 Q515 374 447 316.5 Q379 259 242 259 L147 259 L147 0 L86 0 L86 690 L243 690 Q384 690 449.5 637 Q515 584 515 480 Z M454 478 Q454 553 403 594.5 Q352 636 243 636 L147 636 L147 313 L243 313 Q351 313 402.5 358 Q454 403 454 478 Z "/>
    <glyph glyph-name="Thorn" unicode="&#xde;" horiz-adv-x="555"
           d="M515 380 Q515 275 447 217 Q379 159 242 159 L147 159 L147 0 L86 0 L86 690 L147 690 L147 591 L243 591 Q384 591 449.5 537.5 Q515 484 515 380 Z M454 378 Q454 453 403 494.5 Q352 536 243 536 L147 536 L147 214 L243 214 Q352 214 403 258.5 Q454 303 454 378 Z "/>
    <glyph glyph-name="Q" unicode="Q" horiz-adv-x="687"
           d="M581 -133 L471 16 Q412 -12 342 -12 Q277 -12 223.5 11 Q170 34 132 79.5 Q94 125 73 191.5 Q52 258 52 345 Q52 432 73 498.5 Q94 565 132 610.5 Q170 656 223.5 679 Q277 702 342 702 Q407 702 460.5 679 Q514 656 552 610.5 Q590 565 611 498.5 Q632 432 632 345 Q632 240 602.5 166 Q573 92 520 48 L628 -97 L581 -133 Z M571 345 Q571 418 555 474 Q539 530 509 568 Q479 606 436.5 626 Q394 646 342 646 Q290 646 248 626 Q206 606 176 568 Q146 530 130 474 Q114 418 114 345 Q114 272 130 216 Q146 160 176 121.5 Q206 83 248 63.5 Q290 44 342 44 Q447 44 509 121.5 Q571 199 571 345 Z "/>
    <glyph glyph-name="R" unicode="R" horiz-adv-x="585"
           d="M472 0 L304 280 Q275 277 245 277 L147 277 L147 0 L86 0 L86 690 L245 690 Q384 690 449.5 641 Q515 592 515 492 Q515 420 478 368 Q441 316 366 293 L543 0 L472 0 Z M453 489 Q453 562 403 599 Q353 636 246 636 L147 636 L147 332 L246 332 Q353 332 403 375.5 Q453 419 453 489 Z "/>
    <glyph glyph-name="Racute" unicode="&#x154;" horiz-adv-x="585"
           d="M472 0 L304 280 Q275 277 245 277 L147 277 L147 0 L86 0 L86 690 L245 690 Q384 690 449.5 641 Q515 592 515 492 Q515 420 478 368 Q441 316 366 293 L543 0 L472 0 Z M453 489 Q453 562 403 599 Q353 636 246 636 L147 636 L147 332 L246 332 Q353 332 403 375.5 Q453 419 453 489 Z M410 845 L301 729 L243 729 L337 847 L410 847 L410 845 Z "/>
    <glyph glyph-name="Rcaron" unicode="&#x158;" horiz-adv-x="585"
           d="M472 0 L304 280 Q275 277 245 277 L147 277 L147 0 L86 0 L86 690 L245 690 Q384 690 449.5 641 Q515 592 515 492 Q515 420 478 368 Q441 316 366 293 L543 0 L472 0 Z M453 489 Q453 562 403 599 Q353 636 246 636 L147 636 L147 332 L246 332 Q353 332 403 375.5 Q453 419 453 489 Z M307 732 L237 732 L155 848 L204 848 L271 767 L273 767 L340 848 L389 848 L307 732 Z "/>
    <glyph glyph-name="Rcommaaccent" unicode="&#x156;" horiz-adv-x="585"
           d="M472 0 L304 280 Q275 277 245 277 L147 277 L147 0 L86 0 L86 690 L245 690 Q384 690 449.5 641 Q515 592 515 492 Q515 420 478 368 Q441 316 366 293 L543 0 L472 0 Z M453 489 Q453 562 403 599 Q353 636 246 636 L147 636 L147 332 L246 332 Q353 332 403 375.5 Q453 419 453 489 Z M337 -92 Q337 -116 330 -133.5 Q323 -151 312 -163 Q301 -175 287 -183 Q273 -191 259 -195 L250 -173 Q267 -165 284 -148 Q301 -131 301 -98 L301 -90 L292 -90 Q278 -90 269.5 -81.5 Q261 -73 261 -59 Q261 -43 270 -34.5 Q279 -26 291 -26 Q311 -26 324 -42.5 Q337 -59 337 -92 Z "/>
    <glyph glyph-name="S" unicode="S" horiz-adv-x="526"
           d="M420 595 Q412 602 399 611 Q386 620 368 627.5 Q350 635 326.5 640.5 Q303 646 274 646 Q240 646 211.5 638.5 Q183 631 162 616 Q141 601 129.5 579 Q118 557 118 529 Q118 499 130 477.5 Q142 456 164 439.5 Q186 423 216.5 409.5 Q247 396 284 381 Q332 362 367.5 342.5 Q403 323 426.5 299.5 Q450 276 461.5 246 Q473 216 473 177 Q473 136 458.5 101 Q444 66 415 41 Q386 16 343 2 Q300 -12 243 -12 Q204 -12 172.5 -5 Q141 2 117 12.5 Q93 23 76.5 34.5 Q60 46 50 55 L77 108 Q86 99 101 88 Q116 77 136.5 67 Q157 57 183.5 50.5 Q210 44 243 44 Q327 44 370 79 Q413 114 413 171 Q413 201 402.5 223.5 Q392 246 372 264 Q352 282 322.5 297 Q293 312 254 327 Q212 344 176 362 Q140 380 113.5 403.5 Q87 427 72.5 457 Q58 487 58 528 Q58 609 116.5 655.5 Q175 702 275 702 Q312 702 340 696 Q368 690 389 681 Q410 672 424 662 Q438 652 446 645 L420 595 Z "/>
    <glyph glyph-name="Sacute" unicode="&#x15a;" horiz-adv-x="526"
           d="M420 595 Q412 602 399 611 Q386 620 368 627.5 Q350 635 326.5 640.5 Q303 646 274 646 Q240 646 211.5 638.5 Q183 631 162 616 Q141 601 129.5 579 Q118 557 118 529 Q118 499 130 477.5 Q142 456 164 439.5 Q186 423 216.5 409.5 Q247 396 284 381 Q332 362 367.5 342.5 Q403 323 426.5 299.5 Q450 276 461.5 246 Q473 216 473 177 Q473 136 458.5 101 Q444 66 415 41 Q386 16 343 2 Q300 -12 243 -12 Q204 -12 172.5 -5 Q141 2 117 12.5 Q93 23 76.5 34.5 Q60 46 50 55 L77 108 Q86 99 101 88 Q116 77 136.5 67 Q157 57 183.5 50.5 Q210 44 243 44 Q327 44 370 79 Q413 114 413 171 Q413 201 402.5 223.5 Q392 246 372 264 Q352 282 322.5 297 Q293 312 254 327 Q212 344 176 362 Q140 380 113.5 403.5 Q87 427 72.5 457 Q58 487 58 528 Q58 609 116.5 655.5 Q175 702 275 702 Q312 702 340 696 Q368 690 389 681 Q410 672 424 662 Q438 652 446 645 L420 595 Z M402 853 L293 737 L235 737 L329 855 L402 855 L402 853 Z "/>
    <glyph glyph-name="Scaron" unicode="&#x160;" horiz-adv-x="526"
           d="M420 595 Q412 602 399 611 Q386 620 368 627.5 Q350 635 326.5 640.5 Q303 646 274 646 Q240 646 211.5 638.5 Q183 631 162 616 Q141 601 129.5 579 Q118 557 118 529 Q118 499 130 477.5 Q142 456 164 439.5 Q186 423 216.5 409.5 Q247 396 284 381 Q332 362 367.5 342.5 Q403 323 426.5 299.5 Q450 276 461.5 246 Q473 216 473 177 Q473 136 458.5 101 Q444 66 415 41 Q386 16 343 2 Q300 -12 243 -12 Q204 -12 172.5 -5 Q141 2 117 12.5 Q93 23 76.5 34.5 Q60 46 50 55 L77 108 Q86 99 101 88 Q116 77 136.5 67 Q157 57 183.5 50.5 Q210 44 243 44 Q327 44 370 79 Q413 114 413 171 Q413 201 402.5 223.5 Q392 246 372 264 Q352 282 322.5 297 Q293 312 254 327 Q212 344 176 362 Q140 380 113.5 403.5 Q87 427 72.5 457 Q58 487 58 528 Q58 609 116.5 655.5 Q175 702 275 702 Q312 702 340 696 Q368 690 389 681 Q410 672 424 662 Q438 652 446 645 L420 595 Z M300 740 L230 740 L148 856 L197 856 L264 775 L266 775 L333 856 L382 856 L300 740 Z "/>
    <glyph glyph-name="Scedilla" unicode="&#x15e;" horiz-adv-x="526"
           d="M337 -129 Q337 -166 310.5 -186 Q284 -206 236 -206 Q212 -206 197.5 -202 Q183 -198 172 -193 L172 -159 Q182 -164 195 -167 Q208 -170 227 -170 Q257 -170 272 -159 Q287 -148 287 -128 Q287 -81 203 -81 L200 -78 L234 -12 Q197 -11 167 -3.5 Q137 4 114 14 Q91 24 75 35 Q59 46 50 55 L77 108 Q86 99 101 88 Q116 77 136.5 67 Q157 57 183.5 50.5 Q210 44 243 44 Q327 44 370 79 Q413 114 413 171 Q413 201 402.5 223.5 Q392 246 372 264 Q352 282 322.5 297 Q293 312 254 327 Q212 344 176 362 Q140 380 113.5 403.5 Q87 427 72.5 457 Q58 487 58 528 Q58 609 116.5 655.5 Q175 702 275 702 Q312 702 340 696 Q368 690 389 681 Q410 672 424 662 Q438 652 446 645 L420 595 Q412 602 399 611 Q386 620 368 627.5 Q350 635 326.5 640.5 Q303 646 274 646 Q240 646 211.5 638.5 Q183 631 162 616 Q141 601 129.5 579 Q118 557 118 529 Q118 499 130 477.5 Q142 456 164 439.5 Q186 423 216.5 409.5 Q247 396 284 381 Q332 362 367.5 342.5 Q403 323 426.5 299.5 Q450 276 461.5 246 Q473 216 473 177 Q473 100 423.5 49 Q374 -2 275 -10 L252 -58 Q295 -60 316 -79.5 Q337 -99 337 -129 Z "/>
    <glyph glyph-name="Scircumflex" unicode="&#x15c;" horiz-adv-x="526"
           d="M420 595 Q412 602 399 611 Q386 620 368 627.5 Q350 635 326.5 640.5 Q303 646 274 646 Q240 646 211.5 638.5 Q183 631 162 616 Q141 601 129.5 579 Q118 557 118 529 Q118 499 130 477.5 Q142 456 164 439.5 Q186 423 216.5 409.5 Q247 396 284 381 Q332 362 367.5 342.5 Q403 323 426.5 299.5 Q450 276 461.5 246 Q473 216 473 177 Q473 136 458.5 101 Q444 66 415 41 Q386 16 343 2 Q300 -12 243 -12 Q204 -12 172.5 -5 Q141 2 117 12.5 Q93 23 76.5 34.5 Q60 46 50 55 L77 108 Q86 99 101 88 Q116 77 136.5 67 Q157 57 183.5 50.5 Q210 44 243 44 Q327 44 370 79 Q413 114 413 171 Q413 201 402.5 223.5 Q392 246 372 264 Q352 282 322.5 297 Q293 312 254 327 Q212 344 176 362 Q140 380 113.5 403.5 Q87 427 72.5 457 Q58 487 58 528 Q58 609 116.5 655.5 Q175 702 275 702 Q312 702 340 696 Q368 690 389 681 Q410 672 424 662 Q438 652 446 645 L420 595 Z M333 737 L266 818 L264 818 L197 737 L148 737 L230 853 L300 853 L382 737 L333 737 Z "/>
    <glyph glyph-name="Scommaaccent" unicode="&#x218;" horiz-adv-x="526"
           d="M420 595 Q412 602 399 611 Q386 620 368 627.5 Q350 635 326.5 640.5 Q303 646 274 646 Q240 646 211.5 638.5 Q183 631 162 616 Q141 601 129.5 579 Q118 557 118 529 Q118 499 130 477.5 Q142 456 164 439.5 Q186 423 216.5 409.5 Q247 396 284 381 Q332 362 367.5 342.5 Q403 323 426.5 299.5 Q450 276 461.5 246 Q473 216 473 177 Q473 136 458.5 101 Q444 66 415 41 Q386 16 343 2 Q300 -12 243 -12 Q204 -12 172.5 -5 Q141 2 117 12.5 Q93 23 76.5 34.5 Q60 46 50 55 L77 108 Q86 99 101 88 Q116 77 136.5 67 Q157 57 183.5 50.5 Q210 44 243 44 Q327 44 370 79 Q413 114 413 171 Q413 201 402.5 223.5 Q392 246 372 264 Q352 282 322.5 297 Q293 312 254 327 Q212 344 176 362 Q140 380 113.5 403.5 Q87 427 72.5 457 Q58 487 58 528 Q58 609 116.5 655.5 Q175 702 275 702 Q312 702 340 696 Q368 690 389 681 Q410 672 424 662 Q438 652 446 645 L420 595 Z M306 -113 Q306 -137 299 -154.5 Q292 -172 281 -184 Q270 -196 256 -204 Q242 -212 228 -216 L219 -194 Q236 -186 253 -169 Q270 -152 270 -119 L270 -111 L261 -111 Q247 -111 238.5 -102.5 Q230 -94 230 -80 Q230 -64 239 -55.5 Q248 -47 260 -47 Q280 -47 293 -63.5 Q306 -80 306 -113 Z "/>
    <glyph glyph-name="T" unicode="T" horiz-adv-x="556"
           d="M544 636 L308 636 L308 0 L248 0 L248 636 L12 636 L12 690 L544 690 L544 636 Z "/>
    <glyph glyph-name="Tbar" unicode="&#x166;" horiz-adv-x="556"
           d="M544 636 L308 636 L308 362 L450 362 L450 323 L308 323 L308 0 L248 0 L248 323 L107 323 L107 362 L248 362 L248 636 L12 636 L12 690 L544 690 L544 636 Z "/>
    <glyph glyph-name="Tcaron" unicode="&#x164;" horiz-adv-x="556"
           d="M544 636 L308 636 L308 0 L248 0 L248 636 L12 636 L12 690 L544 690 L544 636 Z M313 732 L243 732 L161 848 L210 848 L277 767 L279 767 L346 848 L395 848 L313 732 Z "/>
    <glyph glyph-name="Tcommaaccent" unicode="&#x162;" horiz-adv-x="556"
           d="M351 -129 Q351 -166 324.5 -186 Q298 -206 250 -206 Q226 -206 211.5 -202 Q197 -198 186 -193 L186 -159 Q196 -164 209 -167 Q222 -170 241 -170 Q271 -170 286 -159 Q301 -148 301 -128 Q301 -81 217 -81 L214 -78 L254 0 L248 0 L248 636 L12 636 L12 690 L544 690 L544 636 L308 636 L308 0 L294 0 L266 -58 Q309 -60 330 -79.5 Q351 -99 351 -129 Z "/>
    <glyph glyph-name="uni021A" unicode="&#x21a;" horiz-adv-x="556"
           d="M544 636 L308 636 L308 0 L248 0 L248 636 L12 636 L12 690 L544 690 L544 636 Z M322 -113 Q322 -137 315 -154.5 Q308 -172 297 -184 Q286 -196 272 -204 Q258 -212 244 -216 L235 -194 Q252 -186 269 -169 Q286 -152 286 -119 L286 -111 L277 -111 Q263 -111 254.5 -102.5 Q246 -94 246 -80 Q246 -64 255 -55.5 Q264 -47 276 -47 Q296 -47 309 -63.5 Q322 -80 322 -113 Z "/>
    <glyph glyph-name="U" unicode="U" horiz-adv-x="661"
           d="M581 283 Q581 129 519 58.5 Q457 -12 331 -12 Q206 -12 143.5 57 Q81 126 81 283 L81 690 L141 690 L141 285 Q141 155 189.5 99.5 Q238 44 331 44 Q425 44 473 99 Q521 154 521 285 L521 690 L581 690 L581 283 Z "/>
    <glyph glyph-name="Uacute" unicode="&#xda;" horiz-adv-x="661"
           d="M581 283 Q581 129 519 58.5 Q457 -12 331 -12 Q206 -12 143.5 57 Q81 126 81 283 L81 690 L141 690 L141 285 Q141 155 189.5 99.5 Q238 44 331 44 Q425 44 473 99 Q521 154 521 285 L521 690 L581 690 L581 283 Z M468 845 L359 729 L301 729 L395 847 L468 847 L468 845 Z "/>
    <glyph glyph-name="Ubreve" unicode="&#x16c;" horiz-adv-x="661"
           d="M581 283 Q581 129 519 58.5 Q457 -12 331 -12 Q206 -12 143.5 57 Q81 126 81 283 L81 690 L141 690 L141 285 Q141 155 189.5 99.5 Q238 44 331 44 Q425 44 473 99 Q521 154 521 285 L521 690 L581 690 L581 283 Z M443 841 Q442 791 414.5 761.5 Q387 732 331 732 Q274 732 247 761.5 Q220 791 219 841 L261 841 Q261 810 278.5 792 Q296 774 331 774 Q365 774 382.5 792 Q400 810 400 841 L443 841 L443 841 Z "/>
    <glyph glyph-name="Ucircumflex" unicode="&#xdb;" horiz-adv-x="661"
           d="M581 283 Q581 129 519 58.5 Q457 -12 331 -12 Q206 -12 143.5 57 Q81 126 81 283 L81 690 L141 690 L141 285 Q141 155 189.5 99.5 Q238 44 331 44 Q425 44 473 99 Q521 154 521 285 L521 690 L581 690 L581 283 Z M399 729 L332 810 L330 810 L263 729 L214 729 L296 845 L366 845 L448 729 L399 729 Z "/>
    <glyph glyph-name="Udieresis" unicode="&#xdc;" horiz-adv-x="661"
           d="M581 283 Q581 129 519 58.5 Q457 -12 331 -12 Q206 -12 143.5 57 Q81 126 81 283 L81 690 L141 690 L141 285 Q141 155 189.5 99.5 Q238 44 331 44 Q425 44 473 99 Q521 154 521 285 L521 690 L581 690 L581 283 Z M260 827 Q276 827 284 817 Q292 807 292 790 L292 782 Q292 766 284 755.5 Q276 745 260 745 Q244 745 235.5 755.5 Q227 766 227 782 L227 790 Q227 807 235.5 817 Q244 827 260 827 Z M402 827 Q418 827 426 817 Q434 807 434 790 L434 782 Q434 766 426 755.5 Q418 745 402 745 Q386 745 377.5 755.5 Q369 766 369 782 L369 790 Q369 807 377.5 817 Q386 827 402 827 Z "/>
    <glyph glyph-name="Ugrave" unicode="&#xd9;" horiz-adv-x="661"
           d="M581 283 Q581 129 519 58.5 Q457 -12 331 -12 Q206 -12 143.5 57 Q81 126 81 283 L81 690 L141 690 L141 285 Q141 155 189.5 99.5 Q238 44 331 44 Q425 44 473 99 Q521 154 521 285 L521 690 L581 690 L581 283 Z M302 729 L193 845 L193 847 L266 847 L360 729 L302 729 Z "/>
    <glyph glyph-name="Uhungarumlaut" unicode="&#x170;" horiz-adv-x="661"
           d="M581 283 Q581 129 519 58.5 Q457 -12 331 -12 Q206 -12 143.5 57 Q81 126 81 283 L81 690 L141 690 L141 285 Q141 155 189.5 99.5 Q238 44 331 44 Q425 44 473 99 Q521 154 521 285 L521 690 L581 690 L581 283 Z M375 845 L294 729 L251 729 L319 847 L375 847 L375 845 Z M489 845 L409 729 L364 729 L433 847 L489 847 L489 845 Z "/>
    <glyph glyph-name="Umacron" unicode="&#x16a;" horiz-adv-x="661"
           d="M581 283 Q581 129 519 58.5 Q457 -12 331 -12 Q206 -12 143.5 57 Q81 126 81 283 L81 690 L141 690 L141 285 Q141 155 189.5 99.5 Q238 44 331 44 Q425 44 473 99 Q521 154 521 285 L521 690 L581 690 L581 283 Z M436 755 L225 755 L225 801 L436 801 L436 755 Z "/>
    <glyph glyph-name="Uogonek" unicode="&#x172;" horiz-adv-x="661"
           d="M435 -196 Q429 -200 415 -204.5 Q401 -209 376 -209 Q334 -209 311.5 -187.5 Q289 -166 289 -124 Q289 -89 303.5 -60.5 Q318 -32 337 -12 L331 -12 Q206 -12 143.5 57 Q81 126 81 283 L81 690 L141 690 L141 285 Q141 155 189.5 99.5 Q238 44 331 44 Q425 44 473 99 Q521 154 521 285 L521 690 L581 690 L581 283 Q581 149 534.5 78.5 Q488 8 392 -7 Q375 -24 360.5 -49.5 Q346 -75 346 -109 Q346 -133 358 -145 Q370 -157 390 -157 Q407 -157 418.5 -153.5 Q430 -150 435 -147 L435 -196 Z "/>
    <glyph glyph-name="Uring" unicode="&#x16e;" horiz-adv-x="661"
           d="M581 283 Q581 129 519 58.5 Q457 -12 331 -12 Q206 -12 143.5 57 Q81 126 81 283 L81 690 L141 690 L141 285 Q141 155 189.5 99.5 Q238 44 331 44 Q425 44 473 99 Q521 154 521 285 L521 690 L581 690 L581 283 Z M410 803 Q410 768 387.5 748 Q365 728 331 728 Q296 728 273.5 748 Q251 768 251 803 Q251 837 273.5 857 Q296 877 331 877 Q365 877 387.5 857 Q410 837 410 803 Z M374 803 Q374 823 362 833 Q350 843 331 843 Q312 843 299.5 833 Q287 823 287 803 Q287 783 299.5 772.5 Q312 762 331 762 Q350 762 362 772.5 Q374 783 374 803 Z "/>
    <glyph glyph-name="Utilde" unicode="&#x168;" horiz-adv-x="661"
           d="M581 283 Q581 129 519 58.5 Q457 -12 331 -12 Q206 -12 143.5 57 Q81 126 81 283 L81 690 L141 690 L141 285 Q141 155 189.5 99.5 Q238 44 331 44 Q425 44 473 99 Q521 154 521 285 L521 690 L581 690 L581 283 Z M465 817 Q462 731 395 731 Q374 731 357.5 738 Q341 745 327 754 Q313 763 298.5 770 Q284 777 267 777 Q235 777 233 734 L197 734 Q198 778 216.5 799 Q235 820 267 820 Q288 820 304 813 Q320 806 334.5 797 Q349 788 363 781 Q377 774 394 774 Q428 774 430 817 L465 817 L465 817 Z "/>
    <glyph glyph-name="V" unicode="V" horiz-adv-x="605"
           d="M332 0 L270 0 L31 690 L96 690 L302 76 L303 76 L512 690 L574 690 L332 0 Z "/>
    <glyph glyph-name="W" unicode="W" horiz-adv-x="844"
           d="M669 0 L604 0 L423 596 L421 596 L240 0 L176 0 L44 690 L106 690 L212 103 L214 103 L388 690 L456 690 L630 103 L632 103 L738 690 L800 690 L669 0 Z "/>
    <glyph glyph-name="Wacute" unicode="&#x1e82;" horiz-adv-x="844"
           d="M669 0 L604 0 L423 596 L421 596 L240 0 L176 0 L44 690 L106 690 L212 103 L214 103 L388 690 L456 690 L630 103 L632 103 L738 690 L800 690 L669 0 Z M559 845 L450 729 L392 729 L486 847 L559 847 L559 845 Z "/>
    <glyph glyph-name="Wcircumflex" unicode="&#x174;" horiz-adv-x="844"
           d="M669 0 L604 0 L423 596 L421 596 L240 0 L176 0 L44 690 L106 690 L212 103 L214 103 L388 690 L456 690 L630 103 L632 103 L738 690 L800 690 L669 0 Z M489 729 L422 810 L420 810 L353 729 L304 729 L386 845 L456 845 L538 729 L489 729 Z "/>
    <glyph glyph-name="Wdieresis" unicode="&#x1e84;" horiz-adv-x="844"
           d="M669 0 L604 0 L423 596 L421 596 L240 0 L176 0 L44 690 L106 690 L212 103 L214 103 L388 690 L456 690 L630 103 L632 103 L738 690 L800 690 L669 0 Z M351 827 Q367 827 375 817 Q383 807 383 790 L383 782 Q383 766 375 755.5 Q367 745 351 745 Q335 745 326.5 755.5 Q318 766 318 782 L318 790 Q318 807 326.5 817 Q335 827 351 827 Z M493 827 Q509 827 517 817 Q525 807 525 790 L525 782 Q525 766 517 755.5 Q509 745 493 745 Q477 745 468.5 755.5 Q460 766 460 782 L460 790 Q460 807 468.5 817 Q477 827 493 827 Z "/>
    <glyph glyph-name="Wgrave" unicode="&#x1e80;" horiz-adv-x="844"
           d="M669 0 L604 0 L423 596 L421 596 L240 0 L176 0 L44 690 L106 690 L212 103 L214 103 L388 690 L456 690 L630 103 L632 103 L738 690 L800 690 L669 0 Z M393 729 L284 845 L284 847 L357 847 L451 729 L393 729 Z "/>
    <glyph glyph-name="X" unicode="X" horiz-adv-x="559"
           d="M313 356 L539 0 L468 0 L279 300 L90 0 L21 0 L246 354 L34 690 L105 690 L280 410 L457 690 L526 690 L313 356 Z "/>
    <glyph glyph-name="uni1E8A" unicode="&#x1e8a;" horiz-adv-x="559"
           d="M313 356 L539 0 L468 0 L279 300 L90 0 L21 0 L246 354 L34 690 L105 690 L280 410 L457 690 L526 690 L313 356 Z M280 832 Q316 832 316 791 L316 786 Q316 745 280 745 Q243 745 243 786 L243 791 Q243 832 280 832 Z "/>
    <glyph glyph-name="Y" unicode="Y" horiz-adv-x="545"
           d="M302 262 L302 0 L242 0 L242 262 L18 690 L86 690 L273 323 L274 323 L461 690 L527 690 L302 262 Z "/>
    <glyph glyph-name="Yacute" unicode="&#xdd;" horiz-adv-x="545"
           d="M302 262 L302 0 L242 0 L242 262 L18 690 L86 690 L273 323 L274 323 L461 690 L527 690 L302 262 Z M410 845 L301 729 L243 729 L337 847 L410 847 L410 845 Z "/>
    <glyph glyph-name="Ycircumflex" unicode="&#x176;" horiz-adv-x="545"
           d="M302 262 L302 0 L242 0 L242 262 L18 690 L86 690 L273 323 L274 323 L461 690 L527 690 L302 262 Z M340 729 L273 810 L271 810 L204 729 L155 729 L237 845 L307 845 L389 729 L340 729 Z "/>
    <glyph glyph-name="Ydieresis" unicode="&#x178;" horiz-adv-x="545"
           d="M302 262 L302 0 L242 0 L242 262 L18 690 L86 690 L273 323 L274 323 L461 690 L527 690 L302 262 Z M202 827 Q218 827 226 817 Q234 807 234 790 L234 782 Q234 766 226 755.5 Q218 745 202 745 Q186 745 177.5 755.5 Q169 766 169 782 L169 790 Q169 807 177.5 817 Q186 827 202 827 Z M344 827 Q360 827 368 817 Q376 807 376 790 L376 782 Q376 766 368 755.5 Q360 745 344 745 Q328 745 319.5 755.5 Q311 766 311 782 L311 790 Q311 807 319.5 817 Q328 827 344 827 Z "/>
    <glyph glyph-name="Ygrave" unicode="&#x1ef2;" horiz-adv-x="545"
           d="M302 262 L302 0 L242 0 L242 262 L18 690 L86 690 L273 323 L274 323 L461 690 L527 690 L302 262 Z M244 729 L135 845 L135 847 L208 847 L302 729 L244 729 Z "/>
    <glyph glyph-name="Z" unicode="Z" horiz-adv-x="577"
           d="M523 641 L135 56 L135 54 L538 54 L538 0 L57 0 L57 49 L447 634 L447 636 L68 636 L68 690 L523 690 L523 641 Z "/>
    <glyph glyph-name="Zacute" unicode="&#x179;" horiz-adv-x="577"
           d="M523 641 L135 56 L135 54 L538 54 L538 0 L57 0 L57 49 L447 634 L447 636 L68 636 L68 690 L523 690 L523 641 Z M432 845 L323 729 L265 729 L359 847 L432 847 L432 845 Z "/>
    <glyph glyph-name="Zcaron" unicode="&#x17d;" horiz-adv-x="577"
           d="M523 641 L135 56 L135 54 L538 54 L538 0 L57 0 L57 49 L447 634 L447 636 L68 636 L68 690 L523 690 L523 641 Z M330 732 L260 732 L178 848 L227 848 L294 767 L296 767 L363 848 L412 848 L330 732 Z "/>
    <glyph glyph-name="Zdotaccent" unicode="&#x17b;" horiz-adv-x="577"
           d="M523 641 L135 56 L135 54 L538 54 L538 0 L57 0 L57 49 L447 634 L447 636 L68 636 L68 690 L523 690 L523 641 Z M295 832 Q331 832 331 791 L331 786 Q331 745 295 745 Q258 745 258 786 L258 791 Q258 832 295 832 Z "/>
    <glyph glyph-name="uni01B5" unicode="&#x1b5;" horiz-adv-x="577"
           d="M476 330 L316 330 L135 56 L135 54 L538 54 L538 0 L57 0 L57 49 L244 330 L112 330 L112 369 L270 369 L447 634 L447 636 L68 636 L68 690 L523 690 L523 641 L342 369 L476 369 L476 330 Z "/>
    <glyph glyph-name="a" unicode="a" horiz-adv-x="528"
           d="M496 0 Q494 -1 484.5 -4 Q475 -7 457 -7 Q426 -7 405 5.5 Q384 18 376 47 Q368 38 356 27.5 Q344 17 327.5 8.5 Q311 0 288.5 -6 Q266 -12 237 -12 Q195 -12 160.5 3 Q126 18 101 48.5 Q76 79 62.5 126.5 Q49 174 49 239 Q49 308 67.5 357 Q86 406 118.5 437 Q151 468 194 482.5 Q237 497 285 497 Q340 497 375 486 Q410 475 431 464 L431 103 Q431 69 441.5 57.5 Q452 46 475 46 Q485 46 490 47.5 Q495 49 496 49 L496 0 Z M250 43 Q300 43 327.5 62 Q355 81 370 101 L370 423 Q353 431 332 436.5 Q311 442 280 442 Q245 442 214 431 Q183 420 160 396 Q137 372 124 333.5 Q111 295 111 240 Q111 187 121 149.5 Q131 112 149 88.5 Q167 65 192.5 54 Q218 43 250 43 Z "/>
    <glyph glyph-name="aacute" unicode="&#xe1;" horiz-adv-x="528"
           d="M396 681 L291 546 L235 546 L324 683 L396 683 L396 681 Z M496 0 Q494 -1 484.5 -4 Q475 -7 457 -7 Q426 -7 405 5.5 Q384 18 376 47 Q368 38 356 27.5 Q344 17 327.5 8.5 Q311 0 288.5 -6 Q266 -12 237 -12 Q195 -12 160.5 3 Q126 18 101 48.5 Q76 79 62.5 126.5 Q49 174 49 239 Q49 308 67.5 357 Q86 406 118.5 437 Q151 468 194 482.5 Q237 497 285 497 Q340 497 375 486 Q410 475 431 464 L431 103 Q431 69 441.5 57.5 Q452 46 475 46 Q485 46 490 47.5 Q495 49 496 49 L496 0 Z M250 43 Q300 43 327.5 62 Q355 81 370 101 L370 423 Q353 431 332 436.5 Q311 442 280 442 Q245 442 214 431 Q183 420 160 396 Q137 372 124 333.5 Q111 295 111 240 Q111 187 121 149.5 Q131 112 149 88.5 Q167 65 192.5 54 Q218 43 250 43 Z "/>
    <glyph glyph-name="abreve" unicode="&#x103;" horiz-adv-x="528"
           d="M376 663 Q375 609 346.5 577.5 Q318 546 264 546 Q209 546 181 577.5 Q153 609 152 663 L193 663 Q194 627 212.5 609 Q231 591 264 591 Q296 591 314.5 609 Q333 627 334 663 L376 663 L376 663 Z M496 0 Q494 -1 484.5 -4 Q475 -7 457 -7 Q426 -7 405 5.5 Q384 18 376 47 Q368 38 356 27.5 Q344 17 327.5 8.5 Q311 0 288.5 -6 Q266 -12 237 -12 Q195 -12 160.5 3 Q126 18 101 48.5 Q76 79 62.5 126.5 Q49 174 49 239 Q49 308 67.5 357 Q86 406 118.5 437 Q151 468 194 482.5 Q237 497 285 497 Q340 497 375 486 Q410 475 431 464 L431 103 Q431 69 441.5 57.5 Q452 46 475 46 Q485 46 490 47.5 Q495 49 496 49 L496 0 Z M250 43 Q300 43 327.5 62 Q355 81 370 101 L370 423 Q353 431 332 436.5 Q311 442 280 442 Q245 442 214 431 Q183 420 160 396 Q137 372 124 333.5 Q111 295 111 240 Q111 187 121 149.5 Q131 112 149 88.5 Q167 65 192.5 54 Q218 43 250 43 Z "/>
    <glyph glyph-name="acircumflex" unicode="&#xe2;" horiz-adv-x="528"
           d="M496 0 Q494 -1 484.5 -4 Q475 -7 457 -7 Q426 -7 405 5.5 Q384 18 376 47 Q368 38 356 27.5 Q344 17 327.5 8.5 Q311 0 288.5 -6 Q266 -12 237 -12 Q195 -12 160.5 3 Q126 18 101 48.5 Q76 79 62.5 126.5 Q49 174 49 239 Q49 308 67.5 357 Q86 406 118.5 437 Q151 468 194 482.5 Q237 497 285 497 Q340 497 375 486 Q410 475 431 464 L431 103 Q431 69 441.5 57.5 Q452 46 475 46 Q485 46 490 47.5 Q495 49 496 49 L496 0 Z M250 43 Q300 43 327.5 62 Q355 81 370 101 L370 423 Q353 431 332 436.5 Q311 442 280 442 Q245 442 214 431 Q183 420 160 396 Q137 372 124 333.5 Q111 295 111 240 Q111 187 121 149.5 Q131 112 149 88.5 Q167 65 192.5 54 Q218 43 250 43 Z M336 545 L265 645 L263 645 L192 545 L146 545 L230 686 L299 686 L382 545 L336 545 Z "/>
    <glyph glyph-name="adieresis" unicode="&#xe4;" horiz-adv-x="528"
           d="M496 0 Q494 -1 484.5 -4 Q475 -7 457 -7 Q426 -7 405 5.5 Q384 18 376 47 Q368 38 356 27.5 Q344 17 327.5 8.5 Q311 0 288.5 -6 Q266 -12 237 -12 Q195 -12 160.5 3 Q126 18 101 48.5 Q76 79 62.5 126.5 Q49 174 49 239 Q49 308 67.5 357 Q86 406 118.5 437 Q151 468 194 482.5 Q237 497 285 497 Q340 497 375 486 Q410 475 431 464 L431 103 Q431 69 441.5 57.5 Q452 46 475 46 Q485 46 490 47.5 Q495 49 496 49 L496 0 Z M250 43 Q300 43 327.5 62 Q355 81 370 101 L370 423 Q353 431 332 436.5 Q311 442 280 442 Q245 442 214 431 Q183 420 160 396 Q137 372 124 333.5 Q111 295 111 240 Q111 187 121 149.5 Q131 112 149 88.5 Q167 65 192.5 54 Q218 43 250 43 Z M195 655 Q227 655 227 618 L227 610 Q227 593 219 583.5 Q211 574 195 574 Q179 574 170.5 583.5 Q162 593 162 610 L162 618 Q162 655 195 655 Z M333 655 Q366 655 366 618 L366 610 Q366 593 357.5 583.5 Q349 574 333 574 Q317 574 309 583.5 Q301 593 301 610 L301 618 Q301 655 333 655 Z "/>
    <glyph glyph-name="ae" unicode="&#xe6;" horiz-adv-x="770"
           d="M559 497 Q642 497 684 439.5 Q726 382 726 258 L726 226 L419 226 Q428 43 573 43 Q600 43 621 48.5 Q642 54 657.5 61.5 Q673 69 683.5 78 Q694 87 700 93 L724 49 Q716 41 703.5 30.5 Q691 20 672.5 10.5 Q654 1 628.5 -5.5 Q603 -12 569 -12 Q517 -12 476 5 Q435 22 408 59 Q399 48 384 36 Q369 24 348.5 13 Q328 2 301 -5 Q274 -12 241 -12 Q198 -12 163 1.5 Q128 15 102.5 45 Q77 75 63 122.5 Q49 170 49 239 Q49 307 67.5 356 Q86 405 118 436.5 Q150 468 192 482.5 Q234 497 281 497 Q338 497 368 487.5 Q398 478 412 471 L412 409 Q435 452 472.5 474.5 Q510 497 559 497 Z M253 43 Q279 43 299.5 48 Q320 53 336 61.5 Q352 70 363.5 80 Q375 90 384 100 Q359 159 359 248 L359 424 Q345 431 325.5 436.5 Q306 442 274 442 Q242 442 212.5 431 Q183 420 160.5 395.5 Q138 371 124.5 332.5 Q111 294 111 240 Q111 186 121 148.5 Q131 111 150 87.5 Q169 64 195 53.5 Q221 43 253 43 Z M553 442 Q495 442 459 398.5 Q423 355 419 279 L668 279 Q668 359 640.5 400.5 Q613 442 553 442 Z "/>
    <glyph glyph-name="aeacute" unicode="&#x1fd;" horiz-adv-x="770"
           d="M520 681 L415 546 L359 546 L448 683 L520 683 L520 681 Z M559 497 Q642 497 684 439.5 Q726 382 726 258 L726 226 L419 226 Q428 43 573 43 Q600 43 621 48.5 Q642 54 657.5 61.5 Q673 69 683.5 78 Q694 87 700 93 L724 49 Q716 41 703.5 30.5 Q691 20 672.5 10.5 Q654 1 628.5 -5.5 Q603 -12 569 -12 Q517 -12 476 5 Q435 22 408 59 Q399 48 384 36 Q369 24 348.5 13 Q328 2 301 -5 Q274 -12 241 -12 Q198 -12 163 1.5 Q128 15 102.5 45 Q77 75 63 122.5 Q49 170 49 239 Q49 307 67.5 356 Q86 405 118 436.5 Q150 468 192 482.5 Q234 497 281 497 Q338 497 368 487.5 Q398 478 412 471 L412 409 Q435 452 472.5 474.5 Q510 497 559 497 Z M253 43 Q279 43 299.5 48 Q320 53 336 61.5 Q352 70 363.5 80 Q375 90 384 100 Q359 159 359 248 L359 424 Q345 431 325.5 436.5 Q306 442 274 442 Q242 442 212.5 431 Q183 420 160.5 395.5 Q138 371 124.5 332.5 Q111 294 111 240 Q111 186 121 148.5 Q131 111 150 87.5 Q169 64 195 53.5 Q221 43 253 43 Z M553 442 Q495 442 459 398.5 Q423 355 419 279 L668 279 Q668 359 640.5 400.5 Q613 442 553 442 Z "/>
    <glyph glyph-name="agrave" unicode="&#xe0;" horiz-adv-x="528"
           d="M237 546 L132 681 L132 683 L204 683 L293 546 L237 546 Z M496 0 Q494 -1 484.5 -4 Q475 -7 457 -7 Q426 -7 405 5.5 Q384 18 376 47 Q368 38 356 27.5 Q344 17 327.5 8.5 Q311 0 288.5 -6 Q266 -12 237 -12 Q195 -12 160.5 3 Q126 18 101 48.5 Q76 79 62.5 126.5 Q49 174 49 239 Q49 308 67.5 357 Q86 406 118.5 437 Q151 468 194 482.5 Q237 497 285 497 Q340 497 375 486 Q410 475 431 464 L431 103 Q431 69 441.5 57.5 Q452 46 475 46 Q485 46 490 47.5 Q495 49 496 49 L496 0 Z M250 43 Q300 43 327.5 62 Q355 81 370 101 L370 423 Q353 431 332 436.5 Q311 442 280 442 Q245 442 214 431 Q183 420 160 396 Q137 372 124 333.5 Q111 295 111 240 Q111 187 121 149.5 Q131 112 149 88.5 Q167 65 192.5 54 Q218 43 250 43 Z "/>
    <glyph glyph-name="amacron" unicode="&#x101;" horiz-adv-x="528"
           d="M496 0 Q494 -1 484.5 -4 Q475 -7 457 -7 Q426 -7 405 5.5 Q384 18 376 47 Q368 38 356 27.5 Q344 17 327.5 8.5 Q311 0 288.5 -6 Q266 -12 237 -12 Q195 -12 160.5 3 Q126 18 101 48.5 Q76 79 62.5 126.5 Q49 174 49 239 Q49 308 67.5 357 Q86 406 118.5 437 Q151 468 194 482.5 Q237 497 285 497 Q340 497 375 486 Q410 475 431 464 L431 103 Q431 69 441.5 57.5 Q452 46 475 46 Q485 46 490 47.5 Q495 49 496 49 L496 0 Z M250 43 Q300 43 327.5 62 Q355 81 370 101 L370 423 Q353 431 332 436.5 Q311 442 280 442 Q245 442 214 431 Q183 420 160 396 Q137 372 124 333.5 Q111 295 111 240 Q111 187 121 149.5 Q131 112 149 88.5 Q167 65 192.5 54 Q218 43 250 43 Z M371 575 L158 575 L158 622 L371 622 L371 575 Z "/>
    <glyph glyph-name="aogonek" unicode="&#x105;" horiz-adv-x="528"
           d="M487 -196 Q481 -200 467 -204.5 Q453 -209 428 -209 Q386 -209 363.5 -187.5 Q341 -166 341 -124 Q341 -80 362.5 -47.5 Q384 -15 406 5 Q385 18 376 47 Q368 38 356 27.5 Q344 17 327.5 8.5 Q311 0 288.5 -6 Q266 -12 237 -12 Q195 -12 160.5 3 Q126 18 101 48.5 Q76 79 62.5 126.5 Q49 174 49 239 Q49 308 67.5 357 Q86 406 118.5 437 Q151 468 194 482.5 Q237 497 285 497 Q340 497 375 486 Q410 475 431 464 L431 103 Q431 69 441.5 57.5 Q452 46 475 46 Q485 46 490 47.5 Q495 49 496 49 L496 0 Q494 -1 484.5 -4 Q475 -7 457 -7 Q449 -7 445 -6 Q428 -23 413 -49 Q398 -75 398 -109 Q398 -133 410 -145 Q422 -157 442 -157 Q459 -157 470.5 -153.5 Q482 -150 487 -147 L487 -196 Z M250 43 Q300 43 327.5 62 Q355 81 370 101 L370 423 Q353 431 332 436.5 Q311 442 280 442 Q245 442 214 431 Q183 420 160 396 Q137 372 124 333.5 Q111 295 111 240 Q111 187 121 149.5 Q131 112 149 88.5 Q167 65 192.5 54 Q218 43 250 43 Z "/>
    <glyph glyph-name="aring" unicode="&#xe5;" horiz-adv-x="528"
           d="M342 623 Q342 587 320.5 565.5 Q299 544 264 544 Q229 544 207 565.5 Q185 587 185 623 Q185 658 207 679.5 Q229 701 264 701 Q299 701 320.5 679.5 Q342 658 342 623 Z M306 623 Q306 644 294.5 656 Q283 668 264 668 Q245 668 233.5 656 Q222 644 222 623 Q222 602 233.5 590 Q245 578 264 578 Q283 578 294.5 590 Q306 602 306 623 Z M496 0 Q494 -1 484.5 -4 Q475 -7 457 -7 Q426 -7 405 5.5 Q384 18 376 47 Q368 38 356 27.5 Q344 17 327.5 8.5 Q311 0 288.5 -6 Q266 -12 237 -12 Q195 -12 160.5 3 Q126 18 101 48.5 Q76 79 62.5 126.5 Q49 174 49 239 Q49 308 67.5 357 Q86 406 118.5 437 Q151 468 194 482.5 Q237 497 285 497 Q340 497 375 486 Q410 475 431 464 L431 103 Q431 69 441.5 57.5 Q452 46 475 46 Q485 46 490 47.5 Q495 49 496 49 L496 0 Z M250 43 Q300 43 327.5 62 Q355 81 370 101 L370 423 Q353 431 332 436.5 Q311 442 280 442 Q245 442 214 431 Q183 420 160 396 Q137 372 124 333.5 Q111 295 111 240 Q111 187 121 149.5 Q131 112 149 88.5 Q167 65 192.5 54 Q218 43 250 43 Z "/>
    <glyph glyph-name="aringacute" unicode="&#x1fb;" horiz-adv-x="528"
           d="M496 0 Q494 -1 484.5 -4 Q475 -7 457 -7 Q426 -7 405 5.5 Q384 18 376 47 Q368 38 356 27.5 Q344 17 327.5 8.5 Q311 0 288.5 -6 Q266 -12 237 -12 Q195 -12 160.5 3 Q126 18 101 48.5 Q76 79 62.5 126.5 Q49 174 49 239 Q49 308 67.5 357 Q86 406 118.5 437 Q151 468 194 482.5 Q237 497 285 497 Q340 497 375 486 Q410 475 431 464 L431 103 Q431 69 441.5 57.5 Q452 46 475 46 Q485 46 490 47.5 Q495 49 496 49 L496 0 Z M250 43 Q300 43 327.5 62 Q355 81 370 101 L370 423 Q353 431 332 436.5 Q311 442 280 442 Q245 442 214 431 Q183 420 160 396 Q137 372 124 333.5 Q111 295 111 240 Q111 187 121 149.5 Q131 112 149 88.5 Q167 65 192.5 54 Q218 43 250 43 Z M307 602 Q307 621 294.5 630 Q282 639 264 639 Q245 639 232.5 630 Q220 621 220 602 Q220 583 232.5 574 Q245 565 264 565 Q282 565 294.5 574 Q307 583 307 602 Z M342 602 Q342 572 319.5 554 Q297 536 264 536 Q230 536 208 554 Q186 572 186 602 Q186 632 208 650 Q230 668 264 668 Q297 668 319.5 650 Q342 632 342 602 Z M338 733 L190 672 L190 701 L338 776 L338 733 Z "/>
    <glyph glyph-name="atilde" unicode="&#xe3;" horiz-adv-x="528"
           d="M398 645 Q397 601 380.5 576 Q364 551 328 551 Q306 551 289.5 559.5 Q273 568 259 578.5 Q245 589 231 598 Q217 607 201 607 Q181 607 174 594 Q167 581 166 558 L130 558 Q131 603 147 628 Q163 653 199 653 Q221 653 237.5 644 Q254 635 268 624.5 Q282 614 296 605 Q310 596 327 596 Q347 596 354.5 609 Q362 622 363 645 L398 645 L398 645 Z M496 0 Q494 -1 484.5 -4 Q475 -7 457 -7 Q426 -7 405 5.5 Q384 18 376 47 Q368 38 356 27.5 Q344 17 327.5 8.5 Q311 0 288.5 -6 Q266 -12 237 -12 Q195 -12 160.5 3 Q126 18 101 48.5 Q76 79 62.5 126.5 Q49 174 49 239 Q49 308 67.5 357 Q86 406 118.5 437 Q151 468 194 482.5 Q237 497 285 497 Q340 497 375 486 Q410 475 431 464 L431 103 Q431 69 441.5 57.5 Q452 46 475 46 Q485 46 490 47.5 Q495 49 496 49 L496 0 Z M250 43 Q300 43 327.5 62 Q355 81 370 101 L370 423 Q353 431 332 436.5 Q311 442 280 442 Q245 442 214 431 Q183 420 160 396 Q137 372 124 333.5 Q111 295 111 240 Q111 187 121 149.5 Q131 112 149 88.5 Q167 65 192.5 54 Q218 43 250 43 Z "/>
    <glyph glyph-name="b" unicode="b" horiz-adv-x="505"
           d="M454 264 Q454 189 438.5 136.5 Q423 84 394.5 51 Q366 18 325.5 3 Q285 -12 235 -12 Q202 -12 177 -7 Q152 -2 133.5 5.5 Q115 13 101.5 21.5 Q88 30 78 38 L78 710 L138 710 L138 434 L140 434 Q147 443 159.5 454 Q172 465 189 474.5 Q206 484 228.5 490.5 Q251 497 278 497 Q360 497 407 439 Q454 381 454 264 Z M392 257 Q392 354 356.5 398 Q321 442 259 442 Q215 442 185 422.5 Q155 403 138 383 L138 71 Q152 61 174.5 52 Q197 43 238 43 Q273 43 301.5 54.5 Q330 66 350 91.5 Q370 117 381 158 Q392 199 392 257 Z "/>
    <glyph glyph-name="c" unicode="c" horiz-adv-x="424"
           d="M372 409 Q355 423 332.5 432.5 Q310 442 272 442 Q239 442 209 430.5 Q179 419 156.5 394.5 Q134 370 121 332 Q108 294 108 242 Q108 137 152 90 Q196 43 265 43 Q306 43 330.5 53 Q355 63 372 77 L392 30 Q372 13 341.5 0.5 Q311 -12 257 -12 Q211 -12 172 2.5 Q133 17 105 48 Q77 79 61.5 127 Q46 175 46 242 Q46 308 64.5 356 Q83 404 114 435.5 Q145 467 185 482 Q225 497 269 497 Q322 497 350 484 Q378 471 397 456 L372 409 Z "/>
    <glyph glyph-name="cacute" unicode="&#x107;" horiz-adv-x="424"
           d="M372 409 Q355 423 332.5 432.5 Q310 442 272 442 Q239 442 209 430.5 Q179 419 156.5 394.5 Q134 370 121 332 Q108 294 108 242 Q108 137 152 90 Q196 43 265 43 Q306 43 330.5 53 Q355 63 372 77 L392 30 Q372 13 341.5 0.5 Q311 -12 257 -12 Q211 -12 172 2.5 Q133 17 105 48 Q77 79 61.5 127 Q46 175 46 242 Q46 308 64.5 356 Q83 404 114 435.5 Q145 467 185 482 Q225 497 269 497 Q322 497 350 484 Q378 471 397 456 L372 409 Z M384 681 L279 546 L223 546 L312 683 L384 683 L384 681 Z "/>
    <glyph glyph-name="ccaron" unicode="&#x10d;" horiz-adv-x="424"
           d="M372 409 Q355 423 332.5 432.5 Q310 442 272 442 Q239 442 209 430.5 Q179 419 156.5 394.5 Q134 370 121 332 Q108 294 108 242 Q108 137 152 90 Q196 43 265 43 Q306 43 330.5 53 Q355 63 372 77 L392 30 Q372 13 341.5 0.5 Q311 -12 257 -12 Q211 -12 172 2.5 Q133 17 105 48 Q77 79 61.5 127 Q46 175 46 242 Q46 308 64.5 356 Q83 404 114 435.5 Q145 467 185 482 Q225 497 269 497 Q322 497 350 484 Q378 471 397 456 L372 409 Z M287 548 L218 548 L134 688 L180 688 L251 588 L253 588 L324 688 L370 688 L287 548 Z "/>
    <glyph glyph-name="ccedilla" unicode="&#xe7;" horiz-adv-x="424"
           d="M335 -129 Q335 -166 308.5 -186 Q282 -206 234 -206 Q210 -206 195.5 -202 Q181 -198 170 -193 L170 -159 Q180 -164 193 -167 Q206 -170 225 -170 Q255 -170 270 -159 Q285 -148 285 -128 Q285 -81 201 -81 L198 -78 L233 -11 Q192 -7 157.5 9.5 Q123 26 98 57 Q73 88 59.5 134 Q46 180 46 242 Q46 308 64.5 356 Q83 404 114 435.5 Q145 467 185 482 Q225 497 269 497 Q322 497 350 484 Q378 471 397 456 L372 409 Q355 423 332.5 432.5 Q310 442 272 442 Q239 442 209 430.5 Q179 419 156.5 394.5 Q134 370 121 332 Q108 294 108 242 Q108 137 152 90 Q196 43 265 43 Q306 43 330.5 53 Q355 63 372 77 L392 30 Q373 14 346 2.5 Q319 -9 273 -11 L250 -58 Q293 -60 314 -79.5 Q335 -99 335 -129 Z "/>
    <glyph glyph-name="ccircumflex" unicode="&#x109;" horiz-adv-x="424"
           d="M372 409 Q355 423 332.5 432.5 Q310 442 272 442 Q239 442 209 430.5 Q179 419 156.5 394.5 Q134 370 121 332 Q108 294 108 242 Q108 137 152 90 Q196 43 265 43 Q306 43 330.5 53 Q355 63 372 77 L392 30 Q372 13 341.5 0.5 Q311 -12 257 -12 Q211 -12 172 2.5 Q133 17 105 48 Q77 79 61.5 127 Q46 175 46 242 Q46 308 64.5 356 Q83 404 114 435.5 Q145 467 185 482 Q225 497 269 497 Q322 497 350 484 Q378 471 397 456 L372 409 Z M324 545 L253 645 L251 645 L180 545 L134 545 L218 686 L287 686 L370 545 L324 545 Z "/>
    <glyph glyph-name="cdotaccent" unicode="&#x10b;" horiz-adv-x="424"
           d="M372 409 Q355 423 332.5 432.5 Q310 442 272 442 Q239 442 209 430.5 Q179 419 156.5 394.5 Q134 370 121 332 Q108 294 108 242 Q108 137 152 90 Q196 43 265 43 Q306 43 330.5 53 Q355 63 372 77 L392 30 Q372 13 341.5 0.5 Q311 -12 257 -12 Q211 -12 172 2.5 Q133 17 105 48 Q77 79 61.5 127 Q46 175 46 242 Q46 308 64.5 356 Q83 404 114 435.5 Q145 467 185 482 Q225 497 269 497 Q322 497 350 484 Q378 471 397 456 L372 409 Z M252 664 Q288 664 288 623 L288 619 Q288 578 252 578 Q215 578 215 619 L215 623 Q215 664 252 664 Z "/>
    <glyph glyph-name="d" unicode="d" horiz-adv-x="509"
           d="M431 0 L373 0 L373 51 L371 51 Q366 44 357 33 Q348 22 333 12 Q318 2 294.5 -5 Q271 -12 238 -12 Q198 -12 164 3 Q130 18 105 49 Q80 80 65.5 128 Q51 176 51 242 Q51 305 66.5 352.5 Q82 400 108.5 432 Q135 464 170.5 480.5 Q206 497 246 497 Q274 497 294.5 490.5 Q315 484 329.5 475 Q344 466 353.5 455.5 Q363 445 369 437 L371 437 L371 710 L431 710 L431 0 Z M112 242 Q112 188 123 150.5 Q134 113 152.5 89 Q171 65 196.5 54 Q222 43 251 43 Q277 43 296 49 Q315 55 329.5 63.5 Q344 72 354 82 Q364 92 371 101 L371 382 Q364 391 354.5 401.5 Q345 412 331 421 Q317 430 298.5 436 Q280 442 255 442 Q226 442 200.5 430 Q175 418 155 393.5 Q135 369 123.5 331.5 Q112 294 112 242 Z "/>
    <glyph glyph-name="dcaron" unicode="&#x10f;" horiz-adv-x="622"
           d="M431 0 L373 0 L373 51 L371 51 Q366 44 357 33 Q348 22 333 12 Q318 2 294.5 -5 Q271 -12 238 -12 Q198 -12 164 3 Q130 18 105 49 Q80 80 65.5 128 Q51 176 51 242 Q51 305 66.5 352.5 Q82 400 108.5 432 Q135 464 170.5 480.5 Q206 497 246 497 Q274 497 294.5 490.5 Q315 484 329.5 475 Q344 466 353.5 455.5 Q363 445 369 437 L371 437 L371 710 L431 710 L431 0 Z M112 242 Q112 188 123 150.5 Q134 113 152.5 89 Q171 65 196.5 54 Q222 43 251 43 Q277 43 296 49 Q315 55 329.5 63.5 Q344 72 354 82 Q364 92 371 101 L371 382 Q364 391 354.5 401.5 Q345 412 331 421 Q317 430 298.5 436 Q280 442 255 442 Q226 442 200.5 430 Q175 418 155 393.5 Q135 369 123.5 331.5 Q112 294 112 242 Z M598 650 Q598 626 591 608.5 Q584 591 573 579 Q562 567 548 559 Q534 551 520 547 L511 569 Q528 577 545 594 Q562 611 562 644 L562 652 L553 652 Q539 652 530.5 660.5 Q522 669 522 683 Q522 699 531 707.5 Q540 716 552 716 Q572 716 585 699.5 Q598 683 598 650 Z "/>
    <glyph glyph-name="dcroat" unicode="&#x111;" horiz-adv-x="525"
           d="M431 626 L514 626 L514 588 L431 588 L431 0 L373 0 L373 51 L371 51 Q366 44 357 33 Q348 22 333 12 Q318 2 294.5 -5 Q271 -12 238 -12 Q198 -12 164 3 Q130 18 105 49 Q80 80 65.5 128 Q51 176 51 242 Q51 305 66.5 352.5 Q82 400 108.5 432 Q135 464 170.5 480.5 Q206 497 246 497 Q274 497 294.5 490.5 Q315 484 329.5 475 Q344 466 353.5 455.5 Q363 445 369 437 L371 437 L371 588 L203 588 L203 626 L371 626 L371 710 L431 710 L431 626 Z M112 242 Q112 188 123 150.5 Q134 113 152.5 89 Q171 65 196.5 54 Q222 43 251 43 Q277 43 296 49 Q315 55 329.5 63.5 Q344 72 354 82 Q364 92 371 101 L371 382 Q364 391 354.5 401.5 Q345 412 331 421 Q317 430 298.5 436 Q280 442 255 442 Q226 442 200.5 430 Q175 418 155 393.5 Q135 369 123.5 331.5 Q112 294 112 242 Z "/>
    <glyph glyph-name="eth" unicode="&#xf0;" horiz-adv-x="504"
           d="M407 684 L316 631 Q347 604 373 568 Q399 532 418 486 Q437 440 448 384.5 Q459 329 459 263 Q459 197 444 145.5 Q429 94 402 59 Q375 24 337 6 Q299 -12 253 -12 Q209 -12 172 4 Q135 20 108 51.5 Q81 83 66 129.5 Q51 176 51 238 Q51 302 66 350 Q81 398 106.5 429.5 Q132 461 166.5 477 Q201 493 240 493 Q267 493 287.5 487 Q308 481 324 472 Q340 463 351 452.5 Q362 442 371 433 L373 433 Q356 490 327.5 530.5 Q299 571 264 600 L144 530 L127 563 L232 624 Q206 641 179 652 Q152 663 126 671 L141 722 Q178 713 214.5 696.5 Q251 680 285 656 L390 717 L407 684 Z M397 263 Q397 322 388 370 Q367 396 336 417 Q305 438 256 438 Q226 438 199.5 426.5 Q173 415 153.5 391 Q134 367 122.5 329 Q111 291 111 238 Q111 139 151 91 Q191 43 254 43 Q320 43 358.5 99 Q397 155 397 263 Z "/>
    <glyph glyph-name="e" unicode="e" horiz-adv-x="458"
           d="M46 251 Q46 311 61 356.5 Q76 402 102 433.5 Q128 465 164 481 Q200 497 241 497 Q415 497 415 261 L415 229 L107 229 Q114 43 262 43 Q289 43 309.5 48.5 Q330 54 345.5 61.5 Q361 69 371.5 78 Q382 87 388 93 L413 49 Q404 41 392 30.5 Q380 20 361.5 10.5 Q343 1 318 -5.5 Q293 -12 259 -12 Q162 -12 104 51 Q46 114 46 251 Z M241 442 Q184 442 148 399 Q112 356 107 281 L356 281 Q356 359 328.5 400.5 Q301 442 241 442 Z "/>
    <glyph glyph-name="eacute" unicode="&#xe9;" horiz-adv-x="458"
           d="M46 251 Q46 311 61 356.5 Q76 402 102 433.5 Q128 465 164 481 Q200 497 241 497 Q415 497 415 261 L415 229 L107 229 Q114 43 262 43 Q289 43 309.5 48.5 Q330 54 345.5 61.5 Q361 69 371.5 78 Q382 87 388 93 L413 49 Q404 41 392 30.5 Q380 20 361.5 10.5 Q343 1 318 -5.5 Q293 -12 259 -12 Q162 -12 104 51 Q46 114 46 251 Z M241 442 Q184 442 148 399 Q112 356 107 281 L356 281 Q356 359 328.5 400.5 Q301 442 241 442 Z M371 681 L266 546 L210 546 L299 683 L371 683 L371 681 Z "/>
    <glyph glyph-name="ebreve" unicode="&#x115;" horiz-adv-x="458"
           d="M46 251 Q46 311 61 356.5 Q76 402 102 433.5 Q128 465 164 481 Q200 497 241 497 Q415 497 415 261 L415 229 L107 229 Q114 43 262 43 Q289 43 309.5 48.5 Q330 54 345.5 61.5 Q361 69 371.5 78 Q382 87 388 93 L413 49 Q404 41 392 30.5 Q380 20 361.5 10.5 Q343 1 318 -5.5 Q293 -12 259 -12 Q162 -12 104 51 Q46 114 46 251 Z M241 442 Q184 442 148 399 Q112 356 107 281 L356 281 Q356 359 328.5 400.5 Q301 442 241 442 Z M350 663 Q349 609 320.5 577.5 Q292 546 238 546 Q183 546 155 577.5 Q127 609 126 663 L167 663 Q168 627 186.5 609 Q205 591 238 591 Q270 591 288.5 609 Q307 627 308 663 L350 663 L350 663 Z "/>
    <glyph glyph-name="ecaron" unicode="&#x11b;" horiz-adv-x="458"
           d="M46 251 Q46 311 61 356.5 Q76 402 102 433.5 Q128 465 164 481 Q200 497 241 497 Q415 497 415 261 L415 229 L107 229 Q114 43 262 43 Q289 43 309.5 48.5 Q330 54 345.5 61.5 Q361 69 371.5 78 Q382 87 388 93 L413 49 Q404 41 392 30.5 Q380 20 361.5 10.5 Q343 1 318 -5.5 Q293 -12 259 -12 Q162 -12 104 51 Q46 114 46 251 Z M241 442 Q184 442 148 399 Q112 356 107 281 L356 281 Q356 359 328.5 400.5 Q301 442 241 442 Z M273 548 L204 548 L120 688 L166 688 L237 588 L239 588 L310 688 L356 688 L273 548 Z "/>
    <glyph glyph-name="ecircumflex" unicode="&#xea;" horiz-adv-x="458"
           d="M46 251 Q46 311 61 356.5 Q76 402 102 433.5 Q128 465 164 481 Q200 497 241 497 Q415 497 415 261 L415 229 L107 229 Q114 43 262 43 Q289 43 309.5 48.5 Q330 54 345.5 61.5 Q361 69 371.5 78 Q382 87 388 93 L413 49 Q404 41 392 30.5 Q380 20 361.5 10.5 Q343 1 318 -5.5 Q293 -12 259 -12 Q162 -12 104 51 Q46 114 46 251 Z M241 442 Q184 442 148 399 Q112 356 107 281 L356 281 Q356 359 328.5 400.5 Q301 442 241 442 Z M310 545 L239 645 L237 645 L166 545 L120 545 L204 686 L273 686 L356 545 L310 545 Z "/>
    <glyph glyph-name="edieresis" unicode="&#xeb;" horiz-adv-x="458"
           d="M46 251 Q46 311 61 356.5 Q76 402 102 433.5 Q128 465 164 481 Q200 497 241 497 Q415 497 415 261 L415 229 L107 229 Q114 43 262 43 Q289 43 309.5 48.5 Q330 54 345.5 61.5 Q361 69 371.5 78 Q382 87 388 93 L413 49 Q404 41 392 30.5 Q380 20 361.5 10.5 Q343 1 318 -5.5 Q293 -12 259 -12 Q162 -12 104 51 Q46 114 46 251 Z M241 442 Q184 442 148 399 Q112 356 107 281 L356 281 Q356 359 328.5 400.5 Q301 442 241 442 Z M169 655 Q201 655 201 618 L201 610 Q201 593 193 583.5 Q185 574 169 574 Q153 574 144.5 583.5 Q136 593 136 610 L136 618 Q136 655 169 655 Z M307 655 Q340 655 340 618 L340 610 Q340 593 331.5 583.5 Q323 574 307 574 Q291 574 283 583.5 Q275 593 275 610 L275 618 Q275 655 307 655 Z "/>
    <glyph glyph-name="edotaccent" unicode="&#x117;" horiz-adv-x="458"
           d="M46 251 Q46 311 61 356.5 Q76 402 102 433.5 Q128 465 164 481 Q200 497 241 497 Q415 497 415 261 L415 229 L107 229 Q114 43 262 43 Q289 43 309.5 48.5 Q330 54 345.5 61.5 Q361 69 371.5 78 Q382 87 388 93 L413 49 Q404 41 392 30.5 Q380 20 361.5 10.5 Q343 1 318 -5.5 Q293 -12 259 -12 Q162 -12 104 51 Q46 114 46 251 Z M241 442 Q184 442 148 399 Q112 356 107 281 L356 281 Q356 359 328.5 400.5 Q301 442 241 442 Z M238 664 Q274 664 274 623 L274 619 Q274 578 238 578 Q201 578 201 619 L201 623 Q201 664 238 664 Z "/>
    <glyph glyph-name="egrave" unicode="&#xe8;" horiz-adv-x="458"
           d="M46 251 Q46 311 61 356.5 Q76 402 102 433.5 Q128 465 164 481 Q200 497 241 497 Q415 497 415 261 L415 229 L107 229 Q114 43 262 43 Q289 43 309.5 48.5 Q330 54 345.5 61.5 Q361 69 371.5 78 Q382 87 388 93 L413 49 Q404 41 392 30.5 Q380 20 361.5 10.5 Q343 1 318 -5.5 Q293 -12 259 -12 Q162 -12 104 51 Q46 114 46 251 Z M241 442 Q184 442 148 399 Q112 356 107 281 L356 281 Q356 359 328.5 400.5 Q301 442 241 442 Z M211 546 L106 681 L106 683 L178 683 L267 546 L211 546 Z "/>
    <glyph glyph-name="emacron" unicode="&#x113;" horiz-adv-x="458"
           d="M46 251 Q46 311 61 356.5 Q76 402 102 433.5 Q128 465 164 481 Q200 497 241 497 Q415 497 415 261 L415 229 L107 229 Q114 43 262 43 Q289 43 309.5 48.5 Q330 54 345.5 61.5 Q361 69 371.5 78 Q382 87 388 93 L413 49 Q404 41 392 30.5 Q380 20 361.5 10.5 Q343 1 318 -5.5 Q293 -12 259 -12 Q162 -12 104 51 Q46 114 46 251 Z M241 442 Q184 442 148 399 Q112 356 107 281 L356 281 Q356 359 328.5 400.5 Q301 442 241 442 Z M345 575 L132 575 L132 622 L345 622 L345 575 Z "/>
    <glyph glyph-name="eogonek" unicode="&#x119;" horiz-adv-x="458"
           d="M383 -196 Q377 -200 363 -204.5 Q349 -209 324 -209 Q282 -209 259.5 -187.5 Q237 -166 237 -124 Q237 -89 252 -60 Q267 -31 286 -11 Q279 -12 272.5 -12 Q266 -12 259 -12 Q162 -12 104 51 Q46 114 46 251 Q46 311 61 356.5 Q76 402 102 433.5 Q128 465 164 481 Q200 497 241 497 Q415 497 415 261 L415 229 L107 229 Q114 43 262 43 Q289 43 309.5 48.5 Q330 54 345.5 61.5 Q361 69 371.5 78 Q382 87 388 93 L413 49 Q403 40 389.5 28.5 Q376 17 356 7 Q347 -1 336 -12 Q325 -23 316 -37.5 Q307 -52 300.5 -70 Q294 -88 294 -109 Q294 -133 306 -145 Q318 -157 338 -157 Q355 -157 366.5 -153.5 Q378 -150 383 -147 L383 -196 Z M241 442 Q184 442 148 399 Q112 356 107 281 L356 281 Q356 359 328.5 400.5 Q301 442 241 442 Z "/>
    <glyph glyph-name="uni0259" unicode="&#x259;" horiz-adv-x="458"
           d="M411 241 Q411 116 363 52 Q315 -12 225 -12 Q136 -12 89.5 47 Q43 106 43 229 L43 259 L350 259 Q347 354 310.5 398 Q274 442 203 442 Q150 442 118.5 424 Q87 406 71 390 L45 434 Q54 443 68.5 454 Q83 465 103 474.5 Q123 484 149.5 490.5 Q176 497 209 497 Q304 497 357.5 435 Q411 373 411 241 Z M227 41 Q286 41 316 85 Q346 129 350 207 L102 207 Q102 41 227 41 Z "/>
    <glyph glyph-name="f" unicode="f" horiz-adv-x="301"
           d="M279 656 Q275 658 267.5 659.5 Q260 661 249 661 Q233 661 218.5 657 Q204 653 193 642 Q182 631 175.5 612.5 Q169 594 169 565 L169 485 L279 485 L279 432 L169 432 L169 0 L109 0 L109 432 L47 432 L47 485 L109 485 L109 570 Q109 610 120 638 Q131 666 149 683 Q167 700 191 708 Q215 716 241 716 Q256 716 265 714 Q274 712 279 710 L279 656 Z "/>
    <glyph glyph-name="uniFB00" unicode="&#xfb00;" horiz-adv-x="591"
           d="M568 656 Q564 658 556.5 659.5 Q549 661 538 661 Q522 661 507.5 657 Q493 653 482 642 Q471 631 464.5 612.5 Q458 594 458 565 L458 485 L568 485 L568 432 L458 432 L458 0 L398 0 L398 432 L336 432 L336 485 L398 485 L398 570 Q398 610 409 638 Q420 666 438 683 Q456 700 480 708 Q504 716 530 716 Q545 716 554 714 Q563 712 568 710 L568 656 Z M279 656 Q275 658 267.5 659.5 Q260 661 249 661 Q233 661 218.5 657 Q204 653 193 642 Q182 631 175.5 612.5 Q169 594 169 565 L169 485 L272 485 L272 432 L169 432 L169 0 L109 0 L109 432 L47 432 L47 485 L109 485 L109 570 Q109 610 120 638 Q131 666 149 683 Q167 700 191 708 Q215 716 241 716 Q256 716 265 714 Q274 712 279 710 L279 656 Z "/>
    <glyph glyph-name="uniFB03" unicode="&#xfb03;" horiz-adv-x="803"
           d="M568 656 Q564 658 556.5 659.5 Q549 661 538 661 Q522 661 507.5 657 Q493 653 482 642 Q471 631 464.5 612.5 Q458 594 458 565 L458 485 L568 485 L568 432 L458 432 L458 0 L398 0 L398 432 L336 432 L336 485 L398 485 L398 570 Q398 610 409 638 Q420 666 438 683 Q456 700 480 708 Q504 716 530 716 Q545 716 554 714 Q563 712 568 710 L568 656 Z M279 656 Q275 658 267.5 659.5 Q260 661 249 661 Q233 661 218.5 657 Q204 653 193 642 Q182 631 175.5 612.5 Q169 594 169 565 L169 485 L272 485 L272 432 L169 432 L169 0 L109 0 L109 432 L47 432 L47 485 L109 485 L109 570 Q109 610 120 638 Q131 666 149 683 Q167 700 191 708 Q215 716 241 716 Q256 716 265 714 Q274 712 279 710 L279 656 Z M690 663 Q727 663 727 621 L727 614 Q727 573 690 573 Q673 573 663.5 583 Q654 593 654 614 L654 621 Q654 642 663.5 652.5 Q673 663 690 663 Z M720 0 L660 0 L660 485 L720 485 L720 0 Z "/>
    <glyph glyph-name="uniFB04" unicode="&#xfb04;" horiz-adv-x="804"
           d="M568 656 Q564 658 556.5 659.5 Q549 661 538 661 Q522 661 507.5 657 Q493 653 482 642 Q471 631 464.5 612.5 Q458 594 458 565 L458 485 L568 485 L568 432 L458 432 L458 0 L398 0 L398 432 L336 432 L336 485 L398 485 L398 570 Q398 610 409 638 Q420 666 438 683 Q456 700 480 708 Q504 716 530 716 Q545 716 554 714 Q563 712 568 710 L568 656 Z M721 0 L661 0 L661 710 L721 710 L721 0 Z M279 656 Q275 658 267.5 659.5 Q260 661 249 661 Q233 661 218.5 657 Q204 653 193 642 Q182 631 175.5 612.5 Q169 594 169 565 L169 485 L272 485 L272 432 L169 432 L169 0 L109 0 L109 432 L47 432 L47 485 L109 485 L109 570 Q109 610 120 638 Q131 666 149 683 Q167 700 191 708 Q215 716 241 716 Q256 716 265 714 Q274 712 279 710 L279 656 Z "/>
    <glyph glyph-name="fi" unicode="&#xfb01;" horiz-adv-x="514"
           d="M279 656 Q275 658 267.5 659.5 Q260 661 249 661 Q233 661 218.5 657 Q204 653 193 642 Q182 631 175.5 612.5 Q169 594 169 565 L169 485 L279 485 L279 432 L169 432 L169 0 L109 0 L109 432 L47 432 L47 485 L109 485 L109 570 Q109 610 120 638 Q131 666 149 683 Q167 700 191 708 Q215 716 241 716 Q256 716 265 714 Q274 712 279 710 L279 656 Z M401 663 Q438 663 438 621 L438 614 Q438 573 401 573 Q384 573 374.5 583 Q365 593 365 614 L365 621 Q365 642 374.5 652.5 Q384 663 401 663 Z M431 0 L371 0 L371 485 L431 485 L431 0 Z "/>
    <glyph glyph-name="fl" unicode="&#xfb02;" horiz-adv-x="515"
           d="M279 656 Q275 658 267.5 659.5 Q260 661 249 661 Q233 661 218.5 657 Q204 653 193 642 Q182 631 175.5 612.5 Q169 594 169 565 L169 485 L279 485 L279 432 L169 432 L169 0 L109 0 L109 432 L47 432 L47 485 L109 485 L109 570 Q109 610 120 638 Q131 666 149 683 Q167 700 191 708 Q215 716 241 716 Q256 716 265 714 Q274 712 279 710 L279 656 Z M432 0 L372 0 L372 710 L432 710 L432 0 Z "/>
    <glyph glyph-name="g" unicode="g" horiz-adv-x="505"
           d="M51 238 Q51 308 69.5 357 Q88 406 120 437 Q152 468 194.5 482.5 Q237 497 286 497 Q341 497 375.5 486 Q410 475 431 464 L431 12 Q431 -105 382 -158.5 Q333 -212 229 -212 Q191 -212 162.5 -204.5 Q134 -197 114 -186 Q94 -175 80.5 -162.5 Q67 -150 58 -140 L85 -88 Q92 -97 104 -109 Q116 -121 133.5 -132 Q151 -143 175 -150.5 Q199 -158 229 -158 Q306 -158 338.5 -119 Q371 -80 370 4 L370 48 L369 48 Q364 42 354 31.5 Q344 21 328 11.5 Q312 2 289 -5 Q266 -12 233 -12 Q193 -12 159.5 3 Q126 18 102 48.5 Q78 79 64.5 126 Q51 173 51 238 Z M112 242 Q112 187 122 149 Q132 111 150 87.5 Q168 64 193.5 53.5 Q219 43 250 43 Q275 43 294 48.5 Q313 54 327 62.5 Q341 71 351.5 81.5 Q362 92 370 102 L370 424 Q353 432 332 437 Q311 442 280 442 Q245 442 214 430.5 Q183 419 160.5 394.5 Q138 370 125 332 Q112 294 112 242 Z "/>
    <glyph glyph-name="gbreve" unicode="&#x11f;" horiz-adv-x="505"
           d="M377 663 Q376 609 347.5 577.5 Q319 546 265 546 Q210 546 182 577.5 Q154 609 153 663 L194 663 Q195 627 213.5 609 Q232 591 265 591 Q297 591 315.5 609 Q334 627 335 663 L377 663 L377 663 Z M51 238 Q51 308 69.5 357 Q88 406 120 437 Q152 468 194.5 482.5 Q237 497 286 497 Q341 497 375.5 486 Q410 475 431 464 L431 12 Q431 -105 382 -158.5 Q333 -212 229 -212 Q191 -212 162.5 -204.5 Q134 -197 114 -186 Q94 -175 80.5 -162.5 Q67 -150 58 -140 L85 -88 Q92 -97 104 -109 Q116 -121 133.5 -132 Q151 -143 175 -150.5 Q199 -158 229 -158 Q306 -158 338.5 -119 Q371 -80 370 4 L370 48 L369 48 Q364 42 354 31.5 Q344 21 328 11.5 Q312 2 289 -5 Q266 -12 233 -12 Q193 -12 159.5 3 Q126 18 102 48.5 Q78 79 64.5 126 Q51 173 51 238 Z M112 242 Q112 187 122 149 Q132 111 150 87.5 Q168 64 193.5 53.5 Q219 43 250 43 Q275 43 294 48.5 Q313 54 327 62.5 Q341 71 351.5 81.5 Q362 92 370 102 L370 424 Q353 432 332 437 Q311 442 280 442 Q245 442 214 430.5 Q183 419 160.5 394.5 Q138 370 125 332 Q112 294 112 242 Z "/>
    <glyph glyph-name="gcircumflex" unicode="&#x11d;" horiz-adv-x="505"
           d="M51 238 Q51 308 69.5 357 Q88 406 120 437 Q152 468 194.5 482.5 Q237 497 286 497 Q341 497 375.5 486 Q410 475 431 464 L431 12 Q431 -105 382 -158.5 Q333 -212 229 -212 Q191 -212 162.5 -204.5 Q134 -197 114 -186 Q94 -175 80.5 -162.5 Q67 -150 58 -140 L85 -88 Q92 -97 104 -109 Q116 -121 133.5 -132 Q151 -143 175 -150.5 Q199 -158 229 -158 Q306 -158 338.5 -119 Q371 -80 370 4 L370 48 L369 48 Q364 42 354 31.5 Q344 21 328 11.5 Q312 2 289 -5 Q266 -12 233 -12 Q193 -12 159.5 3 Q126 18 102 48.5 Q78 79 64.5 126 Q51 173 51 238 Z M112 242 Q112 187 122 149 Q132 111 150 87.5 Q168 64 193.5 53.5 Q219 43 250 43 Q275 43 294 48.5 Q313 54 327 62.5 Q341 71 351.5 81.5 Q362 92 370 102 L370 424 Q353 432 332 437 Q311 442 280 442 Q245 442 214 430.5 Q183 419 160.5 394.5 Q138 370 125 332 Q112 294 112 242 Z M337 545 L266 645 L264 645 L193 545 L147 545 L231 686 L300 686 L383 545 L337 545 Z "/>
    <glyph glyph-name="gcommaaccent" unicode="&#x123;" horiz-adv-x="505"
           d="M51 238 Q51 308 69.5 357 Q88 406 120 437 Q152 468 194.5 482.5 Q237 497 286 497 Q341 497 375.5 486 Q410 475 431 464 L431 12 Q431 -105 382 -158.5 Q333 -212 229 -212 Q191 -212 162.5 -204.5 Q134 -197 114 -186 Q94 -175 80.5 -162.5 Q67 -150 58 -140 L85 -88 Q92 -97 104 -109 Q116 -121 133.5 -132 Q151 -143 175 -150.5 Q199 -158 229 -158 Q306 -158 338.5 -119 Q371 -80 370 4 L370 48 L369 48 Q364 42 354 31.5 Q344 21 328 11.5 Q312 2 289 -5 Q266 -12 233 -12 Q193 -12 159.5 3 Q126 18 102 48.5 Q78 79 64.5 126 Q51 173 51 238 Z M112 242 Q112 187 122 149 Q132 111 150 87.5 Q168 64 193.5 53.5 Q219 43 250 43 Q275 43 294 48.5 Q313 54 327 62.5 Q341 71 351.5 81.5 Q362 92 370 102 L370 424 Q353 432 332 437 Q311 442 280 442 Q245 442 214 430.5 Q183 419 160.5 394.5 Q138 370 125 332 Q112 294 112 242 Z M222 624 Q222 645 229 661 Q236 677 247 688 Q258 699 271.5 706.5 Q285 714 298 718 L307 697 Q288 689 273 673.5 Q258 658 258 630 L258 622 L267 622 Q281 622 289.5 613 Q298 604 298 590 Q298 574 289.5 566 Q281 558 268 558 Q248 558 235 575 Q222 592 222 624 Z "/>
    <glyph glyph-name="gdotaccent" unicode="&#x121;" horiz-adv-x="505"
           d="M51 238 Q51 308 69.5 357 Q88 406 120 437 Q152 468 194.5 482.5 Q237 497 286 497 Q341 497 375.5 486 Q410 475 431 464 L431 12 Q431 -105 382 -158.5 Q333 -212 229 -212 Q191 -212 162.5 -204.5 Q134 -197 114 -186 Q94 -175 80.5 -162.5 Q67 -150 58 -140 L85 -88 Q92 -97 104 -109 Q116 -121 133.5 -132 Q151 -143 175 -150.5 Q199 -158 229 -158 Q306 -158 338.5 -119 Q371 -80 370 4 L370 48 L369 48 Q364 42 354 31.5 Q344 21 328 11.5 Q312 2 289 -5 Q266 -12 233 -12 Q193 -12 159.5 3 Q126 18 102 48.5 Q78 79 64.5 126 Q51 173 51 238 Z M112 242 Q112 187 122 149 Q132 111 150 87.5 Q168 64 193.5 53.5 Q219 43 250 43 Q275 43 294 48.5 Q313 54 327 62.5 Q341 71 351.5 81.5 Q362 92 370 102 L370 424 Q353 432 332 437 Q311 442 280 442 Q245 442 214 430.5 Q183 419 160.5 394.5 Q138 370 125 332 Q112 294 112 242 Z M265 664 Q301 664 301 623 L301 619 Q301 578 265 578 Q228 578 228 619 L228 623 Q228 664 265 664 Z "/>
    <glyph glyph-name="h" unicode="h" horiz-adv-x="511"
           d="M138 437 L140 437 Q147 445 159.5 455.5 Q172 466 189.5 475 Q207 484 230 490.5 Q253 497 282 497 Q358 497 397 451.5 Q436 406 436 309 L436 0 L376 0 L376 300 Q376 375 350 408.5 Q324 442 264 442 Q219 442 187.5 422.5 Q156 403 138 383 L138 0 L78 0 L78 710 L138 710 L138 437 Z "/>
    <glyph glyph-name="hbar" unicode="&#x127;" horiz-adv-x="528"
           d="M154 626 L322 626 L322 588 L154 588 L154 437 L156 437 Q163 445 175.5 455.5 Q188 466 205.5 475 Q223 484 246 490.5 Q269 497 298 497 Q374 497 413 451.5 Q452 406 452 309 L452 0 L392 0 L392 300 Q392 375 366 408.5 Q340 442 280 442 Q235 442 203.5 422.5 Q172 403 154 383 L154 0 L94 0 L94 588 L11 588 L11 626 L94 626 L94 710 L154 710 L154 626 Z "/>
    <glyph glyph-name="hcircumflex" unicode="&#x125;" horiz-adv-x="511"
           d="M138 437 L140 437 Q147 445 159.5 455.5 Q172 466 189.5 475 Q207 484 230 490.5 Q253 497 282 497 Q358 497 397 451.5 Q436 406 436 309 L436 0 L376 0 L376 300 Q376 375 350 408.5 Q324 442 264 442 Q219 442 187.5 422.5 Q156 403 138 383 L138 0 L78 0 L78 710 L138 710 L138 437 Z M176 736 L109 817 L107 817 L40 736 L-9 736 L73 852 L143 852 L225 736 L176 736 Z "/>
    <glyph glyph-name="i" unicode="i" horiz-adv-x="224"
           d="M112 663 Q149 663 149 621 L149 614 Q149 573 112 573 Q95 573 85.5 583 Q76 593 76 614 L76 621 Q76 642 85.5 652.5 Q95 663 112 663 Z M142 0 L82 0 L82 485 L142 485 L142 0 Z "/>
    <glyph glyph-name="iacute" unicode="&#xed;" horiz-adv-x="224"
           d="M244 681 L139 546 L83 546 L172 683 L244 683 L244 681 Z M142 0 L82 0 L82 485 L142 485 L142 0 Z "/>
    <glyph glyph-name="ibreve" unicode="&#x12d;" horiz-adv-x="224"
           d="M226 663 Q225 609 196.5 577.5 Q168 546 114 546 Q59 546 31 577.5 Q3 609 2 663 L43 663 Q44 627 62.5 609 Q81 591 114 591 Q146 591 164.5 609 Q183 627 184 663 L226 663 L226 663 Z M142 0 L82 0 L82 485 L142 485 L142 0 Z "/>
    <glyph glyph-name="icircumflex" unicode="&#xee;" horiz-adv-x="224"
           d="M142 0 L82 0 L82 485 L142 485 L142 0 Z M185 545 L114 645 L112 645 L41 545 L-5 545 L79 686 L148 686 L231 545 L185 545 Z "/>
    <glyph glyph-name="idieresis" unicode="&#xef;" horiz-adv-x="224"
           d="M142 0 L82 0 L82 485 L142 485 L142 0 Z M45 655 Q77 655 77 618 L77 610 Q77 593 69 583.5 Q61 574 45 574 Q29 574 20.5 583.5 Q12 593 12 610 L12 618 Q12 655 45 655 Z M183 655 Q216 655 216 618 L216 610 Q216 593 207.5 583.5 Q199 574 183 574 Q167 574 159 583.5 Q151 593 151 610 L151 618 Q151 655 183 655 Z "/>
    <glyph glyph-name="igrave" unicode="&#xec;" horiz-adv-x="224"
           d="M86 546 L-19 681 L-19 683 L53 683 L142 546 L86 546 Z M142 0 L82 0 L82 485 L142 485 L142 0 Z "/>
    <glyph glyph-name="ij" unicode="&#x133;" horiz-adv-x="446"
           d="M112 663 Q149 663 149 621 L149 614 Q149 573 112 573 Q95 573 85.5 583 Q76 593 76 614 L76 621 Q76 642 85.5 652.5 Q95 663 112 663 Z M142 0 L82 0 L82 485 L142 485 L142 0 Z M333 663 Q350 663 359.5 652.5 Q369 642 369 621 L369 614 Q369 593 359.5 583 Q350 573 333 573 Q296 573 296 614 L296 621 Q296 663 333 663 Z M363 -73 Q363 -146 332 -176 Q301 -206 245 -206 Q228 -206 217 -203.5 Q206 -201 201 -199 L201 -144 Q206 -146 215 -148.5 Q224 -151 238 -151 Q270 -151 286.5 -132.5 Q303 -114 303 -66 L303 485 L363 485 L363 -73 Z "/>
    <glyph glyph-name="imacron" unicode="&#x12b;" horiz-adv-x="224"
           d="M220 575 L7 575 L7 622 L220 622 L220 575 Z M142 0 L82 0 L82 485 L142 485 L142 0 Z "/>
    <glyph glyph-name="iogonek" unicode="&#x12f;" horiz-adv-x="224"
           d="M164 -196 Q158 -200 144 -204.5 Q130 -209 105 -209 Q63 -209 40.5 -187.5 Q18 -166 18 -124 Q18 -81 39 -48.5 Q60 -16 82 4 L82 485 L142 485 L142 0 L129 0 Q111 -17 93 -44 Q75 -71 75 -109 Q75 -133 87 -145 Q99 -157 119 -157 Q136 -157 147.5 -153.5 Q159 -150 164 -147 L164 -196 Z M112 663 Q149 663 149 621 L149 614 Q149 573 112 573 Q95 573 85.5 583 Q76 593 76 614 L76 621 Q76 642 85.5 652.5 Q95 663 112 663 Z "/>
    <glyph glyph-name="itilde" unicode="&#x129;" horiz-adv-x="224"
           d="M248 645 Q247 601 230.5 576 Q214 551 178 551 Q156 551 139.5 559.5 Q123 568 109 578.5 Q95 589 81 598 Q67 607 51 607 Q31 607 24 594 Q17 581 16 558 L-20 558 Q-19 603 -3 628 Q13 653 49 653 Q71 653 87.5 644 Q104 635 118 624.5 Q132 614 146 605 Q160 596 177 596 Q197 596 204.5 609 Q212 622 213 645 L248 645 L248 645 Z M142 0 L82 0 L82 485 L142 485 L142 0 Z "/>
    <glyph glyph-name="dotlessi" unicode="&#x131;" horiz-adv-x="224" d="M142 0 L82 0 L82 485 L142 485 L142 0 Z "/>
    <glyph glyph-name="j" unicode="j" horiz-adv-x="233"
           d="M121 663 Q138 663 147.5 652.5 Q157 642 157 621 L157 614 Q157 593 147.5 583 Q138 573 121 573 Q84 573 84 614 L84 621 Q84 663 121 663 Z M151 -73 Q151 -146 120 -176 Q89 -206 33 -206 Q16 -206 5 -203.5 Q-6 -201 -11 -199 L-11 -144 Q-6 -146 3 -148.5 Q12 -151 26 -151 Q58 -151 74.5 -132.5 Q91 -114 91 -66 L91 485 L151 485 L151 -73 Z "/>
    <glyph glyph-name="jcircumflex" unicode="&#x135;" horiz-adv-x="233"
           d="M151 -73 Q151 -146 120 -176 Q89 -206 33 -206 Q16 -206 5 -203.5 Q-6 -201 -11 -199 L-11 -144 Q-6 -146 3 -148.5 Q12 -151 26 -151 Q58 -151 74.5 -132.5 Q91 -114 91 -66 L91 485 L151 485 L151 -73 Z M194 545 L123 645 L121 645 L50 545 L4 545 L88 686 L157 686 L240 545 L194 545 Z "/>
    <glyph glyph-name="dotlessj" unicode="&#x237;" horiz-adv-x="233"
           d="M151 -73 Q151 -146 120 -176 Q89 -206 33 -206 Q16 -206 5 -203.5 Q-6 -201 -11 -199 L-11 -144 Q-6 -146 3 -148.5 Q12 -151 26 -151 Q58 -151 74.5 -132.5 Q91 -114 91 -66 L91 485 L151 485 L151 -73 Z "/>
    <glyph glyph-name="k" unicode="k" horiz-adv-x="453"
           d="M358 0 L191 232 L138 232 L138 0 L78 0 L78 710 L138 710 L138 285 L194 285 L344 485 L414 485 L242 258 L433 0 L358 0 Z "/>
    <glyph glyph-name="kcommaaccent" unicode="&#x137;" horiz-adv-x="453"
           d="M358 0 L191 232 L138 232 L138 0 L78 0 L78 710 L138 710 L138 285 L194 285 L344 485 L414 485 L242 258 L433 0 L358 0 Z M279 -92 Q279 -116 272 -133.5 Q265 -151 254 -163 Q243 -175 229 -183 Q215 -191 201 -195 L192 -173 Q209 -165 226 -148 Q243 -131 243 -98 L243 -90 L234 -90 Q220 -90 211.5 -81.5 Q203 -73 203 -59 Q203 -43 212 -34.5 Q221 -26 233 -26 Q253 -26 266 -42.5 Q279 -59 279 -92 Z "/>
    <glyph glyph-name="kgreenlandic" unicode="&#x138;" horiz-adv-x="450"
           d="M355 0 L188 232 L135 232 L135 0 L75 0 L75 485 L135 485 L135 285 L191 285 L341 485 L411 485 L239 258 L430 0 L355 0 Z "/>
    <glyph glyph-name="l" unicode="l" horiz-adv-x="225" d="M143 0 L83 0 L83 710 L143 710 L143 0 Z "/>
    <glyph glyph-name="lacute" unicode="&#x13a;" horiz-adv-x="225"
           d="M143 0 L83 0 L83 710 L143 710 L143 0 Z M250 852 L141 736 L83 736 L177 854 L250 854 L250 852 Z "/>
    <glyph glyph-name="lcaron" unicode="&#x13e;" horiz-adv-x="331"
           d="M143 0 L83 0 L83 710 L143 710 L143 0 Z M306 646 Q306 622 299 604.5 Q292 587 281 575 Q270 563 256 555 Q242 547 228 543 L219 565 Q236 573 253 590 Q270 607 270 640 L270 648 L261 648 Q247 648 238.5 656.5 Q230 665 230 679 Q230 695 239 703.5 Q248 712 260 712 Q280 712 293 695.5 Q306 679 306 646 Z "/>
    <glyph glyph-name="lcommaaccent" unicode="&#x13c;" horiz-adv-x="225"
           d="M143 0 L83 0 L83 710 L143 710 L143 0 Z M143 -113 Q143 -137 136 -154.5 Q129 -172 118 -184 Q107 -196 93 -204 Q79 -212 65 -216 L56 -194 Q73 -186 90 -169 Q107 -152 107 -119 L107 -111 L98 -111 Q84 -111 75.5 -102.5 Q67 -94 67 -80 Q67 -64 76 -55.5 Q85 -47 97 -47 Q117 -47 130 -63.5 Q143 -80 143 -113 Z "/>
    <glyph glyph-name="ldot" unicode="&#x140;" horiz-adv-x="310"
           d="M252 407 Q268 407 276.5 396.5 Q285 386 285 368 L285 360 Q285 321 252 321 Q218 321 218 360 L218 368 Q218 386 227 396.5 Q236 407 252 407 Z M143 0 L83 0 L83 710 L143 710 L143 0 Z "/>
    <glyph glyph-name="lslash" unicode="&#x142;" horiz-adv-x="272"
           d="M168 413 L250 484 L250 436 L168 365 L168 0 L108 0 L108 314 L21 239 L21 287 L108 362 L108 710 L168 710 L168 413 Z "/>
    <glyph glyph-name="m" unicode="m" horiz-adv-x="789"
           d="M714 0 L653 0 L653 301 Q653 375 627 408.5 Q601 442 544 442 Q501 442 469.5 422.5 Q438 403 418 380 Q425 352 425 311 L425 0 L364 0 L364 301 Q364 375 337 408.5 Q310 442 257 442 Q235 442 216.5 436 Q198 430 183 421 Q168 412 156 401.5 Q144 391 135 381 L135 0 L75 0 L75 485 L133 485 L133 434 L134 434 Q143 444 156 455 Q169 466 186.5 475.5 Q204 485 226 491 Q248 497 275 497 Q366 497 403 425 Q411 434 424.5 446.5 Q438 459 457.5 470.5 Q477 482 502.5 489.5 Q528 497 559 497 Q636 497 675 452.5 Q714 408 714 311 L714 0 Z "/>
    <glyph glyph-name="n" unicode="n" horiz-adv-x="508"
           d="M133 434 L134 434 Q141 442 153.5 453 Q166 464 184 473.5 Q202 483 225.5 490 Q249 497 280 497 Q357 497 395 452.5 Q433 408 433 311 L433 0 L373 0 L373 301 Q373 375 346.5 408.5 Q320 442 261 442 Q216 442 184.5 422 Q153 402 135 382 L135 0 L75 0 L75 485 L133 485 L133 434 Z "/>
    <glyph glyph-name="nacute" unicode="&#x144;" horiz-adv-x="508"
           d="M133 434 L134 434 Q141 442 153.5 453 Q166 464 184 473.5 Q202 483 225.5 490 Q249 497 280 497 Q357 497 395 452.5 Q433 408 433 311 L433 0 L373 0 L373 301 Q373 375 346.5 408.5 Q320 442 261 442 Q216 442 184.5 422 Q153 402 135 382 L135 0 L75 0 L75 485 L133 485 L133 434 Z M387 681 L282 546 L226 546 L315 683 L387 683 L387 681 Z "/>
    <glyph glyph-name="napostrophe" unicode="&#x149;" horiz-adv-x="570"
           d="M194 434 L195 434 Q202 442 214.5 453 Q227 464 245 473.5 Q263 483 286.5 490 Q310 497 341 497 Q418 497 456 452.5 Q494 408 494 311 L494 0 L434 0 L434 301 Q434 375 407.5 408.5 Q381 442 322 442 Q277 442 245.5 422 Q214 402 196 382 L196 0 L136 0 L136 485 L194 485 L194 434 Z M118 650 Q118 626 111 608.5 Q104 591 93 579 Q82 567 68 559 Q54 551 40 547 L31 569 Q48 577 65 594 Q82 611 82 644 L82 652 L73 652 Q59 652 50.5 660.5 Q42 669 42 683 Q42 699 51 707.5 Q60 716 72 716 Q92 716 105 699.5 Q118 683 118 650 Z "/>
    <glyph glyph-name="ncaron" unicode="&#x148;" horiz-adv-x="508"
           d="M133 434 L134 434 Q141 442 153.5 453 Q166 464 184 473.5 Q202 483 225.5 490 Q249 497 280 497 Q357 497 395 452.5 Q433 408 433 311 L433 0 L373 0 L373 301 Q373 375 346.5 408.5 Q320 442 261 442 Q216 442 184.5 422 Q153 402 135 382 L135 0 L75 0 L75 485 L133 485 L133 434 Z M290 548 L221 548 L137 688 L183 688 L254 588 L256 588 L327 688 L373 688 L290 548 Z "/>
    <glyph glyph-name="ncommaaccent" unicode="&#x146;" horiz-adv-x="508"
           d="M133 434 L134 434 Q141 442 153.5 453 Q166 464 184 473.5 Q202 483 225.5 490 Q249 497 280 497 Q357 497 395 452.5 Q433 408 433 311 L433 0 L373 0 L373 301 Q373 375 346.5 408.5 Q320 442 261 442 Q216 442 184.5 422 Q153 402 135 382 L135 0 L75 0 L75 485 L133 485 L133 434 Z M299 -92 Q299 -116 292 -133.5 Q285 -151 274 -163 Q263 -175 249 -183 Q235 -191 221 -195 L212 -173 Q229 -165 246 -148 Q263 -131 263 -98 L263 -90 L254 -90 Q240 -90 231.5 -81.5 Q223 -73 223 -59 Q223 -43 232 -34.5 Q241 -26 253 -26 Q273 -26 286 -42.5 Q299 -59 299 -92 Z "/>
    <glyph glyph-name="ntilde" unicode="&#xf1;" horiz-adv-x="508"
           d="M133 434 L134 434 Q141 442 153.5 453 Q166 464 184 473.5 Q202 483 225.5 490 Q249 497 280 497 Q357 497 395 452.5 Q433 408 433 311 L433 0 L373 0 L373 301 Q373 375 346.5 408.5 Q320 442 261 442 Q216 442 184.5 422 Q153 402 135 382 L135 0 L75 0 L75 485 L133 485 L133 434 Z M389 645 Q388 601 371.5 576 Q355 551 319 551 Q297 551 280.5 559.5 Q264 568 250 578.5 Q236 589 222 598 Q208 607 192 607 Q172 607 165 594 Q158 581 157 558 L121 558 Q122 603 138 628 Q154 653 190 653 Q212 653 228.5 644 Q245 635 259 624.5 Q273 614 287 605 Q301 596 318 596 Q338 596 345.5 609 Q353 622 354 645 L389 645 L389 645 Z "/>
    <glyph glyph-name="eng" unicode="&#x14b;" horiz-adv-x="508"
           d="M133 434 L134 434 Q141 442 153.5 453 Q166 464 184 473.5 Q202 483 226 490 Q250 497 281 497 Q358 497 395.5 452.5 Q433 408 433 311 L433 -73 Q433 -146 402 -176 Q371 -206 315 -206 Q298 -206 287.5 -203.5 Q277 -201 272 -199 L272 -144 Q277 -146 285.5 -148.5 Q294 -151 308 -151 Q340 -151 356.5 -132.5 Q373 -114 373 -66 L373 301 Q373 375 346.5 408.5 Q320 442 261 442 Q216 442 184.5 422 Q153 402 135 382 L135 0 L75 0 L75 485 L133 485 L133 434 Z "/>
    <glyph glyph-name="o" unicode="o" horiz-adv-x="502"
           d="M454 242 Q454 177 438.5 129.5 Q423 82 395.5 50.5 Q368 19 330.5 3.5 Q293 -12 250 -12 Q207 -12 170 3.5 Q133 19 105.5 50.5 Q78 82 62 129.5 Q46 177 46 242 Q46 307 62 355 Q78 403 105.5 434.5 Q133 466 170 481.5 Q207 497 250 497 Q293 497 330.5 481.5 Q368 466 395.5 434.5 Q423 403 438.5 355 Q454 307 454 242 Z M393 242 Q393 293 382 331 Q371 369 352 393.5 Q333 418 307 430 Q281 442 250 442 Q220 442 194 430 Q168 418 149 393.5 Q130 369 119 331 Q108 293 108 242 Q108 141 148 92 Q188 43 250 43 Q313 43 353 91.5 Q393 140 393 242 Z "/>
    <glyph glyph-name="oacute" unicode="&#xf3;" horiz-adv-x="502"
           d="M454 242 Q454 177 438.5 129.5 Q423 82 395.5 50.5 Q368 19 330.5 3.5 Q293 -12 250 -12 Q207 -12 170 3.5 Q133 19 105.5 50.5 Q78 82 62 129.5 Q46 177 46 242 Q46 307 62 355 Q78 403 105.5 434.5 Q133 466 170 481.5 Q207 497 250 497 Q293 497 330.5 481.5 Q368 466 395.5 434.5 Q423 403 438.5 355 Q454 307 454 242 Z M393 242 Q393 293 382 331 Q371 369 352 393.5 Q333 418 307 430 Q281 442 250 442 Q220 442 194 430 Q168 418 149 393.5 Q130 369 119 331 Q108 293 108 242 Q108 141 148 92 Q188 43 250 43 Q313 43 353 91.5 Q393 140 393 242 Z M382 681 L277 546 L221 546 L310 683 L382 683 L382 681 Z "/>
    <glyph glyph-name="obreve" unicode="&#x14f;" horiz-adv-x="502"
           d="M454 242 Q454 177 438.5 129.5 Q423 82 395.5 50.5 Q368 19 330.5 3.5 Q293 -12 250 -12 Q207 -12 170 3.5 Q133 19 105.5 50.5 Q78 82 62 129.5 Q46 177 46 242 Q46 307 62 355 Q78 403 105.5 434.5 Q133 466 170 481.5 Q207 497 250 497 Q293 497 330.5 481.5 Q368 466 395.5 434.5 Q423 403 438.5 355 Q454 307 454 242 Z M393 242 Q393 293 382 331 Q371 369 352 393.5 Q333 418 307 430 Q281 442 250 442 Q220 442 194 430 Q168 418 149 393.5 Q130 369 119 331 Q108 293 108 242 Q108 141 148 92 Q188 43 250 43 Q313 43 353 91.5 Q393 140 393 242 Z M362 663 Q361 609 332.5 577.5 Q304 546 250 546 Q195 546 167 577.5 Q139 609 138 663 L179 663 Q180 627 198.5 609 Q217 591 250 591 Q282 591 300.5 609 Q319 627 320 663 L362 663 L362 663 Z "/>
    <glyph glyph-name="ocircumflex" unicode="&#xf4;" horiz-adv-x="502"
           d="M454 242 Q454 177 438.5 129.5 Q423 82 395.5 50.5 Q368 19 330.5 3.5 Q293 -12 250 -12 Q207 -12 170 3.5 Q133 19 105.5 50.5 Q78 82 62 129.5 Q46 177 46 242 Q46 307 62 355 Q78 403 105.5 434.5 Q133 466 170 481.5 Q207 497 250 497 Q293 497 330.5 481.5 Q368 466 395.5 434.5 Q423 403 438.5 355 Q454 307 454 242 Z M393 242 Q393 293 382 331 Q371 369 352 393.5 Q333 418 307 430 Q281 442 250 442 Q220 442 194 430 Q168 418 149 393.5 Q130 369 119 331 Q108 293 108 242 Q108 141 148 92 Q188 43 250 43 Q313 43 353 91.5 Q393 140 393 242 Z M322 545 L251 645 L249 645 L178 545 L132 545 L216 686 L285 686 L368 545 L322 545 Z "/>
    <glyph glyph-name="odieresis" unicode="&#xf6;" horiz-adv-x="502"
           d="M454 242 Q454 177 438.5 129.5 Q423 82 395.5 50.5 Q368 19 330.5 3.5 Q293 -12 250 -12 Q207 -12 170 3.5 Q133 19 105.5 50.5 Q78 82 62 129.5 Q46 177 46 242 Q46 307 62 355 Q78 403 105.5 434.5 Q133 466 170 481.5 Q207 497 250 497 Q293 497 330.5 481.5 Q368 466 395.5 434.5 Q423 403 438.5 355 Q454 307 454 242 Z M393 242 Q393 293 382 331 Q371 369 352 393.5 Q333 418 307 430 Q281 442 250 442 Q220 442 194 430 Q168 418 149 393.5 Q130 369 119 331 Q108 293 108 242 Q108 141 148 92 Q188 43 250 43 Q313 43 353 91.5 Q393 140 393 242 Z M181 655 Q213 655 213 618 L213 610 Q213 593 205 583.5 Q197 574 181 574 Q165 574 156.5 583.5 Q148 593 148 610 L148 618 Q148 655 181 655 Z M319 655 Q352 655 352 618 L352 610 Q352 593 343.5 583.5 Q335 574 319 574 Q303 574 295 583.5 Q287 593 287 610 L287 618 Q287 655 319 655 Z "/>
    <glyph glyph-name="oe" unicode="&#x153;" horiz-adv-x="806"
           d="M46 242 Q46 307 62 355 Q78 403 105.5 434.5 Q133 466 170 481.5 Q207 497 250 497 Q313 497 356.5 463.5 Q400 430 422 364 L424 364 Q444 427 485.5 462 Q527 497 587 497 Q761 497 761 261 L761 229 L453 229 Q460 43 608 43 Q635 43 655.5 48.5 Q676 54 691.5 61.5 Q707 69 717.5 78 Q728 87 735 93 L759 49 Q751 41 738.5 30.5 Q726 20 708 10.5 Q690 1 665 -5.5 Q640 -12 606 -12 Q466 -12 424 123 L422 123 Q401 56 357 22 Q313 -12 250 -12 Q207 -12 170 3.5 Q133 19 105.5 50.5 Q78 82 62 129.5 Q46 177 46 242 Z M393 242 Q393 293 382 331 Q371 369 352 393.5 Q333 418 307 430 Q281 442 250 442 Q220 442 194 430 Q168 418 149 393.5 Q130 369 119 331 Q108 293 108 242 Q108 141 148 92 Q188 43 250 43 Q313 43 353 91.5 Q393 140 393 242 Z M587 442 Q531 442 494.5 399 Q458 356 453 281 L702 281 Q702 359 675 400.5 Q648 442 587 442 Z "/>
    <glyph glyph-name="ograve" unicode="&#xf2;" horiz-adv-x="502"
           d="M454 242 Q454 177 438.5 129.5 Q423 82 395.5 50.5 Q368 19 330.5 3.5 Q293 -12 250 -12 Q207 -12 170 3.5 Q133 19 105.5 50.5 Q78 82 62 129.5 Q46 177 46 242 Q46 307 62 355 Q78 403 105.5 434.5 Q133 466 170 481.5 Q207 497 250 497 Q293 497 330.5 481.5 Q368 466 395.5 434.5 Q423 403 438.5 355 Q454 307 454 242 Z M393 242 Q393 293 382 331 Q371 369 352 393.5 Q333 418 307 430 Q281 442 250 442 Q220 442 194 430 Q168 418 149 393.5 Q130 369 119 331 Q108 293 108 242 Q108 141 148 92 Q188 43 250 43 Q313 43 353 91.5 Q393 140 393 242 Z M223 546 L118 681 L118 683 L190 683 L279 546 L223 546 Z "/>
    <glyph glyph-name="ohungarumlaut" unicode="&#x151;" horiz-adv-x="502"
           d="M454 242 Q454 177 438.5 129.5 Q423 82 395.5 50.5 Q368 19 330.5 3.5 Q293 -12 250 -12 Q207 -12 170 3.5 Q133 19 105.5 50.5 Q78 82 62 129.5 Q46 177 46 242 Q46 307 62 355 Q78 403 105.5 434.5 Q133 466 170 481.5 Q207 497 250 497 Q293 497 330.5 481.5 Q368 466 395.5 434.5 Q423 403 438.5 355 Q454 307 454 242 Z M393 242 Q393 293 382 331 Q371 369 352 393.5 Q333 418 307 430 Q281 442 250 442 Q220 442 194 430 Q168 418 149 393.5 Q130 369 119 331 Q108 293 108 242 Q108 141 148 92 Q188 43 250 43 Q313 43 353 91.5 Q393 140 393 242 Z M298 681 L214 546 L170 546 L243 683 L298 683 L298 681 Z M412 681 L329 546 L284 546 L357 683 L412 683 L412 681 Z "/>
    <glyph glyph-name="omacron" unicode="&#x14d;" horiz-adv-x="502"
           d="M454 242 Q454 177 438.5 129.5 Q423 82 395.5 50.5 Q368 19 330.5 3.5 Q293 -12 250 -12 Q207 -12 170 3.5 Q133 19 105.5 50.5 Q78 82 62 129.5 Q46 177 46 242 Q46 307 62 355 Q78 403 105.5 434.5 Q133 466 170 481.5 Q207 497 250 497 Q293 497 330.5 481.5 Q368 466 395.5 434.5 Q423 403 438.5 355 Q454 307 454 242 Z M393 242 Q393 293 382 331 Q371 369 352 393.5 Q333 418 307 430 Q281 442 250 442 Q220 442 194 430 Q168 418 149 393.5 Q130 369 119 331 Q108 293 108 242 Q108 141 148 92 Q188 43 250 43 Q313 43 353 91.5 Q393 140 393 242 Z M357 575 L144 575 L144 622 L357 622 L357 575 Z "/>
    <glyph glyph-name="oslash" unicode="&#xf8;" horiz-adv-x="501"
           d="M454 242 Q454 177 438.5 129.5 Q423 82 395.5 50.5 Q368 19 330.5 3.5 Q293 -12 250 -12 Q176 -12 124 31 L94 -12 L49 -12 L98 58 Q73 90 59.5 135.5 Q46 181 46 242 Q46 307 62 355 Q78 403 105.5 434.5 Q133 466 170 481.5 Q207 497 250 497 Q286 497 318 486.5 Q350 476 376 453 L407 497 L452 497 L402 426 Q426 394 440 348.5 Q454 303 454 242 Z M393 242 Q393 284 386 316.5 Q379 349 365 373 L158 79 Q194 43 250 43 Q313 43 353 91.5 Q393 140 393 242 Z M108 242 Q108 200 115 167.5 Q122 135 135 111 L342 405 Q305 442 250 442 Q220 442 194 430 Q168 418 149 393.5 Q130 369 119 331 Q108 293 108 242 Z "/>
    <glyph glyph-name="oslashacute" unicode="&#x1ff;" horiz-adv-x="501"
           d="M382 681 L277 546 L221 546 L310 683 L382 683 L382 681 Z M454 242 Q454 177 438.5 129.5 Q423 82 395.5 50.5 Q368 19 330.5 3.5 Q293 -12 250 -12 Q176 -12 124 31 L94 -12 L49 -12 L98 58 Q73 90 59.5 135.5 Q46 181 46 242 Q46 307 62 355 Q78 403 105.5 434.5 Q133 466 170 481.5 Q207 497 250 497 Q286 497 318 486.5 Q350 476 376 453 L407 497 L452 497 L402 426 Q426 394 440 348.5 Q454 303 454 242 Z M393 242 Q393 284 386 316.5 Q379 349 365 373 L158 79 Q194 43 250 43 Q313 43 353 91.5 Q393 140 393 242 Z M108 242 Q108 200 115 167.5 Q122 135 135 111 L342 405 Q305 442 250 442 Q220 442 194 430 Q168 418 149 393.5 Q130 369 119 331 Q108 293 108 242 Z "/>
    <glyph glyph-name="otilde" unicode="&#xf5;" horiz-adv-x="502"
           d="M454 242 Q454 177 438.5 129.5 Q423 82 395.5 50.5 Q368 19 330.5 3.5 Q293 -12 250 -12 Q207 -12 170 3.5 Q133 19 105.5 50.5 Q78 82 62 129.5 Q46 177 46 242 Q46 307 62 355 Q78 403 105.5 434.5 Q133 466 170 481.5 Q207 497 250 497 Q293 497 330.5 481.5 Q368 466 395.5 434.5 Q423 403 438.5 355 Q454 307 454 242 Z M393 242 Q393 293 382 331 Q371 369 352 393.5 Q333 418 307 430 Q281 442 250 442 Q220 442 194 430 Q168 418 149 393.5 Q130 369 119 331 Q108 293 108 242 Q108 141 148 92 Q188 43 250 43 Q313 43 353 91.5 Q393 140 393 242 Z M384 645 Q383 601 366.5 576 Q350 551 314 551 Q292 551 275.5 559.5 Q259 568 245 578.5 Q231 589 217 598 Q203 607 187 607 Q167 607 160 594 Q153 581 152 558 L116 558 Q117 603 133 628 Q149 653 185 653 Q207 653 223.5 644 Q240 635 254 624.5 Q268 614 282 605 Q296 596 313 596 Q333 596 340.5 609 Q348 622 349 645 L384 645 L384 645 Z "/>
    <glyph glyph-name="p" unicode="p" horiz-adv-x="502"
           d="M451 251 Q451 183 436 133 Q421 83 395.5 51 Q370 19 335 3.5 Q300 -12 261 -12 Q232 -12 211.5 -6 Q191 0 176.5 9 Q162 18 152.5 28.5 Q143 39 137 48 L135 48 L135 -200 L75 -200 L75 485 L133 485 L133 434 L134 434 Q141 443 153 454 Q165 465 181.5 474.5 Q198 484 220.5 490.5 Q243 497 272 497 Q352 497 401.5 435.5 Q451 374 451 251 Z M389 248 Q389 348 353 395 Q317 442 254 442 Q210 442 181 422 Q152 402 135 380 L135 106 Q150 83 176.5 63 Q203 43 248 43 Q311 43 350 93 Q389 143 389 248 Z "/>
    <glyph glyph-name="thorn" unicode="&#xfe;" horiz-adv-x="505"
           d="M454 251 Q454 183 439 133.5 Q424 84 398 52 Q372 20 337 4 Q302 -12 262 -12 Q234 -12 213.5 -6 Q193 0 179 9 Q165 18 155.5 28.5 Q146 39 140 48 L138 48 L138 -200 L78 -200 L78 710 L138 710 L138 437 L140 437 Q147 446 158.5 456.5 Q170 467 186.5 476 Q203 485 224.5 491 Q246 497 274 497 Q313 497 346 482.5 Q379 468 403 438 Q427 408 440.5 361.5 Q454 315 454 251 Z M392 248 Q392 349 356 395.5 Q320 442 257 442 Q213 442 184 422 Q155 402 138 380 L138 106 Q153 83 179.5 63 Q206 43 251 43 Q316 43 354 93.5 Q392 144 392 248 Z "/>
    <glyph glyph-name="q" unicode="q" horiz-adv-x="504"
           d="M429 -200 L369 -200 L369 48 L367 48 Q362 42 352.5 31.5 Q343 21 327 11.5 Q311 2 288 -5 Q265 -12 232 -12 Q192 -12 158.5 3 Q125 18 100.5 48.5 Q76 79 62.5 126 Q49 173 49 238 Q49 308 67.5 357 Q86 406 118 437 Q150 468 193 482.5 Q236 497 285 497 Q340 497 374.5 486 Q409 475 429 464 L429 -200 Z M369 424 Q352 432 331 437 Q310 442 279 442 Q244 442 213 430.5 Q182 419 159.5 394.5 Q137 370 124 332 Q111 294 111 242 Q111 187 121 149 Q131 111 149 87.5 Q167 64 192.5 53.5 Q218 43 248 43 Q273 43 292 48.5 Q311 54 325.5 62.5 Q340 71 350.5 81.5 Q361 92 369 102 L369 424 Z "/>
    <glyph glyph-name="r" unicode="r" horiz-adv-x="293"
           d="M269 437 L264 437 Q262 437 259 437.5 Q256 438 253 438 Q212 438 182 417 Q152 396 135 354 L135 0 L75 0 L75 485 L133 485 L133 412 L134 412 Q141 428 150.5 443 Q160 458 176 468.5 Q192 479 214.5 485.5 Q237 492 269 492 L269 437 Z "/>
    <glyph glyph-name="racute" unicode="&#x155;" horiz-adv-x="293"
           d="M269 437 L264 437 Q262 437 259 437.5 Q256 438 253 438 Q212 438 182 417 Q152 396 135 354 L135 0 L75 0 L75 485 L133 485 L133 412 L134 412 Q141 428 150.5 443 Q160 458 176 468.5 Q192 479 214.5 485.5 Q237 492 269 492 L269 437 Z M299 681 L194 546 L138 546 L227 683 L299 683 L299 681 Z "/>
    <glyph glyph-name="rcaron" unicode="&#x159;" horiz-adv-x="293"
           d="M269 437 L264 437 Q262 437 259 437.5 Q256 438 253 438 Q212 438 182 417 Q152 396 135 354 L135 0 L75 0 L75 485 L133 485 L133 412 L134 412 Q141 428 150.5 443 Q160 458 176 468.5 Q192 479 214.5 485.5 Q237 492 269 492 L269 437 Z M202 548 L133 548 L49 688 L95 688 L166 588 L168 588 L239 688 L285 688 L202 548 Z "/>
    <glyph glyph-name="rcommaaccent" unicode="&#x157;" horiz-adv-x="293"
           d="M269 437 L264 437 Q262 437 259 437.5 Q256 438 253 438 Q212 438 182 417 Q152 396 135 354 L135 0 L75 0 L75 485 L133 485 L133 412 L134 412 Q141 428 150.5 443 Q160 458 176 468.5 Q192 479 214.5 485.5 Q237 492 269 492 L269 437 Z M149 -113 Q149 -137 142 -154.5 Q135 -172 124 -184 Q113 -196 99 -204 Q85 -212 71 -216 L62 -194 Q79 -186 96 -169 Q113 -152 113 -119 L113 -111 L104 -111 Q90 -111 81.5 -102.5 Q73 -94 73 -80 Q73 -64 82 -55.5 Q91 -47 103 -47 Q123 -47 136 -63.5 Q149 -80 149 -113 Z "/>
    <glyph glyph-name="s" unicode="s" horiz-adv-x="389"
           d="M304 403 Q287 418 262 430.5 Q237 443 196 443 Q158 443 134.5 424.5 Q111 406 111 374 Q111 339 133.5 319.5 Q156 300 188 285 L227 267 Q283 241 311.5 209 Q340 177 340 126 Q340 63 298.5 25.5 Q257 -12 180 -12 Q127 -12 94.5 5 Q62 22 43 41 L70 91 Q85 74 112 58 Q139 42 179 42 Q227 42 253.5 63 Q280 84 280 122 Q280 139 274.5 152 Q269 165 258.5 175.5 Q248 186 231.5 196 Q215 206 193 217 L157 234 Q136 244 117 256.5 Q98 269 83 285.5 Q68 302 59.5 323 Q51 344 51 373 Q51 432 92 464.5 Q133 497 196 497 Q249 497 279.5 482.5 Q310 468 327 451 L304 403 Z "/>
    <glyph glyph-name="sacute" unicode="&#x15b;" horiz-adv-x="389"
           d="M304 403 Q287 418 262 430.5 Q237 443 196 443 Q158 443 134.5 424.5 Q111 406 111 374 Q111 339 133.5 319.5 Q156 300 188 285 L227 267 Q283 241 311.5 209 Q340 177 340 126 Q340 63 298.5 25.5 Q257 -12 180 -12 Q127 -12 94.5 5 Q62 22 43 41 L70 91 Q85 74 112 58 Q139 42 179 42 Q227 42 253.5 63 Q280 84 280 122 Q280 139 274.5 152 Q269 165 258.5 175.5 Q248 186 231.5 196 Q215 206 193 217 L157 234 Q136 244 117 256.5 Q98 269 83 285.5 Q68 302 59.5 323 Q51 344 51 373 Q51 432 92 464.5 Q133 497 196 497 Q249 497 279.5 482.5 Q310 468 327 451 L304 403 Z M328 681 L223 546 L167 546 L256 683 L328 683 L328 681 Z "/>
    <glyph glyph-name="scaron" unicode="&#x161;" horiz-adv-x="389"
           d="M304 403 Q287 418 262 430.5 Q237 443 196 443 Q158 443 134.5 424.5 Q111 406 111 374 Q111 339 133.5 319.5 Q156 300 188 285 L227 267 Q283 241 311.5 209 Q340 177 340 126 Q340 63 298.5 25.5 Q257 -12 180 -12 Q127 -12 94.5 5 Q62 22 43 41 L70 91 Q85 74 112 58 Q139 42 179 42 Q227 42 253.5 63 Q280 84 280 122 Q280 139 274.5 152 Q269 165 258.5 175.5 Q248 186 231.5 196 Q215 206 193 217 L157 234 Q136 244 117 256.5 Q98 269 83 285.5 Q68 302 59.5 323 Q51 344 51 373 Q51 432 92 464.5 Q133 497 196 497 Q249 497 279.5 482.5 Q310 468 327 451 L304 403 Z M230 548 L161 548 L77 688 L123 688 L194 588 L196 588 L267 688 L313 688 L230 548 Z "/>
    <glyph glyph-name="scedilla" unicode="&#x15f;" horiz-adv-x="389"
           d="M265 -129 Q265 -166 238.5 -186 Q212 -206 164 -206 Q140 -206 125.5 -202 Q111 -198 100 -193 L100 -159 Q110 -164 123 -167 Q136 -170 155 -170 Q185 -170 200 -159 Q215 -148 215 -128 Q215 -81 131 -81 L128 -78 L162 -11 Q117 -8 88.5 8 Q60 24 43 41 L70 91 Q85 74 112 58 Q139 42 179 42 Q227 42 253.5 63 Q280 84 280 122 Q280 139 274.5 152 Q269 165 258.5 175.5 Q248 186 231.5 196 Q215 206 193 217 L157 234 Q136 244 117 256.5 Q98 269 83 285.5 Q68 302 59.5 323 Q51 344 51 373 Q51 432 92 464.5 Q133 497 196 497 Q249 497 279.5 482.5 Q310 468 327 451 L304 403 Q287 418 262 430.5 Q237 443 196 443 Q158 443 134.5 424.5 Q111 406 111 374 Q111 339 133.5 319.5 Q156 300 188 285 L227 267 Q283 241 311.5 209 Q340 177 340 126 Q340 67 304.5 31 Q269 -5 203 -11 L180 -58 Q223 -60 244 -79.5 Q265 -99 265 -129 Z "/>
    <glyph glyph-name="scircumflex" unicode="&#x15d;" horiz-adv-x="389"
           d="M304 403 Q287 418 262 430.5 Q237 443 196 443 Q158 443 134.5 424.5 Q111 406 111 374 Q111 339 133.5 319.5 Q156 300 188 285 L227 267 Q283 241 311.5 209 Q340 177 340 126 Q340 63 298.5 25.5 Q257 -12 180 -12 Q127 -12 94.5 5 Q62 22 43 41 L70 91 Q85 74 112 58 Q139 42 179 42 Q227 42 253.5 63 Q280 84 280 122 Q280 139 274.5 152 Q269 165 258.5 175.5 Q248 186 231.5 196 Q215 206 193 217 L157 234 Q136 244 117 256.5 Q98 269 83 285.5 Q68 302 59.5 323 Q51 344 51 373 Q51 432 92 464.5 Q133 497 196 497 Q249 497 279.5 482.5 Q310 468 327 451 L304 403 Z M267 545 L196 645 L194 645 L123 545 L77 545 L161 686 L230 686 L313 545 L267 545 Z "/>
    <glyph glyph-name="scommaaccent" unicode="&#x219;" horiz-adv-x="389"
           d="M304 403 Q287 418 262 430.5 Q237 443 196 443 Q158 443 134.5 424.5 Q111 406 111 374 Q111 339 133.5 319.5 Q156 300 188 285 L227 267 Q283 241 311.5 209 Q340 177 340 126 Q340 63 298.5 25.5 Q257 -12 180 -12 Q127 -12 94.5 5 Q62 22 43 41 L70 91 Q85 74 112 58 Q139 42 179 42 Q227 42 253.5 63 Q280 84 280 122 Q280 139 274.5 152 Q269 165 258.5 175.5 Q248 186 231.5 196 Q215 206 193 217 L157 234 Q136 244 117 256.5 Q98 269 83 285.5 Q68 302 59.5 323 Q51 344 51 373 Q51 432 92 464.5 Q133 497 196 497 Q249 497 279.5 482.5 Q310 468 327 451 L304 403 Z M232 -113 Q232 -137 225 -154.5 Q218 -172 207 -184 Q196 -196 182 -204 Q168 -212 154 -216 L145 -194 Q162 -186 179 -169 Q196 -152 196 -119 L196 -111 L187 -111 Q173 -111 164.5 -102.5 Q156 -94 156 -80 Q156 -64 165 -55.5 Q174 -47 186 -47 Q206 -47 219 -63.5 Q232 -80 232 -113 Z "/>
    <glyph glyph-name="germandbls" unicode="&#xdf;" horiz-adv-x="552"
           d="M513 126 Q513 63 471 25.5 Q429 -12 351 -12 Q300 -12 268.5 4 Q237 20 220 38 L244 90 Q260 72 287 57 Q314 42 352 42 Q401 42 426 63 Q451 84 451 123 Q451 140 445.5 152.5 Q440 165 429.5 175.5 Q419 186 403 195.5 Q387 205 366 216 L331 233 Q289 255 265 283 Q241 311 241 361 Q241 395 256.5 422.5 Q272 450 290 475 Q308 500 323.5 524.5 Q339 549 339 577 Q339 616 315 642.5 Q291 669 247 669 Q202 669 170 637 Q138 605 138 533 L138 0 L78 0 L78 533 Q78 583 92 619 Q106 655 129.5 678 Q153 701 183.5 711.5 Q214 722 248 722 Q315 722 356 683.5 Q397 645 397 580 Q397 545 382.5 517.5 Q368 490 350 465 Q332 440 317.5 417 Q303 394 303 368 Q303 334 320.5 315.5 Q338 297 367 284 L405 265 Q459 240 486 209.5 Q513 179 513 126 Z "/>
    <glyph glyph-name="t" unicode="t" horiz-adv-x="311"
           d="M276 432 L164 432 L164 143 Q164 112 169.5 93 Q175 74 185.5 64 Q196 54 209.5 50.5 Q223 47 240 47 Q254 47 262.5 49 Q271 51 276 53 L276 1 Q272 -1 259 -4 Q246 -7 229 -7 Q203 -7 180.5 -1 Q158 5 141 21 Q124 37 114 64.5 Q104 92 104 136 L104 432 L42 432 L42 485 L104 485 L104 593 L164 593 L164 485 L276 485 L276 432 Z "/>
    <glyph glyph-name="tbar" unicode="&#x167;" horiz-adv-x="311"
           d="M276 432 L164 432 L164 293 L263 293 L263 255 L164 255 L164 143 Q164 112 169.5 93 Q175 74 185.5 64 Q196 54 209.5 50.5 Q223 47 240 47 Q254 47 262.5 49 Q271 51 276 53 L276 1 Q272 -1 259 -4 Q246 -7 229 -7 Q203 -7 180.5 -1 Q158 5 141 21 Q124 37 114 64.5 Q104 92 104 136 L104 255 L49 255 L49 293 L104 293 L104 432 L42 432 L42 485 L104 485 L104 593 L164 593 L164 485 L276 485 L276 432 Z "/>
    <glyph glyph-name="tcaron" unicode="&#x165;" horiz-adv-x="376"
           d="M276 432 L164 432 L164 143 Q164 112 169.5 93 Q175 74 185.5 64 Q196 54 209.5 50.5 Q223 47 240 47 Q254 47 262.5 49 Q271 51 276 53 L276 1 Q272 -1 259 -4 Q246 -7 229 -7 Q203 -7 180.5 -1 Q158 5 141 21 Q124 37 114 64.5 Q104 92 104 136 L104 432 L42 432 L42 485 L104 485 L104 593 L164 593 L164 485 L276 485 L276 432 Z M353 659 Q353 635 346 617.5 Q339 600 328 588 Q317 576 303 568 Q289 560 275 556 L266 578 Q283 586 300 603 Q317 620 317 653 L317 661 L308 661 Q294 661 285.5 669.5 Q277 678 277 692 Q277 708 286 716.5 Q295 725 307 725 Q327 725 340 708.5 Q353 692 353 659 Z "/>
    <glyph glyph-name="tcommaaccent" unicode="&#x163;" horiz-adv-x="311"
           d="M267 -129 Q267 -166 240.5 -186 Q214 -206 166 -206 Q142 -206 127.5 -202 Q113 -198 102 -193 L102 -159 Q112 -164 125 -167 Q138 -170 157 -170 Q187 -170 202 -159 Q217 -148 217 -128 Q217 -81 133 -81 L130 -78 L171 2 Q141 13 122.5 44 Q104 75 104 136 L104 432 L42 432 L42 485 L104 485 L104 593 L164 593 L164 485 L276 485 L276 432 L164 432 L164 143 Q164 112 169.5 93 Q175 74 185.5 64 Q196 54 209.5 50.5 Q223 47 240 47 Q254 47 262.5 49 Q271 51 276 53 L276 1 Q272 -1 259 -4 Q246 -7 229 -7 Q223 -7 217.5 -6.5 Q212 -6 207 -6 L182 -58 Q225 -60 246 -79.5 Q267 -99 267 -129 Z "/>
    <glyph glyph-name="uni021B" unicode="&#x21b;" horiz-adv-x="311"
           d="M276 432 L164 432 L164 143 Q164 112 169.5 93 Q175 74 185.5 64 Q196 54 209.5 50.5 Q223 47 240 47 Q254 47 262.5 49 Q271 51 276 53 L276 1 Q272 -1 259 -4 Q246 -7 229 -7 Q203 -7 180.5 -1 Q158 5 141 21 Q124 37 114 64.5 Q104 92 104 136 L104 432 L42 432 L42 485 L104 485 L104 593 L164 593 L164 485 L276 485 L276 432 Z M234 -113 Q234 -137 227 -154.5 Q220 -172 209 -184 Q198 -196 184 -204 Q170 -212 156 -216 L147 -194 Q164 -186 181 -169 Q198 -152 198 -119 L198 -111 L189 -111 Q175 -111 166.5 -102.5 Q158 -94 158 -80 Q158 -64 167 -55.5 Q176 -47 188 -47 Q208 -47 221 -63.5 Q234 -80 234 -113 Z "/>
    <glyph glyph-name="u" unicode="u" horiz-adv-x="504"
           d="M429 0 L371 0 L371 51 L369 51 Q363 43 353.5 32.5 Q344 22 327.5 12 Q311 2 287 -5 Q263 -12 228 -12 Q150 -12 112.5 32 Q75 76 75 173 L75 485 L135 485 L135 183 Q135 108 160 75.5 Q185 43 246 43 Q271 43 290 48.5 Q309 54 324 63 Q339 72 349.5 82.5 Q360 93 368 103 L368 485 L429 485 L429 0 Z "/>
    <glyph glyph-name="uacute" unicode="&#xfa;" horiz-adv-x="504"
           d="M429 0 L371 0 L371 51 L369 51 Q363 43 353.5 32.5 Q344 22 327.5 12 Q311 2 287 -5 Q263 -12 228 -12 Q150 -12 112.5 32 Q75 76 75 173 L75 485 L135 485 L135 183 Q135 108 160 75.5 Q185 43 246 43 Q271 43 290 48.5 Q309 54 324 63 Q339 72 349.5 82.5 Q360 93 368 103 L368 485 L429 485 L429 0 Z M383 681 L278 546 L222 546 L311 683 L383 683 L383 681 Z "/>
    <glyph glyph-name="ubreve" unicode="&#x16d;" horiz-adv-x="504"
           d="M429 0 L371 0 L371 51 L369 51 Q363 43 353.5 32.5 Q344 22 327.5 12 Q311 2 287 -5 Q263 -12 228 -12 Q150 -12 112.5 32 Q75 76 75 173 L75 485 L135 485 L135 183 Q135 108 160 75.5 Q185 43 246 43 Q271 43 290 48.5 Q309 54 324 63 Q339 72 349.5 82.5 Q360 93 368 103 L368 485 L429 485 L429 0 Z M363 663 Q362 609 333.5 577.5 Q305 546 251 546 Q196 546 168 577.5 Q140 609 139 663 L180 663 Q181 627 199.5 609 Q218 591 251 591 Q283 591 301.5 609 Q320 627 321 663 L363 663 L363 663 Z "/>
    <glyph glyph-name="ucircumflex" unicode="&#xfb;" horiz-adv-x="504"
           d="M429 0 L371 0 L371 51 L369 51 Q363 43 353.5 32.5 Q344 22 327.5 12 Q311 2 287 -5 Q263 -12 228 -12 Q150 -12 112.5 32 Q75 76 75 173 L75 485 L135 485 L135 183 Q135 108 160 75.5 Q185 43 246 43 Q271 43 290 48.5 Q309 54 324 63 Q339 72 349.5 82.5 Q360 93 368 103 L368 485 L429 485 L429 0 Z M323 545 L252 645 L250 645 L179 545 L133 545 L217 686 L286 686 L369 545 L323 545 Z "/>
    <glyph glyph-name="udieresis" unicode="&#xfc;" horiz-adv-x="504"
           d="M429 0 L371 0 L371 51 L369 51 Q363 43 353.5 32.5 Q344 22 327.5 12 Q311 2 287 -5 Q263 -12 228 -12 Q150 -12 112.5 32 Q75 76 75 173 L75 485 L135 485 L135 183 Q135 108 160 75.5 Q185 43 246 43 Q271 43 290 48.5 Q309 54 324 63 Q339 72 349.5 82.5 Q360 93 368 103 L368 485 L429 485 L429 0 Z M182 655 Q214 655 214 618 L214 610 Q214 593 206 583.5 Q198 574 182 574 Q166 574 157.5 583.5 Q149 593 149 610 L149 618 Q149 655 182 655 Z M320 655 Q353 655 353 618 L353 610 Q353 593 344.5 583.5 Q336 574 320 574 Q304 574 296 583.5 Q288 593 288 610 L288 618 Q288 655 320 655 Z "/>
    <glyph glyph-name="ugrave" unicode="&#xf9;" horiz-adv-x="504"
           d="M429 0 L371 0 L371 51 L369 51 Q363 43 353.5 32.5 Q344 22 327.5 12 Q311 2 287 -5 Q263 -12 228 -12 Q150 -12 112.5 32 Q75 76 75 173 L75 485 L135 485 L135 183 Q135 108 160 75.5 Q185 43 246 43 Q271 43 290 48.5 Q309 54 324 63 Q339 72 349.5 82.5 Q360 93 368 103 L368 485 L429 485 L429 0 Z M224 546 L119 681 L119 683 L191 683 L280 546 L224 546 Z "/>
    <glyph glyph-name="uhungarumlaut" unicode="&#x171;" horiz-adv-x="504"
           d="M429 0 L371 0 L371 51 L369 51 Q363 43 353.5 32.5 Q344 22 327.5 12 Q311 2 287 -5 Q263 -12 228 -12 Q150 -12 112.5 32 Q75 76 75 173 L75 485 L135 485 L135 183 Q135 108 160 75.5 Q185 43 246 43 Q271 43 290 48.5 Q309 54 324 63 Q339 72 349.5 82.5 Q360 93 368 103 L368 485 L429 485 L429 0 Z M299 681 L215 546 L171 546 L244 683 L299 683 L299 681 Z M413 681 L330 546 L285 546 L358 683 L413 683 L413 681 Z "/>
    <glyph glyph-name="umacron" unicode="&#x16b;" horiz-adv-x="504"
           d="M429 0 L371 0 L371 51 L369 51 Q363 43 353.5 32.5 Q344 22 327.5 12 Q311 2 287 -5 Q263 -12 228 -12 Q150 -12 112.5 32 Q75 76 75 173 L75 485 L135 485 L135 183 Q135 108 160 75.5 Q185 43 246 43 Q271 43 290 48.5 Q309 54 324 63 Q339 72 349.5 82.5 Q360 93 368 103 L368 485 L429 485 L429 0 Z M358 575 L145 575 L145 622 L358 622 L358 575 Z "/>
    <glyph glyph-name="uogonek" unicode="&#x173;" horiz-adv-x="504"
           d="M451 -196 Q445 -200 431 -204.5 Q417 -209 392 -209 Q350 -209 327.5 -187.5 Q305 -166 305 -124 Q305 -102 311 -82.5 Q317 -63 327 -46.5 Q337 -30 348.5 -17 Q360 -4 371 6 L371 51 L369 51 Q363 43 353.5 32.5 Q344 22 327.5 12 Q311 2 287 -5 Q263 -12 228 -12 Q150 -12 112.5 32 Q75 76 75 173 L75 485 L135 485 L135 183 Q135 108 160 75.5 Q185 43 246 43 Q271 43 290 48.5 Q309 54 324 63 Q339 72 349.5 82.5 Q360 93 368 103 L368 485 L429 485 L429 0 L416 0 Q398 -17 380 -44 Q362 -71 362 -109 Q362 -133 374 -145 Q386 -157 406 -157 Q423 -157 434.5 -153.5 Q446 -150 451 -147 L451 -196 Z "/>
    <glyph glyph-name="uring" unicode="&#x16f;" horiz-adv-x="504"
           d="M429 0 L371 0 L371 51 L369 51 Q363 43 353.5 32.5 Q344 22 327.5 12 Q311 2 287 -5 Q263 -12 228 -12 Q150 -12 112.5 32 Q75 76 75 173 L75 485 L135 485 L135 183 Q135 108 160 75.5 Q185 43 246 43 Q271 43 290 48.5 Q309 54 324 63 Q339 72 349.5 82.5 Q360 93 368 103 L368 485 L429 485 L429 0 Z M329 623 Q329 587 307.5 565.5 Q286 544 251 544 Q216 544 194 565.5 Q172 587 172 623 Q172 658 194 679.5 Q216 701 251 701 Q286 701 307.5 679.5 Q329 658 329 623 Z M293 623 Q293 644 281.5 656 Q270 668 251 668 Q232 668 220.5 656 Q209 644 209 623 Q209 602 220.5 590 Q232 578 251 578 Q270 578 281.5 590 Q293 602 293 623 Z "/>
    <glyph glyph-name="utilde" unicode="&#x169;" horiz-adv-x="504"
           d="M429 0 L371 0 L371 51 L369 51 Q363 43 353.5 32.5 Q344 22 327.5 12 Q311 2 287 -5 Q263 -12 228 -12 Q150 -12 112.5 32 Q75 76 75 173 L75 485 L135 485 L135 183 Q135 108 160 75.5 Q185 43 246 43 Q271 43 290 48.5 Q309 54 324 63 Q339 72 349.5 82.5 Q360 93 368 103 L368 485 L429 485 L429 0 Z M385 645 Q384 601 367.5 576 Q351 551 315 551 Q293 551 276.5 559.5 Q260 568 246 578.5 Q232 589 218 598 Q204 607 188 607 Q168 607 161 594 Q154 581 153 558 L117 558 Q118 603 134 628 Q150 653 186 653 Q208 653 224.5 644 Q241 635 255 624.5 Q269 614 283 605 Q297 596 314 596 Q334 596 341.5 609 Q349 622 350 645 L385 645 L385 645 Z "/>
    <glyph glyph-name="v" unicode="v" horiz-adv-x="447"
           d="M248 0 L199 0 L25 485 L90 485 L224 85 L225 85 L360 485 L422 485 L248 0 Z "/>
    <glyph glyph-name="w" unicode="w" horiz-adv-x="673"
           d="M522 0 L466 0 L337 399 L335 399 L207 0 L150 0 L33 485 L95 485 L182 96 L183 96 L307 485 L366 485 L490 96 L491 96 L578 485 L640 485 L522 0 Z "/>
    <glyph glyph-name="wacute" unicode="&#x1e83;" horiz-adv-x="673"
           d="M522 0 L466 0 L337 399 L335 399 L207 0 L150 0 L33 485 L95 485 L182 96 L183 96 L307 485 L366 485 L490 96 L491 96 L578 485 L640 485 L522 0 Z M469 681 L364 546 L308 546 L397 683 L469 683 L469 681 Z "/>
    <glyph glyph-name="wcircumflex" unicode="&#x175;" horiz-adv-x="673"
           d="M522 0 L466 0 L337 399 L335 399 L207 0 L150 0 L33 485 L95 485 L182 96 L183 96 L307 485 L366 485 L490 96 L491 96 L578 485 L640 485 L522 0 Z M408 545 L337 645 L335 645 L264 545 L218 545 L302 686 L371 686 L454 545 L408 545 Z "/>
    <glyph glyph-name="wdieresis" unicode="&#x1e85;" horiz-adv-x="673"
           d="M522 0 L466 0 L337 399 L335 399 L207 0 L150 0 L33 485 L95 485 L182 96 L183 96 L307 485 L366 485 L490 96 L491 96 L578 485 L640 485 L522 0 Z M267 655 Q299 655 299 618 L299 610 Q299 593 291 583.5 Q283 574 267 574 Q251 574 242.5 583.5 Q234 593 234 610 L234 618 Q234 655 267 655 Z M405 655 Q438 655 438 618 L438 610 Q438 593 429.5 583.5 Q421 574 405 574 Q389 574 381 583.5 Q373 593 373 610 L373 618 Q373 655 405 655 Z "/>
    <glyph glyph-name="wgrave" unicode="&#x1e81;" horiz-adv-x="673"
           d="M522 0 L466 0 L337 399 L335 399 L207 0 L150 0 L33 485 L95 485 L182 96 L183 96 L307 485 L366 485 L490 96 L491 96 L578 485 L640 485 L522 0 Z M309 546 L204 681 L204 683 L276 683 L365 546 L309 546 Z "/>
    <glyph glyph-name="x" unicode="x" horiz-adv-x="430"
           d="M248 251 L401 0 L331 0 L215 197 L213 197 L96 0 L30 0 L183 248 L40 485 L110 485 L216 302 L218 302 L327 485 L393 485 L248 251 Z "/>
    <glyph glyph-name="uni1E8B" unicode="&#x1e8b;" horiz-adv-x="430"
           d="M248 251 L401 0 L331 0 L215 197 L213 197 L96 0 L30 0 L183 248 L40 485 L110 485 L216 302 L218 302 L327 485 L393 485 L248 251 Z M217 664 Q253 664 253 623 L253 619 Q253 578 217 578 Q180 578 180 619 L180 623 Q180 664 217 664 Z "/>
    <glyph glyph-name="y" unicode="y" horiz-adv-x="501"
           d="M427 12 Q427 -104 380.5 -158 Q334 -212 234 -212 Q198 -212 171.5 -204 Q145 -196 125.5 -185 Q106 -174 93 -161.5 Q80 -149 72 -140 L99 -91 Q106 -100 117.5 -111.5 Q129 -123 145.5 -133.5 Q162 -144 183.5 -151 Q205 -158 234 -158 Q308 -158 337 -118 Q366 -78 366 4 L366 48 L365 48 Q359 40 349 30 Q339 20 322.5 10.5 Q306 1 282.5 -5.5 Q259 -12 225 -12 Q147 -12 109.5 32 Q72 76 72 173 L72 485 L133 485 L133 183 Q133 108 158 75.5 Q183 43 244 43 Q269 43 288 48.5 Q307 54 321.5 63 Q336 72 347 82.5 Q358 93 366 103 L366 485 L427 485 L427 12 Z "/>
    <glyph glyph-name="yacute" unicode="&#xfd;" horiz-adv-x="501"
           d="M381 681 L276 546 L220 546 L309 683 L381 683 L381 681 Z M427 12 Q427 -104 380.5 -158 Q334 -212 234 -212 Q198 -212 171.5 -204 Q145 -196 125.5 -185 Q106 -174 93 -161.5 Q80 -149 72 -140 L99 -91 Q106 -100 117.5 -111.5 Q129 -123 145.5 -133.5 Q162 -144 183.5 -151 Q205 -158 234 -158 Q308 -158 337 -118 Q366 -78 366 4 L366 48 L365 48 Q359 40 349 30 Q339 20 322.5 10.5 Q306 1 282.5 -5.5 Q259 -12 225 -12 Q147 -12 109.5 32 Q72 76 72 173 L72 485 L133 485 L133 183 Q133 108 158 75.5 Q183 43 244 43 Q269 43 288 48.5 Q307 54 321.5 63 Q336 72 347 82.5 Q358 93 366 103 L366 485 L427 485 L427 12 Z "/>
    <glyph glyph-name="ycircumflex" unicode="&#x177;" horiz-adv-x="501"
           d="M427 12 Q427 -104 380.5 -158 Q334 -212 234 -212 Q198 -212 171.5 -204 Q145 -196 125.5 -185 Q106 -174 93 -161.5 Q80 -149 72 -140 L99 -91 Q106 -100 117.5 -111.5 Q129 -123 145.5 -133.5 Q162 -144 183.5 -151 Q205 -158 234 -158 Q308 -158 337 -118 Q366 -78 366 4 L366 48 L365 48 Q359 40 349 30 Q339 20 322.5 10.5 Q306 1 282.5 -5.5 Q259 -12 225 -12 Q147 -12 109.5 32 Q72 76 72 173 L72 485 L133 485 L133 183 Q133 108 158 75.5 Q183 43 244 43 Q269 43 288 48.5 Q307 54 321.5 63 Q336 72 347 82.5 Q358 93 366 103 L366 485 L427 485 L427 12 Z M320 545 L249 645 L247 645 L176 545 L130 545 L214 686 L283 686 L366 545 L320 545 Z "/>
    <glyph glyph-name="ydieresis" unicode="&#xff;" horiz-adv-x="501"
           d="M427 12 Q427 -104 380.5 -158 Q334 -212 234 -212 Q198 -212 171.5 -204 Q145 -196 125.5 -185 Q106 -174 93 -161.5 Q80 -149 72 -140 L99 -91 Q106 -100 117.5 -111.5 Q129 -123 145.5 -133.5 Q162 -144 183.5 -151 Q205 -158 234 -158 Q308 -158 337 -118 Q366 -78 366 4 L366 48 L365 48 Q359 40 349 30 Q339 20 322.5 10.5 Q306 1 282.5 -5.5 Q259 -12 225 -12 Q147 -12 109.5 32 Q72 76 72 173 L72 485 L133 485 L133 183 Q133 108 158 75.5 Q183 43 244 43 Q269 43 288 48.5 Q307 54 321.5 63 Q336 72 347 82.5 Q358 93 366 103 L366 485 L427 485 L427 12 Z M180 655 Q212 655 212 618 L212 610 Q212 593 204 583.5 Q196 574 180 574 Q164 574 155.5 583.5 Q147 593 147 610 L147 618 Q147 655 180 655 Z M318 655 Q351 655 351 618 L351 610 Q351 593 342.5 583.5 Q334 574 318 574 Q302 574 294 583.5 Q286 593 286 610 L286 618 Q286 655 318 655 Z "/>
    <glyph glyph-name="ygrave" unicode="&#x1ef3;" horiz-adv-x="501"
           d="M221 546 L116 681 L116 683 L188 683 L277 546 L221 546 Z M427 12 Q427 -104 380.5 -158 Q334 -212 234 -212 Q198 -212 171.5 -204 Q145 -196 125.5 -185 Q106 -174 93 -161.5 Q80 -149 72 -140 L99 -91 Q106 -100 117.5 -111.5 Q129 -123 145.5 -133.5 Q162 -144 183.5 -151 Q205 -158 234 -158 Q308 -158 337 -118 Q366 -78 366 4 L366 48 L365 48 Q359 40 349 30 Q339 20 322.5 10.5 Q306 1 282.5 -5.5 Q259 -12 225 -12 Q147 -12 109.5 32 Q72 76 72 173 L72 485 L133 485 L133 183 Q133 108 158 75.5 Q183 43 244 43 Q269 43 288 48.5 Q307 54 321.5 63 Q336 72 347 82.5 Q358 93 366 103 L366 485 L427 485 L427 12 Z "/>
    <glyph glyph-name="z" unicode="z" horiz-adv-x="430"
           d="M384 442 L128 56 L128 54 L395 54 L395 0 L46 0 L46 42 L306 429 L306 430 L61 430 L61 485 L384 485 L384 442 Z "/>
    <glyph glyph-name="zacute" unicode="&#x17a;" horiz-adv-x="430"
           d="M384 442 L128 56 L128 54 L395 54 L395 0 L46 0 L46 42 L306 429 L306 430 L61 430 L61 485 L384 485 L384 442 Z M355 681 L250 546 L194 546 L283 683 L355 683 L355 681 Z "/>
    <glyph glyph-name="zcaron" unicode="&#x17e;" horiz-adv-x="430"
           d="M384 442 L128 56 L128 54 L395 54 L395 0 L46 0 L46 42 L306 429 L306 430 L61 430 L61 485 L384 485 L384 442 Z M257 548 L188 548 L104 688 L150 688 L221 588 L223 588 L294 688 L340 688 L257 548 Z "/>
    <glyph glyph-name="zdotaccent" unicode="&#x17c;" horiz-adv-x="430"
           d="M384 442 L128 56 L128 54 L395 54 L395 0 L46 0 L46 42 L306 429 L306 430 L61 430 L61 485 L384 485 L384 442 Z M222 664 Q258 664 258 623 L258 619 Q258 578 222 578 Q185 578 185 619 L185 623 Q185 664 222 664 Z "/>
    <glyph glyph-name="uni01B6" unicode="&#x1b6;" horiz-adv-x="430"
           d="M384 442 L266 266 L358 266 L358 229 L241 229 L125 56 L125 54 L395 54 L395 0 L46 0 L46 42 L173 229 L82 229 L82 266 L199 266 L310 429 L310 430 L61 430 L61 485 L384 485 L384 442 Z "/>
    <glyph glyph-name="acute" unicode="&#xb4;" horiz-adv-x="255"
           d="M211 681 L106 546 L50 546 L139 683 L211 683 L211 681 Z "/>
    <glyph glyph-name="breve" unicode="&#x2d8;" horiz-adv-x="326"
           d="M275 663 Q274 609 245.5 577.5 Q217 546 163 546 Q108 546 80 577.5 Q52 609 51 663 L92 663 Q93 627 111.5 609 Q130 591 163 591 Q195 591 213.5 609 Q232 627 233 663 L275 663 L275 663 Z "/>
    <glyph glyph-name="caron" unicode="&#x2c7;" horiz-adv-x="334"
           d="M202 548 L133 548 L49 688 L95 688 L166 588 L168 588 L239 688 L285 688 L202 548 Z "/>
    <glyph glyph-name="cedilla" unicode="&#xb8;" horiz-adv-x="268"
           d="M218 -129 Q218 -166 191.5 -186 Q165 -206 117 -206 Q93 -206 78.5 -202 Q64 -198 53 -193 L53 -159 Q63 -164 76 -167 Q89 -170 108 -170 Q138 -170 153 -159 Q168 -148 168 -128 Q168 -81 84 -81 L81 -78 L124 5 L164 5 L133 -58 Q176 -60 197 -79.5 Q218 -99 218 -129 Z "/>
    <glyph glyph-name="circumflex" unicode="&#x2c6;" horiz-adv-x="334"
           d="M239 545 L168 645 L166 645 L95 545 L49 545 L133 686 L202 686 L285 545 L239 545 Z "/>
    <glyph glyph-name="commaaccent" unicode="&#xf6c3;" horiz-adv-x="188"
           d="M142 -113 Q142 -137 135 -154.5 Q128 -172 117 -184 Q106 -196 92 -204 Q78 -212 64 -216 L55 -194 Q72 -186 89 -169 Q106 -152 106 -119 L106 -111 L97 -111 Q83 -111 74.5 -102.5 Q66 -94 66 -80 Q66 -64 75 -55.5 Q84 -47 96 -47 Q116 -47 129 -63.5 Q142 -80 142 -113 Z "/>
    <glyph glyph-name="dieresis" unicode="&#xa8;" horiz-adv-x="299"
           d="M81 655 Q113 655 113 618 L113 610 Q113 593 105 583.5 Q97 574 81 574 Q65 574 56.5 583.5 Q48 593 48 610 L48 618 Q48 655 81 655 Z M219 655 Q252 655 252 618 L252 610 Q252 593 243.5 583.5 Q235 574 219 574 Q203 574 195 583.5 Q187 593 187 610 L187 618 Q187 655 219 655 Z "/>
    <glyph glyph-name="dotaccent" unicode="&#x2d9;" horiz-adv-x="170"
           d="M85 664 Q121 664 121 623 L121 619 Q121 578 85 578 Q48 578 48 619 L48 623 Q48 664 85 664 Z "/>
    <glyph glyph-name="grave" unicode="&#x60;" horiz-adv-x="255"
           d="M149 546 L44 681 L44 683 L116 683 L205 546 L149 546 Z "/>
    <glyph glyph-name="hungarumlaut" unicode="&#x2dd;" horiz-adv-x="331"
           d="M174 681 L90 546 L46 546 L119 683 L174 683 L174 681 Z M288 681 L205 546 L160 546 L233 683 L288 683 L288 681 Z "/>
    <glyph glyph-name="macron" unicode="&#xaf;" horiz-adv-x="312" d="M263 575 L50 575 L50 622 L263 622 L263 575 Z "/>
    <glyph glyph-name="ogonek" unicode="&#x2db;" horiz-adv-x="255"
           d="M200 -196 Q194 -200 180 -204.5 Q166 -209 141 -209 Q99 -209 76.5 -187.5 Q54 -166 54 -124 Q54 -95 64.5 -70.5 Q75 -46 89.5 -27 Q104 -8 119.5 5.5 Q135 19 144 26 L176 10 Q167 2 156 -9 Q145 -20 135 -35 Q125 -50 118 -68.5 Q111 -87 111 -109 Q111 -133 123 -145 Q135 -157 155 -157 Q172 -157 183.5 -153.5 Q195 -150 200 -147 L200 -196 Z "/>
    <glyph glyph-name="ring" unicode="&#x2da;" horiz-adv-x="258"
           d="M207 623 Q207 587 185.5 565.5 Q164 544 129 544 Q94 544 72 565.5 Q50 587 50 623 Q50 658 72 679.5 Q94 701 129 701 Q164 701 185.5 679.5 Q207 658 207 623 Z M171 623 Q171 644 159.5 656 Q148 668 129 668 Q110 668 98.5 656 Q87 644 87 623 Q87 602 98.5 590 Q110 578 129 578 Q148 578 159.5 590 Q171 602 171 623 Z "/>
    <glyph glyph-name="tilde" unicode="&#x2dc;" horiz-adv-x="372"
           d="M320 645 Q319 601 302.5 576 Q286 551 250 551 Q228 551 211.5 559.5 Q195 568 181 578.5 Q167 589 153 598 Q139 607 123 607 Q103 607 96 594 Q89 581 88 558 L52 558 Q53 603 69 628 Q85 653 121 653 Q143 653 159.5 644 Q176 635 190 624.5 Q204 614 218 605 Q232 596 249 596 Q269 596 276.5 609 Q284 622 285 645 L320 645 L320 645 Z "/>
    <glyph glyph-name="bar" unicode="&#x7c;" horiz-adv-x="257" d="M154 -120 L103 -120 L103 710 L154 710 L154 -120 Z "/>
    <glyph glyph-name="brokenbar" unicode="&#xa6;" horiz-adv-x="257"
           d="M154 343 L103 343 L103 710 L154 710 L154 343 Z M154 -120 L103 -120 L103 247 L154 247 L154 -120 Z "/>
    <glyph glyph-name="slash" unicode="&#x2f;" horiz-adv-x="358" d="M50 -120 L-3 -120 L291 710 L344 710 L50 -120 Z "/>
    <glyph glyph-name="backslash" unicode="&#x5c;" horiz-adv-x="358"
           d="M13 710 L66 710 L360 -120 L307 -120 L13 710 Z "/>
    <glyph glyph-name="comma" unicode="&#x2c;" horiz-adv-x="213"
           d="M160 0 Q160 -30 151.5 -54 Q143 -78 129.5 -95.5 Q116 -113 99 -125 Q82 -137 65 -144 L50 -116 Q63 -109 75 -99.5 Q87 -90 96 -77.5 Q105 -65 110.5 -48 Q116 -31 116 -8 Q116 -6 115.5 -4 Q115 -2 115 0 L104 0 Q87 0 76 13 Q65 26 65 43 Q65 65 77 74 Q89 83 103 83 Q126 83 143 62 Q160 41 160 0 Z "/>
    <glyph glyph-name="period" unicode="&#x2e;" horiz-adv-x="213"
           d="M106 87 Q124 87 134.5 76 Q145 65 145 43 L145 37 Q145 15 134.5 4 Q124 -7 106 -7 Q89 -7 78.5 4 Q68 15 68 37 L68 43 Q68 65 78.5 76 Q89 87 106 87 Z "/>
    <glyph glyph-name="semicolon" unicode="&#x3b;" horiz-adv-x="213"
           d="M160 0 Q160 -30 151.5 -54 Q143 -78 129.5 -95.5 Q116 -113 99 -125 Q82 -137 65 -144 L50 -116 Q63 -109 75 -99.5 Q87 -90 96 -77.5 Q105 -65 110.5 -48 Q116 -31 116 -8 Q116 -6 115.5 -4 Q115 -2 115 0 L104 0 Q87 0 76 13 Q65 26 65 43 Q65 65 77 74 Q89 83 103 83 Q126 83 143 62 Q160 41 160 0 Z M104 491 Q122 491 132.5 480 Q143 469 143 447 L143 441 Q143 419 132.5 408 Q122 397 104 397 Q87 397 76.5 408 Q66 419 66 441 L66 447 Q66 469 76.5 480 Q87 491 104 491 Z "/>
    <glyph glyph-name="colon" unicode="&#x3a;" horiz-adv-x="213"
           d="M106 491 Q124 491 134.5 480 Q145 469 145 447 L145 441 Q145 419 134.5 408 Q124 397 106 397 Q89 397 78.5 408 Q68 419 68 441 L68 447 Q68 469 78.5 480 Q89 491 106 491 Z M106 87 Q124 87 134.5 76 Q145 65 145 43 L145 37 Q145 15 134.5 4 Q124 -7 106 -7 Q89 -7 78.5 4 Q68 15 68 37 L68 43 Q68 65 78.5 76 Q89 87 106 87 Z "/>
    <glyph glyph-name="uni2008" unicode="&#x2008;" horiz-adv-x="213" d=""/>
    <glyph glyph-name="periodcentered" unicode="&#xb7;" horiz-adv-x="213"
           d="M106 358 Q124 358 134.5 347 Q145 336 145 314 L145 308 Q145 286 134.5 275 Q124 264 106 264 Q89 264 78.5 275 Q68 286 68 308 L68 314 Q68 336 78.5 347 Q89 358 106 358 Z "/>
    <glyph glyph-name="dotmath" unicode="&#x22c5;" horiz-adv-x="213"
           d="M106 356 Q124 356 134.5 345 Q145 334 145 312 L145 306 Q145 284 134.5 273 Q124 262 106 262 Q89 262 78.5 273 Q68 284 68 306 L68 312 Q68 334 78.5 345 Q89 356 106 356 Z "/>
    <glyph glyph-name="ellipsis" unicode="&#x2026;" horiz-adv-x="798"
           d="M143 85 Q160 85 171 74 Q182 63 182 41 L182 37 Q182 15 171 4 Q160 -7 143 -7 Q126 -7 115.5 4 Q105 15 105 37 L105 41 Q105 63 115.5 74 Q126 85 143 85 Z M399 85 Q417 85 427.5 74 Q438 63 438 41 L438 37 Q438 15 427.5 4 Q417 -7 399 -7 Q382 -7 371.5 4 Q361 15 361 37 L361 41 Q361 63 371.5 74 Q382 85 399 85 Z M656 85 Q673 85 683.5 74 Q694 63 694 41 L694 37 Q694 15 683.5 4 Q673 -7 656 -7 Q639 -7 628 4 Q617 15 617 37 L617 41 Q617 63 628 74 Q639 85 656 85 Z "/>
    <glyph glyph-name="exclam" unicode="&#x21;" horiz-adv-x="245"
           d="M160 162 L103 162 L97 690 L166 690 L160 162 Z M132 87 Q149 87 159.5 76 Q170 65 170 43 L170 37 Q170 15 159.5 4 Q149 -7 132 -7 Q114 -7 103.5 4 Q93 15 93 37 L93 43 Q93 65 103.5 76 Q114 87 132 87 Z "/>
    <glyph glyph-name="exclamdown" unicode="&#xa1;" horiz-adv-x="245"
           d="M85 322 L142 322 L148 -206 L79 -206 L85 322 Z M113 397 Q96 397 85.5 408 Q75 419 75 441 L75 447 Q75 469 85.5 480 Q96 491 113 491 Q131 491 141.5 480 Q152 469 152 447 L152 441 Q152 419 141.5 408 Q131 397 113 397 Z "/>
    <glyph glyph-name="question" unicode="&#x3f;" horiz-adv-x="367"
           d="M347 546 Q347 504 334 475 Q321 446 301.5 424.5 Q282 403 259.5 386 Q237 369 217.5 352 Q198 335 185 315 Q172 295 172 267 Q172 229 186 205 Q200 181 214 164 L214 162 L154 162 Q142 177 126 204 Q110 231 110 277 Q110 308 123 331 Q136 354 155.5 372.5 Q175 391 197.5 407.5 Q220 424 239.5 443 Q259 462 272 485 Q285 508 285 540 Q285 591 257 619 Q229 647 180 647 Q133 647 102.5 628 Q72 609 58 591 L30 635 Q38 645 51.5 656.5 Q65 668 84.5 678 Q104 688 129.5 695 Q155 702 187 702 Q262 702 304.5 661.5 Q347 621 347 546 Z M184 87 Q201 87 211.5 76 Q222 65 222 43 L222 37 Q222 15 211.5 4 Q201 -7 184 -7 Q167 -7 156 4 Q145 15 145 37 L145 43 Q145 65 156 76 Q167 87 184 87 Z "/>
    <glyph glyph-name="questiondown" unicode="&#xbf;" horiz-adv-x="348"
           d="M20 -62 Q20 -21 33 8.5 Q46 38 65.5 59.5 Q85 81 107.5 98 Q130 115 149.5 132 Q169 149 182 169 Q195 189 195 217 Q195 255 181 279 Q167 303 153 320 L153 322 L213 322 Q225 307 241 280 Q257 253 257 207 Q257 176 244 153 Q231 130 211.5 111.5 Q192 93 169.5 76.5 Q147 60 127.5 41 Q108 22 95 -1 Q82 -24 82 -56 Q82 -107 110 -135 Q138 -163 187 -163 Q234 -163 264.5 -144 Q295 -125 309 -107 L337 -151 Q329 -161 315.5 -172.5 Q302 -184 282.5 -194 Q263 -204 237 -211 Q211 -218 180 -218 Q105 -218 62.5 -177.5 Q20 -137 20 -62 Z M183 397 Q166 397 155.5 408 Q145 419 145 441 L145 447 Q145 469 155.5 480 Q166 491 183 491 Q200 491 211 480 Q222 469 222 447 L222 441 Q222 419 211 408 Q200 397 183 397 Z "/>
    <glyph glyph-name="ampersand" unicode="&#x26;" horiz-adv-x="571"
           d="M68 156 Q68 195 81 226 Q94 257 115 281.5 Q136 306 164 325 Q192 344 222 360 Q198 402 185.5 443 Q173 484 173 535 Q173 574 185.5 604.5 Q198 635 219.5 657 Q241 679 271 690.5 Q301 702 336 702 Q404 702 438 662 Q472 622 472 558 Q472 517 458.5 485.5 Q445 454 422 428 Q399 402 368 381 Q337 360 301 341 Q310 327 319.5 313 Q329 299 340 283 L533 0 L459 0 L279 270 Q271 282 263.5 293 Q256 304 249 315 Q224 301 202.5 286 Q181 271 165 253 Q149 235 139.5 212.5 Q130 190 130 161 Q130 101 162 72 Q194 43 255 42 Q290 42 312 48 Q334 54 342 58 L350 5 Q339 0 314.5 -6 Q290 -12 252 -12 Q167 -12 117.5 27.5 Q68 67 68 156 Z M233 537 Q233 495 243.5 460 Q254 425 275 385 Q306 402 332 419.5 Q358 437 376 456.5 Q394 476 404 499.5 Q414 523 414 553 Q414 595 393.5 621.5 Q373 648 332 648 Q288 648 260.5 618.5 Q233 589 233 537 Z "/>
    <glyph glyph-name="at" unicode="&#x40;" horiz-adv-x="825"
           d="M768 360 Q768 287 753 226.5 Q738 166 712.5 122 Q687 78 652 53.5 Q617 29 577 29 Q542 29 523.5 45.5 Q505 62 499 93 Q481 71 450 50 Q419 29 371 29 Q317 29 284.5 65.5 Q252 102 252 180 Q252 241 267.5 290.5 Q283 340 309 374.5 Q335 409 370 428 Q405 447 444 447 Q467 447 483 441 Q499 435 509.5 426.5 Q520 418 525.5 409.5 Q531 401 534 396 L536 396 L542 437 L594 437 L560 217 Q556 193 553 170.5 Q550 148 550 131 Q550 104 557.5 90 Q565 76 586 76 Q612 76 635 98 Q658 120 675.5 158 Q693 196 703 247 Q713 298 713 357 Q713 475 657 532.5 Q601 590 493 590 Q418 590 351.5 560.5 Q285 531 235.5 474.5 Q186 418 157.5 336.5 Q129 255 129 151 Q129 82 146 32 Q163 -18 194.5 -50.5 Q226 -83 270 -98.5 Q314 -114 368 -114 Q411 -114 445 -108.5 Q479 -103 504.5 -95 Q530 -87 547 -79 Q564 -71 572 -66 L581 -111 Q572 -117 554.5 -126 Q537 -135 510 -144 Q483 -153 445.5 -159 Q408 -165 360 -165 Q298 -165 245.5 -146.5 Q193 -128 155 -90 Q117 -52 95 7 Q73 66 73 147 Q73 267 107.5 359 Q142 451 200.5 513.5 Q259 576 336 608.5 Q413 641 497 641 Q557 641 607 624 Q657 607 693 572.5 Q729 538 748.5 485 Q768 432 768 360 Z M386 77 Q426 77 452.5 95.5 Q479 114 496 135 Q496 170 504 210 L526 350 Q524 355 519 363 Q514 371 505 379 Q496 387 482.5 393 Q469 399 450 399 Q420 399 394 384 Q368 369 348.5 341 Q329 313 318 273 Q307 233 307 183 Q307 77 386 77 Z "/>
    <glyph glyph-name="asterisk" unicode="&#x2a;" horiz-adv-x="414"
           d="M189 538 L184 699 L229 699 L224 538 L361 622 L383 584 L242 507 L383 431 L361 392 L224 477 L229 316 L184 316 L189 477 L52 392 L30 431 L171 507 L30 584 L52 622 L189 538 Z "/>
    <glyph glyph-name="section" unicode="&#xa7;" horiz-adv-x="484"
           d="M55 344 Q55 389 78.5 419 Q102 449 135 467 Q118 486 108.5 511 Q99 536 99 571 Q99 633 140 667.5 Q181 702 244 702 Q292 702 322 688 Q352 674 370 658 L348 609 Q332 624 306.5 636.5 Q281 649 246 649 Q206 649 182.5 629 Q159 609 159 572 Q159 530 181 508 Q203 486 237 470 L316 434 Q375 407 402 370 Q429 333 429 280 Q429 235 407.5 204.5 Q386 174 354 156 Q385 116 385 58 Q385 -13 342.5 -48.5 Q300 -84 232 -84 Q175 -84 141.5 -65.5 Q108 -47 88 -27 L112 21 Q127 5 156 -13 Q185 -31 229 -31 Q276 -31 300.5 -10 Q325 11 325 53 Q325 94 304 118 Q283 142 240 162 L168 197 Q114 223 84.5 257.5 Q55 292 55 344 Z M210 417 Q200 421 191.5 425.5 Q183 430 175 435 Q149 421 132 399.5 Q115 378 115 349 Q115 312 137 290 Q159 268 202 248 L272 215 Q297 203 316 190 Q340 204 354.5 224.5 Q369 245 369 273 Q369 312 350 336 Q331 360 283 383 L210 417 Z "/>
    <glyph glyph-name="dagger" unicode="&#x2020;" horiz-adv-x="420"
           d="M378 471 L236 471 L236 -72 L184 -72 L184 471 L42 471 L42 517 L184 517 L184 690 L236 690 L236 517 L378 517 L378 471 Z "/>
    <glyph glyph-name="daggerdbl" unicode="&#x2021;" horiz-adv-x="428"
           d="M382 471 L240 471 L240 307 L364 307 L364 260 L240 260 L240 -72 L188 -72 L188 260 L65 260 L65 307 L188 307 L188 471 L46 471 L46 517 L188 517 L188 690 L240 690 L240 517 L382 517 L382 471 Z "/>
    <glyph glyph-name="paragraph" unicode="&#xb6;" horiz-adv-x="499"
           d="M413 0 L365 0 L365 690 L413 690 L413 0 Z M293 0 L244 0 L244 345 L230 345 Q191 345 156 355.5 Q121 366 95.5 387.5 Q70 409 55 441.5 Q40 474 40 517 Q40 560 55.5 592.5 Q71 625 97 646.5 Q123 668 158.5 679 Q194 690 235 690 L293 690 L293 0 Z "/>
    <glyph glyph-name="copyright" unicode="&#xa9;" horiz-adv-x="783"
           d="M726 345 Q726 265 702 199.5 Q678 134 634.5 87 Q591 40 529 14 Q467 -12 391 -12 Q315 -12 253 14 Q191 40 147.5 87 Q104 134 80 199.5 Q56 265 56 345 Q56 424 80 490 Q104 556 147.5 603 Q191 650 253 676 Q315 702 391 702 Q467 702 529 676 Q591 650 634.5 603 Q678 556 702 490 Q726 424 726 345 Z M678 345 Q678 413 658 470.5 Q638 528 601 569.5 Q564 611 510.5 634 Q457 657 391 657 Q325 657 271.5 634 Q218 611 181 569.5 Q144 528 124 470.5 Q104 413 104 345 Q104 277 124 219.5 Q144 162 181 120.5 Q218 79 271.5 56 Q325 33 391 33 Q457 33 510.5 56 Q564 79 601 120.5 Q638 162 658 219.5 Q678 277 678 345 Z M213 347 Q213 401 229.5 440.5 Q246 480 273.5 505.5 Q301 531 335.5 543.5 Q370 556 406 556 Q433 556 453 551.5 Q473 547 487.5 540.5 Q502 534 511.5 527 Q521 520 527 516 L507 474 Q496 483 474.5 494.5 Q453 506 412 506 Q383 506 357 497 Q331 488 311 468.5 Q291 449 279.5 419 Q268 389 268 347 Q268 306 279 276 Q290 246 308.5 226.5 Q327 207 352.5 198 Q378 189 408 189 Q448 189 471.5 200 Q495 211 505 220 L524 180 Q518 175 508 168 Q498 161 483 155 Q468 149 447.5 144.5 Q427 140 400 140 Q364 140 330 152 Q296 164 270 189 Q244 214 228.5 253 Q213 292 213 347 Z "/>
    <glyph glyph-name="uni2117" unicode="&#x2117;" horiz-adv-x="783"
           d="M726 345 Q726 265 702 199.5 Q678 134 634.5 87 Q591 40 529 14 Q467 -12 391 -12 Q315 -12 253 14 Q191 40 147.5 87 Q104 134 80 199.5 Q56 265 56 345 Q56 424 80 490 Q104 556 147.5 603 Q191 650 253 676 Q315 702 391 702 Q467 702 529 676 Q591 650 634.5 603 Q678 556 702 490 Q726 424 726 345 Z M678 345 Q678 413 658 470.5 Q638 528 601 569.5 Q564 611 510.5 634 Q457 657 391 657 Q325 657 271.5 634 Q218 611 181 569.5 Q144 528 124 470.5 Q104 413 104 345 Q104 277 124 219.5 Q144 162 181 120.5 Q218 79 271.5 56 Q325 33 391 33 Q457 33 510.5 56 Q564 79 601 120.5 Q638 162 658 219.5 Q678 277 678 345 Z M550 419 Q550 354 508 317 Q466 280 387 280 L339 280 L339 146 L283 146 L283 548 L387 548 Q470 548 510 514 Q550 480 550 419 Z M497 415 Q497 454 470.5 476.5 Q444 499 387 499 L339 499 L339 327 L387 327 Q444 327 470.5 351 Q497 375 497 415 Z "/>
    <glyph glyph-name="registered" unicode="&#xae;" horiz-adv-x="515"
           d="M474 474 Q474 422 457.5 380.5 Q441 339 412.5 310.5 Q384 282 344 267 Q304 252 258 252 Q211 252 171.5 267 Q132 282 103 310.5 Q74 339 58 380.5 Q42 422 42 474 Q42 526 58 567.5 Q74 609 103 637.5 Q132 666 171.5 681 Q211 696 258 696 Q304 696 344 681 Q384 666 412.5 637.5 Q441 609 457.5 567.5 Q474 526 474 474 Z M436 474 Q436 519 422.5 554 Q409 589 385.5 613 Q362 637 329.5 649 Q297 661 258 661 Q219 661 186.5 649 Q154 637 130 613 Q106 589 92.5 554 Q79 519 79 474 Q79 429 92.5 394 Q106 359 130 335 Q154 311 186.5 299 Q219 287 258 287 Q297 287 329.5 299 Q362 311 385.5 335 Q409 359 422.5 394 Q436 429 436 474 Z M311 367 L264 453 Q260 452 256 452 Q252 452 247 452 L221 452 L221 367 L186 367 L186 597 L248 597 Q343 597 343 527 Q343 478 299 461 L353 367 L311 367 Z M307 525 Q307 546 293.5 557 Q280 568 248 568 L221 568 L221 482 L248 482 Q280 482 293.5 493.5 Q307 505 307 525 Z "/>
    <glyph glyph-name="servicemark" unicode="&#x2120;" horiz-adv-x="833"
           d="M270 622 Q260 630 240 641 Q220 652 186 652 Q148 652 125 636.5 Q102 621 102 590 Q102 558 126.5 542 Q151 526 194 509 Q251 487 279 460.5 Q307 434 307 385 Q307 335 271.5 302 Q236 269 165 269 Q116 269 86.5 284.5 Q57 300 45 311 L67 352 Q78 341 102.5 327.5 Q127 314 164 314 Q209 314 232 332.5 Q255 351 255 381 Q255 413 233.5 430.5 Q212 448 167 467 Q142 477 121 487.5 Q100 498 84.5 512.5 Q69 527 60 545 Q51 563 51 588 Q51 639 87.5 668 Q124 697 186 697 Q209 697 226.5 693 Q244 689 257 683.5 Q270 678 278.5 672 Q287 666 292 662 L270 622 Z M770 276 L720 276 L720 587 L718 587 L600 276 L555 276 L435 587 L434 587 L434 276 L384 276 L384 690 L443 690 L576 347 L578 347 L712 690 L770 690 L770 276 Z "/>
    <glyph glyph-name="trademark" unicode="&#x2122;" horiz-adv-x="851"
           d="M347 645 L210 645 L210 276 L159 276 L159 645 L23 645 L23 690 L347 690 L347 645 Z M787 276 L738 276 L738 587 L736 587 L616 276 L573 276 L453 587 L452 587 L452 276 L402 276 L402 690 L461 690 L595 347 L596 347 L730 690 L787 690 L787 276 Z "/>
    <glyph glyph-name="ordfeminine" unicode="&#xaa;" horiz-adv-x="333"
           d="M49 454 Q49 504 84 528 Q119 552 182 552 Q185 552 191.5 551.5 Q198 551 205 551 L221 551 L221 568 Q221 612 205.5 632.5 Q190 653 154 653 Q122 653 104 640.5 Q86 628 75 617 L51 649 Q57 656 66.5 664.5 Q76 673 89 680 Q102 687 119.5 692 Q137 697 159 697 Q218 697 245 664.5 Q272 632 272 568 L272 373 L224 373 L224 405 L222 405 Q214 394 195.5 379.5 Q177 365 138 365 Q95 365 72 389 Q49 413 49 454 Z M99 460 Q99 436 112.5 422 Q126 408 151 408 Q181 408 196.5 418.5 Q212 429 221 441 L221 515 L185 515 Q144 515 121.5 502.5 Q99 490 99 460 Z "/>
    <glyph glyph-name="ordmasculine" unicode="&#xba;" horiz-adv-x="357"
           d="M315 530 Q315 487 304 456 Q293 425 274.5 404.5 Q256 384 231 374 Q206 364 178 364 Q150 364 125.5 374 Q101 384 82.5 404.5 Q64 425 53 456 Q42 487 42 530 Q42 573 53 604 Q64 635 82.5 655.5 Q101 676 125.5 686 Q150 696 178 696 Q206 696 231 686 Q256 676 274.5 655.5 Q293 635 304 604 Q315 573 315 530 Z M263 530 Q263 593 239 622 Q215 651 178 651 Q142 651 118.5 622 Q95 593 95 530 Q95 467 118 438 Q141 409 178 409 Q216 409 239.5 438 Q263 467 263 530 Z "/>
    <glyph glyph-name="bullet" unicode="&#x2022;" horiz-adv-x="312"
           d="M260 298 Q260 248 231.5 219 Q203 190 156 190 Q109 190 80.5 219 Q52 248 52 298 Q52 348 80.5 376.5 Q109 405 156 405 Q203 405 231.5 376.5 Q260 348 260 298 Z "/>
    <glyph glyph-name="uni2219" unicode="&#x2219;" horiz-adv-x="312"
           d="M260 298 Q260 248 231.5 219 Q203 190 156 190 Q109 190 80.5 219 Q52 248 52 298 Q52 348 80.5 376.5 Q109 405 156 405 Q203 405 231.5 376.5 Q260 348 260 298 Z "/>
    <glyph glyph-name="quotesinglbase" unicode="&#x201a;" horiz-adv-x="187"
           d="M139 0 Q139 -29 131 -50.5 Q123 -72 110 -88 Q97 -104 81.5 -114 Q66 -124 51 -130 L37 -103 Q47 -97 58.5 -89.5 Q70 -82 79 -71 Q88 -60 94 -44.5 Q100 -29 100 -7 Q100 -2 99 0 L94 0 Q77 0 67 11 Q57 22 57 39 Q57 56 67 65.5 Q77 75 91 75 Q111 75 125 56.5 Q139 38 139 0 Z "/>
    <glyph glyph-name="quoteleft" unicode="&#x2018;" horiz-adv-x="187"
           d="M49 572 Q49 601 57 622.5 Q65 644 78 660 Q91 676 106.5 686 Q122 696 137 702 L151 675 Q140 669 129 661.5 Q118 654 109 643 Q100 632 94 616.5 Q88 601 88 579 L88 572 L94 572 Q111 572 121 561 Q131 550 131 533 Q131 516 121 506.5 Q111 497 97 497 Q77 497 63 515.5 Q49 534 49 572 Z "/>
    <glyph glyph-name="uni02BB" unicode="&#x2bb;" horiz-adv-x="187"
           d="M49.0085 572 Q49.0085 600.998 57.008 622.497 Q65.0075 643.996 78.0067 659.995 Q91.0059 675.994 106.505 685.993 Q122.004 695.992 137.003 701.992 L151.002 674.994 Q141.003 668.994 129.504 661.495 Q118.004 653.995 109.005 642.996 Q100.005 631.996 94.0057 616.497 Q88.0061 600.998 88.0061 579 Q88.0061 574 89.006 572 L94.0057 572 Q111.005 572 121.004 561.001 Q131.003 550.001 131.003 533.002 Q131.003 516.003 121.004 506.504 Q111.005 497.005 97.0056 497.005 Q77.0068 497.005 63.0076 515.503 Q49.0085 534.002 49.0085 572 Z "/>
    <glyph glyph-name="quoteright" unicode="&#x2019;" horiz-adv-x="187"
           d="M138 620 Q138 591 130 569.5 Q122 548 109 532 Q96 516 80.5 506 Q65 496 50 490 L36 517 Q46 523 57.5 530.5 Q69 538 78 549 Q87 560 93 575.5 Q99 591 99 613 Q99 618 98 620 L93 620 Q76 620 66 631 Q56 642 56 659 Q56 676 66 685.5 Q76 695 90 695 Q110 695 124 676.5 Q138 658 138 620 Z "/>
    <glyph glyph-name="afii57929" unicode="&#x2bc;" horiz-adv-x="187"
           d="M139 620 Q139 591 131 569.5 Q123 548 110 532 Q97 516 81.5 506 Q66 496 51 490 L37 517 Q47 523 58.5 530.5 Q70 538 79 549 Q88 560 94 575.5 Q100 591 100 613 Q100 618 99 620 L94 620 Q77 620 67 631 Q57 642 57 659 Q57 676 67 685.5 Q77 695 91 695 Q111 695 125 676.5 Q139 658 139 620 Z "/>
    <glyph glyph-name="quotedblbase" unicode="&#x201e;" horiz-adv-x="322"
           d="M139 0 Q139 -29 131 -50.5 Q123 -72 110 -88 Q97 -104 81.5 -114 Q66 -124 51 -130 L37 -103 Q47 -97 58.5 -89.5 Q70 -82 79 -71 Q88 -60 94 -44.5 Q100 -29 100 -7 Q100 -2 99 0 L94 0 Q77 0 67 11 Q57 22 57 39 Q57 56 67 65.5 Q77 75 91 75 Q111 75 125 56.5 Q139 38 139 0 Z M273 0 Q273 -29 265 -50.5 Q257 -72 244 -88 Q231 -104 215.5 -114 Q200 -124 185 -130 L171 -103 Q181 -97 192.5 -89.5 Q204 -82 213 -71 Q222 -60 228 -44.5 Q234 -29 234 -7 Q234 -2 233 0 L228 0 Q211 0 201 11 Q191 22 191 39 Q191 56 201 65.5 Q211 75 225 75 Q245 75 259 56.5 Q273 38 273 0 Z "/>
    <glyph glyph-name="quotedblleft" unicode="&#x201c;" horiz-adv-x="322"
           d="M49 572 Q49 601 57 622.5 Q65 644 78 660 Q91 676 106.5 686 Q122 696 137 702 L151 675 Q140 669 129 661.5 Q118 654 109 643 Q100 632 94 616.5 Q88 601 88 579 L88 572 L94 572 Q111 572 121 561 Q131 550 131 533 Q131 516 121 506.5 Q111 497 97 497 Q77 497 63 515.5 Q49 534 49 572 Z M184 572 Q184 601 192 622.5 Q200 644 213 660 Q226 676 241.5 686 Q257 696 272 702 L286 675 Q275 669 264 661.5 Q253 654 244 643 Q235 632 229 616.5 Q223 601 223 579 L223 572 L229 572 Q246 572 256 561 Q266 550 266 533 Q266 516 256 506.5 Q246 497 232 497 Q212 497 198 515.5 Q184 534 184 572 Z "/>
    <glyph glyph-name="quotedblright" unicode="&#x201d;" horiz-adv-x="322"
           d="M139 620 Q139 591 131 569.5 Q123 548 110 532 Q97 516 81.5 506 Q66 496 51 490 L37 517 Q47 523 58.5 530.5 Q70 538 79 549 Q88 560 94 575.5 Q100 591 100 613 Q100 618 99 620 L94 620 Q77 620 67 631 Q57 642 57 659 Q57 676 67 685.5 Q77 695 91 695 Q111 695 125 676.5 Q139 658 139 620 Z M272 620 Q272 591 264 569.5 Q256 548 243 532 Q230 516 214.5 506 Q199 496 184 490 L170 517 Q180 523 191.5 530.5 Q203 538 212 549 Q221 560 227 575.5 Q233 591 233 613 Q233 618 232 620 L227 620 Q210 620 200 631 Q190 642 190 659 Q190 676 200 685.5 Q210 695 224 695 Q244 695 258 676.5 Q272 658 272 620 Z "/>
    <glyph glyph-name="quotesingle" unicode="&#x27;" horiz-adv-x="217"
           d="M125 483 L81 483 L81 690 L137 690 L125 483 Z "/>
    <glyph glyph-name="quotedbl" unicode="&#x22;" horiz-adv-x="330"
           d="M125 483 L81 483 L81 690 L137 690 L125 483 Z M237 483 L193 483 L193 690 L249 690 L237 483 Z "/>
    <glyph glyph-name="asciicircum" unicode="&#x5e;" horiz-adv-x="442"
           d="M343 367 L222 615 L220 615 L98 367 L41 367 L203 690 L238 690 L400 367 L343 367 Z "/>
    <glyph glyph-name="degree" unicode="&#xb0;" horiz-adv-x="360"
           d="M327 554 Q327 522 316 495 Q305 468 285 448 Q265 428 238 416.5 Q211 405 180 405 Q148 405 121.5 416.5 Q95 428 75 448 Q55 468 44 495 Q33 522 33 554 Q33 585 44 612.5 Q55 640 75 659.5 Q95 679 121.5 690.5 Q148 702 180 702 Q211 702 238 690.5 Q265 679 285 659.5 Q305 640 316 612.5 Q327 585 327 554 Z M277 554 Q277 598 250 625.5 Q223 653 180 653 Q137 653 109.5 625.5 Q82 598 82 554 Q82 509 109.5 481.5 Q137 454 180 454 Q223 454 250 481.5 Q277 509 277 554 Z "/>
    <glyph glyph-name="numbersign" unicode="&#x23;" horiz-adv-x="579"
           d="M513 462 L419 459 L419 237 L513 237 L513 195 L419 192 L416 0 L369 0 L369 192 L210 192 L206 0 L159 0 L159 192 L66 192 L66 235 L159 237 L159 459 L66 459 L66 501 L159 505 L164 690 L210 690 L210 505 L369 505 L373 690 L419 690 L419 505 L513 505 L513 462 Z M210 459 L210 237 L369 237 L369 459 L210 459 Z "/>
    <glyph glyph-name="percent" unicode="&#x25;" horiz-adv-x="691"
           d="M332 535 Q332 493 320.5 461.5 Q309 430 289.5 409 Q270 388 244 377.5 Q218 367 190 367 Q162 367 136 377.5 Q110 388 90.5 409 Q71 430 59.5 461.5 Q48 493 48 535 Q48 577 59.5 608.5 Q71 640 90.5 660.5 Q110 681 136 691.5 Q162 702 190 702 Q218 702 244 691.5 Q270 681 289.5 660.5 Q309 640 320.5 608.5 Q332 577 332 535 Z M280 535 Q280 598 254 627 Q228 656 190 656 Q152 656 126 627 Q100 598 100 535 Q100 472 126 442 Q152 412 190 412 Q228 412 254 442 Q280 472 280 535 Z M149 0 L87 0 L544 690 L606 690 L149 0 Z M645 155 Q645 113 633.5 81.5 Q622 50 602.5 29.5 Q583 9 557 -1.5 Q531 -12 503 -12 Q475 -12 449 -1.5 Q423 9 403.5 29.5 Q384 50 372.5 81.5 Q361 113 361 155 Q361 197 372.5 228.5 Q384 260 403.5 281 Q423 302 449 312.5 Q475 323 503 323 Q531 323 557 312.5 Q583 302 602.5 281 Q622 260 633.5 228.5 Q645 197 645 155 Z M593 155 Q593 218 567 248 Q541 278 503 278 Q465 278 439 248 Q413 218 413 155 Q413 92 439 63 Q465 34 503 34 Q541 34 567 63 Q593 92 593 155 Z "/>
    <glyph glyph-name="perthousand" unicode="&#x2030;" horiz-adv-x="985"
           d="M317 535 Q317 494 306.5 462.5 Q296 431 278 410 Q260 389 235.5 378 Q211 367 183 367 Q126 367 87 409.5 Q48 452 48 535 Q48 617 87 659.5 Q126 702 183 702 Q211 702 235.5 691 Q260 680 278 659 Q296 638 306.5 607 Q317 576 317 535 Z M266 535 Q266 595 243 625.5 Q220 656 183 656 Q146 656 123 625.5 Q100 595 100 535 Q100 474 123 443 Q146 412 183 412 Q220 412 243 443 Q266 474 266 535 Z M135 0 L73 0 L531 690 L593 690 L135 0 Z M618 155 Q618 73 579 30.5 Q540 -12 483 -12 Q455 -12 430.5 -1 Q406 10 388 31 Q370 52 359.5 83 Q349 114 349 155 Q349 196 359.5 227.5 Q370 259 388 280 Q406 301 430.5 312 Q455 323 483 323 Q540 323 579 280.5 Q618 238 618 155 Z M566 155 Q566 216 543 247 Q520 278 483 278 Q446 278 423.5 247 Q401 216 401 155 Q401 95 423.5 64.5 Q446 34 483 34 Q520 34 543 64.5 Q566 95 566 155 Z M939 155 Q939 114 928.5 83 Q918 52 900 31 Q882 10 857.5 -1 Q833 -12 805 -12 Q748 -12 709 30.5 Q670 73 670 155 Q670 238 709 280.5 Q748 323 805 323 Q833 323 857.5 312 Q882 301 900 280 Q918 259 928.5 227.5 Q939 196 939 155 Z M887 155 Q887 216 864.5 247 Q842 278 805 278 Q768 278 745 247 Q722 216 722 155 Q722 95 745 64.5 Q768 34 805 34 Q842 34 864.5 64.5 Q887 95 887 155 Z "/>
    <glyph glyph-name="cent" unicode="&#xa2;" horiz-adv-x="424"
           d="M234 -11 Q192 -8 157.5 8.5 Q123 25 98.5 56 Q74 87 60 133 Q46 179 46 242 Q46 301 61 346 Q76 391 101.5 422 Q127 453 161.5 471 Q196 489 234 494 L234 588 L284 588 L284 496 Q329 494 354.5 482 Q380 470 397 456 L372 409 Q355 423 332.5 432.5 Q310 442 272 442 Q239 442 209 430.5 Q179 419 156.5 394.5 Q134 370 121 332 Q108 294 108 242 Q108 137 152 90 Q196 43 265 43 Q306 43 330.5 53 Q355 63 372 77 L392 30 Q374 16 349.5 4.5 Q325 -7 284 -11 L284 -105 L234 -105 L234 -11 Z "/>
    <glyph glyph-name="currency" unicode="&#xa4;" horiz-adv-x="545"
           d="M428 401 Q446 377 456 347.5 Q466 318 466 284 Q466 250 456 220.5 Q446 191 428 166 L506 90 L475 57 L399 134 Q374 113 342 101 Q310 89 272 89 Q234 89 202.5 101 Q171 113 145 134 L70 57 L39 90 L116 165 Q79 216 79 284 Q79 353 116 402 L39 478 L70 511 L145 433 Q171 455 202.5 467 Q234 479 272 479 Q310 479 342 467 Q374 455 399 433 L475 511 L506 478 L428 401 Z M413 284 Q413 315 403 341 Q393 367 374 386 Q355 405 329 416 Q303 427 272 427 Q241 427 215 416 Q189 405 170.5 386 Q152 367 142 341 Q132 315 132 284 Q132 253 142 227 Q152 201 170.5 182 Q189 163 215 152 Q241 141 272 141 Q303 141 329 152 Q355 163 374 182 Q393 201 403 227 Q413 253 413 284 Z "/>
    <glyph glyph-name="dollar" unicode="&#x24;" horiz-adv-x="481"
           d="M381 544 Q374 550 363 558 Q352 566 336.5 572.5 Q321 579 300 584 Q279 589 252 589 Q194 589 158 562 Q122 535 122 484 Q122 461 131.5 442.5 Q141 424 159 408 Q177 392 202.5 378 Q228 364 261 349 Q302 330 333 311 Q364 292 384.5 270 Q405 248 415.5 221.5 Q426 195 426 161 Q426 92 386 47.5 Q346 3 271 -8 L271 -105 L220 -105 L220 -12 Q185 -12 157.5 -5 Q130 2 109.5 11.5 Q89 21 74 32 Q59 43 50 52 L77 103 Q86 94 99 83.5 Q112 73 129.5 64 Q147 55 169.5 49 Q192 43 221 43 Q291 43 328 74.5 Q365 106 365 155 Q365 202 331.5 233 Q298 264 232 295 Q193 313 161.5 332 Q130 351 107.5 373.5 Q85 396 73 422.5 Q61 449 61 483 Q61 553 104.5 594 Q148 635 220 643 L220 738 L271 738 L271 644 Q299 642 321 636 Q343 630 358.5 622.5 Q374 615 385 606.5 Q396 598 404 592 L381 544 Z "/>
    <glyph glyph-name="Euro" unicode="&#x20ac;" horiz-adv-x="542"
           d="M450 264 L183 264 Q189 204 204.5 162 Q220 120 244 94 Q268 68 299.5 56 Q331 44 369 44 Q413 44 440 54.5 Q467 65 484 79 L501 30 Q481 13 451 0.5 Q421 -12 367 -12 Q317 -12 275 3.5 Q233 19 201 52 Q169 85 148.5 137.5 Q128 190 121 264 L46 264 L46 306 L117 306 L117 345 Q117 355 117 364.5 Q117 374 118 384 L46 384 L46 426 L121 426 Q130 498 153 550.5 Q176 603 210 636.5 Q244 670 286 686 Q328 702 375 702 Q424 702 454 690.5 Q484 679 501 665 L481 614 Q466 627 440 636.5 Q414 646 375 646 Q301 646 249 593.5 Q197 541 183 426 L450 426 L450 384 L180 384 Q179 374 179 364.5 Q179 355 179 345 L179 306 L450 306 L450 264 Z "/>
    <glyph glyph-name="florin" unicode="&#x192;" horiz-adv-x="387"
           d="M343 363 L206 363 L206 -27 Q206 -101 175 -131.5 Q144 -162 88 -162 Q69 -162 58 -159 Q47 -156 42 -154 L47 -101 Q52 -103 60.5 -105 Q69 -107 82 -107 Q114 -107 130 -89 Q146 -71 146 -23 L146 363 L46 363 L46 416 L146 416 L146 534 Q146 624 185.5 663 Q225 702 289 702 Q319 702 335 695 Q351 688 357 683 L344 631 Q338 635 325 641 Q312 647 290 647 Q271 647 255.5 641.5 Q240 636 229 622.5 Q218 609 212 586.5 Q206 564 206 529 L206 416 L343 416 L343 363 Z "/>
    <glyph glyph-name="sterling" unicode="&#xa3;" horiz-adv-x="487"
           d="M377 286 L223 286 Q226 260 226 232 Q226 199 218.5 172 Q211 145 200 123 Q189 101 174.5 84 Q160 67 147 54 L449 54 L449 0 L68 0 L68 45 Q85 60 102.5 78 Q120 96 134 119 Q148 142 157 170 Q166 198 166 231 Q166 260 163 286 L90 286 L90 338 L155 338 Q150 360 145 380.5 Q140 401 135.5 423 Q131 445 128 470.5 Q125 496 125 528 Q125 573 139 606 Q153 639 176.5 660 Q200 681 232 691.5 Q264 702 300 702 Q328 702 349 696.5 Q370 691 385.5 683.5 Q401 676 412 667.5 Q423 659 431 652 L404 605 Q398 610 389 617 Q380 624 368 630.5 Q356 637 340 641.5 Q324 646 303 646 Q250 646 218 617.5 Q186 589 186 525 Q186 495 189 470 Q192 445 196 423 Q200 401 205 380.5 Q210 360 215 338 L377 338 L377 286 Z "/>
    <glyph glyph-name="yen" unicode="&#xa5;" horiz-adv-x="519"
           d="M434 180 L289 180 L289 0 L228 0 L228 180 L82 180 L82 222 L228 222 L228 300 L82 300 L82 342 L220 342 L42 690 L110 690 L259 387 L260 387 L410 690 L476 690 L297 342 L434 342 L434 300 L289 300 L289 222 L434 222 L434 180 Z "/>
    <glyph glyph-name="Delta" unicode="&#x2206;" horiz-adv-x="645"
           d="M562 0 L60 0 L60 50 L281 690 L343 690 L562 50 L562 0 Z M312 615 L310 615 L122 54 L497 54 L312 615 Z "/>
    <glyph glyph-name="uni0394" unicode="&#x394;" horiz-adv-x="645"
           d="M562 0 L60 0 L60 50 L281 690 L343 690 L562 50 L562 0 Z M312 615 L310 615 L122 54 L497 54 L312 615 Z "/>
    <glyph glyph-name="Omega" unicode="&#x2126;" horiz-adv-x="705"
           d="M643 387 Q643 309 626 253.5 Q609 198 584 160 Q559 122 530 97 Q501 72 476 55 L476 53 L651 53 L651 0 L400 0 L400 54 Q431 76 463.5 102.5 Q496 129 522.5 166.5 Q549 204 565.5 255 Q582 306 582 375 Q582 443 565 494 Q548 545 517.5 578.5 Q487 612 445 629 Q403 646 352 646 Q302 646 260 629 Q218 612 187.5 578.5 Q157 545 140 494 Q123 443 123 375 Q123 306 139.5 255 Q156 204 182 166.5 Q208 129 240 102.5 Q272 76 304 54 L304 0 L53 0 L53 53 L228 53 L228 55 Q203 72 174 97 Q145 122 120 160.5 Q95 199 78 254 Q61 309 61 387 Q61 462 82.5 521 Q104 580 142 620 Q180 660 233.5 681 Q287 702 352 702 Q416 702 470 681 Q524 660 562 620 Q600 580 621.5 521 Q643 462 643 387 Z "/>
    <glyph glyph-name="uni03A9" unicode="&#x3a9;" horiz-adv-x="705"
           d="M643 387 Q643 309 626 253.5 Q609 198 584 160 Q559 122 530 97 Q501 72 476 55 L476 53 L651 53 L651 0 L400 0 L400 54 Q431 76 463.5 102.5 Q496 129 522.5 166.5 Q549 204 565.5 255 Q582 306 582 375 Q582 443 565 494 Q548 545 517.5 578.5 Q487 612 445 629 Q403 646 352 646 Q302 646 260 629 Q218 612 187.5 578.5 Q157 545 140 494 Q123 443 123 375 Q123 306 139.5 255 Q156 204 182 166.5 Q208 129 240 102.5 Q272 76 304 54 L304 0 L53 0 L53 53 L228 53 L228 55 Q203 72 174 97 Q145 122 120 160.5 Q95 199 78 254 Q61 309 61 387 Q61 462 82.5 521 Q104 580 142 620 Q180 660 233.5 681 Q287 702 352 702 Q416 702 470 681 Q524 660 562 620 Q600 580 621.5 521 Q643 462 643 387 Z "/>
    <glyph glyph-name="mu" unicode="&#xb5;" horiz-adv-x="526"
           d="M225 -11 Q196 -11 174 -5.5 Q152 0 135 11 L135 -200 L75 -200 L75 485 L135 485 L135 182 Q135 111 158 77.5 Q181 44 244 44 Q269 44 288.5 50.5 Q308 57 323 66.5 Q338 76 349 87 Q360 98 368 107 L368 485 L428 485 L428 103 Q428 69 439 57.5 Q450 46 473 46 Q484 46 488.5 47.5 Q493 49 494 49 L494 0 Q492 -1 483 -4 Q474 -7 457 -7 Q391 -7 373 50 Q365 41 352 30 Q339 19 321 10 Q303 1 279.5 -5 Q256 -11 225 -11 Z "/>
    <glyph glyph-name="uni03BC" unicode="&#x3bc;" horiz-adv-x="526"
           d="M225 -11 Q196 -11 174 -5.5 Q152 0 135 11 L135 -200 L75 -200 L75 485 L135 485 L135 182 Q135 111 158 77.5 Q181 44 244 44 Q269 44 288.5 50.5 Q308 57 323 66.5 Q338 76 349 87 Q360 98 368 107 L368 485 L428 485 L428 103 Q428 69 439 57.5 Q450 46 473 46 Q484 46 488.5 47.5 Q493 49 494 49 L494 0 Q492 -1 483 -4 Q474 -7 457 -7 Q391 -7 373 50 Q365 41 352 30 Q339 19 321 10 Q303 1 279.5 -5 Q256 -11 225 -11 Z "/>
    <glyph glyph-name="pi" unicode="&#x3c0;" horiz-adv-x="612"
           d="M565 430 L451 430 L451 139 Q451 80 471 60.5 Q491 41 523 41 Q536 41 542.5 42 Q549 43 554 45 L558 -5 Q553 -7 542 -9.5 Q531 -12 513 -12 Q486 -12 463.5 -4.5 Q441 3 425 20 Q409 37 400 64.5 Q391 92 391 133 L391 430 L232 430 L218 430 Q213 293 198 190.5 Q183 88 161 0 L98 0 Q110 45 120 92 Q130 139 137.5 191 Q145 243 150.5 301.5 Q156 360 158 428 Q108 425 81.5 419 Q55 413 42 408 L32 460 Q40 463 54 467.5 Q68 472 91 476 Q114 480 147 482.5 Q180 485 225 485 L565 485 L565 430 Z "/>
    <glyph glyph-name="partialdiff" unicode="&#x2202;" horiz-adv-x="535"
           d="M478 369 Q478 283 461.5 212.5 Q445 142 413 92 Q381 42 334.5 15 Q288 -12 229 -12 Q184 -12 149.5 3 Q115 18 91.5 45 Q68 72 56.5 108.5 Q45 145 45 187 Q45 243 63 286.5 Q81 330 111 360 Q141 390 181.5 406 Q222 422 267 422 Q296 422 319.5 416 Q343 410 361.5 399.5 Q380 389 394 375.5 Q408 362 418 348 L418 369 Q418 510 371 588 Q324 666 225 666 Q183 666 156 657 Q129 648 111 637 L93 687 Q113 700 145 711 Q177 722 228 722 Q355 722 416.5 630 Q478 538 478 369 Z M234 42 Q310 42 355.5 106.5 Q401 171 413 283 Q404 299 391.5 314.5 Q379 330 362 342 Q345 354 322.5 361.5 Q300 369 271 369 Q197 369 151.5 323 Q106 277 106 192 Q106 160 113 133 Q120 106 135.5 85.5 Q151 65 175.5 53.5 Q200 42 234 42 Z "/>
    <glyph glyph-name="product" unicode="&#x220f;" horiz-adv-x="597"
           d="M575 656 L463 656 L463 -150 L403 -150 L403 656 L192 656 L192 -150 L131 -150 L131 656 L21 656 L21 710 L575 710 L575 656 Z "/>
    <glyph glyph-name="summation" unicode="&#x2211;" horiz-adv-x="500"
           d="M450 656 L124 656 L396 287 L123 -96 L476 -96 L476 -150 L50 -150 L50 -104 L327 284 L46 664 L46 710 L450 710 L450 656 Z "/>
    <glyph glyph-name="plus" unicode="&#x2b;" horiz-adv-x="512"
           d="M455 287 L283 287 L283 107 L229 107 L229 287 L57 287 L57 338 L229 338 L229 517 L283 517 L283 338 L455 338 L455 287 Z "/>
    <glyph glyph-name="plusminus" unicode="&#xb1;" horiz-adv-x="512"
           d="M455 367 L283 367 L283 193 L229 193 L229 367 L57 367 L57 418 L229 418 L229 592 L283 592 L283 418 L455 418 L455 367 Z M455 97 L57 97 L57 148 L455 148 L455 97 Z "/>
    <glyph glyph-name="minus" unicode="&#x2212;" horiz-adv-x="512" d="M455 287 L57 287 L57 338 L455 338 L455 287 Z "/>
    <glyph glyph-name="divide" unicode="&#xf7;" horiz-adv-x="512"
           d="M290 181 Q290 164 280.5 156 Q271 148 257 148 Q242 148 232.5 156 Q223 164 223 181 Q223 198 232.5 206 Q242 214 257 214 Q271 214 280.5 206 Q290 198 290 181 Z M290 443 Q290 427 280.5 418.5 Q271 410 257 410 Q242 410 232.5 418.5 Q223 427 223 443 Q223 460 232.5 468 Q242 476 257 476 Q271 476 280.5 468 Q290 460 290 443 Z M455 287 L57 287 L57 338 L455 338 L455 287 Z "/>
    <glyph glyph-name="equal" unicode="&#x3d;" horiz-adv-x="512"
           d="M455 218 L57 218 L57 266 L455 266 L455 218 Z M455 358 L57 358 L57 406 L455 406 L455 358 Z "/>
    <glyph glyph-name="notequal" unicode="&#x2260;" horiz-adv-x="512"
           d="M455 218 L214 218 L161 132 L126 132 L179 218 L57 218 L57 266 L209 266 L266 358 L57 358 L57 406 L296 406 L350 492 L385 492 L331 406 L455 406 L455 358 L301 358 L244 266 L455 266 L455 218 Z "/>
    <glyph glyph-name="multiply" unicode="&#xd7;" horiz-adv-x="512"
           d="M293 312 L427 178 L390 141 L256 276 L122 141 L85 178 L219 312 L85 446 L122 483 L256 348 L390 483 L427 446 L293 312 Z "/>
    <glyph glyph-name="asciitilde" unicode="&#x7e;" horiz-adv-x="512"
           d="M455 366 Q454 342 449 320 Q444 298 433 281.5 Q422 265 403.5 255.5 Q385 246 358 246 Q332 246 305.5 258 Q279 270 252.5 284.5 Q226 299 201.5 311 Q177 323 155 323 Q138 323 127 317.5 Q116 312 110 302.5 Q104 293 101.5 281 Q99 269 98 257 L57 257 Q58 281 63 303 Q68 325 79 341 Q90 357 108.5 366.5 Q127 376 154 376 Q180 376 206.5 364 Q233 352 259.5 338 Q286 324 310.5 312 Q335 300 357 300 Q391 300 401.5 320.5 Q412 341 414 366 L455 366 L455 366 Z "/>
    <glyph glyph-name="approxequal" unicode="&#x2248;" horiz-adv-x="512"
           d="M455 283 Q454 259 449 238 Q444 217 433 201.5 Q422 186 403.5 177.5 Q385 169 358 169 Q332 169 305.5 181 Q279 193 252.5 207 Q226 221 201.5 233 Q177 245 155 245 Q138 245 127 239.5 Q116 234 110 224.5 Q104 215 101.5 203 Q99 191 98 179 L57 179 Q58 203 63 224 Q68 245 79 260.5 Q90 276 108.5 285 Q127 294 154 294 Q180 294 206.5 282 Q233 270 259.5 255.5 Q286 241 310.5 229 Q335 217 357 217 Q391 217 401.5 237.5 Q412 258 414 283 L455 283 Z M455 443 Q454 419 449 398 Q444 377 433 362 Q422 347 403.5 338 Q385 329 358 329 Q332 329 305.5 341 Q279 353 252.5 367 Q226 381 201.5 393 Q177 405 155 405 Q138 405 127 399.5 Q116 394 110 385 Q104 376 101.5 364 Q99 352 98 340 L57 340 Q58 364 63 385 Q68 406 79 421.5 Q90 437 108.5 445.5 Q127 454 154 454 Q180 454 206.5 442 Q233 430 259.5 415.5 Q286 401 310.5 389 Q335 377 357 377 Q391 377 401.5 397.5 Q412 418 414 443 L455 443 Z "/>
    <glyph glyph-name="congruent" unicode="&#x2245;" horiz-adv-x="512"
           d="M455 490 Q454 466 449 445 Q444 424 433 408.5 Q422 393 403.5 384 Q385 375 358 375 Q332 375 305.5 387 Q279 399 252.5 413.5 Q226 428 201.5 440 Q177 452 155 452 Q138 452 127 446.5 Q116 441 110 431.5 Q104 422 101.5 410 Q99 398 98 386 L57 386 Q58 411 63 432 Q68 453 79 468.5 Q90 484 108.5 492.5 Q127 501 154 501 Q180 501 206.5 489 Q233 477 259.5 462.5 Q286 448 310.5 436 Q335 424 357 424 Q391 424 401.5 444.5 Q412 465 414 490 L455 490 Z M455 118 L57 118 L57 166 L455 166 L455 118 Z M455 258 L57 258 L57 306 L455 306 L455 258 Z "/>
    <glyph glyph-name="logicalnot" unicode="&#xac;" horiz-adv-x="512"
           d="M454 167 L402 167 L402 287 L58 287 L58 338 L454 338 L454 167 Z "/>
    <glyph glyph-name="less" unicode="&#x3c;" horiz-adv-x="512"
           d="M453 438 L131 276 L131 274 L453 112 L453 56 L59 257 L59 293 L453 494 L453 438 Z "/>
    <glyph glyph-name="greater" unicode="&#x3e;" horiz-adv-x="512"
           d="M59 113 L381 275 L381 277 L59 439 L59 495 L453 294 L453 258 L59 57 L59 113 Z "/>
    <glyph glyph-name="lessequal" unicode="&#x2264;" horiz-adv-x="512"
           d="M455 454 L129 325 L129 323 L455 195 L455 145 L57 307 L57 343 L455 505 L455 454 Z M455 48 L57 48 L57 97 L455 97 L455 48 Z "/>
    <glyph glyph-name="greaterequal" unicode="&#x2265;" horiz-adv-x="512"
           d="M57 196 L383 317 L383 319 L57 448 L57 499 L455 337 L455 300 L57 146 L57 196 Z M455 48 L57 48 L57 97 L455 97 L455 48 Z "/>
    <glyph glyph-name="infinity" unicode="&#x221e;" horiz-adv-x="703"
           d="M604 310 Q604 354 579 377 Q554 400 515 400 Q492 400 472 391 Q452 382 434.5 368.5 Q417 355 403 339 Q389 323 378 310 Q389 296 403 280 Q417 264 434.5 250.5 Q452 237 472 228 Q492 219 515 219 Q554 219 579 242 Q604 265 604 310 Z M656 310 Q656 277 645 251.5 Q634 226 615.5 208.5 Q597 191 571.5 181.5 Q546 172 517 172 Q488 172 463.5 181 Q439 190 418 204 Q397 218 380.5 235 Q364 252 351 268 Q339 252 322 235 Q305 218 284.5 204 Q264 190 239 181 Q214 172 186 172 Q157 172 131.5 181.5 Q106 191 87 208.5 Q68 226 57 251.5 Q46 277 46 310 Q46 342 57 367.5 Q68 393 87 411 Q106 429 131.5 438.5 Q157 448 186 448 Q214 448 239 438.5 Q264 429 284.5 415 Q305 401 322 384 Q339 367 351 351 Q364 367 380.5 384 Q397 401 418 415 Q439 429 463.5 438.5 Q488 448 517 448 Q546 448 571.5 438.5 Q597 429 615.5 411 Q634 393 645 367.5 Q656 342 656 310 Z M99 310 Q99 265 124 242 Q149 219 188 219 Q211 219 231 228 Q251 237 268.5 250.5 Q286 264 300 280 Q314 296 325 310 Q314 323 300 339 Q286 355 268.5 368.5 Q251 382 231 391 Q211 400 188 400 Q149 400 124 377 Q99 354 99 310 Z "/>
    <glyph glyph-name="lozenge" unicode="&#x25ca;" horiz-adv-x="581"
           d="M292 649 L290 649 L107 280 L290 -89 L292 -89 L474 280 L292 649 Z M324 -150 L257 -150 L40 280 L257 710 L324 710 L541 280 L324 -150 Z "/>
    <glyph glyph-name="radical" unicode="&#x221a;" horiz-adv-x="645"
           d="M382 -150 L322 -150 L145 276 L39 238 L39 289 L185 340 L349 -66 L350 -66 L557 710 L620 710 L382 -150 Z "/>
    <glyph glyph-name="integral" unicode="&#x222b;" horiz-adv-x="317"
           d="M259 665 Q254 667 248 668 Q242 669 231 669 Q217 669 204 664.5 Q191 660 180.5 649 Q170 638 164 619 Q158 600 158 572 Q158 488 167.5 417.5 Q177 347 188 279.5 Q199 212 208.5 141.5 Q218 71 218 -14 Q218 -55 207.5 -83 Q197 -111 179.5 -128.5 Q162 -146 139 -154 Q116 -162 91 -162 Q76 -162 66 -160 Q56 -158 51 -156 L57 -105 Q62 -107 68.5 -108 Q75 -109 86 -109 Q100 -109 113 -104.5 Q126 -100 136.5 -89 Q147 -78 153 -59.5 Q159 -41 159 -12 Q159 72 149.5 142.5 Q140 213 129 280.5 Q118 348 108.5 418.5 Q99 489 99 574 Q99 614 109.5 642.5 Q120 671 137.5 688.5 Q155 706 178 714 Q201 722 226 722 Q241 722 250.5 720 Q260 718 265 716 L259 665 Z "/>
    <glyph glyph-name="parenleft" unicode="&#x28;" horiz-adv-x="286"
           d="M66 295 Q66 385 79.5 454 Q93 523 113 573 Q133 623 154.5 656.5 Q176 690 193 710 L247 710 Q230 692 208 658.5 Q186 625 166 574.5 Q146 524 132 454.5 Q118 385 118 295 Q118 205 132 136 Q146 67 166 16 Q186 -35 208 -68.5 Q230 -102 247 -120 L193 -120 Q176 -101 154.5 -67 Q133 -33 113 17 Q93 67 79.5 136 Q66 205 66 295 Z "/>
    <glyph glyph-name="parenright" unicode="&#x29;" horiz-adv-x="286"
           d="M219 295 Q219 205 205.5 136 Q192 67 172 17 Q152 -33 130 -67 Q108 -101 92 -120 L38 -120 Q54 -102 76.5 -68.5 Q99 -35 119 15.5 Q139 66 153 135.5 Q167 205 167 295 Q167 385 153 454 Q139 523 119 574 Q99 625 76.5 658.5 Q54 692 38 710 L92 710 Q108 690 130 656.5 Q152 623 172 573 Q192 523 205.5 454 Q219 385 219 295 Z "/>
    <glyph glyph-name="bracketleft" unicode="&#x5b;" horiz-adv-x="266"
           d="M225 664 L147 664 L147 -74 L225 -74 L225 -120 L96 -120 L96 710 L225 710 L225 664 Z "/>
    <glyph glyph-name="bracketright" unicode="&#x5d;" horiz-adv-x="266"
           d="M41 -74 L119 -74 L119 664 L41 664 L41 710 L170 710 L170 -120 L41 -120 L41 -74 Z "/>
    <glyph glyph-name="braceleft" unicode="&#x7b;" horiz-adv-x="305"
           d="M264 671 Q244 670 229 665.5 Q214 661 204 649.5 Q194 638 188.5 617.5 Q183 597 183 564 L183 387 Q183 339 158.5 318.5 Q134 298 102 296 L102 294 Q134 293 158.5 272 Q183 251 183 203 L183 25 Q183 -8 188.5 -28.5 Q194 -49 204.5 -60.5 Q215 -72 230 -76 Q245 -80 264 -81 L264 -126 Q235 -125 210.5 -118.5 Q186 -112 168.5 -96 Q151 -80 141.5 -53 Q132 -26 132 16 L132 199 Q132 241 109.5 256.5 Q87 272 48 272 L48 318 Q87 318 109.5 334 Q132 350 132 391 L132 574 Q132 616 141.5 643 Q151 670 168.5 686 Q186 702 210.5 708 Q235 714 264 716 L264 671 Z "/>
    <glyph glyph-name="braceright" unicode="&#x7d;" horiz-adv-x="305"
           d="M41 -81 Q60 -80 75.5 -75.5 Q91 -71 101 -59.5 Q111 -48 116.5 -27.5 Q122 -7 122 26 L122 203 Q122 251 146.5 271.5 Q171 292 203 294 L203 296 Q171 297 146.5 318 Q122 339 122 387 L122 565 Q122 598 116.5 618.5 Q111 639 100.5 650.5 Q90 662 75 666 Q60 670 41 671 L41 716 Q70 714 94.5 708 Q119 702 136.5 686 Q154 670 163.5 643 Q173 616 173 574 L173 391 Q173 349 195.5 333.5 Q218 318 257 318 L257 272 Q218 272 195.5 256 Q173 240 173 199 L173 16 Q173 -26 163.5 -53 Q154 -80 136.5 -96 Q119 -112 94.5 -118.5 Q70 -125 41 -126 L41 -81 Z "/>
    <glyph glyph-name="guilsinglleft" unicode="&#x2039;" horiz-adv-x="216"
           d="M132 129 L30 284 L132 440 L181 440 L95 284 L181 129 L132 129 Z "/>
    <glyph glyph-name="guilsinglright" unicode="&#x203a;" horiz-adv-x="216"
           d="M84 438 L186 283 L84 127 L35 127 L121 283 L35 438 L84 438 Z "/>
    <glyph glyph-name="guillemotleft" unicode="&#xab;" horiz-adv-x="336"
           d="M132 129 L30 284 L132 440 L180 440 L93 284 L180 129 L132 129 Z M254 129 L152 284 L254 440 L301 440 L215 284 L301 129 L254 129 Z "/>
    <glyph glyph-name="guillemotright" unicode="&#xbb;" horiz-adv-x="336"
           d="M204 438 L306 283 L204 127 L156 127 L243 283 L156 438 L204 438 Z M82 438 L184 283 L82 127 L35 127 L121 283 L35 438 L82 438 Z "/>
    <glyph glyph-name="hyphen" unicode="&#x2d;" horiz-adv-x="299" d="M254 268 L45 268 L45 321 L254 321 L254 268 Z "/>
    <glyph glyph-name="uni00AD" unicode="&#xad;" horiz-adv-x="299" d="M254 268 L45 268 L45 321 L254 321 L254 268 Z "/>
    <glyph glyph-name="endash" unicode="&#x2013;" horiz-adv-x="512" d="M455 286 L57 286 L57 338 L455 338 L455 286 Z "/>
    <glyph glyph-name="emdash" unicode="&#x2014;" horiz-adv-x="762" d="M705 286 L57 286 L57 338 L705 338 L705 286 Z "/>
    <glyph glyph-name="underscore" unicode="&#x5f;" horiz-adv-x="512"
           d="M487 -162 L25 -162 L25 -109 L487 -109 L487 -162 Z "/>
    <glyph glyph-name="zero" unicode="0" horiz-adv-x="584"
           d="M526 345 Q526 249 507 181 Q488 113 456 70 Q424 27 381.5 7.5 Q339 -12 292 -12 Q245 -12 202.5 7.5 Q160 27 128 70 Q96 113 77 181 Q58 249 58 345 Q58 441 77 509 Q96 577 128 620 Q160 663 202.5 682.5 Q245 702 292 702 Q339 702 381.5 682.5 Q424 663 456 620 Q488 577 507 509 Q526 441 526 345 Z M465 345 Q465 426 451 483.5 Q437 541 413.5 577 Q390 613 358.5 629.5 Q327 646 292 646 Q257 646 226 629.5 Q195 613 171.5 577 Q148 541 134 483.5 Q120 426 120 345 Q120 264 134 206.5 Q148 149 171.5 113 Q195 77 226 60.5 Q257 44 292 44 Q327 44 358.5 60.5 Q390 77 413.5 113 Q437 149 451 206.5 Q465 264 465 345 Z "/>
    <glyph glyph-name="one" unicode="1" horiz-adv-x="320"
           d="M232 0 L172 0 L172 625 L44 573 L26 624 L184 690 L232 690 L232 0 Z "/>
    <glyph glyph-name="two" unicode="2" horiz-adv-x="477"
           d="M421 522 Q421 478 411 441 Q401 404 383.5 372 Q366 340 344 310.5 Q322 281 298 252 L136 56 L136 54 L431 54 L431 0 L55 0 L55 45 L248 281 Q271 309 291 335.5 Q311 362 326 390 Q341 418 350 449 Q359 480 359 516 Q359 576 327 611 Q295 646 229 646 Q200 646 177.5 639 Q155 632 137.5 621.5 Q120 611 107.5 599 Q95 587 87 576 L54 617 Q64 629 79.5 644 Q95 659 117 672 Q139 685 169 693.5 Q199 702 239 702 Q330 702 375.5 652.5 Q421 603 421 522 Z "/>
    <glyph glyph-name="three" unicode="3" horiz-adv-x="451"
           d="M388 528 Q388 453 349 409 Q310 365 242 351 L242 350 Q316 339 359.5 293 Q403 247 403 163 Q403 82 352 35 Q301 -12 207 -12 Q171 -12 144.5 -5 Q118 2 98 13.5 Q78 25 64.5 38 Q51 51 41 63 L72 110 Q79 100 90.5 88.5 Q102 77 118.5 67 Q135 57 156.5 50.5 Q178 44 205 44 Q271 44 306 76.5 Q341 109 341 168 Q341 244 290.5 282.5 Q240 321 145 321 L125 321 L125 375 L145 375 Q235 375 280.5 415 Q326 455 326 524 Q326 582 295.5 614 Q265 646 210 646 Q184 646 163.5 640.5 Q143 635 127 626 Q111 617 99.5 606.5 Q88 596 81 586 L49 628 Q58 639 72 652 Q86 665 107 676 Q128 687 155 694.5 Q182 702 216 702 Q301 702 344.5 655.5 Q388 609 388 528 Z "/>
    <glyph glyph-name="four" unicode="4" horiz-adv-x="523"
           d="M483 194 L390 194 L390 0 L330 0 L330 194 L41 194 L41 242 L337 690 L390 690 L390 248 L483 248 L483 194 Z M330 586 L328 586 L111 248 L330 248 L330 586 Z "/>
    <glyph glyph-name="five" unicode="5" horiz-adv-x="489"
           d="M438 203 Q438 148 422.5 107.5 Q407 67 379 40.5 Q351 14 311 1 Q271 -12 223 -12 Q184 -12 155 -4.5 Q126 3 105.5 14 Q85 25 71 37.5 Q57 50 48 61 L79 110 Q87 99 99.5 87.5 Q112 76 129.5 66.5 Q147 57 170 50.5 Q193 44 223 44 Q296 44 336 82 Q376 120 376 198 Q376 247 358.5 280.5 Q341 314 309 334.5 Q277 355 232 363.5 Q187 372 132 372 L88 372 L114 690 L409 690 L409 636 L167 636 L150 426 Q213 425 265.5 412.5 Q318 400 356.5 373.5 Q395 347 416.5 305 Q438 263 438 203 Z "/>
    <glyph glyph-name="six" unicode="6" horiz-adv-x="521"
           d="M474 219 Q474 167 462 124.5 Q450 82 426 51.5 Q402 21 366.5 4.5 Q331 -12 285 -12 Q234 -12 194.5 8.5 Q155 29 127.5 72 Q100 115 85.5 182 Q71 249 71 343 Q71 439 92 507.5 Q113 576 148 619 Q183 662 228.5 682 Q274 702 324 702 Q356 702 379.5 696.5 Q403 691 419.5 682.5 Q436 674 446.5 665 Q457 656 465 649 L437 600 Q430 607 421 615 Q412 623 398.5 630 Q385 637 366.5 641.5 Q348 646 323 646 Q286 646 252.5 630.5 Q219 615 193 582 Q167 549 150.5 497 Q134 445 133 372 Q161 395 200 411.5 Q239 428 290 428 Q379 428 426.5 373.5 Q474 319 474 219 Z M279 374 Q230 374 194.5 357.5 Q159 341 133 318 Q135 172 176.5 107 Q218 42 288 42 Q348 42 381 85.5 Q414 129 414 214 Q414 291 381 332.5 Q348 374 279 374 Z "/>
    <glyph glyph-name="seven" unicode="7" horiz-adv-x="458"
           d="M440 646 L145 0 L78 0 L369 634 L369 636 L51 636 L51 690 L440 690 L440 646 Z "/>
    <glyph glyph-name="eight" unicode="8" horiz-adv-x="503"
           d="M434 541 Q434 506 424 479 Q414 452 396.5 430.5 Q379 409 356 391 Q333 373 307 357 L307 356 Q334 340 359 321.5 Q384 303 403.5 279.5 Q423 256 434.5 225.5 Q446 195 446 156 Q446 119 432 88 Q418 57 392.5 35 Q367 13 331.5 0.5 Q296 -12 252 -12 Q208 -12 172 0.5 Q136 13 110.5 35 Q85 57 71 88 Q57 119 57 156 Q57 195 68.5 225 Q80 255 99.5 278.5 Q119 302 144 320.5 Q169 339 196 355 L196 357 Q170 373 147 391 Q124 409 107 430.5 Q90 452 79.5 479 Q69 506 69 541 Q69 579 83 609 Q97 639 121.5 659.5 Q146 680 179.5 691 Q213 702 252 702 Q291 702 324 691 Q357 680 381.5 659.5 Q406 639 420 609 Q434 579 434 541 Z M375 537 Q375 587 340.5 617.5 Q306 648 252 648 Q197 648 163 617.5 Q129 587 129 537 Q129 510 138.5 488.5 Q148 467 164.5 449 Q181 431 203.5 415 Q226 399 252 383 Q278 399 300.5 415 Q323 431 339.5 449 Q356 467 365.5 488.5 Q375 510 375 537 Z M385 165 Q385 195 373 219.5 Q361 244 342.5 263.5 Q324 283 300 298.5 Q276 314 252 328 Q228 314 204 298.5 Q180 283 161 263.5 Q142 244 130 219.5 Q118 195 118 165 Q118 111 154.5 77.5 Q191 44 252 44 Q312 44 348.5 77.5 Q385 111 385 165 Z "/>
    <glyph glyph-name="nine" unicode="9" horiz-adv-x="524"
           d="M457 357 Q457 166 399 77 Q341 -12 225 -12 Q189 -12 163.5 -4.5 Q138 3 120.5 13 Q103 23 92 34 Q81 45 75 53 L104 101 Q108 95 117.5 85.5 Q127 76 142 66.5 Q157 57 177.5 50.5 Q198 44 225 44 Q314 44 352.5 112 Q391 180 394 314 Q370 291 333 274 Q296 257 242 257 Q157 257 105 315.5 Q53 374 53 480 Q53 534 68 575.5 Q83 617 109 645 Q135 673 170 687.5 Q205 702 244 702 Q347 702 402 618.5 Q457 535 457 357 Z M250 311 Q304 311 338.5 330.5 Q373 350 395 373 Q394 447 384 499 Q374 551 354.5 584 Q335 617 307 632.5 Q279 648 243 648 Q217 648 193.5 638 Q170 628 152 607.5 Q134 587 123.5 556 Q113 525 113 482 Q113 402 149 356.5 Q185 311 250 311 Z "/>
    <glyph glyph-name="uni2007" unicode="&#x2007;" horiz-adv-x="512" d=""/>
    <glyph glyph-name="fraction" unicode="&#x2044;" horiz-adv-x="196" d="M-91 0 L-151 0 L287 690 L347 690 L-91 0 Z "/>
    <glyph glyph-name="onequarter" unicode="&#xbc;" horiz-adv-x="837"
           d="M263 0 L203 0 L641 690 L701 690 L263 0 Z M210 322 L304 322 L304 276 L62 276 L62 322 L158 322 L158 636 L70 604 L55 646 L170 690 L210 690 L210 322 Z M801 112 L754 112 L754 0 L705 0 L705 112 L538 112 L538 150 L712 414 L754 414 L754 156 L801 156 L801 112 Z M705 337 L703 337 L588 156 L705 156 L705 337 Z "/>
    <glyph glyph-name="onehalf" unicode="&#xbd;" horiz-adv-x="837"
           d="M241 0 L181 0 L619 690 L679 690 L241 0 Z M210 322 L304 322 L304 276 L62 276 L62 322 L158 322 L158 636 L70 604 L55 646 L170 690 L210 690 L210 322 Z M786 307 Q786 280 779 257 Q772 234 761 214.5 Q750 195 734.5 177.5 Q719 160 703 142 L616 47 L616 46 L795 46 L795 0 L547 0 L547 37 L662 166 Q691 198 712 228.5 Q733 259 733 301 Q733 333 713.5 354 Q694 375 656 375 Q621 375 599.5 359.5 Q578 344 569 330 L542 362 Q548 370 558 380.5 Q568 391 583 400 Q598 409 618 415 Q638 421 665 421 Q724 421 755 390 Q786 359 786 307 Z "/>
    <glyph glyph-name="threequarters" unicode="&#xbe;" horiz-adv-x="837"
           d="M257 0 L197 0 L635 690 L695 690 L257 0 Z M801 112 L754 112 L754 0 L705 0 L705 112 L538 112 L538 150 L712 414 L754 414 L754 156 L801 156 L801 112 Z M705 337 L703 337 L588 156 L705 156 L705 337 Z M283 592 Q283 545 255 519 Q227 493 188 487 L188 486 Q230 480 259.5 454 Q289 428 289 377 Q289 329 255 299 Q221 269 154 269 Q127 269 107.5 274 Q88 279 74 286.5 Q60 294 51 302.5 Q42 311 36 317 L61 356 Q71 344 91.5 329.5 Q112 315 151 315 Q192 315 214 332.5 Q236 350 236 382 Q236 422 204 442.5 Q172 463 113 463 L97 463 L97 506 L113 506 Q171 506 201 526.5 Q231 547 231 585 Q231 615 212.5 633 Q194 651 157 651 Q119 651 98.5 637 Q78 623 68 611 L42 646 Q55 662 84.5 679.5 Q114 697 164 697 Q224 697 253.5 668 Q283 639 283 592 Z "/>
    <glyph glyph-name="uni2070" unicode="&#x2070;" horiz-adv-x="336"
           d="M245 483 Q245 529 239 561 Q233 593 222.5 613 Q212 633 198 642 Q184 651 168 651 Q152 651 138 642 Q124 633 113.5 613 Q103 593 97 561 Q91 529 91 483 Q91 437 97 405 Q103 373 113.5 353 Q124 333 138 324 Q152 315 168 315 Q184 315 198 324 Q212 333 222.5 353 Q233 373 239 405 Q245 437 245 483 Z M296 483 Q296 426 286.5 385.5 Q277 345 259.5 319 Q242 293 218.5 281 Q195 269 168 269 Q141 269 117.5 281 Q94 293 76.5 319 Q59 345 49.5 385.5 Q40 426 40 483 Q40 596 76.5 646.5 Q113 697 168 697 Q223 697 259.5 646.5 Q296 596 296 483 Z "/>
    <glyph glyph-name="onesuperior" unicode="&#xb9;" horiz-adv-x="336"
           d="M210 322 L304 322 L304 276 L62 276 L62 322 L158 322 L158 636 L70 604 L55 646 L170 690 L210 690 L210 322 Z "/>
    <glyph glyph-name="twosuperior" unicode="&#xb2;" horiz-adv-x="336"
           d="M286 583 Q286 556 279 533 Q272 510 261 490.5 Q250 471 234.5 453.5 Q219 436 203 418 L116 323 L116 322 L295 322 L295 276 L47 276 L47 313 L162 442 Q191 474 212 504.5 Q233 535 233 577 Q233 609 213.5 630 Q194 651 156 651 Q121 651 99.5 635.5 Q78 620 69 606 L42 638 Q48 646 58 656.5 Q68 667 83 676 Q98 685 118 691 Q138 697 165 697 Q224 697 255 666 Q286 635 286 583 Z "/>
    <glyph glyph-name="threesuperior" unicode="&#xb3;" horiz-adv-x="336"
           d="M282 592 Q282 545 254 519 Q226 493 187 487 L187 486 Q229 480 258.5 454 Q288 428 288 377 Q288 329 254 299 Q220 269 153 269 Q126 269 106.5 274 Q87 279 73 286.5 Q59 294 50 302.5 Q41 311 35 317 L60 356 Q70 344 90.5 329.5 Q111 315 150 315 Q191 315 213 332.5 Q235 350 235 382 Q235 422 203 442.5 Q171 463 112 463 L96 463 L96 506 L112 506 Q170 506 200 526.5 Q230 547 230 585 Q230 615 211.5 633 Q193 651 156 651 Q118 651 97.5 637 Q77 623 67 611 L41 646 Q54 662 83.5 679.5 Q113 697 163 697 Q223 697 252.5 668 Q282 639 282 592 Z "/>
    <glyph glyph-name="uni2074" unicode="&#x2074;" horiz-adv-x="336"
           d="M301 388 L254 388 L254 276 L205 276 L205 388 L38 388 L38 426 L212 690 L254 690 L254 432 L301 432 L301 388 Z M205 613 L203 613 L88 432 L205 432 L205 613 Z "/>
    <glyph glyph-name="uni2075" unicode="&#x2075;" horiz-adv-x="336"
           d="M292 399 Q292 337 255.5 303 Q219 269 156 269 Q130 269 110.5 273.5 Q91 278 77 285 Q63 292 53.5 300.5 Q44 309 38 316 L60 356 Q65 350 72.5 343 Q80 336 91 330 Q102 324 117 319.5 Q132 315 151 315 Q239 315 239 399 Q239 450 203.5 470.5 Q168 491 105 491 L65 491 L81 690 L276 690 L276 644 L124 644 L115 533 L116 533 Q196 533 244 502 Q292 471 292 399 Z "/>
    <glyph glyph-name="uni2076" unicode="&#x2076;" horiz-adv-x="336"
           d="M303 409 Q303 346 272 307.5 Q241 269 184 269 Q121 269 85 319 Q49 369 49 480 Q49 538 62.5 579.5 Q76 621 98 647 Q120 673 149 685 Q178 697 208 697 Q249 697 268.5 685 Q288 673 297 665 L276 625 Q268 633 254 642.5 Q240 652 209 652 Q188 652 169 643.5 Q150 635 135 617 Q120 599 111 571 Q102 543 101 503 Q118 517 140 525.5 Q162 534 190 534 Q244 534 273.5 501.5 Q303 469 303 409 Z M179 493 Q154 493 134.5 484.5 Q115 476 101 464 Q102 382 125 347 Q148 312 185 312 Q217 312 235.5 336 Q254 360 254 406 Q254 448 235 470.5 Q216 493 179 493 Z "/>
    <glyph glyph-name="uni2077" unicode="&#x2077;" horiz-adv-x="336"
           d="M309 654 L116 276 L56 276 L247 643 L247 644 L49 644 L49 690 L309 690 L309 654 Z "/>
    <glyph glyph-name="uni2078" unicode="&#x2078;" horiz-adv-x="336"
           d="M282 597 Q282 556 261.5 532.5 Q241 509 212 490 L212 489 Q243 470 266 444 Q289 418 289 372 Q289 326 255.5 297.5 Q222 269 168 269 Q114 269 80.5 297.5 Q47 326 47 372 Q47 418 70 444 Q93 470 124 488 L124 490 Q95 509 74.5 532.5 Q54 556 54 597 Q54 645 86 671 Q118 697 168 697 Q218 697 250 671 Q282 645 282 597 Z M234 594 Q234 622 215.5 637.5 Q197 653 168 653 Q139 653 120.5 637.5 Q102 622 102 594 Q102 564 121 545 Q140 526 168 509 Q196 526 215 545 Q234 564 234 594 Z M239 380 Q239 413 216.5 433.5 Q194 454 168 468 Q142 454 119.5 433.5 Q97 413 97 380 Q97 350 116.5 332 Q136 314 168 314 Q200 314 219.5 332 Q239 350 239 380 Z "/>
    <glyph glyph-name="uni2079" unicode="&#x2079;" horiz-adv-x="336"
           d="M290 492 Q290 377 253 323 Q216 269 144 269 Q121 269 105 273.5 Q89 278 77.5 284.5 Q66 291 59 297.5 Q52 304 48 308 L70 348 Q75 340 92.5 327 Q110 314 141 314 Q190 314 213.5 350.5 Q237 387 239 460 Q223 446 201.5 437 Q180 428 151 428 Q101 428 70 463.5 Q39 499 39 562 Q39 628 73.5 662.5 Q108 697 158 697 Q222 697 256 647.5 Q290 598 290 492 Z M161 470 Q188 470 207 480 Q226 490 239 502 Q238 585 216 619 Q194 653 156 653 Q129 653 108.5 632 Q88 611 88 564 Q88 520 107 495 Q126 470 161 470 Z "/>
    <glyph glyph-name="parenleft.sups" unicode="&#x207d;" horiz-adv-x="210"
           d="M52 483 Q52 537 60.5 578.5 Q69 620 81.5 650 Q94 680 107.5 700 Q121 720 131 732 L174 732 Q164 721 150.5 701 Q137 681 125 651 Q113 621 104.5 579 Q96 537 96 483 Q96 429 104.5 387 Q113 345 125 315 Q137 285 150.5 265 Q164 245 174 234 L131 234 Q121 246 107.5 266 Q94 286 81.5 316 Q69 346 60.5 387.5 Q52 429 52 483 Z "/>
    <glyph glyph-name="parenright.sups" unicode="&#x207e;" horiz-adv-x="210"
           d="M157.003 483.013 Q157.003 429.016 148.504 387.518 Q140.004 346.021 127.505 316.023 Q115.006 286.025 101.507 266.026 Q88.0074 246.027 78.008 234.028 L35.0106 234.028 Q45.01 245.027 58.5092 265.026 Q72.0084 285.025 84.0076 315.023 Q96.0069 345.021 104.506 387.018 Q113.006 429.016 113.006 483.013 Q113.006 537.009 104.506 579.007 Q96.0069 621.004 84.0076 651.002 Q72.0084 681.001 58.5092 700.999 Q45.01 720.998 35.0106 731.997 L78.008 731.997 Q88.0074 719.998 101.507 699.999 Q115.006 680.001 127.505 650.002 Q140.004 620.004 148.504 578.507 Q157.003 537.009 157.003 483.013 Z "/>
    <glyph glyph-name="uni2080" unicode="&#x2080;" horiz-adv-x="336"
           d="M245 58 Q245 104 239 136 Q233 168 222.5 188 Q212 208 198 217 Q184 226 168 226 Q152 226 138 217 Q124 208 113.5 188 Q103 168 97 136 Q91 104 91 58 Q91 12 97 -20 Q103 -52 113.5 -72 Q124 -92 138 -101 Q152 -110 168 -110 Q184 -110 198 -101 Q212 -92 222.5 -72 Q233 -52 239 -20 Q245 12 245 58 Z M296 58 Q296 1 286.5 -39.5 Q277 -80 259.5 -106 Q242 -132 218.5 -144 Q195 -156 168 -156 Q141 -156 117.5 -144 Q94 -132 76.5 -106 Q59 -80 49.5 -39.5 Q40 1 40 58 Q40 171 76.5 221.5 Q113 272 168 272 Q223 272 259.5 221.5 Q296 171 296 58 Z "/>
    <glyph glyph-name="uni2081" unicode="&#x2081;" horiz-adv-x="336"
           d="M210 -103 L304 -103 L304 -149 L62 -149 L62 -103 L158 -103 L158 211 L70 179 L55 221 L170 265 L210 265 L210 -103 Z "/>
    <glyph glyph-name="uni2082" unicode="&#x2082;" horiz-adv-x="336"
           d="M286 158 Q286 131 279 108 Q272 85 261 65.5 Q250 46 234.5 28.5 Q219 11 203 -7 L116 -102 L116 -103 L295 -103 L295 -149 L47 -149 L47 -112 L162 17 Q191 49 212 79.5 Q233 110 233 152 Q233 184 213.5 205 Q194 226 156 226 Q121 226 99.5 210.5 Q78 195 69 181 L42 213 Q48 221 58 231.5 Q68 242 83 251 Q98 260 118 266 Q138 272 165 272 Q224 272 255 241 Q286 210 286 158 Z "/>
    <glyph glyph-name="uni2083" unicode="&#x2083;" horiz-adv-x="336"
           d="M282 167 Q282 120 254 94 Q226 68 187 62 L187 61 Q229 55 258.5 29 Q288 3 288 -48 Q288 -96 254 -126 Q220 -156 153 -156 Q126 -156 106.5 -151 Q87 -146 73 -138.5 Q59 -131 50 -122.5 Q41 -114 35 -108 L60 -69 Q70 -81 90.5 -95.5 Q111 -110 150 -110 Q191 -110 213 -92.5 Q235 -75 235 -43 Q235 -3 203 17.5 Q171 38 112 38 L96 38 L96 81 L112 81 Q170 81 200 101.5 Q230 122 230 160 Q230 190 211.5 208 Q193 226 156 226 Q118 226 97.5 212 Q77 198 67 186 L41 221 Q54 237 83.5 254.5 Q113 272 163 272 Q223 272 252.5 243 Q282 214 282 167 Z "/>
    <glyph glyph-name="uni2084" unicode="&#x2084;" horiz-adv-x="336"
           d="M301 -37 L254 -37 L254 -149 L205 -149 L205 -37 L38 -37 L38 1 L212 265 L254 265 L254 7 L301 7 L301 -37 Z M205 188 L203 188 L88 7 L205 7 L205 188 Z "/>
    <glyph glyph-name="uni2085" unicode="&#x2085;" horiz-adv-x="336"
           d="M292 -26 Q292 -88 255.5 -122 Q219 -156 156 -156 Q130 -156 110.5 -151.5 Q91 -147 77 -140 Q63 -133 53.5 -124.5 Q44 -116 38 -109 L60 -69 Q65 -75 72.5 -82 Q80 -89 91 -95 Q102 -101 117 -105.5 Q132 -110 151 -110 Q239 -110 239 -26 Q239 25 203.5 45.5 Q168 66 105 66 L65 66 L81 265 L276 265 L276 219 L124 219 L115 108 L116 108 Q196 108 244 77 Q292 46 292 -26 Z "/>
    </font>
</svg>
