<?xml version="1.0" encoding="UTF-8"?>
<svg xmlns="http://www.w3.org/2000/svg" version="1.2">
  <font id="MobiliarRealistWeb-Bold">
    <font-face font-family="Mobiliar Realist Web" units-per-em="1000" ascent="1200" descent="-400" font-style="normal"
               font-weight="700" font-stretch="condensed" cap-height="690" x-height="493" underline-position="-85"
               underline-thickness="92"/>
    <missing-glyph horiz-adv-x="534"
                   d="M56 0 L56 700 L478 700 L478 0 L56 0 Z M106 50 L428 50 L428 650 L106 650 L106 50 Z "/>
    <glyph glyph-name="space" unicode="&#x20;" horiz-adv-x="252" d=""/>
    <glyph glyph-name="uni200B" unicode="&#x200b;" d=""/>
    <glyph glyph-name="uni00A0" unicode="&#xa0;" horiz-adv-x="252" d=""/>
    <glyph glyph-name="A" unicode="A" horiz-adv-x="650"
           d="M632 0 L483 0 L427 184 L216 184 L160 0 L18 0 L254 690 L395 690 L632 0 Z M323 539 L321 539 L243 280 L400 280 L323 539 Z "/>
    <glyph glyph-name="Aacute" unicode="&#xc1;" horiz-adv-x="650"
           d="M632 0 L483 0 L427 184 L216 184 L160 0 L18 0 L254 690 L395 690 L632 0 Z M323 539 L321 539 L243 280 L400 280 L323 539 Z M504 847 L379 727 L266 727 L356 849 L504 849 L504 847 Z "/>
    <glyph glyph-name="Abreve" unicode="&#x102;" horiz-adv-x="650"
           d="M632 0 L483 0 L427 184 L216 184 L160 0 L18 0 L254 690 L395 690 L632 0 Z M323 539 L321 539 L243 280 L400 280 L323 539 Z M455 848 Q454 823 446.5 801 Q439 779 423.5 762.5 Q408 746 383.5 736.5 Q359 727 325 727 Q291 727 267 736.5 Q243 746 227.5 762.5 Q212 779 204 801 Q196 823 195 848 L274 848 Q275 828 287.5 815 Q300 802 325 802 Q351 802 363.5 815 Q376 828 377 848 L455 848 L455 848 Z "/>
    <glyph glyph-name="Acircumflex" unicode="&#xc2;" horiz-adv-x="650"
           d="M632 0 L483 0 L427 184 L216 184 L160 0 L18 0 L254 690 L395 690 L632 0 Z M323 539 L321 539 L243 280 L400 280 L323 539 Z M379 727 L326 787 L324 787 L271 727 L179 727 L256 848 L394 848 L472 727 L379 727 Z "/>
    <glyph glyph-name="Adieresis" unicode="&#xc4;" horiz-adv-x="650"
           d="M632 0 L483 0 L427 184 L216 184 L160 0 L18 0 L254 690 L395 690 L632 0 Z M323 539 L321 539 L243 280 L400 280 L323 539 Z M239 858 Q268 858 284 841 Q300 824 300 798 L300 792 Q300 765 284 748 Q268 731 239 731 Q211 731 195 748 Q179 765 179 792 L179 798 Q179 824 195 841 Q211 858 239 858 Z M411 858 Q439 858 455 841 Q471 824 471 798 L471 792 Q471 765 455 748 Q439 731 411 731 Q382 731 366 748 Q350 765 350 792 L350 798 Q350 824 366 841 Q382 858 411 858 Z "/>
    <glyph glyph-name="AE" unicode="&#xc6;" horiz-adv-x="880"
           d="M832 570 L555 570 L555 406 L806 406 L806 290 L555 290 L555 120 L840 120 L840 0 L417 0 L417 179 L223 179 L166 0 L18 0 L254 690 L832 690 L832 570 Z M344 570 L253 280 L417 280 L417 570 L344 570 Z "/>
    <glyph glyph-name="AEacute" unicode="&#x1fc;" horiz-adv-x="880"
           d="M832 570 L555 570 L555 406 L806 406 L806 290 L555 290 L555 120 L840 120 L840 0 L417 0 L417 179 L223 179 L166 0 L18 0 L254 690 L832 690 L832 570 Z M344 570 L253 280 L417 280 L417 570 L344 570 Z M664 847 L539 727 L426 727 L516 849 L664 849 L664 847 Z "/>
    <glyph glyph-name="Agrave" unicode="&#xc0;" horiz-adv-x="650"
           d="M632 0 L483 0 L427 184 L216 184 L160 0 L18 0 L254 690 L395 690 L632 0 Z M323 539 L321 539 L243 280 L400 280 L323 539 Z M270 727 L145 847 L145 849 L293 849 L384 727 L270 727 Z "/>
    <glyph glyph-name="Amacron" unicode="&#x100;" horiz-adv-x="650"
           d="M632 0 L483 0 L427 184 L216 184 L160 0 L18 0 L254 690 L395 690 L632 0 Z M323 539 L321 539 L243 280 L400 280 L323 539 Z M448 740 L206 740 L206 826 L448 826 L448 740 Z "/>
    <glyph glyph-name="Aogonek" unicode="&#x104;" horiz-adv-x="650"
           d="M604 -195 Q596 -200 576.5 -206 Q557 -212 525 -212 Q474 -212 446 -187 Q418 -162 418 -118 Q418 -96 424 -76.5 Q430 -57 439 -41 Q448 -25 459 -12 Q470 1 480 10 L427 184 L216 184 L160 0 L18 0 L254 690 L395 690 L632 0 L563 0 Q553 -13 543 -34 Q533 -55 533 -81 Q533 -100 542.5 -108.5 Q552 -117 568 -117 Q583 -117 591.5 -115 Q600 -113 604 -111 L604 -195 Z M323 539 L321 539 L243 280 L400 280 L323 539 Z "/>
    <glyph glyph-name="Aring" unicode="&#xc5;" horiz-adv-x="650"
           d="M632 0 L483 0 L427 184 L216 184 L160 0 L18 0 L254 690 L395 690 L632 0 Z M323 539 L321 539 L243 280 L400 280 L323 539 Z M421 809 Q421 770 394 747 Q367 724 325 724 Q284 724 257 747 Q230 770 230 809 Q230 848 257 871 Q284 894 325 894 Q367 894 394 871 Q421 848 421 809 Z M360 809 Q360 824 349.5 831 Q339 838 325 838 Q311 838 301 831 Q291 824 291 809 Q291 794 301 787 Q311 780 325 780 Q339 780 349.5 787 Q360 794 360 809 Z "/>
    <glyph glyph-name="Aringacute" unicode="&#x1fa;" horiz-adv-x="650"
           d="M424 722 Q424 689 402 669 L632 0 L483 0 L427 184 L216 184 L160 0 L18 0 L247 670 Q227 692 227 722 Q227 758 254 779.5 Q281 801 325 801 Q370 801 397 779.5 Q424 758 424 722 Z M323 539 L321 539 L243 280 L400 280 L323 539 Z M418 854 L232 800 L232 845 L418 923 L418 854 Z M361 722 Q361 738 350 745.5 Q339 753 325 753 Q311 753 300.5 745.5 Q290 738 290 722 Q290 706 299 698.5 Q308 691 321 690 L329 690 Q342 691 351.5 698.5 Q361 706 361 722 Z "/>
    <glyph glyph-name="Atilde" unicode="&#xc3;" horiz-adv-x="650"
           d="M632 0 L483 0 L427 184 L216 184 L160 0 L18 0 L254 690 L395 690 L632 0 Z M323 539 L321 539 L243 280 L400 280 L323 539 Z M475 839 Q473 782 453.5 754 Q434 726 390 726 Q369 726 352.5 732 Q336 738 321 745 Q306 752 292.5 758 Q279 764 265 764 Q249 764 243.5 755 Q238 746 237 729 L176 729 Q177 786 197 814.5 Q217 843 261 843 Q281 843 298 837 Q315 831 330 823.5 Q345 816 358.5 810 Q372 804 386 804 Q401 804 407 813 Q413 822 414 839 L475 839 L475 839 Z "/>
    <glyph glyph-name="B" unicode="B" horiz-adv-x="606"
           d="M563 188 Q563 103 496 51.5 Q429 0 292 0 L68 0 L68 690 L289 690 Q422 690 486 643.5 Q550 597 550 516 Q550 478 539 450.5 Q528 423 509 403.5 Q490 384 465.5 372 Q441 360 414 353 L414 351 Q444 346 471 333 Q498 320 518.5 299.5 Q539 279 551 251 Q563 223 563 188 Z M425 207 Q425 249 391.5 273.5 Q358 298 291 298 L205 298 L205 117 L289 117 Q361 117 393 140 Q425 163 425 207 Z M413 489 Q413 533 382.5 553 Q352 573 283 573 L205 573 L205 399 L282 399 Q351 399 382 424 Q413 449 413 489 Z "/>
    <glyph glyph-name="C" unicode="C" horiz-adv-x="595"
           d="M39 345 Q39 439 67 506.5 Q95 574 140.5 617.5 Q186 661 243.5 681.5 Q301 702 360 702 Q409 702 444 694 Q479 686 503.5 674.5 Q528 663 544 651 Q560 639 570 630 L511 527 Q502 534 490.5 543 Q479 552 462.5 559.5 Q446 567 424.5 572.5 Q403 578 375 578 Q338 578 303.5 564.5 Q269 551 242 522.5 Q215 494 199 450 Q183 406 183 345 Q183 284 197.5 240 Q212 196 237.5 167.5 Q263 139 297.5 125.5 Q332 112 372 112 Q402 112 425 117 Q448 122 465 129 Q482 136 493.5 144.5 Q505 153 513 160 L565 60 Q555 52 540 39.5 Q525 27 500.5 15.5 Q476 4 440.5 -4 Q405 -12 355 -12 Q292 -12 234.5 8.5 Q177 29 133.5 72.5 Q90 116 64.5 183.5 Q39 251 39 345 Z "/>
    <glyph glyph-name="Cacute" unicode="&#x106;" horiz-adv-x="595"
           d="M39 345 Q39 439 67 506.5 Q95 574 140.5 617.5 Q186 661 243.5 681.5 Q301 702 360 702 Q409 702 444 694 Q479 686 503.5 674.5 Q528 663 544 651 Q560 639 570 630 L511 527 Q502 534 490.5 543 Q479 552 462.5 559.5 Q446 567 424.5 572.5 Q403 578 375 578 Q338 578 303.5 564.5 Q269 551 242 522.5 Q215 494 199 450 Q183 406 183 345 Q183 284 197.5 240 Q212 196 237.5 167.5 Q263 139 297.5 125.5 Q332 112 372 112 Q402 112 425 117 Q448 122 465 129 Q482 136 493.5 144.5 Q505 153 513 160 L565 60 Q555 52 540 39.5 Q525 27 500.5 15.5 Q476 4 440.5 -4 Q405 -12 355 -12 Q292 -12 234.5 8.5 Q177 29 133.5 72.5 Q90 116 64.5 183.5 Q39 251 39 345 Z M527 854 L402 734 L289 734 L379 856 L527 856 L527 854 Z "/>
    <glyph glyph-name="Ccaron" unicode="&#x10c;" horiz-adv-x="595"
           d="M39 345 Q39 439 67 506.5 Q95 574 140.5 617.5 Q186 661 243.5 681.5 Q301 702 360 702 Q409 702 444 694 Q479 686 503.5 674.5 Q528 663 544 651 Q560 639 570 630 L511 527 Q502 534 490.5 543 Q479 552 462.5 559.5 Q446 567 424.5 572.5 Q403 578 375 578 Q338 578 303.5 564.5 Q269 551 242 522.5 Q215 494 199 450 Q183 406 183 345 Q183 284 197.5 240 Q212 196 237.5 167.5 Q263 139 297.5 125.5 Q332 112 372 112 Q402 112 425 117 Q448 122 465 129 Q482 136 493.5 144.5 Q505 153 513 160 L565 60 Q555 52 540 39.5 Q525 27 500.5 15.5 Q476 4 440.5 -4 Q405 -12 355 -12 Q292 -12 234.5 8.5 Q177 29 133.5 72.5 Q90 116 64.5 183.5 Q39 251 39 345 Z M418 737 L280 737 L203 858 L295 858 L348 797 L350 797 L403 858 L496 858 L418 737 Z "/>
    <glyph glyph-name="Ccedilla" unicode="&#xc7;" horiz-adv-x="595"
           d="M443 -123 Q443 -165 412 -187.5 Q381 -210 325 -210 Q299 -210 282 -205 Q265 -200 255 -195 L255 -138 Q262 -143 275.5 -146 Q289 -149 306 -149 Q348 -149 348 -121 Q348 -104 332 -94 Q316 -84 274 -84 L271 -81 L307 -9 Q251 -2 202.5 22 Q154 46 117.5 89.5 Q81 133 60 196.5 Q39 260 39 345 Q39 439 67 506.5 Q95 574 140.5 617.5 Q186 661 243.5 681.5 Q301 702 360 702 Q409 702 444 694 Q479 686 503.5 674.5 Q528 663 544 651 Q560 639 570 630 L511 527 Q502 534 490.5 543 Q479 552 462.5 559.5 Q446 567 424.5 572.5 Q403 578 375 578 Q338 578 303.5 564.5 Q269 551 242 522.5 Q215 494 199 450 Q183 406 183 345 Q183 284 197.5 240 Q212 196 237.5 167.5 Q263 139 297.5 125.5 Q332 112 372 112 Q402 112 425 117 Q448 122 465 129 Q482 136 493.5 144.5 Q505 153 513 160 L565 60 Q556 52 541.5 40.5 Q527 29 505.5 18.5 Q484 8 452.5 -0.5 Q421 -9 378 -11 L359 -50 Q402 -52 422.5 -72.5 Q443 -93 443 -123 Z "/>
    <glyph glyph-name="Ccircumflex" unicode="&#x108;" horiz-adv-x="595"
           d="M39 345 Q39 439 67 506.5 Q95 574 140.5 617.5 Q186 661 243.5 681.5 Q301 702 360 702 Q409 702 444 694 Q479 686 503.5 674.5 Q528 663 544 651 Q560 639 570 630 L511 527 Q502 534 490.5 543 Q479 552 462.5 559.5 Q446 567 424.5 572.5 Q403 578 375 578 Q338 578 303.5 564.5 Q269 551 242 522.5 Q215 494 199 450 Q183 406 183 345 Q183 284 197.5 240 Q212 196 237.5 167.5 Q263 139 297.5 125.5 Q332 112 372 112 Q402 112 425 117 Q448 122 465 129 Q482 136 493.5 144.5 Q505 153 513 160 L565 60 Q555 52 540 39.5 Q525 27 500.5 15.5 Q476 4 440.5 -4 Q405 -12 355 -12 Q292 -12 234.5 8.5 Q177 29 133.5 72.5 Q90 116 64.5 183.5 Q39 251 39 345 Z M403 734 L350 794 L348 794 L295 734 L203 734 L280 855 L418 855 L496 734 L403 734 Z "/>
    <glyph glyph-name="Cdotaccent" unicode="&#x10a;" horiz-adv-x="595"
           d="M39 345 Q39 439 67 506.5 Q95 574 140.5 617.5 Q186 661 243.5 681.5 Q301 702 360 702 Q409 702 444 694 Q479 686 503.5 674.5 Q528 663 544 651 Q560 639 570 630 L511 527 Q502 534 490.5 543 Q479 552 462.5 559.5 Q446 567 424.5 572.5 Q403 578 375 578 Q338 578 303.5 564.5 Q269 551 242 522.5 Q215 494 199 450 Q183 406 183 345 Q183 284 197.5 240 Q212 196 237.5 167.5 Q263 139 297.5 125.5 Q332 112 372 112 Q402 112 425 117 Q448 122 465 129 Q482 136 493.5 144.5 Q505 153 513 160 L565 60 Q555 52 540 39.5 Q525 27 500.5 15.5 Q476 4 440.5 -4 Q405 -12 355 -12 Q292 -12 234.5 8.5 Q177 29 133.5 72.5 Q90 116 64.5 183.5 Q39 251 39 345 Z M349 877 Q382 877 400.5 859.5 Q419 842 419 810 L419 808 Q419 776 400.5 758 Q382 740 349 740 Q316 740 297.5 758 Q279 776 279 808 L279 810 Q279 842 297.5 859.5 Q316 877 349 877 Z "/>
    <glyph glyph-name="D" unicode="D" horiz-adv-x="683"
           d="M647 352 Q647 265 620 199 Q593 133 542.5 88.5 Q492 44 419 22 Q346 0 253 0 L68 0 L68 690 L253 690 Q343 690 416 671 Q489 652 540 611 Q591 570 619 506 Q647 442 647 352 Z M503 352 Q503 409 486 450 Q469 491 437 517.5 Q405 544 359.5 556 Q314 568 256 568 L209 568 L209 122 L256 122 Q373 122 438 177.5 Q503 233 503 352 Z "/>
    <glyph glyph-name="Dcaron" unicode="&#x10e;" horiz-adv-x="683"
           d="M647 352 Q647 265 620 199 Q593 133 542.5 88.5 Q492 44 419 22 Q346 0 253 0 L68 0 L68 690 L253 690 Q343 690 416 671 Q489 652 540 611 Q591 570 619 506 Q647 442 647 352 Z M503 352 Q503 409 486 450 Q469 491 437 517.5 Q405 544 359.5 556 Q314 568 256 568 L209 568 L209 122 L256 122 Q373 122 438 177.5 Q503 233 503 352 Z M376 730 L238 730 L161 851 L253 851 L306 790 L308 790 L361 851 L454 851 L376 730 Z "/>
    <glyph glyph-name="Dcroat" unicode="&#x110;" horiz-adv-x="709"
           d="M672 352 Q672 265 645 199 Q618 133 567.5 88.5 Q517 44 444 22 Q371 0 278 0 L93 0 L93 292 L22 292 L22 406 L93 406 L93 690 L278 690 Q368 690 441 671 Q514 652 565 611 Q616 570 644 506 Q672 442 672 352 Z M528 352 Q528 409 511 450 Q494 491 462 517.5 Q430 544 384.5 556 Q339 568 281 568 L234 568 L234 406 L372 406 L372 292 L234 292 L234 122 L281 122 Q398 122 463 177.5 Q528 233 528 352 Z "/>
    <glyph glyph-name="Eth" unicode="&#xd0;" horiz-adv-x="709"
           d="M672 352 Q672 265 645 199 Q618 133 567.5 88.5 Q517 44 444 22 Q371 0 278 0 L93 0 L93 292 L22 292 L22 406 L93 406 L93 690 L278 690 Q368 690 441 671 Q514 652 565 611 Q616 570 644 506 Q672 442 672 352 Z M528 352 Q528 409 511 450 Q494 491 462 517.5 Q430 544 384.5 556 Q339 568 281 568 L234 568 L234 406 L372 406 L372 292 L234 292 L234 122 L281 122 Q398 122 463 177.5 Q528 233 528 352 Z "/>
    <glyph glyph-name="E" unicode="E" horiz-adv-x="535"
           d="M487 570 L209 570 L209 406 L459 406 L459 290 L209 290 L209 120 L495 120 L495 0 L68 0 L68 690 L487 690 L487 570 Z "/>
    <glyph glyph-name="Eacute" unicode="&#xc9;" horiz-adv-x="535"
           d="M487 570 L209 570 L209 406 L459 406 L459 290 L209 290 L209 120 L495 120 L495 0 L68 0 L68 690 L487 690 L487 570 Z M455 847 L330 727 L217 727 L307 849 L455 849 L455 847 Z "/>
    <glyph glyph-name="Ebreve" unicode="&#x114;" horiz-adv-x="535"
           d="M487 570 L209 570 L209 406 L459 406 L459 290 L209 290 L209 120 L495 120 L495 0 L68 0 L68 690 L487 690 L487 570 Z M406 848 Q405 823 397.5 801 Q390 779 374.5 762.5 Q359 746 334.5 736.5 Q310 727 276 727 Q242 727 218 736.5 Q194 746 178.5 762.5 Q163 779 155 801 Q147 823 146 848 L225 848 Q226 828 238.5 815 Q251 802 276 802 Q302 802 314.5 815 Q327 828 328 848 L406 848 L406 848 Z "/>
    <glyph glyph-name="Ecaron" unicode="&#x11a;" horiz-adv-x="535"
           d="M487 570 L209 570 L209 406 L459 406 L459 290 L209 290 L209 120 L495 120 L495 0 L68 0 L68 690 L487 690 L487 570 Z M346 730 L208 730 L131 851 L223 851 L276 790 L278 790 L331 851 L424 851 L346 730 Z "/>
    <glyph glyph-name="Ecircumflex" unicode="&#xca;" horiz-adv-x="535"
           d="M487 570 L209 570 L209 406 L459 406 L459 290 L209 290 L209 120 L495 120 L495 0 L68 0 L68 690 L487 690 L487 570 Z M331 727 L278 787 L276 787 L223 727 L131 727 L208 848 L346 848 L424 727 L331 727 Z "/>
    <glyph glyph-name="Edieresis" unicode="&#xcb;" horiz-adv-x="535"
           d="M487 570 L209 570 L209 406 L459 406 L459 290 L209 290 L209 120 L495 120 L495 0 L68 0 L68 690 L487 690 L487 570 Z M191 858 Q220 858 236 841 Q252 824 252 798 L252 792 Q252 765 236 748 Q220 731 191 731 Q163 731 147 748 Q131 765 131 792 L131 798 Q131 824 147 841 Q163 858 191 858 Z M363 858 Q391 858 407 841 Q423 824 423 798 L423 792 Q423 765 407 748 Q391 731 363 731 Q334 731 318 748 Q302 765 302 792 L302 798 Q302 824 318 841 Q334 858 363 858 Z "/>
    <glyph glyph-name="Edotaccent" unicode="&#x116;" horiz-adv-x="535"
           d="M487 570 L209 570 L209 406 L459 406 L459 290 L209 290 L209 120 L495 120 L495 0 L68 0 L68 690 L487 690 L487 570 Z M277 870 Q310 870 328.5 852.5 Q347 835 347 803 L347 801 Q347 769 328.5 751 Q310 733 277 733 Q244 733 225.5 751 Q207 769 207 801 L207 803 Q207 835 225.5 852.5 Q244 870 277 870 Z "/>
    <glyph glyph-name="Egrave" unicode="&#xc8;" horiz-adv-x="535"
           d="M487 570 L209 570 L209 406 L459 406 L459 290 L209 290 L209 120 L495 120 L495 0 L68 0 L68 690 L487 690 L487 570 Z M222 727 L97 847 L97 849 L245 849 L336 727 L222 727 Z "/>
    <glyph glyph-name="Emacron" unicode="&#x112;" horiz-adv-x="535"
           d="M487 570 L209 570 L209 406 L459 406 L459 290 L209 290 L209 120 L495 120 L495 0 L68 0 L68 690 L487 690 L487 570 Z M399 740 L157 740 L157 826 L399 826 L399 740 Z "/>
    <glyph glyph-name="Eogonek" unicode="&#x118;" horiz-adv-x="535"
           d="M482 -195 Q474 -200 454.5 -206 Q435 -212 403 -212 Q352 -212 324 -187 Q296 -162 296 -118 Q296 -79 312.5 -49.5 Q329 -20 348 0 L68 0 L68 690 L487 690 L487 570 L209 570 L209 406 L459 406 L459 290 L209 290 L209 120 L495 120 L495 0 L441 0 Q431 -13 421 -34 Q411 -55 411 -81 Q411 -100 420.5 -108.5 Q430 -117 446 -117 Q461 -117 469.5 -115 Q478 -113 482 -111 L482 -195 Z "/>
    <glyph glyph-name="uni018F" unicode="&#x18f;" horiz-adv-x="646"
           d="M606 338 Q606 255 587.5 190 Q569 125 533.5 80 Q498 35 446.5 11.5 Q395 -12 328 -12 Q182 -12 112 74 Q42 160 42 337 L42 393 L468 393 Q459 491 410.5 535 Q362 579 286 579 Q251 579 223.5 571.5 Q196 564 175 553.5 Q154 543 138.5 531 Q123 519 113 510 L54 606 Q67 618 88.5 634.5 Q110 651 141 666 Q172 681 212.5 691.5 Q253 702 304 702 Q372 702 428 681 Q484 660 523.5 615.5 Q563 571 584.5 502 Q606 433 606 338 Z M322 111 Q391 111 427 156.5 Q463 202 469 287 L176 287 Q178 208 212 159.5 Q246 111 322 111 Z "/>
    <glyph glyph-name="F" unicode="F" horiz-adv-x="514"
           d="M488 568 L209 568 L209 369 L461 369 L461 248 L209 248 L209 0 L68 0 L68 690 L488 690 L488 568 Z "/>
    <glyph glyph-name="G" unicode="G" horiz-adv-x="641"
           d="M583 52 Q572 44 555.5 33 Q539 22 514 12 Q489 2 454 -5 Q419 -12 371 -12 Q302 -12 241.5 7.5 Q181 27 136 70 Q91 113 65 181 Q39 249 39 345 Q39 438 68 505.5 Q97 573 144.5 616.5 Q192 660 253.5 681 Q315 702 380 702 Q429 702 465 693.5 Q501 685 526.5 673.5 Q552 662 568 649.5 Q584 637 594 630 L534 524 Q525 532 512.5 541.5 Q500 551 482.5 559 Q465 567 442 572.5 Q419 578 389 578 Q348 578 310.5 565.5 Q273 553 244.5 525 Q216 497 199 453 Q182 409 182 345 Q182 283 197 239 Q212 195 239 166.5 Q266 138 303 124.5 Q340 111 384 111 Q404 111 421 113 Q438 115 452 118 L452 280 L360 280 L360 389 L583 389 L583 52 Z "/>
    <glyph glyph-name="Gbreve" unicode="&#x11e;" horiz-adv-x="641"
           d="M583 52 Q572 44 555.5 33 Q539 22 514 12 Q489 2 454 -5 Q419 -12 371 -12 Q302 -12 241.5 7.5 Q181 27 136 70 Q91 113 65 181 Q39 249 39 345 Q39 438 68 505.5 Q97 573 144.5 616.5 Q192 660 253.5 681 Q315 702 380 702 Q429 702 465 693.5 Q501 685 526.5 673.5 Q552 662 568 649.5 Q584 637 594 630 L534 524 Q525 532 512.5 541.5 Q500 551 482.5 559 Q465 567 442 572.5 Q419 578 389 578 Q348 578 310.5 565.5 Q273 553 244.5 525 Q216 497 199 453 Q182 409 182 345 Q182 283 197 239 Q212 195 239 166.5 Q266 138 303 124.5 Q340 111 384 111 Q404 111 421 113 Q438 115 452 118 L452 280 L360 280 L360 389 L583 389 L583 52 Z M493 855 Q492 830 484.5 808 Q477 786 461.5 769.5 Q446 753 421.5 743.5 Q397 734 363 734 Q329 734 305 743.5 Q281 753 265.5 769.5 Q250 786 242 808 Q234 830 233 855 L312 855 Q313 835 325.5 822 Q338 809 363 809 Q389 809 401.5 822 Q414 835 415 855 L493 855 L493 855 Z "/>
    <glyph glyph-name="Gcircumflex" unicode="&#x11c;" horiz-adv-x="641"
           d="M583 52 Q572 44 555.5 33 Q539 22 514 12 Q489 2 454 -5 Q419 -12 371 -12 Q302 -12 241.5 7.5 Q181 27 136 70 Q91 113 65 181 Q39 249 39 345 Q39 438 68 505.5 Q97 573 144.5 616.5 Q192 660 253.5 681 Q315 702 380 702 Q429 702 465 693.5 Q501 685 526.5 673.5 Q552 662 568 649.5 Q584 637 594 630 L534 524 Q525 532 512.5 541.5 Q500 551 482.5 559 Q465 567 442 572.5 Q419 578 389 578 Q348 578 310.5 565.5 Q273 553 244.5 525 Q216 497 199 453 Q182 409 182 345 Q182 283 197 239 Q212 195 239 166.5 Q266 138 303 124.5 Q340 111 384 111 Q404 111 421 113 Q438 115 452 118 L452 280 L360 280 L360 389 L583 389 L583 52 Z M418 734 L365 794 L363 794 L310 734 L218 734 L295 855 L433 855 L511 734 L418 734 Z "/>
    <glyph glyph-name="Gcommaaccent" unicode="&#x122;" horiz-adv-x="641"
           d="M583 52 Q572 44 555.5 33 Q539 22 514 12 Q489 2 454 -5 Q419 -12 371 -12 Q302 -12 241.5 7.5 Q181 27 136 70 Q91 113 65 181 Q39 249 39 345 Q39 438 68 505.5 Q97 573 144.5 616.5 Q192 660 253.5 681 Q315 702 380 702 Q429 702 465 693.5 Q501 685 526.5 673.5 Q552 662 568 649.5 Q584 637 594 630 L534 524 Q525 532 512.5 541.5 Q500 551 482.5 559 Q465 567 442 572.5 Q419 578 389 578 Q348 578 310.5 565.5 Q273 553 244.5 525 Q216 497 199 453 Q182 409 182 345 Q182 283 197 239 Q212 195 239 166.5 Q266 138 303 124.5 Q340 111 384 111 Q404 111 421 113 Q438 115 452 118 L452 280 L360 280 L360 389 L583 389 L583 52 Z M433 -122 Q433 -154 423.5 -176 Q414 -198 397.5 -212.5 Q381 -227 359.5 -235 Q338 -243 315 -247 L306 -208 Q328 -201 347 -188 Q366 -175 369 -146 L366 -146 Q340 -146 325.5 -132 Q311 -118 311 -94 Q311 -68 326.5 -54.5 Q342 -41 365 -41 Q395 -41 414 -61.5 Q433 -82 433 -122 Z "/>
    <glyph glyph-name="Gdotaccent" unicode="&#x120;" horiz-adv-x="641"
           d="M583 52 Q572 44 555.5 33 Q539 22 514 12 Q489 2 454 -5 Q419 -12 371 -12 Q302 -12 241.5 7.5 Q181 27 136 70 Q91 113 65 181 Q39 249 39 345 Q39 438 68 505.5 Q97 573 144.5 616.5 Q192 660 253.5 681 Q315 702 380 702 Q429 702 465 693.5 Q501 685 526.5 673.5 Q552 662 568 649.5 Q584 637 594 630 L534 524 Q525 532 512.5 541.5 Q500 551 482.5 559 Q465 567 442 572.5 Q419 578 389 578 Q348 578 310.5 565.5 Q273 553 244.5 525 Q216 497 199 453 Q182 409 182 345 Q182 283 197 239 Q212 195 239 166.5 Q266 138 303 124.5 Q340 111 384 111 Q404 111 421 113 Q438 115 452 118 L452 280 L360 280 L360 389 L583 389 L583 52 Z M364 877 Q397 877 415.5 859.5 Q434 842 434 810 L434 808 Q434 776 415.5 758 Q397 740 364 740 Q331 740 312.5 758 Q294 776 294 808 L294 810 Q294 842 312.5 859.5 Q331 877 364 877 Z "/>
    <glyph glyph-name="H" unicode="H" horiz-adv-x="673"
           d="M605 0 L464 0 L464 287 L209 287 L209 0 L68 0 L68 690 L209 690 L209 409 L464 409 L464 690 L605 690 L605 0 Z "/>
    <glyph glyph-name="Hbar" unicode="&#x126;" horiz-adv-x="714"
           d="M626 593 L693 593 L693 518 L626 518 L626 0 L485 0 L485 287 L230 287 L230 0 L89 0 L89 518 L22 518 L22 593 L89 593 L89 690 L230 690 L230 593 L485 593 L485 690 L626 690 L626 593 Z M485 409 L485 518 L230 518 L230 409 L485 409 Z "/>
    <glyph glyph-name="Hcircumflex" unicode="&#x124;" horiz-adv-x="673"
           d="M605 0 L464 0 L464 287 L209 287 L209 0 L68 0 L68 690 L209 690 L209 409 L464 409 L464 690 L605 690 L605 0 Z M390 727 L337 787 L335 787 L282 727 L190 727 L267 848 L405 848 L483 727 L390 727 Z "/>
    <glyph glyph-name="I" unicode="I" horiz-adv-x="396"
           d="M350 575 L268 575 L268 115 L350 115 L350 0 L45 0 L45 115 L127 115 L127 575 L45 575 L45 690 L350 690 L350 575 Z "/>
    <glyph glyph-name="Iacute" unicode="&#xcd;" horiz-adv-x="396"
           d="M350 575 L268 575 L268 115 L350 115 L350 0 L45 0 L45 115 L127 115 L127 575 L45 575 L45 690 L350 690 L350 575 Z M377 847 L252 727 L139 727 L229 849 L377 849 L377 847 Z "/>
    <glyph glyph-name="Ibreve" unicode="&#x12c;" horiz-adv-x="396"
           d="M350 575 L268 575 L268 115 L350 115 L350 0 L45 0 L45 115 L127 115 L127 575 L45 575 L45 690 L350 690 L350 575 Z M328 848 Q327 823 319.5 801 Q312 779 296.5 762.5 Q281 746 256.5 736.5 Q232 727 198 727 Q164 727 140 736.5 Q116 746 100.5 762.5 Q85 779 77 801 Q69 823 68 848 L147 848 Q148 828 160.5 815 Q173 802 198 802 Q224 802 236.5 815 Q249 828 250 848 L328 848 L328 848 Z "/>
    <glyph glyph-name="Icircumflex" unicode="&#xce;" horiz-adv-x="396"
           d="M350 575 L268 575 L268 115 L350 115 L350 0 L45 0 L45 115 L127 115 L127 575 L45 575 L45 690 L350 690 L350 575 Z M252 727 L199 787 L197 787 L144 727 L52 727 L129 848 L267 848 L345 727 L252 727 Z "/>
    <glyph glyph-name="Idieresis" unicode="&#xcf;" horiz-adv-x="396"
           d="M350 575 L268 575 L268 115 L350 115 L350 0 L45 0 L45 115 L127 115 L127 575 L45 575 L45 690 L350 690 L350 575 Z M112 858 Q141 858 157 841 Q173 824 173 798 L173 792 Q173 765 157 748 Q141 731 112 731 Q84 731 68 748 Q52 765 52 792 L52 798 Q52 824 68 841 Q84 858 112 858 Z M284 858 Q312 858 328 841 Q344 824 344 798 L344 792 Q344 765 328 748 Q312 731 284 731 Q255 731 239 748 Q223 765 223 792 L223 798 Q223 824 239 841 Q255 858 284 858 Z "/>
    <glyph glyph-name="Idotaccent" unicode="&#x130;" horiz-adv-x="396"
           d="M350 575 L268 575 L268 115 L350 115 L350 0 L45 0 L45 115 L127 115 L127 575 L45 575 L45 690 L350 690 L350 575 Z M199 870 Q232 870 250.5 852.5 Q269 835 269 803 L269 801 Q269 769 250.5 751 Q232 733 199 733 Q166 733 147.5 751 Q129 769 129 801 L129 803 Q129 835 147.5 852.5 Q166 870 199 870 Z "/>
    <glyph glyph-name="Igrave" unicode="&#xcc;" horiz-adv-x="396"
           d="M350 575 L268 575 L268 115 L350 115 L350 0 L45 0 L45 115 L127 115 L127 575 L45 575 L45 690 L350 690 L350 575 Z M146 727 L21 847 L21 849 L169 849 L260 727 L146 727 Z "/>
    <glyph glyph-name="IJ" unicode="&#x132;" horiz-adv-x="837"
           d="M773 250 Q773 176 757.5 126 Q742 76 712.5 45 Q683 14 639 1 Q595 -12 538 -12 Q497 -12 467 -4 Q437 4 426 10 L451 129 Q461 123 479 117.5 Q497 112 522 112 Q549 112 569.5 119 Q590 126 604 142 Q618 158 625 184.5 Q632 211 632 251 L632 568 L436 568 L436 690 L773 690 L773 250 Z M350 575 L268 575 L268 115 L350 115 L350 0 L45 0 L45 115 L127 115 L127 575 L45 575 L45 690 L350 690 L350 575 Z "/>
    <glyph glyph-name="Imacron" unicode="&#x12a;" horiz-adv-x="396"
           d="M350 575 L268 575 L268 115 L350 115 L350 0 L45 0 L45 115 L127 115 L127 575 L45 575 L45 690 L350 690 L350 575 Z M321 740 L79 740 L79 826 L321 826 L321 740 Z "/>
    <glyph glyph-name="Iogonek" unicode="&#x12e;" horiz-adv-x="396"
           d="M348 -195 Q340 -200 320.5 -206 Q301 -212 269 -212 Q218 -212 190 -187 Q162 -162 162 -118 Q162 -79 178.5 -49.5 Q195 -20 214 0 L45 0 L45 115 L127 115 L127 575 L45 575 L45 690 L350 690 L350 575 L268 575 L268 115 L350 115 L350 0 L307 0 Q297 -13 287 -34 Q277 -55 277 -81 Q277 -100 286.5 -108.5 Q296 -117 312 -117 Q327 -117 335.5 -115 Q344 -113 348 -111 L348 -195 Z "/>
    <glyph glyph-name="Itilde" unicode="&#x128;" horiz-adv-x="396"
           d="M350 575 L268 575 L268 115 L350 115 L350 0 L45 0 L45 115 L127 115 L127 575 L45 575 L45 690 L350 690 L350 575 Z M348 839 Q346 782 326.5 754 Q307 726 263 726 Q242 726 225.5 732 Q209 738 194 745 Q179 752 165.5 758 Q152 764 138 764 Q122 764 116.5 755 Q111 746 110 729 L49 729 Q50 786 70 814.5 Q90 843 134 843 Q154 843 171 837 Q188 831 203 823.5 Q218 816 231.5 810 Q245 804 259 804 Q274 804 280 813 Q286 822 287 839 L348 839 L348 839 Z "/>
    <glyph glyph-name="J" unicode="J" horiz-adv-x="452"
           d="M389 250 Q389 176 373.5 126 Q358 76 328.5 45 Q299 14 255 1 Q211 -12 154 -12 Q113 -12 83 -4 Q53 4 42 10 L67 129 Q77 123 95 117.5 Q113 112 138 112 Q165 112 185.5 119 Q206 126 220 142 Q234 158 241 184.5 Q248 211 248 251 L248 568 L52 568 L52 690 L389 690 L389 250 Z "/>
    <glyph glyph-name="Jcircumflex" unicode="&#x134;" horiz-adv-x="452"
           d="M389 250 Q389 176 373.5 126 Q358 76 328.5 45 Q299 14 255 1 Q211 -12 154 -12 Q113 -12 83 -4 Q53 4 42 10 L67 129 Q77 123 95 117.5 Q113 112 138 112 Q165 112 185.5 119 Q206 126 220 142 Q234 158 241 184.5 Q248 211 248 251 L248 568 L52 568 L52 690 L389 690 L389 250 Z M277 727 L224 787 L222 787 L169 727 L77 727 L154 848 L292 848 L370 727 L277 727 Z "/>
    <glyph glyph-name="K" unicode="K" horiz-adv-x="637"
           d="M381 358 L628 0 L457 0 L268 294 L209 294 L209 0 L68 0 L68 690 L209 690 L209 403 L264 403 L453 690 L612 690 L381 358 Z "/>
    <glyph glyph-name="Kcommaaccent" unicode="&#x136;" horiz-adv-x="637"
           d="M381 358 L628 0 L457 0 L268 294 L209 294 L209 0 L68 0 L68 690 L209 690 L209 403 L264 403 L453 690 L612 690 L381 358 Z M383 -112 Q383 -144 373.5 -166 Q364 -188 347.5 -202.5 Q331 -217 309.5 -225 Q288 -233 265 -237 L256 -198 Q278 -191 297 -178 Q316 -165 319 -136 L316 -136 Q290 -136 275.5 -122 Q261 -108 261 -84 Q261 -58 276.5 -44.5 Q292 -31 315 -31 Q345 -31 364 -51.5 Q383 -72 383 -112 Z "/>
    <glyph glyph-name="L" unicode="L" horiz-adv-x="514"
           d="M209 122 L496 122 L496 0 L68 0 L68 690 L209 690 L209 122 Z "/>
    <glyph glyph-name="Lacute" unicode="&#x139;" horiz-adv-x="514"
           d="M209 122 L496 122 L496 0 L68 0 L68 690 L209 690 L209 122 Z M317 847 L192 727 L79 727 L169 849 L317 849 L317 847 Z "/>
    <glyph glyph-name="Lcaron" unicode="&#x13d;" horiz-adv-x="506"
           d="M209 122 L496 122 L496 0 L68 0 L68 690 L209 690 L209 122 Z M449 614 Q449 582 439.5 560 Q430 538 413.5 523.5 Q397 509 375.5 501 Q354 493 331 489 L322 528 Q344 535 363 548 Q382 561 385 590 L382 590 Q356 590 341.5 604 Q327 618 327 642 Q327 668 342.5 681.5 Q358 695 381 695 Q411 695 430 674.5 Q449 654 449 614 Z "/>
    <glyph glyph-name="Lcommaaccent" unicode="&#x13b;" horiz-adv-x="514"
           d="M209 122 L496 122 L496 0 L68 0 L68 690 L209 690 L209 122 Z M347 -122 Q347 -154 337.5 -176 Q328 -198 311.5 -212.5 Q295 -227 273.5 -235 Q252 -243 229 -247 L220 -208 Q242 -201 261 -188 Q280 -175 283 -146 L280 -146 Q254 -146 239.5 -132 Q225 -118 225 -94 Q225 -68 240.5 -54.5 Q256 -41 279 -41 Q309 -41 328 -61.5 Q347 -82 347 -122 Z "/>
    <glyph glyph-name="Ldot" unicode="&#x13f;" horiz-adv-x="506"
           d="M377 473 Q409 473 427 454.5 Q445 436 445 401 L445 399 Q445 364 427 345.5 Q409 327 377 327 Q346 327 327.5 345.5 Q309 364 309 399 L309 401 Q309 436 327.5 454.5 Q346 473 377 473 Z M209 122 L496 122 L496 0 L68 0 L68 690 L209 690 L209 122 Z "/>
    <glyph glyph-name="Lslash" unicode="&#x141;" horiz-adv-x="537"
           d="M232 413 L393 520 L393 431 L232 324 L232 122 L519 122 L519 0 L91 0 L91 231 L22 185 L22 273 L91 319 L91 690 L232 690 L232 413 Z "/>
    <glyph glyph-name="M" unicode="M" horiz-adv-x="825"
           d="M757 0 L621 0 L621 412 L619 412 L464 0 L361 0 L205 412 L203 412 L203 0 L68 0 L68 690 L222 690 L412 197 L414 197 L605 690 L757 690 L757 0 Z "/>
    <glyph glyph-name="N" unicode="N" horiz-adv-x="673"
           d="M605 0 L481 0 L211 425 L209 425 L209 0 L68 0 L68 690 L190 690 L462 265 L463 265 L463 690 L605 690 L605 0 Z "/>
    <glyph glyph-name="Nacute" unicode="&#x143;" horiz-adv-x="673"
           d="M605 0 L481 0 L211 425 L209 425 L209 0 L68 0 L68 690 L190 690 L462 265 L463 265 L463 690 L605 690 L605 0 Z M514 847 L389 727 L276 727 L366 849 L514 849 L514 847 Z "/>
    <glyph glyph-name="Ncaron" unicode="&#x147;" horiz-adv-x="673"
           d="M605 0 L481 0 L211 425 L209 425 L209 0 L68 0 L68 690 L190 690 L462 265 L463 265 L463 690 L605 690 L605 0 Z M404 730 L266 730 L189 851 L281 851 L334 790 L336 790 L389 851 L482 851 L404 730 Z "/>
    <glyph glyph-name="Ncommaaccent" unicode="&#x145;" horiz-adv-x="673"
           d="M605 0 L481 0 L211 425 L209 425 L209 0 L68 0 L68 690 L190 690 L462 265 L463 265 L463 690 L605 690 L605 0 Z M402 -112 Q402 -144 392.5 -166 Q383 -188 366.5 -202.5 Q350 -217 328.5 -225 Q307 -233 284 -237 L275 -198 Q297 -191 316 -178 Q335 -165 338 -136 L335 -136 Q309 -136 294.5 -122 Q280 -108 280 -84 Q280 -58 295.5 -44.5 Q311 -31 334 -31 Q364 -31 383 -51.5 Q402 -72 402 -112 Z "/>
    <glyph glyph-name="Ntilde" unicode="&#xd1;" horiz-adv-x="673"
           d="M605 0 L481 0 L211 425 L209 425 L209 0 L68 0 L68 690 L190 690 L462 265 L463 265 L463 690 L605 690 L605 0 Z M485 839 Q483 782 463.5 754 Q444 726 400 726 Q379 726 362.5 732 Q346 738 331 745 Q316 752 302.5 758 Q289 764 275 764 Q259 764 253.5 755 Q248 746 247 729 L186 729 Q187 786 207 814.5 Q227 843 271 843 Q291 843 308 837 Q325 831 340 823.5 Q355 816 368.5 810 Q382 804 396 804 Q411 804 417 813 Q423 822 424 839 L485 839 L485 839 Z "/>
    <glyph glyph-name="Eng" unicode="&#x14a;" horiz-adv-x="673"
           d="M412 -160 Q384 -160 361 -153.5 Q338 -147 329 -142 L349 -36 Q356 -40 367.5 -43 Q379 -46 396 -46 Q431 -46 449.5 -30 Q468 -14 470 22 L211 425 L209 425 L209 0 L68 0 L68 690 L190 690 L461 265 L463 265 L463 690 L605 690 L605 52 Q605 -7 592 -47 Q579 -87 554.5 -112.5 Q530 -138 494 -149 Q458 -160 412 -160 Z "/>
    <glyph glyph-name="O" unicode="O" horiz-adv-x="697"
           d="M515 345 Q515 460 470 519 Q425 578 349 578 Q272 578 227.5 519 Q183 460 183 345 Q183 230 227.5 171 Q272 112 349 112 Q425 112 470 171 Q515 230 515 345 Z M658 345 Q658 257 634.5 190.5 Q611 124 570 79 Q529 34 472.5 11 Q416 -12 349 -12 Q280 -12 223 11 Q166 34 125 79 Q84 124 61.5 190.5 Q39 257 39 345 Q39 433 62.5 499.5 Q86 566 127 611 Q168 656 225 679 Q282 702 349 702 Q418 702 474.5 679 Q531 656 572 611 Q613 566 635.5 499.5 Q658 433 658 345 Z "/>
    <glyph glyph-name="Ograve" unicode="&#xd2;" horiz-adv-x="697"
           d="M515 345 Q515 460 470 519 Q425 578 349 578 Q272 578 227.5 519 Q183 460 183 345 Q183 230 227.5 171 Q272 112 349 112 Q425 112 470 171 Q515 230 515 345 Z M658 345 Q658 257 634.5 190.5 Q611 124 570 79 Q529 34 472.5 11 Q416 -12 349 -12 Q280 -12 223 11 Q166 34 125 79 Q84 124 61.5 190.5 Q39 257 39 345 Q39 433 62.5 499.5 Q86 566 127 611 Q168 656 225 679 Q282 702 349 702 Q418 702 474.5 679 Q531 656 572 611 Q613 566 635.5 499.5 Q658 433 658 345 Z M293 734 L168 854 L168 856 L316 856 L407 734 L293 734 Z "/>
    <glyph glyph-name="Oacute" unicode="&#xd3;" horiz-adv-x="697"
           d="M515 345 Q515 460 470 519 Q425 578 349 578 Q272 578 227.5 519 Q183 460 183 345 Q183 230 227.5 171 Q272 112 349 112 Q425 112 470 171 Q515 230 515 345 Z M658 345 Q658 257 634.5 190.5 Q611 124 570 79 Q529 34 472.5 11 Q416 -12 349 -12 Q280 -12 223 11 Q166 34 125 79 Q84 124 61.5 190.5 Q39 257 39 345 Q39 433 62.5 499.5 Q86 566 127 611 Q168 656 225 679 Q282 702 349 702 Q418 702 474.5 679 Q531 656 572 611 Q613 566 635.5 499.5 Q658 433 658 345 Z M526 854 L401 734 L288 734 L378 856 L526 856 L526 854 Z "/>
    <glyph glyph-name="Obreve" unicode="&#x14e;" horiz-adv-x="697"
           d="M515 345 Q515 460 470 519 Q425 578 349 578 Q272 578 227.5 519 Q183 460 183 345 Q183 230 227.5 171 Q272 112 349 112 Q425 112 470 171 Q515 230 515 345 Z M658 345 Q658 257 634.5 190.5 Q611 124 570 79 Q529 34 472.5 11 Q416 -12 349 -12 Q280 -12 223 11 Q166 34 125 79 Q84 124 61.5 190.5 Q39 257 39 345 Q39 433 62.5 499.5 Q86 566 127 611 Q168 656 225 679 Q282 702 349 702 Q418 702 474.5 679 Q531 656 572 611 Q613 566 635.5 499.5 Q658 433 658 345 Z M478 855 Q477 830 469.5 808 Q462 786 446.5 769.5 Q431 753 406.5 743.5 Q382 734 348 734 Q314 734 290 743.5 Q266 753 250.5 769.5 Q235 786 227 808 Q219 830 218 855 L297 855 Q298 835 310.5 822 Q323 809 348 809 Q374 809 386.5 822 Q399 835 400 855 L478 855 L478 855 Z "/>
    <glyph glyph-name="Ocircumflex" unicode="&#xd4;" horiz-adv-x="697"
           d="M515 345 Q515 460 470 519 Q425 578 349 578 Q272 578 227.5 519 Q183 460 183 345 Q183 230 227.5 171 Q272 112 349 112 Q425 112 470 171 Q515 230 515 345 Z M658 345 Q658 257 634.5 190.5 Q611 124 570 79 Q529 34 472.5 11 Q416 -12 349 -12 Q280 -12 223 11 Q166 34 125 79 Q84 124 61.5 190.5 Q39 257 39 345 Q39 433 62.5 499.5 Q86 566 127 611 Q168 656 225 679 Q282 702 349 702 Q418 702 474.5 679 Q531 656 572 611 Q613 566 635.5 499.5 Q658 433 658 345 Z M402 734 L349 794 L347 794 L294 734 L202 734 L279 855 L417 855 L495 734 L402 734 Z "/>
    <glyph glyph-name="Odieresis" unicode="&#xd6;" horiz-adv-x="697"
           d="M515 345 Q515 460 470 519 Q425 578 349 578 Q272 578 227.5 519 Q183 460 183 345 Q183 230 227.5 171 Q272 112 349 112 Q425 112 470 171 Q515 230 515 345 Z M658 345 Q658 257 634.5 190.5 Q611 124 570 79 Q529 34 472.5 11 Q416 -12 349 -12 Q280 -12 223 11 Q166 34 125 79 Q84 124 61.5 190.5 Q39 257 39 345 Q39 433 62.5 499.5 Q86 566 127 611 Q168 656 225 679 Q282 702 349 702 Q418 702 474.5 679 Q531 656 572 611 Q613 566 635.5 499.5 Q658 433 658 345 Z M262 865 Q291 865 307 848 Q323 831 323 805 L323 799 Q323 772 307 755 Q291 738 262 738 Q234 738 218 755 Q202 772 202 799 L202 805 Q202 831 218 848 Q234 865 262 865 Z M434 865 Q462 865 478 848 Q494 831 494 805 L494 799 Q494 772 478 755 Q462 738 434 738 Q405 738 389 755 Q373 772 373 799 L373 805 Q373 831 389 848 Q405 865 434 865 Z "/>
    <glyph glyph-name="OE" unicode="&#x152;" horiz-adv-x="933"
           d="M886 570 L607 570 L607 406 L858 406 L858 290 L607 290 L607 120 L893 120 L893 0 L466 0 Q446 -5 421.5 -8.5 Q397 -12 357 -12 Q288 -12 229.5 9.5 Q171 31 129 75.5 Q87 120 63 187 Q39 254 39 345 Q39 436 63 503 Q87 570 129.5 614 Q172 658 230 680 Q288 702 357 702 Q394 702 419.5 698.5 Q445 695 466 690 L886 690 L886 570 Z M466 565 Q451 570 429.5 574.5 Q408 579 376 579 Q333 579 297.5 565 Q262 551 236.5 522 Q211 493 197 449 Q183 405 183 345 Q183 285 197 240.5 Q211 196 236.5 167.5 Q262 139 297.5 125 Q333 111 376 111 Q409 111 430 115 Q451 119 466 124 L466 565 Z "/>
    <glyph glyph-name="Ohungarumlaut" unicode="&#x150;" horiz-adv-x="697"
           d="M515 345 Q515 460 470 519 Q425 578 349 578 Q272 578 227.5 519 Q183 460 183 345 Q183 230 227.5 171 Q272 112 349 112 Q425 112 470 171 Q515 230 515 345 Z M658 345 Q658 257 634.5 190.5 Q611 124 570 79 Q529 34 472.5 11 Q416 -12 349 -12 Q280 -12 223 11 Q166 34 125 79 Q84 124 61.5 190.5 Q39 257 39 345 Q39 433 62.5 499.5 Q86 566 127 611 Q168 656 225 679 Q282 702 349 702 Q418 702 474.5 679 Q531 656 572 611 Q613 566 635.5 499.5 Q658 433 658 345 Z M409 854 L313 734 L229 734 L302 856 L409 856 L409 854 Z M563 854 L467 734 L382 734 L455 856 L563 856 L563 854 Z "/>
    <glyph glyph-name="Omacron" unicode="&#x14c;" horiz-adv-x="697"
           d="M515 345 Q515 460 470 519 Q425 578 349 578 Q272 578 227.5 519 Q183 460 183 345 Q183 230 227.5 171 Q272 112 349 112 Q425 112 470 171 Q515 230 515 345 Z M658 345 Q658 257 634.5 190.5 Q611 124 570 79 Q529 34 472.5 11 Q416 -12 349 -12 Q280 -12 223 11 Q166 34 125 79 Q84 124 61.5 190.5 Q39 257 39 345 Q39 433 62.5 499.5 Q86 566 127 611 Q168 656 225 679 Q282 702 349 702 Q418 702 474.5 679 Q531 656 572 611 Q613 566 635.5 499.5 Q658 433 658 345 Z M471 747 L229 747 L229 833 L471 833 L471 747 Z "/>
    <glyph glyph-name="Oslash" unicode="&#xd8;" horiz-adv-x="697"
           d="M658 345 Q658 257 635.5 190.5 Q613 124 572 79 Q531 34 474 11 Q417 -12 349 -12 Q248 -12 175 35 L142 -12 L54 -12 L120 83 Q81 128 60 193 Q39 258 39 345 Q39 433 61.5 499.5 Q84 566 125 611 Q166 656 223 679 Q280 702 349 702 Q450 702 523 655 L556 702 L643 702 L577 607 Q615 562 636.5 496.5 Q658 431 658 345 Z M177 345 Q177 258 203 201 L448 549 Q407 584 349 584 Q272 584 224.5 524 Q177 464 177 345 Z M520 345 Q520 389 513 424.5 Q506 460 493 488 L249 140 Q289 106 349 106 Q425 106 472.5 165.5 Q520 225 520 345 Z "/>
    <glyph glyph-name="Oslashacute" unicode="&#x1fe;" horiz-adv-x="697"
           d="M658 345 Q658 257 635.5 190.5 Q613 124 572 79 Q531 34 474 11 Q417 -12 349 -12 Q248 -12 175 35 L142 -12 L54 -12 L120 83 Q81 128 60 193 Q39 258 39 345 Q39 433 61.5 499.5 Q84 566 125 611 Q166 656 223 679 Q280 702 349 702 Q450 702 523 655 L556 702 L643 702 L577 607 Q615 562 636.5 496.5 Q658 431 658 345 Z M177 345 Q177 258 203 201 L448 549 Q407 584 349 584 Q272 584 224.5 524 Q177 464 177 345 Z M520 345 Q520 389 513 424.5 Q506 460 493 488 L249 140 Q289 106 349 106 Q425 106 472.5 165.5 Q520 225 520 345 Z M526 850 L401 730 L288 730 L378 852 L526 852 L526 850 Z "/>
    <glyph glyph-name="Otilde" unicode="&#xd5;" horiz-adv-x="697"
           d="M515 345 Q515 460 470 519 Q425 578 349 578 Q272 578 227.5 519 Q183 460 183 345 Q183 230 227.5 171 Q272 112 349 112 Q425 112 470 171 Q515 230 515 345 Z M658 345 Q658 257 634.5 190.5 Q611 124 570 79 Q529 34 472.5 11 Q416 -12 349 -12 Q280 -12 223 11 Q166 34 125 79 Q84 124 61.5 190.5 Q39 257 39 345 Q39 433 62.5 499.5 Q86 566 127 611 Q168 656 225 679 Q282 702 349 702 Q418 702 474.5 679 Q531 656 572 611 Q613 566 635.5 499.5 Q658 433 658 345 Z M498 846 Q496 789 476.5 761 Q457 733 413 733 Q392 733 375.5 739 Q359 745 344 752 Q329 759 315.5 765 Q302 771 288 771 Q272 771 266.5 762 Q261 753 260 736 L199 736 Q200 793 220 821.5 Q240 850 284 850 Q304 850 321 844 Q338 838 353 830.5 Q368 823 381.5 817 Q395 811 409 811 Q424 811 430 820 Q436 829 437 846 L498 846 L498 846 Z "/>
    <glyph glyph-name="P" unicode="P" horiz-adv-x="581"
           d="M554 462 Q554 347 478 283 Q402 219 260 219 L209 219 L209 0 L68 0 L68 690 L264 690 Q410 690 482 632.5 Q554 575 554 462 Z M411 456 Q411 509 375 540 Q339 571 264 571 L209 571 L209 333 L264 333 Q339 333 375 367 Q411 401 411 456 Z "/>
    <glyph glyph-name="Thorn" unicode="&#xde;" horiz-adv-x="584"
           d="M554 378 Q554 263 478 198.5 Q402 134 260 134 L209 134 L209 0 L68 0 L68 690 L209 690 L209 606 L264 606 Q410 606 482 548.5 Q554 491 554 378 Z M411 371 Q411 425 375 456 Q339 487 264 487 L209 487 L209 248 L264 248 Q339 248 375 282.5 Q411 317 411 371 Z "/>
    <glyph glyph-name="Q" unicode="Q" horiz-adv-x="699"
           d="M535 -133 L439 0 Q397 -12 349 -12 Q280 -12 223 11 Q166 34 125 79 Q84 124 61.5 190.5 Q39 257 39 345 Q39 433 62.5 499.5 Q86 566 127 611 Q168 656 225 679 Q282 702 349 702 Q418 702 474.5 679 Q531 656 572 611 Q613 566 635.5 499.5 Q658 433 658 345 Q658 249 631 179 Q604 109 556 64 L647 -57 L535 -133 Z M515 345 Q515 460 470 519 Q425 578 349 578 Q272 578 227.5 519 Q183 460 183 345 Q183 230 227.5 171 Q272 112 349 112 Q425 112 470 171 Q515 230 515 345 Z "/>
    <glyph glyph-name="R" unicode="R" horiz-adv-x="612"
           d="M425 0 L301 242 Q291 241 281.5 241 Q272 241 261 241 L209 241 L209 0 L68 0 L68 690 L262 690 Q406 690 481.5 636 Q557 582 557 473 Q557 404 525.5 354 Q494 304 434 275 L587 0 L425 0 Z M414 463 Q414 514 378.5 542 Q343 570 268 570 L209 570 L209 347 L268 347 Q343 347 378.5 378.5 Q414 410 414 463 Z "/>
    <glyph glyph-name="Racute" unicode="&#x154;" horiz-adv-x="612"
           d="M425 0 L301 242 Q291 241 281.5 241 Q272 241 261 241 L209 241 L209 0 L68 0 L68 690 L262 690 Q406 690 481.5 636 Q557 582 557 473 Q557 404 525.5 354 Q494 304 434 275 L587 0 L425 0 Z M414 463 Q414 514 378.5 542 Q343 570 268 570 L209 570 L209 347 L268 347 Q343 347 378.5 378.5 Q414 410 414 463 Z M462 847 L337 727 L224 727 L314 849 L462 849 L462 847 Z "/>
    <glyph glyph-name="Rcaron" unicode="&#x158;" horiz-adv-x="612"
           d="M425 0 L301 242 Q291 241 281.5 241 Q272 241 261 241 L209 241 L209 0 L68 0 L68 690 L262 690 Q406 690 481.5 636 Q557 582 557 473 Q557 404 525.5 354 Q494 304 434 275 L587 0 L425 0 Z M414 463 Q414 514 378.5 542 Q343 570 268 570 L209 570 L209 347 L268 347 Q343 347 378.5 378.5 Q414 410 414 463 Z M353 730 L215 730 L138 851 L230 851 L283 790 L285 790 L338 851 L431 851 L353 730 Z "/>
    <glyph glyph-name="Rcommaaccent" unicode="&#x156;" horiz-adv-x="612"
           d="M425 0 L301 242 Q291 241 281.5 241 Q272 241 261 241 L209 241 L209 0 L68 0 L68 690 L262 690 Q406 690 481.5 636 Q557 582 557 473 Q557 404 525.5 354 Q494 304 434 275 L587 0 L425 0 Z M414 463 Q414 514 378.5 542 Q343 570 268 570 L209 570 L209 347 L268 347 Q343 347 378.5 378.5 Q414 410 414 463 Z M370 -112 Q370 -144 360.5 -166 Q351 -188 334.5 -202.5 Q318 -217 296.5 -225 Q275 -233 252 -237 L243 -198 Q265 -191 284 -178 Q303 -165 306 -136 L303 -136 Q277 -136 262.5 -122 Q248 -108 248 -84 Q248 -58 263.5 -44.5 Q279 -31 302 -31 Q332 -31 351 -51.5 Q370 -72 370 -112 Z "/>
    <glyph glyph-name="S" unicode="S" horiz-adv-x="536"
           d="M422 531 Q414 537 402 545.5 Q390 554 373.5 561.5 Q357 569 336 574.5 Q315 580 290 580 Q242 580 215 563 Q188 546 188 512 Q188 494 195.5 480.5 Q203 467 218.5 456 Q234 445 257.5 434 Q281 423 313 411 Q359 393 393.5 373 Q428 353 451.5 328.5 Q475 304 487 272 Q499 240 499 197 Q499 154 483.5 116 Q468 78 436.5 49.5 Q405 21 357.5 4.5 Q310 -12 247 -12 Q204 -12 169 -3.5 Q134 5 107 17 Q80 29 61 43 Q42 57 32 68 L93 178 Q102 169 116 157.5 Q130 146 149 136 Q168 126 192 119 Q216 112 245 112 Q302 112 328.5 132 Q355 152 355 185 Q355 222 327 245 Q299 268 233 294 Q194 310 159.5 329 Q125 348 100 373 Q75 398 60.5 430 Q46 462 46 505 Q46 551 63.5 587.5 Q81 624 113 649.5 Q145 675 189.5 688.5 Q234 702 289 702 Q330 702 361 695 Q392 688 415.5 678 Q439 668 454.5 657 Q470 646 479 639 L422 531 Z "/>
    <glyph glyph-name="Sacute" unicode="&#x15a;" horiz-adv-x="536"
           d="M422 531 Q414 537 402 545.5 Q390 554 373.5 561.5 Q357 569 336 574.5 Q315 580 290 580 Q242 580 215 563 Q188 546 188 512 Q188 494 195.5 480.5 Q203 467 218.5 456 Q234 445 257.5 434 Q281 423 313 411 Q359 393 393.5 373 Q428 353 451.5 328.5 Q475 304 487 272 Q499 240 499 197 Q499 154 483.5 116 Q468 78 436.5 49.5 Q405 21 357.5 4.5 Q310 -12 247 -12 Q204 -12 169 -3.5 Q134 5 107 17 Q80 29 61 43 Q42 57 32 68 L93 178 Q102 169 116 157.5 Q130 146 149 136 Q168 126 192 119 Q216 112 245 112 Q302 112 328.5 132 Q355 152 355 185 Q355 222 327 245 Q299 268 233 294 Q194 310 159.5 329 Q125 348 100 373 Q75 398 60.5 430 Q46 462 46 505 Q46 551 63.5 587.5 Q81 624 113 649.5 Q145 675 189.5 688.5 Q234 702 289 702 Q330 702 361 695 Q392 688 415.5 678 Q439 668 454.5 657 Q470 646 479 639 L422 531 Z M453 854 L328 734 L215 734 L305 856 L453 856 L453 854 Z "/>
    <glyph glyph-name="Scaron" unicode="&#x160;" horiz-adv-x="536"
           d="M422 531 Q414 537 402 545.5 Q390 554 373.5 561.5 Q357 569 336 574.5 Q315 580 290 580 Q242 580 215 563 Q188 546 188 512 Q188 494 195.5 480.5 Q203 467 218.5 456 Q234 445 257.5 434 Q281 423 313 411 Q359 393 393.5 373 Q428 353 451.5 328.5 Q475 304 487 272 Q499 240 499 197 Q499 154 483.5 116 Q468 78 436.5 49.5 Q405 21 357.5 4.5 Q310 -12 247 -12 Q204 -12 169 -3.5 Q134 5 107 17 Q80 29 61 43 Q42 57 32 68 L93 178 Q102 169 116 157.5 Q130 146 149 136 Q168 126 192 119 Q216 112 245 112 Q302 112 328.5 132 Q355 152 355 185 Q355 222 327 245 Q299 268 233 294 Q194 310 159.5 329 Q125 348 100 373 Q75 398 60.5 430 Q46 462 46 505 Q46 551 63.5 587.5 Q81 624 113 649.5 Q145 675 189.5 688.5 Q234 702 289 702 Q330 702 361 695 Q392 688 415.5 678 Q439 668 454.5 657 Q470 646 479 639 L422 531 Z M344 737 L206 737 L129 858 L221 858 L274 797 L276 797 L329 858 L422 858 L344 737 Z "/>
    <glyph glyph-name="Scedilla" unicode="&#x15e;" horiz-adv-x="536"
           d="M356 -123 Q356 -165 325 -187.5 Q294 -210 238 -210 Q212 -210 195 -205 Q178 -200 168 -195 L168 -138 Q175 -143 188.5 -146 Q202 -149 219 -149 Q261 -149 261 -121 Q261 -104 245 -94 Q229 -84 187 -84 L184 -81 L219 -11 Q182 -8 151.5 1 Q121 10 97.5 21.5 Q74 33 57.5 45.5 Q41 58 32 68 L93 178 Q102 169 116 157.5 Q130 146 149 136 Q168 126 192 119 Q216 112 245 112 Q302 112 328.5 132 Q355 152 355 185 Q355 222 327 245 Q299 268 233 294 Q194 310 159.5 329 Q125 348 100 373 Q75 398 60.5 430 Q46 462 46 505 Q46 551 63.5 587.5 Q81 624 113 649.5 Q145 675 189.5 688.5 Q234 702 289 702 Q330 702 361 695 Q392 688 415.5 678 Q439 668 454.5 657 Q470 646 479 639 L422 531 Q414 537 402 545.5 Q390 554 373.5 561.5 Q357 569 336 574.5 Q315 580 290 580 Q242 580 215 563 Q188 546 188 512 Q188 494 195.5 480.5 Q203 467 218.5 456 Q234 445 257.5 434 Q281 423 313 411 Q359 393 393.5 373 Q428 353 451.5 328.5 Q475 304 487 272 Q499 240 499 197 Q499 158 486 123 Q473 88 447 60.5 Q421 33 382.5 15 Q344 -3 292 -9 L272 -50 Q315 -52 335.5 -72.5 Q356 -93 356 -123 Z "/>
    <glyph glyph-name="Scircumflex" unicode="&#x15c;" horiz-adv-x="536"
           d="M422 531 Q414 537 402 545.5 Q390 554 373.5 561.5 Q357 569 336 574.5 Q315 580 290 580 Q242 580 215 563 Q188 546 188 512 Q188 494 195.5 480.5 Q203 467 218.5 456 Q234 445 257.5 434 Q281 423 313 411 Q359 393 393.5 373 Q428 353 451.5 328.5 Q475 304 487 272 Q499 240 499 197 Q499 154 483.5 116 Q468 78 436.5 49.5 Q405 21 357.5 4.5 Q310 -12 247 -12 Q204 -12 169 -3.5 Q134 5 107 17 Q80 29 61 43 Q42 57 32 68 L93 178 Q102 169 116 157.5 Q130 146 149 136 Q168 126 192 119 Q216 112 245 112 Q302 112 328.5 132 Q355 152 355 185 Q355 222 327 245 Q299 268 233 294 Q194 310 159.5 329 Q125 348 100 373 Q75 398 60.5 430 Q46 462 46 505 Q46 551 63.5 587.5 Q81 624 113 649.5 Q145 675 189.5 688.5 Q234 702 289 702 Q330 702 361 695 Q392 688 415.5 678 Q439 668 454.5 657 Q470 646 479 639 L422 531 Z M329 734 L276 794 L274 794 L221 734 L129 734 L206 855 L344 855 L422 734 L329 734 Z "/>
    <glyph glyph-name="Scommaaccent" unicode="&#x218;" horiz-adv-x="536"
           d="M422 531 Q414 537 402 545.5 Q390 554 373.5 561.5 Q357 569 336 574.5 Q315 580 290 580 Q242 580 215 563 Q188 546 188 512 Q188 494 195.5 480.5 Q203 467 218.5 456 Q234 445 257.5 434 Q281 423 313 411 Q359 393 393.5 373 Q428 353 451.5 328.5 Q475 304 487 272 Q499 240 499 197 Q499 154 483.5 116 Q468 78 436.5 49.5 Q405 21 357.5 4.5 Q310 -12 247 -12 Q204 -12 169 -3.5 Q134 5 107 17 Q80 29 61 43 Q42 57 32 68 L93 178 Q102 169 116 157.5 Q130 146 149 136 Q168 126 192 119 Q216 112 245 112 Q302 112 328.5 132 Q355 152 355 185 Q355 222 327 245 Q299 268 233 294 Q194 310 159.5 329 Q125 348 100 373 Q75 398 60.5 430 Q46 462 46 505 Q46 551 63.5 587.5 Q81 624 113 649.5 Q145 675 189.5 688.5 Q234 702 289 702 Q330 702 361 695 Q392 688 415.5 678 Q439 668 454.5 657 Q470 646 479 639 L422 531 Z M331 -122 Q331 -154 321.5 -176 Q312 -198 295.5 -212.5 Q279 -227 257.5 -235 Q236 -243 213 -247 L204 -208 Q226 -201 245 -188 Q264 -175 267 -146 L264 -146 Q238 -146 223.5 -132 Q209 -118 209 -94 Q209 -68 224.5 -54.5 Q240 -41 263 -41 Q293 -41 312 -61.5 Q331 -82 331 -122 Z "/>
    <glyph glyph-name="T" unicode="T" horiz-adv-x="587"
           d="M575 568 L364 568 L364 0 L223 0 L223 568 L12 568 L12 690 L575 690 L575 568 Z "/>
    <glyph glyph-name="Tbar" unicode="&#x166;" horiz-adv-x="587"
           d="M575 568 L364 568 L364 368 L492 368 L492 293 L364 293 L364 0 L223 0 L223 293 L94 293 L94 368 L223 368 L223 568 L12 568 L12 690 L575 690 L575 568 Z "/>
    <glyph glyph-name="Tcaron" unicode="&#x164;" horiz-adv-x="587"
           d="M575 568 L364 568 L364 0 L223 0 L223 568 L12 568 L12 690 L575 690 L575 568 Z M362 730 L224 730 L147 851 L239 851 L292 790 L294 790 L347 851 L440 851 L362 730 Z "/>
    <glyph glyph-name="Tcommaaccent" unicode="&#x162;" horiz-adv-x="587"
           d="M383 -123 Q383 -165 352 -187.5 Q321 -210 265 -210 Q239 -210 222 -205 Q205 -200 195 -195 L195 -138 Q202 -143 215.5 -146 Q229 -149 246 -149 Q288 -149 288 -121 Q288 -104 272 -94 Q256 -84 214 -84 L211 -81 L251 0 L223 0 L223 568 L12 568 L12 690 L575 690 L575 568 L364 568 L364 0 L323 0 L299 -50 Q342 -52 362.5 -72.5 Q383 -93 383 -123 Z "/>
    <glyph glyph-name="uni021A" unicode="&#x21a;" horiz-adv-x="587"
           d="M575 568 L364 568 L364 0 L223 0 L223 568 L12 568 L12 690 L575 690 L575 568 Z M359 -122 Q359 -154 349.5 -176 Q340 -198 323.5 -212.5 Q307 -227 285.5 -235 Q264 -243 241 -247 L232 -208 Q254 -201 273 -188 Q292 -175 295 -146 L292 -146 Q266 -146 251.5 -132 Q237 -118 237 -94 Q237 -68 252.5 -54.5 Q268 -41 291 -41 Q321 -41 340 -61.5 Q359 -82 359 -122 Z "/>
    <glyph glyph-name="U" unicode="U" horiz-adv-x="671"
           d="M607 290 Q607 137 541.5 62.5 Q476 -12 336 -12 Q194 -12 129 60 Q64 132 64 290 L64 690 L205 690 L205 284 Q205 192 238 152 Q271 112 337 112 Q403 112 436.5 151.5 Q470 191 470 284 L470 690 L607 690 L607 290 Z "/>
    <glyph glyph-name="Uacute" unicode="&#xda;" horiz-adv-x="671"
           d="M607 290 Q607 137 541.5 62.5 Q476 -12 336 -12 Q194 -12 129 60 Q64 132 64 290 L64 690 L205 690 L205 284 Q205 192 238 152 Q271 112 337 112 Q403 112 436.5 151.5 Q470 191 470 284 L470 690 L607 690 L607 290 Z M514 847 L389 727 L276 727 L366 849 L514 849 L514 847 Z "/>
    <glyph glyph-name="Ubreve" unicode="&#x16c;" horiz-adv-x="671"
           d="M607 290 Q607 137 541.5 62.5 Q476 -12 336 -12 Q194 -12 129 60 Q64 132 64 290 L64 690 L205 690 L205 284 Q205 192 238 152 Q271 112 337 112 Q403 112 436.5 151.5 Q470 191 470 284 L470 690 L607 690 L607 290 Z M465 848 Q464 823 456.5 801 Q449 779 433.5 762.5 Q418 746 393.5 736.5 Q369 727 335 727 Q301 727 277 736.5 Q253 746 237.5 762.5 Q222 779 214 801 Q206 823 205 848 L284 848 Q285 828 297.5 815 Q310 802 335 802 Q361 802 373.5 815 Q386 828 387 848 L465 848 L465 848 Z "/>
    <glyph glyph-name="Ucircumflex" unicode="&#xdb;" horiz-adv-x="671"
           d="M607 290 Q607 137 541.5 62.5 Q476 -12 336 -12 Q194 -12 129 60 Q64 132 64 290 L64 690 L205 690 L205 284 Q205 192 238 152 Q271 112 337 112 Q403 112 436.5 151.5 Q470 191 470 284 L470 690 L607 690 L607 290 Z M390 727 L337 787 L335 787 L282 727 L190 727 L267 848 L405 848 L483 727 L390 727 Z "/>
    <glyph glyph-name="Udieresis" unicode="&#xdc;" horiz-adv-x="671"
           d="M607 290 Q607 137 541.5 62.5 Q476 -12 336 -12 Q194 -12 129 60 Q64 132 64 290 L64 690 L205 690 L205 284 Q205 192 238 152 Q271 112 337 112 Q403 112 436.5 151.5 Q470 191 470 284 L470 690 L607 690 L607 290 Z M250 858 Q279 858 295 841 Q311 824 311 798 L311 792 Q311 765 295 748 Q279 731 250 731 Q222 731 206 748 Q190 765 190 792 L190 798 Q190 824 206 841 Q222 858 250 858 Z M422 858 Q450 858 466 841 Q482 824 482 798 L482 792 Q482 765 466 748 Q450 731 422 731 Q393 731 377 748 Q361 765 361 792 L361 798 Q361 824 377 841 Q393 858 422 858 Z "/>
    <glyph glyph-name="Ugrave" unicode="&#xd9;" horiz-adv-x="671"
           d="M607 290 Q607 137 541.5 62.5 Q476 -12 336 -12 Q194 -12 129 60 Q64 132 64 290 L64 690 L205 690 L205 284 Q205 192 238 152 Q271 112 337 112 Q403 112 436.5 151.5 Q470 191 470 284 L470 690 L607 690 L607 290 Z M281 727 L156 847 L156 849 L304 849 L395 727 L281 727 Z "/>
    <glyph glyph-name="Uhungarumlaut" unicode="&#x170;" horiz-adv-x="671"
           d="M607 290 Q607 137 541.5 62.5 Q476 -12 336 -12 Q194 -12 129 60 Q64 132 64 290 L64 690 L205 690 L205 284 Q205 192 238 152 Q271 112 337 112 Q403 112 436.5 151.5 Q470 191 470 284 L470 690 L607 690 L607 290 Z M396 847 L300 727 L216 727 L289 849 L396 849 L396 847 Z M550 847 L454 727 L369 727 L442 849 L550 849 L550 847 Z "/>
    <glyph glyph-name="Umacron" unicode="&#x16a;" horiz-adv-x="671"
           d="M607 290 Q607 137 541.5 62.5 Q476 -12 336 -12 Q194 -12 129 60 Q64 132 64 290 L64 690 L205 690 L205 284 Q205 192 238 152 Q271 112 337 112 Q403 112 436.5 151.5 Q470 191 470 284 L470 690 L607 690 L607 290 Z M458 740 L216 740 L216 826 L458 826 L458 740 Z "/>
    <glyph glyph-name="Uogonek" unicode="&#x172;" horiz-adv-x="671"
           d="M447 -195 Q439 -200 419.5 -206 Q400 -212 368 -212 Q317 -212 289 -187 Q261 -162 261 -118 Q261 -84 273.5 -57.5 Q286 -31 303 -11 Q178 -3 121 69 Q64 141 64 290 L64 690 L205 690 L205 284 Q205 192 238 152 Q271 112 337 112 Q403 112 436.5 151.5 Q470 191 470 284 L470 690 L607 690 L607 290 Q607 156 557 82.5 Q507 9 401 -7 Q392 -21 384 -39.5 Q376 -58 376 -81 Q376 -100 385.5 -108.5 Q395 -117 411 -117 Q426 -117 434.5 -115 Q443 -113 447 -111 L447 -195 Z "/>
    <glyph glyph-name="Uring" unicode="&#x16e;" horiz-adv-x="671"
           d="M607 290 Q607 137 541.5 62.5 Q476 -12 336 -12 Q194 -12 129 60 Q64 132 64 290 L64 690 L205 690 L205 284 Q205 192 238 152 Q271 112 337 112 Q403 112 436.5 151.5 Q470 191 470 284 L470 690 L607 690 L607 290 Z M431 809 Q431 770 404 747 Q377 724 335 724 Q294 724 267 747 Q240 770 240 809 Q240 848 267 871 Q294 894 335 894 Q377 894 404 871 Q431 848 431 809 Z M370 809 Q370 824 359.5 831 Q349 838 335 838 Q321 838 311 831 Q301 824 301 809 Q301 794 311 787 Q321 780 335 780 Q349 780 359.5 787 Q370 794 370 809 Z "/>
    <glyph glyph-name="Utilde" unicode="&#x168;" horiz-adv-x="671"
           d="M607 290 Q607 137 541.5 62.5 Q476 -12 336 -12 Q194 -12 129 60 Q64 132 64 290 L64 690 L205 690 L205 284 Q205 192 238 152 Q271 112 337 112 Q403 112 436.5 151.5 Q470 191 470 284 L470 690 L607 690 L607 290 Z M485 839 Q483 782 463.5 754 Q444 726 400 726 Q379 726 362.5 732 Q346 738 331 745 Q316 752 302.5 758 Q289 764 275 764 Q259 764 253.5 755 Q248 746 247 729 L186 729 Q187 786 207 814.5 Q227 843 271 843 Q291 843 308 837 Q325 831 340 823.5 Q355 816 368.5 810 Q382 804 396 804 Q411 804 417 813 Q423 822 424 839 L485 839 L485 839 Z "/>
    <glyph glyph-name="V" unicode="V" horiz-adv-x="638"
           d="M390 0 L248 0 L18 690 L167 690 L321 176 L323 176 L476 690 L620 690 L390 0 Z "/>
    <glyph glyph-name="W" unicode="W" horiz-adv-x="899"
           d="M729 0 L593 0 L450 481 L448 481 L307 0 L170 0 L24 690 L169 690 L249 221 L251 221 L380 690 L520 690 L648 221 L650 221 L731 690 L875 690 L729 0 Z "/>
    <glyph glyph-name="Wacute" unicode="&#x1e82;" horiz-adv-x="899"
           d="M729 0 L593 0 L450 481 L448 481 L307 0 L170 0 L24 690 L169 690 L249 221 L251 221 L380 690 L520 690 L648 221 L650 221 L731 690 L875 690 L729 0 Z M627 847 L502 727 L389 727 L479 849 L627 849 L627 847 Z "/>
    <glyph glyph-name="Wcircumflex" unicode="&#x174;" horiz-adv-x="899"
           d="M729 0 L593 0 L450 481 L448 481 L307 0 L170 0 L24 690 L169 690 L249 221 L251 221 L380 690 L520 690 L648 221 L650 221 L731 690 L875 690 L729 0 Z M503 727 L450 787 L448 787 L395 727 L303 727 L380 848 L518 848 L596 727 L503 727 Z "/>
    <glyph glyph-name="Wdieresis" unicode="&#x1e84;" horiz-adv-x="899"
           d="M729 0 L593 0 L450 481 L448 481 L307 0 L170 0 L24 690 L169 690 L249 221 L251 221 L380 690 L520 690 L648 221 L650 221 L731 690 L875 690 L729 0 Z M363 858 Q392 858 408 841 Q424 824 424 798 L424 792 Q424 765 408 748 Q392 731 363 731 Q335 731 319 748 Q303 765 303 792 L303 798 Q303 824 319 841 Q335 858 363 858 Z M535 858 Q563 858 579 841 Q595 824 595 798 L595 792 Q595 765 579 748 Q563 731 535 731 Q506 731 490 748 Q474 765 474 792 L474 798 Q474 824 490 841 Q506 858 535 858 Z "/>
    <glyph glyph-name="Wgrave" unicode="&#x1e80;" horiz-adv-x="899"
           d="M729 0 L593 0 L450 481 L448 481 L307 0 L170 0 L24 690 L169 690 L249 221 L251 221 L380 690 L520 690 L648 221 L650 221 L731 690 L875 690 L729 0 Z M394 727 L269 847 L269 849 L417 849 L508 727 L394 727 Z "/>
    <glyph glyph-name="X" unicode="X" horiz-adv-x="612"
           d="M379 354 L598 0 L434 0 L304 224 L172 0 L14 0 L233 348 L22 690 L186 690 L309 478 L433 690 L590 690 L379 354 Z "/>
    <glyph glyph-name="uni1E8A" unicode="&#x1e8a;" horiz-adv-x="612"
           d="M379 354 L598 0 L434 0 L304 224 L172 0 L14 0 L233 348 L22 690 L186 690 L309 478 L433 690 L590 690 L379 354 Z M308 870 Q341 870 359.5 852.5 Q378 835 378 803 L378 801 Q378 769 359.5 751 Q341 733 308 733 Q275 733 256.5 751 Q238 769 238 801 L238 803 Q238 835 256.5 852.5 Q275 870 308 870 Z "/>
    <glyph glyph-name="Y" unicode="Y" horiz-adv-x="605"
           d="M373 255 L373 0 L232 0 L232 255 L11 690 L168 690 L304 392 L306 392 L442 690 L594 690 L373 255 Z "/>
    <glyph glyph-name="Yacute" unicode="&#xdd;" horiz-adv-x="605"
           d="M373 255 L373 0 L232 0 L232 255 L11 690 L168 690 L304 392 L306 392 L442 690 L594 690 L373 255 Z M482 847 L357 727 L244 727 L334 849 L482 849 L482 847 Z "/>
    <glyph glyph-name="Ycircumflex" unicode="&#x176;" horiz-adv-x="605"
           d="M373 255 L373 0 L232 0 L232 255 L11 690 L168 690 L304 392 L306 392 L442 690 L594 690 L373 255 Z M358 727 L305 787 L303 787 L250 727 L158 727 L235 848 L373 848 L451 727 L358 727 Z "/>
    <glyph glyph-name="Ydieresis" unicode="&#x178;" horiz-adv-x="605"
           d="M373 255 L373 0 L232 0 L232 255 L11 690 L168 690 L304 392 L306 392 L442 690 L594 690 L373 255 Z M218 858 Q247 858 263 841 Q279 824 279 798 L279 792 Q279 765 263 748 Q247 731 218 731 Q190 731 174 748 Q158 765 158 792 L158 798 Q158 824 174 841 Q190 858 218 858 Z M390 858 Q418 858 434 841 Q450 824 450 798 L450 792 Q450 765 434 748 Q418 731 390 731 Q361 731 345 748 Q329 765 329 792 L329 798 Q329 824 345 841 Q361 858 390 858 Z "/>
    <glyph glyph-name="Ygrave" unicode="&#x1ef2;" horiz-adv-x="605"
           d="M373 255 L373 0 L232 0 L232 255 L11 690 L168 690 L304 392 L306 392 L442 690 L594 690 L373 255 Z M249 727 L124 847 L124 849 L272 849 L363 727 L249 727 Z "/>
    <glyph glyph-name="Z" unicode="Z" horiz-adv-x="599"
           d="M553 585 L233 124 L233 122 L564 122 L564 0 L46 0 L46 105 L372 566 L372 568 L60 568 L60 690 L553 690 L553 585 Z "/>
    <glyph glyph-name="Zacute" unicode="&#x179;" horiz-adv-x="599"
           d="M553 585 L233 124 L233 122 L564 122 L564 0 L46 0 L46 105 L372 566 L372 568 L60 568 L60 690 L553 690 L553 585 Z M484 847 L359 727 L246 727 L336 849 L484 849 L484 847 Z "/>
    <glyph glyph-name="Zcaron" unicode="&#x17d;" horiz-adv-x="599"
           d="M553 585 L233 124 L233 122 L564 122 L564 0 L46 0 L46 105 L372 566 L372 568 L60 568 L60 690 L553 690 L553 585 Z M375 730 L237 730 L160 851 L252 851 L305 790 L307 790 L360 851 L453 851 L375 730 Z "/>
    <glyph glyph-name="Zdotaccent" unicode="&#x17b;" horiz-adv-x="599"
           d="M553 585 L233 124 L233 122 L564 122 L564 0 L46 0 L46 105 L372 566 L372 568 L60 568 L60 690 L553 690 L553 585 Z M306 870 Q339 870 357.5 852.5 Q376 835 376 803 L376 801 Q376 769 357.5 751 Q339 733 306 733 Q273 733 254.5 751 Q236 769 236 801 L236 803 Q236 835 254.5 852.5 Q273 870 306 870 Z "/>
    <glyph glyph-name="uni01B5" unicode="&#x1b5;" horiz-adv-x="599"
           d="M516 313 L364 313 L233 124 L233 122 L564 122 L564 0 L46 0 L46 105 L193 313 L94 313 L94 388 L246 388 L372 566 L372 568 L60 568 L60 690 L553 690 L553 585 L416 388 L516 388 L516 313 Z "/>
    <glyph glyph-name="a" unicode="a" horiz-adv-x="555"
           d="M531 4 Q526 2 510 -4 Q494 -10 466 -10 Q381 -10 352 45 Q336 26 305.5 7 Q275 -12 224 -12 Q135 -12 85.5 49.5 Q36 111 36 239 Q36 311 56.5 361.5 Q77 412 113 444 Q149 476 196.5 490.5 Q244 505 298 505 Q368 505 410.5 490 Q453 475 472 465 L472 143 Q472 116 481 105.5 Q490 95 509 95 Q518 95 523.5 96.5 Q529 98 531 99 L531 4 Z M265 104 Q295 104 312 115 Q329 126 337 137 L337 381 Q327 386 314.5 388.5 Q302 391 283 391 Q260 391 240 384 Q220 377 205 359.5 Q190 342 181.5 314 Q173 286 173 244 Q173 167 197 135.5 Q221 104 265 104 Z "/>
    <glyph glyph-name="aacute" unicode="&#xe1;" horiz-adv-x="555"
           d="M462 685 L333 547 L221 547 L316 687 L462 687 L462 685 Z M531 4 Q526 2 510 -4 Q494 -10 466 -10 Q381 -10 352 45 Q336 26 305.5 7 Q275 -12 224 -12 Q135 -12 85.5 49.5 Q36 111 36 239 Q36 311 56.5 361.5 Q77 412 113 444 Q149 476 196.5 490.5 Q244 505 298 505 Q368 505 410.5 490 Q453 475 472 465 L472 143 Q472 116 481 105.5 Q490 95 509 95 Q518 95 523.5 96.5 Q529 98 531 99 L531 4 Z M265 104 Q295 104 312 115 Q329 126 337 137 L337 381 Q327 386 314.5 388.5 Q302 391 283 391 Q260 391 240 384 Q220 377 205 359.5 Q190 342 181.5 314 Q173 286 173 244 Q173 167 197 135.5 Q221 104 265 104 Z "/>
    <glyph glyph-name="abreve" unicode="&#x103;" horiz-adv-x="555"
           d="M407 678 Q406 650 398.5 625.5 Q391 601 375.5 583 Q360 565 335.5 554.5 Q311 544 277 544 Q243 544 219 554.5 Q195 565 179 583 Q163 601 155.5 625.5 Q148 650 147 678 L224 678 Q227 625 277 625 Q328 625 331 678 L407 678 L407 678 Z M531 4 Q526 2 510 -4 Q494 -10 466 -10 Q381 -10 352 45 Q336 26 305.5 7 Q275 -12 224 -12 Q135 -12 85.5 49.5 Q36 111 36 239 Q36 311 56.5 361.5 Q77 412 113 444 Q149 476 196.5 490.5 Q244 505 298 505 Q368 505 410.5 490 Q453 475 472 465 L472 143 Q472 116 481 105.5 Q490 95 509 95 Q518 95 523.5 96.5 Q529 98 531 99 L531 4 Z M265 104 Q295 104 312 115 Q329 126 337 137 L337 381 Q327 386 314.5 388.5 Q302 391 283 391 Q260 391 240 384 Q220 377 205 359.5 Q190 342 181.5 314 Q173 286 173 244 Q173 167 197 135.5 Q221 104 265 104 Z "/>
    <glyph glyph-name="acircumflex" unicode="&#xe2;" horiz-adv-x="555"
           d="M531 4 Q526 2 510 -4 Q494 -10 466 -10 Q381 -10 352 45 Q336 26 305.5 7 Q275 -12 224 -12 Q135 -12 85.5 49.5 Q36 111 36 239 Q36 311 56.5 361.5 Q77 412 113 444 Q149 476 196.5 490.5 Q244 505 298 505 Q368 505 410.5 490 Q453 475 472 465 L472 143 Q472 116 481 105.5 Q490 95 509 95 Q518 95 523.5 96.5 Q529 98 531 99 L531 4 Z M265 104 Q295 104 312 115 Q329 126 337 137 L337 381 Q327 386 314.5 388.5 Q302 391 283 391 Q260 391 240 384 Q220 377 205 359.5 Q190 342 181.5 314 Q173 286 173 244 Q173 167 197 135.5 Q221 104 265 104 Z M338 545 L279 619 L277 619 L217 545 L128 545 L208 688 L347 688 L428 545 L338 545 Z "/>
    <glyph glyph-name="adieresis" unicode="&#xe4;" horiz-adv-x="555"
           d="M531 4 Q526 2 510 -4 Q494 -10 466 -10 Q381 -10 352 45 Q336 26 305.5 7 Q275 -12 224 -12 Q135 -12 85.5 49.5 Q36 111 36 239 Q36 311 56.5 361.5 Q77 412 113 444 Q149 476 196.5 490.5 Q244 505 298 505 Q368 505 410.5 490 Q453 475 472 465 L472 143 Q472 116 481 105.5 Q490 95 509 95 Q518 95 523.5 96.5 Q529 98 531 99 L531 4 Z M265 104 Q295 104 312 115 Q329 126 337 137 L337 381 Q327 386 314.5 388.5 Q302 391 283 391 Q260 391 240 384 Q220 377 205 359.5 Q190 342 181.5 314 Q173 286 173 244 Q173 167 197 135.5 Q221 104 265 104 Z M196 681 Q223 681 238.5 664.5 Q254 648 254 620 L254 614 Q254 585 238.5 568.5 Q223 552 196 552 Q169 552 153 568.5 Q137 585 137 614 L137 620 Q137 648 153 664.5 Q169 681 196 681 Z M361 681 Q388 681 404 664.5 Q420 648 420 620 L420 614 Q420 585 404 568.5 Q388 552 361 552 Q334 552 318 568.5 Q302 585 302 614 L302 620 Q302 648 318 664.5 Q334 681 361 681 Z "/>
    <glyph glyph-name="ae" unicode="&#xe6;" horiz-adv-x="770"
           d="M561 505 Q641 505 688 447 Q735 389 735 263 L735 210 L460 210 Q467 152 496.5 125.5 Q526 99 578 99 Q602 99 620.5 104 Q639 109 653.5 116 Q668 123 677.5 130.5 Q687 138 692 143 L736 56 Q728 48 714.5 36.5 Q701 25 680 14 Q659 3 629 -4.5 Q599 -12 559 -12 Q503 -12 459.5 3.5 Q416 19 386 54 Q376 43 361.5 31.5 Q347 20 327.5 10.5 Q308 1 283.5 -5.5 Q259 -12 228 -12 Q137 -12 86.5 47.5 Q36 107 36 239 Q36 310 56 360 Q76 410 111 442 Q146 474 193.5 489 Q241 504 296 504 Q354 504 386.5 495.5 Q419 487 428 485 L428 444 Q452 473 485.5 489 Q519 505 561 505 Z M265 104 Q294 104 313.5 114.5 Q333 125 344 136 Q331 182 331 250 L331 384 Q326 386 314 388.5 Q302 391 281 391 Q259 391 239.5 383.5 Q220 376 205 359 Q190 342 181.5 314 Q173 286 173 245 Q173 169 196.5 136.5 Q220 104 265 104 Z M545 394 Q510 394 487 369.5 Q464 345 460 297 L617 297 Q617 344 600 369 Q583 394 545 394 Z "/>
    <glyph glyph-name="aeacute" unicode="&#x1fd;" horiz-adv-x="770"
           d="M579 692 L450 554 L338 554 L433 694 L579 694 L579 692 Z M561 505 Q641 505 688 447 Q735 389 735 263 L735 210 L460 210 Q467 152 496.5 125.5 Q526 99 578 99 Q602 99 620.5 104 Q639 109 653.5 116 Q668 123 677.5 130.5 Q687 138 692 143 L736 56 Q728 48 714.5 36.5 Q701 25 680 14 Q659 3 629 -4.5 Q599 -12 559 -12 Q503 -12 459.5 3.5 Q416 19 386 54 Q376 43 361.5 31.5 Q347 20 327.5 10.5 Q308 1 283.5 -5.5 Q259 -12 228 -12 Q137 -12 86.5 47.5 Q36 107 36 239 Q36 310 56 360 Q76 410 111 442 Q146 474 193.5 489 Q241 504 296 504 Q354 504 386.5 495.5 Q419 487 428 485 L428 444 Q452 473 485.5 489 Q519 505 561 505 Z M265 104 Q294 104 313.5 114.5 Q333 125 344 136 Q331 182 331 250 L331 384 Q326 386 314 388.5 Q302 391 281 391 Q259 391 239.5 383.5 Q220 376 205 359 Q190 342 181.5 314 Q173 286 173 245 Q173 169 196.5 136.5 Q220 104 265 104 Z M545 394 Q510 394 487 369.5 Q464 345 460 297 L617 297 Q617 344 600 369 Q583 394 545 394 Z "/>
    <glyph glyph-name="agrave" unicode="&#xe0;" horiz-adv-x="555"
           d="M223 547 L94 685 L94 687 L240 687 L335 547 L223 547 Z M531 4 Q526 2 510 -4 Q494 -10 466 -10 Q381 -10 352 45 Q336 26 305.5 7 Q275 -12 224 -12 Q135 -12 85.5 49.5 Q36 111 36 239 Q36 311 56.5 361.5 Q77 412 113 444 Q149 476 196.5 490.5 Q244 505 298 505 Q368 505 410.5 490 Q453 475 472 465 L472 143 Q472 116 481 105.5 Q490 95 509 95 Q518 95 523.5 96.5 Q529 98 531 99 L531 4 Z M265 104 Q295 104 312 115 Q329 126 337 137 L337 381 Q327 386 314.5 388.5 Q302 391 283 391 Q260 391 240 384 Q220 377 205 359.5 Q190 342 181.5 314 Q173 286 173 244 Q173 167 197 135.5 Q221 104 265 104 Z "/>
    <glyph glyph-name="amacron" unicode="&#x101;" horiz-adv-x="555"
           d="M531 4 Q526 2 510 -4 Q494 -10 466 -10 Q381 -10 352 45 Q336 26 305.5 7 Q275 -12 224 -12 Q135 -12 85.5 49.5 Q36 111 36 239 Q36 311 56.5 361.5 Q77 412 113 444 Q149 476 196.5 490.5 Q244 505 298 505 Q368 505 410.5 490 Q453 475 472 465 L472 143 Q472 116 481 105.5 Q490 95 509 95 Q518 95 523.5 96.5 Q529 98 531 99 L531 4 Z M265 104 Q295 104 312 115 Q329 126 337 137 L337 381 Q327 386 314.5 388.5 Q302 391 283 391 Q260 391 240 384 Q220 377 205 359.5 Q190 342 181.5 314 Q173 286 173 244 Q173 167 197 135.5 Q221 104 265 104 Z M401 565 L158 565 L158 651 L401 651 L401 565 Z "/>
    <glyph glyph-name="aogonek" unicode="&#x105;" horiz-adv-x="555"
           d="M522 -195 Q514 -200 494.5 -206 Q475 -212 443 -212 Q392 -212 364 -187 Q336 -162 336 -118 Q336 -76 354 -45.5 Q372 -15 392 5 Q367 18 352 45 Q336 26 305.5 7 Q275 -12 224 -12 Q135 -12 85.5 49.5 Q36 111 36 239 Q36 311 56.5 361.5 Q77 412 113 444 Q149 476 196.5 490.5 Q244 505 298 505 Q368 505 410.5 490 Q453 475 472 465 L472 143 Q472 116 481 105.5 Q490 95 509 95 Q518 95 523.5 96.5 Q529 98 531 99 L531 4 Q526 2 512 -3 Q498 -8 474 -10 Q466 -23 458.5 -41 Q451 -59 451 -81 Q451 -100 460.5 -108.5 Q470 -117 486 -117 Q501 -117 509.5 -115 Q518 -113 522 -111 L522 -195 Z M265 104 Q295 104 312 115 Q329 126 337 137 L337 381 Q327 386 314.5 388.5 Q302 391 283 391 Q260 391 240 384 Q220 377 205 359.5 Q190 342 181.5 314 Q173 286 173 244 Q173 167 197 135.5 Q221 104 265 104 Z "/>
    <glyph glyph-name="aring" unicode="&#xe5;" horiz-adv-x="555"
           d="M372 629 Q372 588 345.5 563.5 Q319 539 277 539 Q235 539 209 563.5 Q183 588 183 629 Q183 671 209 695 Q235 719 277 719 Q319 719 345.5 695 Q372 671 372 629 Z M310 629 Q310 646 300.5 655 Q291 664 277 664 Q263 664 253.5 655 Q244 646 244 629 Q244 612 253.5 603 Q263 594 277 594 Q291 594 300.5 603 Q310 612 310 629 Z M531 4 Q526 2 510 -4 Q494 -10 466 -10 Q381 -10 352 45 Q336 26 305.5 7 Q275 -12 224 -12 Q135 -12 85.5 49.5 Q36 111 36 239 Q36 311 56.5 361.5 Q77 412 113 444 Q149 476 196.5 490.5 Q244 505 298 505 Q368 505 410.5 490 Q453 475 472 465 L472 143 Q472 116 481 105.5 Q490 95 509 95 Q518 95 523.5 96.5 Q529 98 531 99 L531 4 Z M265 104 Q295 104 312 115 Q329 126 337 137 L337 381 Q327 386 314.5 388.5 Q302 391 283 391 Q260 391 240 384 Q220 377 205 359.5 Q190 342 181.5 314 Q173 286 173 244 Q173 167 197 135.5 Q221 104 265 104 Z "/>
    <glyph glyph-name="aringacute" unicode="&#x1fb;" horiz-adv-x="555"
           d="M531 4 Q526 2 510 -4 Q494 -10 466 -10 Q381 -10 352 45 Q336 26 305.5 7 Q275 -12 224 -12 Q135 -12 85.5 49.5 Q36 111 36 239 Q36 311 56.5 361.5 Q77 412 113 444 Q149 476 196.5 490.5 Q244 505 298 505 Q368 505 410.5 490 Q453 475 472 465 L472 143 Q472 116 481 105.5 Q490 95 509 95 Q518 95 523.5 96.5 Q529 98 531 99 L531 4 Z M265 104 Q295 104 312 115 Q329 126 337 137 L337 381 Q327 386 314.5 388.5 Q302 391 283 391 Q260 391 240 384 Q220 377 205 359.5 Q190 342 181.5 314 Q173 286 173 244 Q173 167 197 135.5 Q221 104 265 104 Z M312 613 Q312 630 301.5 637.5 Q291 645 277 645 Q263 645 253 637.5 Q243 630 243 613 Q243 597 253 589.5 Q263 582 277 582 Q291 582 301.5 589.5 Q312 597 312 613 Z M371 613 Q371 578 345 557 Q319 536 277 536 Q235 536 209 557 Q183 578 183 613 Q183 648 209 669.5 Q235 691 277 691 Q319 691 345 669.5 Q371 648 371 613 Z M364 743 L191 692 L191 736 L364 813 L364 743 Z "/>
    <glyph glyph-name="atilde" unicode="&#xe3;" horiz-adv-x="555"
           d="M427 671 Q427 614 408.5 580.5 Q390 547 343 547 Q322 547 305 554 Q288 561 273 570 Q258 579 244.5 586 Q231 593 218 593 Q201 593 196 582.5 Q191 572 189 552 L128 552 Q128 610 146.5 643 Q165 676 211 676 Q232 676 249.5 669 Q267 662 282 653.5 Q297 645 310 638 Q323 631 337 631 Q353 631 359 641 Q365 651 366 671 L427 671 L427 671 Z M531 4 Q526 2 510 -4 Q494 -10 466 -10 Q381 -10 352 45 Q336 26 305.5 7 Q275 -12 224 -12 Q135 -12 85.5 49.5 Q36 111 36 239 Q36 311 56.5 361.5 Q77 412 113 444 Q149 476 196.5 490.5 Q244 505 298 505 Q368 505 410.5 490 Q453 475 472 465 L472 143 Q472 116 481 105.5 Q490 95 509 95 Q518 95 523.5 96.5 Q529 98 531 99 L531 4 Z M265 104 Q295 104 312 115 Q329 126 337 137 L337 381 Q327 386 314.5 388.5 Q302 391 283 391 Q260 391 240 384 Q220 377 205 359.5 Q190 342 181.5 314 Q173 286 173 244 Q173 167 197 135.5 Q221 104 265 104 Z "/>
    <glyph glyph-name="b" unicode="b" horiz-adv-x="533"
           d="M494 271 Q494 194 476.5 140 Q459 86 426.5 52.5 Q394 19 348.5 3.5 Q303 -12 247 -12 Q207 -12 176.5 -6 Q146 0 123.5 8.5 Q101 17 86 26 Q71 35 61 42 L61 710 L195 710 L195 447 L197 447 Q203 455 214 465 Q225 475 240 484 Q255 493 275.5 499 Q296 505 322 505 Q401 505 447.5 447 Q494 389 494 271 Z M357 253 Q357 327 333 358 Q309 389 269 389 Q242 389 224 377 Q206 365 195 353 L195 116 Q203 111 216.5 106 Q230 101 255 101 Q278 101 297 108.5 Q316 116 329.5 134 Q343 152 350 181 Q357 210 357 253 Z "/>
    <glyph glyph-name="c" unicode="c" horiz-adv-x="435"
           d="M372 362 Q358 372 340 380.5 Q322 389 291 389 Q266 389 244 381 Q222 373 205.5 355.5 Q189 338 179.5 311 Q170 284 170 247 Q170 172 201.5 138 Q233 104 288 104 Q325 104 344.5 112.5 Q364 121 375 130 L412 32 Q402 25 389.5 17 Q377 9 359.5 2.5 Q342 -4 318.5 -8 Q295 -12 263 -12 Q213 -12 170.5 3.5 Q128 19 97.5 51 Q67 83 50 131.5 Q33 180 33 247 Q33 313 54 361.5 Q75 410 109.5 442 Q144 474 188 489.5 Q232 505 278 505 Q336 505 367.5 491 Q399 477 419 462 L372 362 Z "/>
    <glyph glyph-name="cacute" unicode="&#x107;" horiz-adv-x="435"
           d="M372 362 Q358 372 340 380.5 Q322 389 291 389 Q266 389 244 381 Q222 373 205.5 355.5 Q189 338 179.5 311 Q170 284 170 247 Q170 172 201.5 138 Q233 104 288 104 Q325 104 344.5 112.5 Q364 121 375 130 L412 32 Q402 25 389.5 17 Q377 9 359.5 2.5 Q342 -4 318.5 -8 Q295 -12 263 -12 Q213 -12 170.5 3.5 Q128 19 97.5 51 Q67 83 50 131.5 Q33 180 33 247 Q33 313 54 361.5 Q75 410 109.5 442 Q144 474 188 489.5 Q232 505 278 505 Q336 505 367.5 491 Q399 477 419 462 L372 362 Z M440 685 L311 547 L199 547 L294 687 L440 687 L440 685 Z "/>
    <glyph glyph-name="ccaron" unicode="&#x10d;" horiz-adv-x="435"
           d="M372 362 Q358 372 340 380.5 Q322 389 291 389 Q266 389 244 381 Q222 373 205.5 355.5 Q189 338 179.5 311 Q170 284 170 247 Q170 172 201.5 138 Q233 104 288 104 Q325 104 344.5 112.5 Q364 121 375 130 L412 32 Q402 25 389.5 17 Q377 9 359.5 2.5 Q342 -4 318.5 -8 Q295 -12 263 -12 Q213 -12 170.5 3.5 Q128 19 97.5 51 Q67 83 50 131.5 Q33 180 33 247 Q33 313 54 361.5 Q75 410 109.5 442 Q144 474 188 489.5 Q232 505 278 505 Q336 505 367.5 491 Q399 477 419 462 L372 362 Z M325 548 L186 548 L106 689 L195 689 L255 616 L257 616 L316 689 L406 689 L325 548 Z "/>
    <glyph glyph-name="ccedilla" unicode="&#xe7;" horiz-adv-x="435"
           d="M354 -123 Q354 -165 323 -187.5 Q292 -210 236 -210 Q210 -210 193 -205 Q176 -200 166 -195 L166 -138 Q173 -143 186.5 -146 Q200 -149 217 -149 Q259 -149 259 -121 Q259 -104 243 -94 Q227 -84 185 -84 L182 -81 L218 -8 Q177 -2 143 16.5 Q109 35 84.5 66.5 Q60 98 46.5 143 Q33 188 33 247 Q33 313 54 361.5 Q75 410 109.5 442 Q144 474 188 489.5 Q232 505 278 505 Q336 505 367.5 491 Q399 477 419 462 L372 362 Q358 372 340 380.5 Q322 389 291 389 Q266 389 244 381 Q222 373 205.5 355.5 Q189 338 179.5 311 Q170 284 170 247 Q170 172 201.5 138 Q233 104 288 104 Q325 104 344.5 112.5 Q364 121 375 130 L412 32 Q394 19 366.5 5.5 Q339 -8 289 -11 L270 -50 Q313 -52 333.5 -72.5 Q354 -93 354 -123 Z "/>
    <glyph glyph-name="ccircumflex" unicode="&#x109;" horiz-adv-x="435"
           d="M372 362 Q358 372 340 380.5 Q322 389 291 389 Q266 389 244 381 Q222 373 205.5 355.5 Q189 338 179.5 311 Q170 284 170 247 Q170 172 201.5 138 Q233 104 288 104 Q325 104 344.5 112.5 Q364 121 375 130 L412 32 Q402 25 389.5 17 Q377 9 359.5 2.5 Q342 -4 318.5 -8 Q295 -12 263 -12 Q213 -12 170.5 3.5 Q128 19 97.5 51 Q67 83 50 131.5 Q33 180 33 247 Q33 313 54 361.5 Q75 410 109.5 442 Q144 474 188 489.5 Q232 505 278 505 Q336 505 367.5 491 Q399 477 419 462 L372 362 Z M316 545 L257 619 L255 619 L195 545 L106 545 L186 688 L325 688 L406 545 L316 545 Z "/>
    <glyph glyph-name="cdotaccent" unicode="&#x10b;" horiz-adv-x="435"
           d="M372 362 Q358 372 340 380.5 Q322 389 291 389 Q266 389 244 381 Q222 373 205.5 355.5 Q189 338 179.5 311 Q170 284 170 247 Q170 172 201.5 138 Q233 104 288 104 Q325 104 344.5 112.5 Q364 121 375 130 L412 32 Q402 25 389.5 17 Q377 9 359.5 2.5 Q342 -4 318.5 -8 Q295 -12 263 -12 Q213 -12 170.5 3.5 Q128 19 97.5 51 Q67 83 50 131.5 Q33 180 33 247 Q33 313 54 361.5 Q75 410 109.5 442 Q144 474 188 489.5 Q232 505 278 505 Q336 505 367.5 491 Q399 477 419 462 L372 362 Z M256 696 Q288 696 307 678.5 Q326 661 326 629 L326 627 Q326 595 307 577.5 Q288 560 256 560 Q224 560 205 577.5 Q186 595 186 627 L186 629 Q186 661 205 678.5 Q224 696 256 696 Z "/>
    <glyph glyph-name="d" unicode="d" horiz-adv-x="535"
           d="M474 0 L346 0 L346 48 L344 48 Q339 41 331.5 30.5 Q324 20 310.5 10.5 Q297 1 275.5 -5.5 Q254 -12 222 -12 Q140 -12 89.5 49.5 Q39 111 39 245 Q39 309 54 357.5 Q69 406 95 439 Q121 472 156 488.5 Q191 505 231 505 Q257 505 275.5 499 Q294 493 306.5 484 Q319 475 326 466 Q333 457 337 451 L339 451 L339 710 L474 710 L474 0 Z M176 246 Q176 169 202 136.5 Q228 104 267 104 Q298 104 314.5 116.5 Q331 129 339 140 L339 352 Q331 363 315.5 376 Q300 389 268 389 Q230 389 203 356 Q176 323 176 246 Z "/>
    <glyph glyph-name="dcaron" unicode="&#x10f;" horiz-adv-x="682"
           d="M474 0 L346 0 L346 48 L344 48 Q339 41 331.5 30.5 Q324 20 310.5 10.5 Q297 1 275.5 -5.5 Q254 -12 222 -12 Q140 -12 89.5 49.5 Q39 111 39 245 Q39 309 54 357.5 Q69 406 95 439 Q121 472 156 488.5 Q191 505 231 505 Q257 505 275.5 499 Q294 493 306.5 484 Q319 475 326 466 Q333 457 337 451 L339 451 L339 710 L474 710 L474 0 Z M176 246 Q176 169 202 136.5 Q228 104 267 104 Q298 104 314.5 116.5 Q331 129 339 140 L339 352 Q331 363 315.5 376 Q300 389 268 389 Q230 389 203 356 Q176 323 176 246 Z M664 634 Q664 602 654.5 580 Q645 558 628.5 543.5 Q612 529 590.5 521 Q569 513 546 509 L537 548 Q559 555 578 568 Q597 581 600 610 L597 610 Q571 610 556.5 624 Q542 638 542 662 Q542 688 557.5 701.5 Q573 715 596 715 Q626 715 645 694.5 Q664 674 664 634 Z "/>
    <glyph glyph-name="dcroat" unicode="&#x111;" horiz-adv-x="553"
           d="M474 638 L543 638 L543 567 L474 567 L474 0 L346 0 L346 48 L344 48 Q339 41 331.5 30.5 Q324 20 310.5 10.5 Q297 1 275.5 -5.5 Q254 -12 222 -12 Q140 -12 89.5 49.5 Q39 111 39 245 Q39 309 54 357.5 Q69 406 95 439 Q121 472 156 488.5 Q191 505 231 505 Q257 505 275.5 499 Q294 493 306.5 484 Q319 475 326 466 Q333 457 337 451 L339 451 L339 567 L196 567 L196 638 L339 638 L339 710 L474 710 L474 638 Z M176 246 Q176 169 202 136.5 Q228 104 267 104 Q298 104 314.5 116.5 Q331 129 339 140 L339 352 Q331 363 315.5 376 Q300 389 268 389 Q230 389 203 356 Q176 323 176 246 Z "/>
    <glyph glyph-name="eth" unicode="&#xf0;" horiz-adv-x="522"
           d="M487 267 Q487 197 470.5 144.5 Q454 92 424 57.5 Q394 23 352 5.5 Q310 -12 259 -12 Q213 -12 173 3.5 Q133 19 103 50 Q73 81 56 128 Q39 175 39 238 Q39 302 53.5 348.5 Q68 395 92.5 426 Q117 457 148.5 472 Q180 487 214 487 Q236 487 253 482 Q270 477 282.5 469.5 Q295 462 303.5 454 Q312 446 318 440 L320 440 Q304 480 281.5 509.5 Q259 539 232 561 L122 499 L95 549 L178 596 Q158 606 137 613 Q116 620 95 625 L126 722 Q169 715 211.5 700 Q254 685 293 661 L401 722 L429 672 L344 624 Q407 570 447 482.5 Q487 395 487 267 Z M350 267 Q350 309 344 345 Q333 356 314.5 367.5 Q296 379 266 379 Q247 379 230 372 Q213 365 200.5 348.5 Q188 332 180.5 305 Q173 278 173 238 Q173 164 198 134 Q223 104 261 104 Q303 104 326.5 142 Q350 180 350 267 Z "/>
    <glyph glyph-name="e" unicode="e" horiz-adv-x="476"
           d="M33 254 Q33 317 50.5 364 Q68 411 97 442.5 Q126 474 165 489.5 Q204 505 248 505 Q338 505 389 447 Q440 389 440 258 L440 211 L165 211 Q172 153 201 126 Q230 99 283 99 Q307 99 325.5 104 Q344 109 358.5 116 Q373 123 382.5 130.5 Q392 138 397 143 L442 56 Q434 48 420.5 36 Q407 24 386.5 13.5 Q366 3 337 -4.5 Q308 -12 269 -12 Q218 -12 174.5 3 Q131 18 99.5 50 Q68 82 50.5 132.5 Q33 183 33 254 Z M250 394 Q216 394 193 369 Q170 344 165 297 L323 297 Q323 344 305.5 369 Q288 394 250 394 Z "/>
    <glyph glyph-name="eacute" unicode="&#xe9;" horiz-adv-x="476"
           d="M33 254 Q33 317 50.5 364 Q68 411 97 442.5 Q126 474 165 489.5 Q204 505 248 505 Q338 505 389 447 Q440 389 440 258 L440 211 L165 211 Q172 153 201 126 Q230 99 283 99 Q307 99 325.5 104 Q344 109 358.5 116 Q373 123 382.5 130.5 Q392 138 397 143 L442 56 Q434 48 420.5 36 Q407 24 386.5 13.5 Q366 3 337 -4.5 Q308 -12 269 -12 Q218 -12 174.5 3 Q131 18 99.5 50 Q68 82 50.5 132.5 Q33 183 33 254 Z M250 394 Q216 394 193 369 Q170 344 165 297 L323 297 Q323 344 305.5 369 Q288 394 250 394 Z M431 685 L302 547 L190 547 L285 687 L431 687 L431 685 Z "/>
    <glyph glyph-name="ebreve" unicode="&#x115;" horiz-adv-x="476"
           d="M33 254 Q33 317 50.5 364 Q68 411 97 442.5 Q126 474 165 489.5 Q204 505 248 505 Q338 505 389 447 Q440 389 440 258 L440 211 L165 211 Q172 153 201 126 Q230 99 283 99 Q307 99 325.5 104 Q344 109 358.5 116 Q373 123 382.5 130.5 Q392 138 397 143 L442 56 Q434 48 420.5 36 Q407 24 386.5 13.5 Q366 3 337 -4.5 Q308 -12 269 -12 Q218 -12 174.5 3 Q131 18 99.5 50 Q68 82 50.5 132.5 Q33 183 33 254 Z M250 394 Q216 394 193 369 Q170 344 165 297 L323 297 Q323 344 305.5 369 Q288 394 250 394 Z M376 678 Q375 650 367.5 625.5 Q360 601 344.5 583 Q329 565 304.5 554.5 Q280 544 246 544 Q212 544 188 554.5 Q164 565 148 583 Q132 601 124.5 625.5 Q117 650 116 678 L193 678 Q196 625 246 625 Q297 625 300 678 L376 678 L376 678 Z "/>
    <glyph glyph-name="ecaron" unicode="&#x11b;" horiz-adv-x="476"
           d="M33 254 Q33 317 50.5 364 Q68 411 97 442.5 Q126 474 165 489.5 Q204 505 248 505 Q338 505 389 447 Q440 389 440 258 L440 211 L165 211 Q172 153 201 126 Q230 99 283 99 Q307 99 325.5 104 Q344 109 358.5 116 Q373 123 382.5 130.5 Q392 138 397 143 L442 56 Q434 48 420.5 36 Q407 24 386.5 13.5 Q366 3 337 -4.5 Q308 -12 269 -12 Q218 -12 174.5 3 Q131 18 99.5 50 Q68 82 50.5 132.5 Q33 183 33 254 Z M250 394 Q216 394 193 369 Q170 344 165 297 L323 297 Q323 344 305.5 369 Q288 394 250 394 Z M316 548 L177 548 L97 689 L186 689 L246 616 L248 616 L307 689 L397 689 L316 548 Z "/>
    <glyph glyph-name="ecircumflex" unicode="&#xea;" horiz-adv-x="476"
           d="M33 254 Q33 317 50.5 364 Q68 411 97 442.5 Q126 474 165 489.5 Q204 505 248 505 Q338 505 389 447 Q440 389 440 258 L440 211 L165 211 Q172 153 201 126 Q230 99 283 99 Q307 99 325.5 104 Q344 109 358.5 116 Q373 123 382.5 130.5 Q392 138 397 143 L442 56 Q434 48 420.5 36 Q407 24 386.5 13.5 Q366 3 337 -4.5 Q308 -12 269 -12 Q218 -12 174.5 3 Q131 18 99.5 50 Q68 82 50.5 132.5 Q33 183 33 254 Z M250 394 Q216 394 193 369 Q170 344 165 297 L323 297 Q323 344 305.5 369 Q288 394 250 394 Z M307 545 L248 619 L246 619 L186 545 L97 545 L177 688 L316 688 L397 545 L307 545 Z "/>
    <glyph glyph-name="edieresis" unicode="&#xeb;" horiz-adv-x="476"
           d="M33 254 Q33 317 50.5 364 Q68 411 97 442.5 Q126 474 165 489.5 Q204 505 248 505 Q338 505 389 447 Q440 389 440 258 L440 211 L165 211 Q172 153 201 126 Q230 99 283 99 Q307 99 325.5 104 Q344 109 358.5 116 Q373 123 382.5 130.5 Q392 138 397 143 L442 56 Q434 48 420.5 36 Q407 24 386.5 13.5 Q366 3 337 -4.5 Q308 -12 269 -12 Q218 -12 174.5 3 Q131 18 99.5 50 Q68 82 50.5 132.5 Q33 183 33 254 Z M250 394 Q216 394 193 369 Q170 344 165 297 L323 297 Q323 344 305.5 369 Q288 394 250 394 Z M164 681 Q191 681 206.5 664.5 Q222 648 222 620 L222 614 Q222 585 206.5 568.5 Q191 552 164 552 Q137 552 121 568.5 Q105 585 105 614 L105 620 Q105 648 121 664.5 Q137 681 164 681 Z M329 681 Q356 681 372 664.5 Q388 648 388 620 L388 614 Q388 585 372 568.5 Q356 552 329 552 Q302 552 286 568.5 Q270 585 270 614 L270 620 Q270 648 286 664.5 Q302 681 329 681 Z "/>
    <glyph glyph-name="edotaccent" unicode="&#x117;" horiz-adv-x="476"
           d="M33 254 Q33 317 50.5 364 Q68 411 97 442.5 Q126 474 165 489.5 Q204 505 248 505 Q338 505 389 447 Q440 389 440 258 L440 211 L165 211 Q172 153 201 126 Q230 99 283 99 Q307 99 325.5 104 Q344 109 358.5 116 Q373 123 382.5 130.5 Q392 138 397 143 L442 56 Q434 48 420.5 36 Q407 24 386.5 13.5 Q366 3 337 -4.5 Q308 -12 269 -12 Q218 -12 174.5 3 Q131 18 99.5 50 Q68 82 50.5 132.5 Q33 183 33 254 Z M250 394 Q216 394 193 369 Q170 344 165 297 L323 297 Q323 344 305.5 369 Q288 394 250 394 Z M247 696 Q279 696 298 678.5 Q317 661 317 629 L317 627 Q317 595 298 577.5 Q279 560 247 560 Q215 560 196 577.5 Q177 595 177 627 L177 629 Q177 661 196 678.5 Q215 696 247 696 Z "/>
    <glyph glyph-name="egrave" unicode="&#xe8;" horiz-adv-x="476"
           d="M33 254 Q33 317 50.5 364 Q68 411 97 442.5 Q126 474 165 489.5 Q204 505 248 505 Q338 505 389 447 Q440 389 440 258 L440 211 L165 211 Q172 153 201 126 Q230 99 283 99 Q307 99 325.5 104 Q344 109 358.5 116 Q373 123 382.5 130.5 Q392 138 397 143 L442 56 Q434 48 420.5 36 Q407 24 386.5 13.5 Q366 3 337 -4.5 Q308 -12 269 -12 Q218 -12 174.5 3 Q131 18 99.5 50 Q68 82 50.5 132.5 Q33 183 33 254 Z M250 394 Q216 394 193 369 Q170 344 165 297 L323 297 Q323 344 305.5 369 Q288 394 250 394 Z M192 547 L63 685 L63 687 L209 687 L304 547 L192 547 Z "/>
    <glyph glyph-name="emacron" unicode="&#x113;" horiz-adv-x="476"
           d="M33 254 Q33 317 50.5 364 Q68 411 97 442.5 Q126 474 165 489.5 Q204 505 248 505 Q338 505 389 447 Q440 389 440 258 L440 211 L165 211 Q172 153 201 126 Q230 99 283 99 Q307 99 325.5 104 Q344 109 358.5 116 Q373 123 382.5 130.5 Q392 138 397 143 L442 56 Q434 48 420.5 36 Q407 24 386.5 13.5 Q366 3 337 -4.5 Q308 -12 269 -12 Q218 -12 174.5 3 Q131 18 99.5 50 Q68 82 50.5 132.5 Q33 183 33 254 Z M250 394 Q216 394 193 369 Q170 344 165 297 L323 297 Q323 344 305.5 369 Q288 394 250 394 Z M370 565 L127 565 L127 651 L370 651 L370 565 Z "/>
    <glyph glyph-name="eogonek" unicode="&#x119;" horiz-adv-x="476"
           d="M409 -195 Q401 -200 381.5 -206 Q362 -212 330 -212 Q279 -212 251 -187 Q223 -162 223 -118 Q223 -85 235.5 -58.5 Q248 -32 264 -12 Q214 -11 171.5 4 Q129 19 98 51 Q67 83 50 133 Q33 183 33 254 Q33 317 50.5 364 Q68 411 97 442.5 Q126 474 165 489.5 Q204 505 248 505 Q338 505 389 447 Q440 389 440 258 L440 211 L165 211 Q172 153 201 126 Q230 99 283 99 Q307 99 325.5 104 Q344 109 358.5 116 Q373 123 382.5 130.5 Q392 138 397 143 L442 56 Q433 46 417 32.5 Q401 19 375 8 Q365 -3 351.5 -26 Q338 -49 338 -81 Q338 -100 347.5 -108.5 Q357 -117 373 -117 Q388 -117 396.5 -115 Q405 -113 409 -111 L409 -195 Z M250 394 Q216 394 193 369 Q170 344 165 297 L323 297 Q323 344 305.5 369 Q288 394 250 394 Z "/>
    <glyph glyph-name="uni0259" unicode="&#x259;" horiz-adv-x="474"
           d="M441 242 Q441 113 384 50.5 Q327 -12 233 -12 Q187 -12 150 2 Q113 16 87.5 46 Q62 76 48 123 Q34 170 34 236 L34 282 L308 282 Q302 341 273.5 367.5 Q245 394 194 394 Q170 394 151.5 389 Q133 384 119 377.5 Q105 371 95 363 Q85 355 79 349 L32 436 Q42 445 57.5 457 Q73 469 95.5 479.5 Q118 490 148 497.5 Q178 505 216 505 Q266 505 307.5 490 Q349 475 378.5 442.5 Q408 410 424.5 360.5 Q441 311 441 242 Z M230 96 Q266 96 286 122 Q306 148 309 196 L151 196 Q151 96 230 96 Z "/>
    <glyph glyph-name="f" unicode="f" horiz-adv-x="337"
           d="M318 598 Q314 600 307.5 601.5 Q301 603 288 603 Q258 603 238.5 587.5 Q219 572 219 530 L219 493 L318 493 L318 382 L219 382 L219 0 L85 0 L85 382 L29 382 L29 493 L85 493 L85 536 Q85 581 99 615 Q113 649 137 671.5 Q161 694 194 705 Q227 716 265 716 Q288 716 300.5 713.5 Q313 711 318 709 L318 598 Z "/>
    <glyph glyph-name="uniFB00" unicode="&#xfb00;" horiz-adv-x="661"
           d="M642 598 Q638 600 631.5 601.5 Q625 603 612 603 Q582 603 562.5 587.5 Q543 572 543 530 L543 493 L642 493 L642 382 L543 382 L543 0 L409 0 L409 382 L353 382 L353 493 L409 493 L409 536 Q409 581 423 615 Q437 649 461 671.5 Q485 694 518 705 Q551 716 589 716 Q612 716 624.5 713.5 Q637 711 642 709 L642 598 Z M318 598 Q314 600 307.5 601.5 Q301 603 288 603 Q258 603 238.5 587.5 Q219 572 219 530 L219 493 L305 493 L305 382 L219 382 L219 0 L85 0 L85 382 L29 382 L29 493 L85 493 L85 536 Q85 581 99 615 Q113 649 137 671.5 Q161 694 194 705 Q227 716 265 716 Q288 716 300.5 713.5 Q313 711 318 709 L318 598 Z "/>
    <glyph glyph-name="uniFB03" unicode="&#xfb03;" horiz-adv-x="909"
           d="M642 598 Q638 600 631.5 601.5 Q625 603 612 603 Q582 603 562.5 587.5 Q543 572 543 530 L543 493 L642 493 L642 382 L543 382 L543 0 L409 0 L409 382 L353 382 L353 493 L409 493 L409 536 Q409 581 423 615 Q437 649 461 671.5 Q485 694 518 705 Q551 716 589 716 Q612 716 624.5 713.5 Q637 711 642 709 L642 598 Z M318 598 Q314 600 307.5 601.5 Q301 603 288 603 Q258 603 238.5 587.5 Q219 572 219 530 L219 493 L305 493 L305 382 L219 382 L219 0 L85 0 L85 382 L29 382 L29 493 L85 493 L85 536 Q85 581 99 615 Q113 649 137 671.5 Q161 694 194 705 Q227 716 265 716 Q288 716 300.5 713.5 Q313 711 318 709 L318 598 Z M779 696 Q815 696 834.5 677.5 Q854 659 854 624 L854 619 Q854 584 834.5 565 Q815 546 779 546 Q743 546 723.5 565 Q704 584 704 619 L704 624 Q704 659 723.5 677.5 Q743 696 779 696 Z M846 0 L712 0 L712 493 L846 493 L846 0 Z "/>
    <glyph glyph-name="uniFB04" unicode="&#xfb04;" horiz-adv-x="910"
           d="M642 598 Q638 600 631.5 601.5 Q625 603 612 603 Q582 603 562.5 587.5 Q543 572 543 530 L543 493 L642 493 L642 382 L543 382 L543 0 L409 0 L409 382 L353 382 L353 493 L409 493 L409 536 Q409 581 423 615 Q437 649 461 671.5 Q485 694 518 705 Q551 716 589 716 Q612 716 624.5 713.5 Q637 711 642 709 L642 598 Z M847 0 L712 0 L712 710 L847 710 L847 0 Z M318 598 Q314 600 307.5 601.5 Q301 603 288 603 Q258 603 238.5 587.5 Q219 572 219 530 L219 493 L305 493 L305 382 L219 382 L219 0 L85 0 L85 382 L29 382 L29 493 L85 493 L85 536 Q85 581 99 615 Q113 649 137 671.5 Q161 694 194 705 Q227 716 265 716 Q288 716 300.5 713.5 Q313 711 318 709 L318 598 Z "/>
    <glyph glyph-name="fi" unicode="&#xfb01;" horiz-adv-x="584"
           d="M318 598 Q314 600 307.5 601.5 Q301 603 288 603 Q258 603 238.5 587.5 Q219 572 219 530 L219 493 L318 493 L318 382 L219 382 L219 0 L85 0 L85 382 L29 382 L29 493 L85 493 L85 536 Q85 581 99 615 Q113 649 137 671.5 Q161 694 194 705 Q227 716 265 716 Q288 716 300.5 713.5 Q313 711 318 709 L318 598 Z M454 696 Q490 696 509.5 677.5 Q529 659 529 624 L529 619 Q529 584 509.5 565 Q490 546 454 546 Q418 546 398.5 565 Q379 584 379 619 L379 624 Q379 659 398.5 677.5 Q418 696 454 696 Z M521 0 L387 0 L387 493 L521 493 L521 0 Z "/>
    <glyph glyph-name="fl" unicode="&#xfb02;" horiz-adv-x="585"
           d="M318 598 Q314 600 307.5 601.5 Q301 603 288 603 Q258 603 238.5 587.5 Q219 572 219 530 L219 493 L318 493 L318 382 L219 382 L219 0 L85 0 L85 382 L29 382 L29 493 L85 493 L85 536 Q85 581 99 615 Q113 649 137 671.5 Q161 694 194 705 Q227 716 265 716 Q288 716 300.5 713.5 Q313 711 318 709 L318 598 Z M522 0 L387 0 L387 710 L522 710 L522 0 Z "/>
    <glyph glyph-name="g" unicode="g" horiz-adv-x="531"
           d="M39 242 Q39 314 59 364.5 Q79 415 114.5 446 Q150 477 197.5 491 Q245 505 300 505 Q335 505 363 500.5 Q391 496 412.5 489.5 Q434 483 449 476 Q464 469 473 465 L473 47 Q473 -88 414 -150 Q355 -212 227 -212 Q188 -212 157.5 -205.5 Q127 -199 104.5 -189 Q82 -179 66.5 -167.5 Q51 -156 40 -147 L88 -40 Q95 -47 107 -57 Q119 -67 135 -76 Q151 -85 172 -91 Q193 -97 218 -97 Q285 -97 312 -64.5 Q339 -32 339 36 L339 54 L337 54 Q333 49 325.5 39.5 Q318 30 304 20.5 Q290 11 268.5 4 Q247 -3 216 -3 Q177 -3 144.5 11.5 Q112 26 88.5 56 Q65 86 52 132 Q39 178 39 242 Z M176 248 Q176 208 182.5 181.5 Q189 155 200.5 139.5 Q212 124 228.5 117.5 Q245 111 265 111 Q296 111 312 122.5 Q328 134 339 146 L339 381 Q328 386 315.5 388.5 Q303 391 284 391 Q261 391 241.5 383.5 Q222 376 207.5 359 Q193 342 184.5 314.5 Q176 287 176 248 Z "/>
    <glyph glyph-name="gbreve" unicode="&#x11f;" horiz-adv-x="531"
           d="M403 678 Q402 650 394.5 625.5 Q387 601 371.5 583 Q356 565 331.5 554.5 Q307 544 273 544 Q239 544 215 554.5 Q191 565 175 583 Q159 601 151.5 625.5 Q144 650 143 678 L220 678 Q223 625 273 625 Q324 625 327 678 L403 678 L403 678 Z M39 242 Q39 314 59 364.5 Q79 415 114.5 446 Q150 477 197.5 491 Q245 505 300 505 Q335 505 363 500.5 Q391 496 412.5 489.5 Q434 483 449 476 Q464 469 473 465 L473 47 Q473 -88 414 -150 Q355 -212 227 -212 Q188 -212 157.5 -205.5 Q127 -199 104.5 -189 Q82 -179 66.5 -167.5 Q51 -156 40 -147 L88 -40 Q95 -47 107 -57 Q119 -67 135 -76 Q151 -85 172 -91 Q193 -97 218 -97 Q285 -97 312 -64.5 Q339 -32 339 36 L339 54 L337 54 Q333 49 325.5 39.5 Q318 30 304 20.5 Q290 11 268.5 4 Q247 -3 216 -3 Q177 -3 144.5 11.5 Q112 26 88.5 56 Q65 86 52 132 Q39 178 39 242 Z M176 248 Q176 208 182.5 181.5 Q189 155 200.5 139.5 Q212 124 228.5 117.5 Q245 111 265 111 Q296 111 312 122.5 Q328 134 339 146 L339 381 Q328 386 315.5 388.5 Q303 391 284 391 Q261 391 241.5 383.5 Q222 376 207.5 359 Q193 342 184.5 314.5 Q176 287 176 248 Z "/>
    <glyph glyph-name="gcircumflex" unicode="&#x11d;" horiz-adv-x="531"
           d="M39 242 Q39 314 59 364.5 Q79 415 114.5 446 Q150 477 197.5 491 Q245 505 300 505 Q335 505 363 500.5 Q391 496 412.5 489.5 Q434 483 449 476 Q464 469 473 465 L473 47 Q473 -88 414 -150 Q355 -212 227 -212 Q188 -212 157.5 -205.5 Q127 -199 104.5 -189 Q82 -179 66.5 -167.5 Q51 -156 40 -147 L88 -40 Q95 -47 107 -57 Q119 -67 135 -76 Q151 -85 172 -91 Q193 -97 218 -97 Q285 -97 312 -64.5 Q339 -32 339 36 L339 54 L337 54 Q333 49 325.5 39.5 Q318 30 304 20.5 Q290 11 268.5 4 Q247 -3 216 -3 Q177 -3 144.5 11.5 Q112 26 88.5 56 Q65 86 52 132 Q39 178 39 242 Z M176 248 Q176 208 182.5 181.5 Q189 155 200.5 139.5 Q212 124 228.5 117.5 Q245 111 265 111 Q296 111 312 122.5 Q328 134 339 146 L339 381 Q328 386 315.5 388.5 Q303 391 284 391 Q261 391 241.5 383.5 Q222 376 207.5 359 Q193 342 184.5 314.5 Q176 287 176 248 Z M334 545 L275 619 L273 619 L213 545 L124 545 L204 688 L343 688 L424 545 L334 545 Z "/>
    <glyph glyph-name="gcommaaccent" unicode="&#x123;" horiz-adv-x="531"
           d="M39 242 Q39 314 59 364.5 Q79 415 114.5 446 Q150 477 197.5 491 Q245 505 300 505 Q335 505 363 500.5 Q391 496 412.5 489.5 Q434 483 449 476 Q464 469 473 465 L473 47 Q473 -88 414 -150 Q355 -212 227 -212 Q188 -212 157.5 -205.5 Q127 -199 104.5 -189 Q82 -179 66.5 -167.5 Q51 -156 40 -147 L88 -40 Q95 -47 107 -57 Q119 -67 135 -76 Q151 -85 172 -91 Q193 -97 218 -97 Q285 -97 312 -64.5 Q339 -32 339 36 L339 54 L337 54 Q333 49 325.5 39.5 Q318 30 304 20.5 Q290 11 268.5 4 Q247 -3 216 -3 Q177 -3 144.5 11.5 Q112 26 88.5 56 Q65 86 52 132 Q39 178 39 242 Z M176 248 Q176 208 182.5 181.5 Q189 155 200.5 139.5 Q212 124 228.5 117.5 Q245 111 265 111 Q296 111 312 122.5 Q328 134 339 146 L339 381 Q328 386 315.5 388.5 Q303 391 284 391 Q261 391 241.5 383.5 Q222 376 207.5 359 Q193 342 184.5 314.5 Q176 287 176 248 Z M207 629 Q207 656 217.5 676 Q228 696 244.5 710 Q261 724 282 733 Q303 742 325 746 L334 709 Q311 702 294 689 Q277 676 272 654 L275 654 Q300 654 315 640 Q330 626 330 602 Q330 576 315 562.5 Q300 549 277 549 Q245 549 226 570 Q207 591 207 629 Z "/>
    <glyph glyph-name="gdotaccent" unicode="&#x121;" horiz-adv-x="531"
           d="M39 242 Q39 314 59 364.5 Q79 415 114.5 446 Q150 477 197.5 491 Q245 505 300 505 Q335 505 363 500.5 Q391 496 412.5 489.5 Q434 483 449 476 Q464 469 473 465 L473 47 Q473 -88 414 -150 Q355 -212 227 -212 Q188 -212 157.5 -205.5 Q127 -199 104.5 -189 Q82 -179 66.5 -167.5 Q51 -156 40 -147 L88 -40 Q95 -47 107 -57 Q119 -67 135 -76 Q151 -85 172 -91 Q193 -97 218 -97 Q285 -97 312 -64.5 Q339 -32 339 36 L339 54 L337 54 Q333 49 325.5 39.5 Q318 30 304 20.5 Q290 11 268.5 4 Q247 -3 216 -3 Q177 -3 144.5 11.5 Q112 26 88.5 56 Q65 86 52 132 Q39 178 39 242 Z M176 248 Q176 208 182.5 181.5 Q189 155 200.5 139.5 Q212 124 228.5 117.5 Q245 111 265 111 Q296 111 312 122.5 Q328 134 339 146 L339 381 Q328 386 315.5 388.5 Q303 391 284 391 Q261 391 241.5 383.5 Q222 376 207.5 359 Q193 342 184.5 314.5 Q176 287 176 248 Z M274 696 Q306 696 325 678.5 Q344 661 344 629 L344 627 Q344 595 325 577.5 Q306 560 274 560 Q242 560 223 577.5 Q204 595 204 627 L204 629 Q204 661 223 678.5 Q242 696 274 696 Z "/>
    <glyph glyph-name="h" unicode="h" horiz-adv-x="537"
           d="M195 451 L197 451 Q204 459 215 468.5 Q226 478 241.5 486 Q257 494 278.5 499.5 Q300 505 328 505 Q395 505 437 461 Q479 417 479 318 L479 0 L344 0 L344 298 Q344 346 328 368 Q312 390 274 390 Q245 390 225.5 377.5 Q206 365 195 351 L195 0 L61 0 L61 710 L195 710 L195 451 Z "/>
    <glyph glyph-name="hbar" unicode="&#x127;" horiz-adv-x="556"
           d="M214 638 L357 638 L357 567 L214 567 L214 451 L216 451 Q223 459 234 468.5 Q245 478 260.5 486 Q276 494 297.5 499.5 Q319 505 347 505 Q414 505 456 461 Q498 417 498 318 L498 0 L363 0 L363 298 Q363 346 347 368 Q331 390 293 390 Q264 390 244.5 377.5 Q225 365 214 351 L214 0 L80 0 L80 567 L10 567 L10 638 L80 638 L80 710 L214 710 L214 638 Z "/>
    <glyph glyph-name="hcircumflex" unicode="&#x125;" horiz-adv-x="537"
           d="M195 451 L197 451 Q204 459 215 468.5 Q226 478 241.5 486 Q257 494 278.5 499.5 Q300 505 328 505 Q395 505 437 461 Q479 417 479 318 L479 0 L344 0 L344 298 Q344 346 328 368 Q312 390 274 390 Q245 390 225.5 377.5 Q206 365 195 351 L195 0 L61 0 L61 710 L195 710 L195 451 Z M183 738 L130 798 L128 798 L75 738 L-17 738 L60 859 L198 859 L276 738 L183 738 Z "/>
    <glyph glyph-name="i" unicode="i" horiz-adv-x="260"
           d="M130 696 Q166 696 185.5 677.5 Q205 659 205 624 L205 619 Q205 584 185.5 565 Q166 546 130 546 Q94 546 74.5 565 Q55 584 55 619 L55 624 Q55 659 74.5 677.5 Q94 696 130 696 Z M197 0 L63 0 L63 493 L197 493 L197 0 Z "/>
    <glyph glyph-name="iacute" unicode="&#xed;" horiz-adv-x="260"
           d="M314 685 L185 547 L73 547 L168 687 L314 687 L314 685 Z M197 0 L63 0 L63 493 L197 493 L197 0 Z "/>
    <glyph glyph-name="ibreve" unicode="&#x12d;" horiz-adv-x="260"
           d="M261 678 Q260 650 252.5 625.5 Q245 601 229.5 583 Q214 565 189.5 554.5 Q165 544 131 544 Q97 544 73 554.5 Q49 565 33 583 Q17 601 9.5 625.5 Q2 650 1 678 L78 678 Q81 625 131 625 Q182 625 185 678 L261 678 L261 678 Z M197 0 L63 0 L63 493 L197 493 L197 0 Z "/>
    <glyph glyph-name="icircumflex" unicode="&#xee;" horiz-adv-x="260"
           d="M197 0 L63 0 L63 493 L197 493 L197 0 Z M192 545 L133 619 L131 619 L71 545 L-18 545 L62 688 L201 688 L282 545 L192 545 Z "/>
    <glyph glyph-name="idieresis" unicode="&#xef;" horiz-adv-x="260"
           d="M197 0 L63 0 L63 493 L197 493 L197 0 Z M49 681 Q76 681 91.5 664.5 Q107 648 107 620 L107 614 Q107 585 91.5 568.5 Q76 552 49 552 Q22 552 6 568.5 Q-10 585 -10 614 L-10 620 Q-10 648 6 664.5 Q22 681 49 681 Z M214 681 Q241 681 257 664.5 Q273 648 273 620 L273 614 Q273 585 257 568.5 Q241 552 214 552 Q187 552 171 568.5 Q155 585 155 614 L155 620 Q155 648 171 664.5 Q187 681 214 681 Z "/>
    <glyph glyph-name="igrave" unicode="&#xec;" horiz-adv-x="260"
           d="M77 547 L-52 685 L-52 687 L94 687 L189 547 L77 547 Z M197 0 L63 0 L63 493 L197 493 L197 0 Z "/>
    <glyph glyph-name="ij" unicode="&#x133;" horiz-adv-x="514"
           d="M130 696 Q166 696 185.5 677.5 Q205 659 205 624 L205 619 Q205 584 185.5 565 Q166 546 130 546 Q94 546 74.5 565 Q55 584 55 619 L55 624 Q55 659 74.5 677.5 Q94 696 130 696 Z M197 0 L63 0 L63 493 L197 493 L197 0 Z M383 695 Q419 695 438.5 676 Q458 657 458 623 L458 617 Q458 583 438.5 564 Q419 545 383 545 Q347 545 327.5 564 Q308 583 308 617 L308 623 Q308 657 327.5 676 Q347 695 383 695 Z M450 -32 Q450 -79 437.5 -112 Q425 -145 402.5 -166 Q380 -187 348 -196.5 Q316 -206 277 -206 Q257 -206 244.5 -203.5 Q232 -201 227 -199 L227 -88 Q232 -90 239 -91.5 Q246 -93 258 -93 Q283 -93 299.5 -78 Q316 -63 316 -23 L316 493 L450 493 L450 -32 Z "/>
    <glyph glyph-name="imacron" unicode="&#x12b;" horiz-adv-x="260"
           d="M255 565 L12 565 L12 651 L255 651 L255 565 Z M197 0 L63 0 L63 493 L197 493 L197 0 Z "/>
    <glyph glyph-name="iogonek" unicode="&#x12f;" horiz-adv-x="260"
           d="M197 -195 Q189 -200 169.5 -206 Q150 -212 118 -212 Q67 -212 39 -187 Q11 -162 11 -118 Q11 -79 27.5 -49.5 Q44 -20 63 0 L63 493 L197 493 L197 0 L156 0 Q146 -13 136 -34 Q126 -55 126 -81 Q126 -100 135.5 -108.5 Q145 -117 161 -117 Q176 -117 184.5 -115 Q193 -113 197 -111 L197 -195 Z M130 696 Q166 696 185.5 677.5 Q205 659 205 624 L205 619 Q205 584 185.5 565 Q166 546 130 546 Q94 546 74.5 565 Q55 584 55 619 L55 624 Q55 659 74.5 677.5 Q94 696 130 696 Z "/>
    <glyph glyph-name="itilde" unicode="&#x129;" horiz-adv-x="260"
           d="M281 671 Q281 614 262.5 580.5 Q244 547 197 547 Q176 547 159 554 Q142 561 127 570 Q112 579 98.5 586 Q85 593 72 593 Q55 593 50 582.5 Q45 572 43 552 L-18 552 Q-18 610 0.5 643 Q19 676 65 676 Q86 676 103.5 669 Q121 662 136 653.5 Q151 645 164 638 Q177 631 191 631 Q207 631 213 641 Q219 651 220 671 L281 671 L281 671 Z M197 0 L63 0 L63 493 L197 493 L197 0 Z "/>
    <glyph glyph-name="dotlessi" unicode="&#x131;" horiz-adv-x="260" d="M197 0 L63 0 L63 493 L197 493 L197 0 Z "/>
    <glyph glyph-name="j" unicode="j" horiz-adv-x="266"
           d="M136 695 Q172 695 191.5 676 Q211 657 211 623 L211 617 Q211 583 191.5 564 Q172 545 136 545 Q100 545 80.5 564 Q61 583 61 617 L61 623 Q61 657 80.5 676 Q100 695 136 695 Z M203 -32 Q203 -79 190.5 -112 Q178 -145 155.5 -166 Q133 -187 101 -196.5 Q69 -206 30 -206 Q10 -206 -2.5 -203.5 Q-15 -201 -20 -199 L-20 -88 Q-15 -90 -8 -91.5 Q-1 -93 11 -93 Q36 -93 52.5 -78 Q69 -63 69 -23 L69 493 L203 493 L203 -32 Z "/>
    <glyph glyph-name="jcircumflex" unicode="&#x135;" horiz-adv-x="266"
           d="M203 -34 Q203 -127 155.5 -167 Q108 -207 30 -207 Q10 -207 -2.5 -205 Q-15 -203 -20 -201 L-20 -89 Q-15 -91 -8 -92.5 Q-1 -94 11 -94 Q36 -94 52.5 -79.5 Q69 -65 69 -25 L69 493 L203 493 L203 -34 Z M198 545 L139 619 L137 619 L77 545 L-12 545 L68 688 L207 688 L288 545 L198 545 Z "/>
    <glyph glyph-name="dotlessj" unicode="&#x237;" horiz-adv-x="266"
           d="M203 -34 Q203 -127 155.5 -167 Q108 -207 30 -207 Q10 -207 -2.5 -205 Q-15 -203 -20 -201 L-20 -89 Q-15 -91 -8 -92.5 Q-1 -94 11 -94 Q36 -94 52.5 -79.5 Q69 -65 69 -25 L69 493 L203 493 L203 -34 Z "/>
    <glyph glyph-name="k" unicode="k" horiz-adv-x="522"
           d="M349 0 L235 202 L195 202 L195 0 L61 0 L61 710 L195 710 L195 312 L237 312 L347 493 L492 493 L343 256 L510 0 L349 0 Z "/>
    <glyph glyph-name="kcommaaccent" unicode="&#x137;" horiz-adv-x="522"
           d="M349 0 L235 202 L195 202 L195 0 L61 0 L61 710 L195 710 L195 312 L237 312 L347 493 L492 493 L343 256 L510 0 L349 0 Z M332 -112 Q332 -144 322.5 -166 Q313 -188 296.5 -202.5 Q280 -217 258.5 -225 Q237 -233 214 -237 L205 -198 Q227 -191 246 -178 Q265 -165 268 -136 L265 -136 Q239 -136 224.5 -122 Q210 -108 210 -84 Q210 -58 225.5 -44.5 Q241 -31 264 -31 Q294 -31 313 -51.5 Q332 -72 332 -112 Z "/>
    <glyph glyph-name="kgreenlandic" unicode="&#x138;" horiz-adv-x="519"
           d="M346 0 L232 202 L192 202 L192 0 L58 0 L58 493 L192 493 L192 312 L234 312 L344 493 L489 493 L340 256 L507 0 L346 0 Z "/>
    <glyph glyph-name="l" unicode="l" horiz-adv-x="261" d="M198 0 L63 0 L63 710 L198 710 L198 0 Z "/>
    <glyph glyph-name="lacute" unicode="&#x13a;" horiz-adv-x="261"
           d="M198 0 L63 0 L63 710 L198 710 L198 0 Z M308 858 L183 738 L70 738 L160 860 L308 860 L308 858 Z "/>
    <glyph glyph-name="lcaron" unicode="&#x13e;" horiz-adv-x="403"
           d="M198 0 L63 0 L63 710 L198 710 L198 0 Z M389 632 Q389 600 379.5 578 Q370 556 353.5 541.5 Q337 527 315.5 519 Q294 511 271 507 L262 546 Q284 553 303 566 Q322 579 325 608 L322 608 Q296 608 281.5 622 Q267 636 267 660 Q267 686 282.5 699.5 Q298 713 321 713 Q351 713 370 692.5 Q389 672 389 632 Z "/>
    <glyph glyph-name="lcommaaccent" unicode="&#x13c;" horiz-adv-x="261"
           d="M198 0 L63 0 L63 710 L198 710 L198 0 Z M192 -122 Q192 -154 182.5 -176 Q173 -198 156.5 -212.5 Q140 -227 118.5 -235 Q97 -243 74 -247 L65 -208 Q87 -201 106 -188 Q125 -175 128 -146 L125 -146 Q99 -146 84.5 -132 Q70 -118 70 -94 Q70 -68 85.5 -54.5 Q101 -41 124 -41 Q154 -41 173 -61.5 Q192 -82 192 -122 Z "/>
    <glyph glyph-name="ldot" unicode="&#x140;" horiz-adv-x="397"
           d="M312 438 Q341 438 358.5 419.5 Q376 401 376 369 L376 363 Q376 331 358.5 312.5 Q341 294 312 294 Q283 294 266 312.5 Q249 331 249 363 L249 369 Q249 401 266 419.5 Q283 438 312 438 Z M198 0 L63 0 L63 710 L198 710 L198 0 Z "/>
    <glyph glyph-name="lslash" unicode="&#x142;" horiz-adv-x="317"
           d="M227 446 L300 503 L300 416 L227 359 L227 0 L92 0 L92 253 L16 194 L16 281 L92 340 L92 710 L227 710 L227 446 Z "/>
    <glyph glyph-name="m" unicode="m" horiz-adv-x="805"
           d="M747 0 L612 0 L612 298 Q612 346 596 367.5 Q580 389 545 389 Q519 389 500 377.5 Q481 366 468 352 Q469 344 469.5 336 Q470 328 470 319 L470 0 L335 0 L335 298 Q335 346 318.5 367.5 Q302 389 269 389 Q240 389 221.5 376 Q203 363 192 350 L192 0 L58 0 L58 493 L185 493 L185 445 L187 445 Q194 454 205.5 464.5 Q217 475 233 484 Q249 493 271 499 Q293 505 321 505 Q360 505 391.5 489 Q423 473 443 439 Q450 448 463 459.5 Q476 471 495 481 Q514 491 538 498 Q562 505 592 505 Q662 505 704.5 461 Q747 417 747 319 L747 0 Z "/>
    <glyph glyph-name="n" unicode="n" horiz-adv-x="534"
           d="M185 445 L187 445 Q194 453 205 463.5 Q216 474 232 483 Q248 492 270.5 498.5 Q293 505 324 505 Q394 505 435 461 Q476 417 476 319 L476 0 L341 0 L341 298 Q341 346 325 367.5 Q309 389 271 389 Q242 389 222.5 376.5 Q203 364 192 351 L192 0 L58 0 L58 493 L185 493 L185 445 Z "/>
    <glyph glyph-name="nacute" unicode="&#x144;" horiz-adv-x="534"
           d="M185 445 L187 445 Q194 453 205 463.5 Q216 474 232 483 Q248 492 270.5 498.5 Q293 505 324 505 Q394 505 435 461 Q476 417 476 319 L476 0 L341 0 L341 298 Q341 346 325 367.5 Q309 389 271 389 Q242 389 222.5 376.5 Q203 364 192 351 L192 0 L58 0 L58 493 L185 493 L185 445 Z M452 685 L323 547 L211 547 L306 687 L452 687 L452 685 Z "/>
    <glyph glyph-name="napostrophe" unicode="&#x149;" horiz-adv-x="621"
           d="M272 445 L274 445 Q281 453 292 463.5 Q303 474 319 483 Q335 492 357.5 498.5 Q380 505 411 505 Q481 505 522 461 Q563 417 563 319 L563 0 L428 0 L428 298 Q428 346 412 367.5 Q396 389 358 389 Q329 389 309.5 376.5 Q290 364 279 351 L279 0 L145 0 L145 493 L272 493 L272 445 Z M149 634 Q149 602 139.5 580 Q130 558 113.5 543.5 Q97 529 75.5 521 Q54 513 31 509 L22 548 Q44 555 63 568 Q82 581 85 610 L82 610 Q56 610 41.5 624 Q27 638 27 662 Q27 688 42.5 701.5 Q58 715 81 715 Q111 715 130 694.5 Q149 674 149 634 Z "/>
    <glyph glyph-name="ncaron" unicode="&#x148;" horiz-adv-x="534"
           d="M185 445 L187 445 Q194 453 205 463.5 Q216 474 232 483 Q248 492 270.5 498.5 Q293 505 324 505 Q394 505 435 461 Q476 417 476 319 L476 0 L341 0 L341 298 Q341 346 325 367.5 Q309 389 271 389 Q242 389 222.5 376.5 Q203 364 192 351 L192 0 L58 0 L58 493 L185 493 L185 445 Z M336 548 L197 548 L117 689 L206 689 L266 616 L268 616 L327 689 L417 689 L336 548 Z "/>
    <glyph glyph-name="ncommaaccent" unicode="&#x146;" horiz-adv-x="534"
           d="M185 445 L187 445 Q194 453 205 463.5 Q216 474 232 483 Q248 492 270.5 498.5 Q293 505 324 505 Q394 505 435 461 Q476 417 476 319 L476 0 L341 0 L341 298 Q341 346 325 367.5 Q309 389 271 389 Q242 389 222.5 376.5 Q203 364 192 351 L192 0 L58 0 L58 493 L185 493 L185 445 Z M333 -112 Q333 -144 323.5 -166 Q314 -188 297.5 -202.5 Q281 -217 259.5 -225 Q238 -233 215 -237 L206 -198 Q228 -191 247 -178 Q266 -165 269 -136 L266 -136 Q240 -136 225.5 -122 Q211 -108 211 -84 Q211 -58 226.5 -44.5 Q242 -31 265 -31 Q295 -31 314 -51.5 Q333 -72 333 -112 Z "/>
    <glyph glyph-name="ntilde" unicode="&#xf1;" horiz-adv-x="534"
           d="M185 445 L187 445 Q194 453 205 463.5 Q216 474 232 483 Q248 492 270.5 498.5 Q293 505 324 505 Q394 505 435 461 Q476 417 476 319 L476 0 L341 0 L341 298 Q341 346 325 367.5 Q309 389 271 389 Q242 389 222.5 376.5 Q203 364 192 351 L192 0 L58 0 L58 493 L185 493 L185 445 Z M416 671 Q416 614 397.5 580.5 Q379 547 332 547 Q311 547 294 554 Q277 561 262 570 Q247 579 233.5 586 Q220 593 207 593 Q190 593 185 582.5 Q180 572 178 552 L117 552 Q117 610 135.5 643 Q154 676 200 676 Q221 676 238.5 669 Q256 662 271 653.5 Q286 645 299 638 Q312 631 326 631 Q342 631 348 641 Q354 651 355 671 L416 671 L416 671 Z "/>
    <glyph glyph-name="eng" unicode="&#x14b;" horiz-adv-x="534"
           d="M185 445 L187 445 Q194 453 205 463.5 Q216 474 232.5 483 Q249 492 272 498.5 Q295 505 326 505 Q395 505 435.5 461 Q476 417 476 319 L476 -32 Q476 -79 463.5 -112 Q451 -145 428.5 -166 Q406 -187 374 -196.5 Q342 -206 303 -206 Q283 -206 270 -203.5 Q257 -201 252 -199 L252 -88 Q258 -90 265 -91.5 Q272 -93 284 -93 Q309 -93 325 -78 Q341 -63 341 -23 L341 298 Q341 346 325 367.5 Q309 389 271 389 Q242 389 222.5 376.5 Q203 364 192 351 L192 0 L58 0 L58 493 L185 493 L185 445 Z "/>
    <glyph glyph-name="o" unicode="o" horiz-adv-x="515"
           d="M481 246 Q481 178 462.5 129 Q444 80 412.5 48.5 Q381 17 340.5 2.5 Q300 -12 257 -12 Q214 -12 173.5 2.5 Q133 17 102 48.5 Q71 80 52 129 Q33 178 33 246 Q33 315 52 364 Q71 413 102 444.5 Q133 476 173.5 490.5 Q214 505 257 505 Q300 505 340.5 490.5 Q381 476 412.5 444.5 Q444 413 462.5 364 Q481 315 481 246 Z M344 246 Q344 323 319 356 Q294 389 257 389 Q220 389 195 356 Q170 323 170 246 Q170 169 195 136.5 Q220 104 257 104 Q295 104 319.5 136.5 Q344 169 344 246 Z "/>
    <glyph glyph-name="oacute" unicode="&#xf3;" horiz-adv-x="515"
           d="M481 246 Q481 178 462.5 129 Q444 80 412.5 48.5 Q381 17 340.5 2.5 Q300 -12 257 -12 Q214 -12 173.5 2.5 Q133 17 102 48.5 Q71 80 52 129 Q33 178 33 246 Q33 315 52 364 Q71 413 102 444.5 Q133 476 173.5 490.5 Q214 505 257 505 Q300 505 340.5 490.5 Q381 476 412.5 444.5 Q444 413 462.5 364 Q481 315 481 246 Z M344 246 Q344 323 319 356 Q294 389 257 389 Q220 389 195 356 Q170 323 170 246 Q170 169 195 136.5 Q220 104 257 104 Q295 104 319.5 136.5 Q344 169 344 246 Z M442 685 L313 547 L201 547 L296 687 L442 687 L442 685 Z "/>
    <glyph glyph-name="obreve" unicode="&#x14f;" horiz-adv-x="515"
           d="M481 246 Q481 178 462.5 129 Q444 80 412.5 48.5 Q381 17 340.5 2.5 Q300 -12 257 -12 Q214 -12 173.5 2.5 Q133 17 102 48.5 Q71 80 52 129 Q33 178 33 246 Q33 315 52 364 Q71 413 102 444.5 Q133 476 173.5 490.5 Q214 505 257 505 Q300 505 340.5 490.5 Q381 476 412.5 444.5 Q444 413 462.5 364 Q481 315 481 246 Z M344 246 Q344 323 319 356 Q294 389 257 389 Q220 389 195 356 Q170 323 170 246 Q170 169 195 136.5 Q220 104 257 104 Q295 104 319.5 136.5 Q344 169 344 246 Z M386 678 Q385 650 377.5 625.5 Q370 601 354.5 583 Q339 565 314.5 554.5 Q290 544 256 544 Q222 544 198 554.5 Q174 565 158 583 Q142 601 134.5 625.5 Q127 650 126 678 L203 678 Q206 625 256 625 Q307 625 310 678 L386 678 L386 678 Z "/>
    <glyph glyph-name="ocircumflex" unicode="&#xf4;" horiz-adv-x="515"
           d="M481 246 Q481 178 462.5 129 Q444 80 412.5 48.5 Q381 17 340.5 2.5 Q300 -12 257 -12 Q214 -12 173.5 2.5 Q133 17 102 48.5 Q71 80 52 129 Q33 178 33 246 Q33 315 52 364 Q71 413 102 444.5 Q133 476 173.5 490.5 Q214 505 257 505 Q300 505 340.5 490.5 Q381 476 412.5 444.5 Q444 413 462.5 364 Q481 315 481 246 Z M344 246 Q344 323 319 356 Q294 389 257 389 Q220 389 195 356 Q170 323 170 246 Q170 169 195 136.5 Q220 104 257 104 Q295 104 319.5 136.5 Q344 169 344 246 Z M317 545 L258 619 L256 619 L196 545 L107 545 L187 688 L326 688 L407 545 L317 545 Z "/>
    <glyph glyph-name="odieresis" unicode="&#xf6;" horiz-adv-x="515"
           d="M481 246 Q481 178 462.5 129 Q444 80 412.5 48.5 Q381 17 340.5 2.5 Q300 -12 257 -12 Q214 -12 173.5 2.5 Q133 17 102 48.5 Q71 80 52 129 Q33 178 33 246 Q33 315 52 364 Q71 413 102 444.5 Q133 476 173.5 490.5 Q214 505 257 505 Q300 505 340.5 490.5 Q381 476 412.5 444.5 Q444 413 462.5 364 Q481 315 481 246 Z M344 246 Q344 323 319 356 Q294 389 257 389 Q220 389 195 356 Q170 323 170 246 Q170 169 195 136.5 Q220 104 257 104 Q295 104 319.5 136.5 Q344 169 344 246 Z M175 681 Q202 681 217.5 664.5 Q233 648 233 620 L233 614 Q233 585 217.5 568.5 Q202 552 175 552 Q148 552 132 568.5 Q116 585 116 614 L116 620 Q116 648 132 664.5 Q148 681 175 681 Z M340 681 Q367 681 383 664.5 Q399 648 399 620 L399 614 Q399 585 383 568.5 Q367 552 340 552 Q313 552 297 568.5 Q281 585 281 614 L281 620 Q281 648 297 664.5 Q313 681 340 681 Z "/>
    <glyph glyph-name="oe" unicode="&#x153;" horiz-adv-x="789"
           d="M33 246 Q33 313 50.5 362 Q68 411 98 442.5 Q128 474 167 489.5 Q206 505 249 505 Q356 505 409 414 L411 414 Q436 458 475.5 481.5 Q515 505 569 505 Q657 505 704 446.5 Q751 388 751 263 L751 210 L476 210 Q483 152 512.5 125.5 Q542 99 594 99 Q618 99 636.5 104 Q655 109 669.5 116 Q684 123 693.5 130.5 Q703 138 708 143 L753 56 Q745 48 731.5 36.5 Q718 25 698 14 Q678 3 650 -4.5 Q622 -12 585 -12 Q463 -12 411 78 L409 78 Q356 -12 249 -12 Q206 -12 167 3 Q128 18 98 49.5 Q68 81 50.5 130 Q33 179 33 246 Z M344 246 Q344 323 319 356 Q294 389 257 389 Q220 389 195 356 Q170 323 170 246 Q170 169 195 136.5 Q220 104 257 104 Q295 104 319.5 136.5 Q344 169 344 246 Z M561 394 Q527 394 504 369 Q481 344 476 297 L634 296 Q634 344 616.5 369 Q599 394 561 394 Z "/>
    <glyph glyph-name="ograve" unicode="&#xf2;" horiz-adv-x="515"
           d="M481 246 Q481 178 462.5 129 Q444 80 412.5 48.5 Q381 17 340.5 2.5 Q300 -12 257 -12 Q214 -12 173.5 2.5 Q133 17 102 48.5 Q71 80 52 129 Q33 178 33 246 Q33 315 52 364 Q71 413 102 444.5 Q133 476 173.5 490.5 Q214 505 257 505 Q300 505 340.5 490.5 Q381 476 412.5 444.5 Q444 413 462.5 364 Q481 315 481 246 Z M344 246 Q344 323 319 356 Q294 389 257 389 Q220 389 195 356 Q170 323 170 246 Q170 169 195 136.5 Q220 104 257 104 Q295 104 319.5 136.5 Q344 169 344 246 Z M202 547 L73 685 L73 687 L219 687 L314 547 L202 547 Z "/>
    <glyph glyph-name="ohungarumlaut" unicode="&#x151;" horiz-adv-x="515"
           d="M481 246 Q481 178 462.5 129 Q444 80 412.5 48.5 Q381 17 340.5 2.5 Q300 -12 257 -12 Q214 -12 173.5 2.5 Q133 17 102 48.5 Q71 80 52 129 Q33 178 33 246 Q33 315 52 364 Q71 413 102 444.5 Q133 476 173.5 490.5 Q214 505 257 505 Q300 505 340.5 490.5 Q381 476 412.5 444.5 Q444 413 462.5 364 Q481 315 481 246 Z M344 246 Q344 323 319 356 Q294 389 257 389 Q220 389 195 356 Q170 323 170 246 Q170 169 195 136.5 Q220 104 257 104 Q295 104 319.5 136.5 Q344 169 344 246 Z M324 685 L221 547 L137 547 L218 687 L324 687 L324 685 Z M478 685 L375 547 L290 547 L372 687 L478 687 L478 685 Z "/>
    <glyph glyph-name="omacron" unicode="&#x14d;" horiz-adv-x="515"
           d="M481 246 Q481 178 462.5 129 Q444 80 412.5 48.5 Q381 17 340.5 2.5 Q300 -12 257 -12 Q214 -12 173.5 2.5 Q133 17 102 48.5 Q71 80 52 129 Q33 178 33 246 Q33 315 52 364 Q71 413 102 444.5 Q133 476 173.5 490.5 Q214 505 257 505 Q300 505 340.5 490.5 Q381 476 412.5 444.5 Q444 413 462.5 364 Q481 315 481 246 Z M344 246 Q344 323 319 356 Q294 389 257 389 Q220 389 195 356 Q170 323 170 246 Q170 169 195 136.5 Q220 104 257 104 Q295 104 319.5 136.5 Q344 169 344 246 Z M380 565 L137 565 L137 651 L380 651 L380 565 Z "/>
    <glyph glyph-name="oslash" unicode="&#xf8;" horiz-adv-x="514"
           d="M481 246 Q481 178 462 129 Q443 80 412 48.5 Q381 17 340.5 2.5 Q300 -12 257 -12 Q223 -12 191.5 -3.5 Q160 5 132 23 L107 -12 L33 -12 L88 64 Q62 95 47.5 140 Q33 185 33 246 Q33 315 52 364 Q71 413 102 444.5 Q133 476 173.5 490.5 Q214 505 257 505 Q290 505 322 496.5 Q354 488 381 469 L407 505 L481 505 L426 428 Q451 396 466 351.5 Q481 307 481 246 Z M353 245 Q353 285 345 317 L200 116 Q222 95 257 95 Q299 95 326 130.5 Q353 166 353 245 Z M160 245 Q160 205 168 175 L313 375 Q289 396 257 396 Q215 396 187.5 360 Q160 324 160 245 Z "/>
    <glyph glyph-name="oslashacute" unicode="&#x1ff;" horiz-adv-x="514"
           d="M441 685 L312 547 L200 547 L295 687 L441 687 L441 685 Z M481 246 Q481 178 462 129 Q443 80 412 48.5 Q381 17 340.5 2.5 Q300 -12 257 -12 Q223 -12 191.5 -3.5 Q160 5 132 23 L107 -12 L33 -12 L88 64 Q62 95 47.5 140 Q33 185 33 246 Q33 315 52 364 Q71 413 102 444.5 Q133 476 173.5 490.5 Q214 505 257 505 Q290 505 322 496.5 Q354 488 381 469 L407 505 L481 505 L426 428 Q451 396 466 351.5 Q481 307 481 246 Z M353 245 Q353 285 345 317 L200 116 Q222 95 257 95 Q299 95 326 130.5 Q353 166 353 245 Z M160 245 Q160 205 168 175 L313 375 Q289 396 257 396 Q215 396 187.5 360 Q160 324 160 245 Z "/>
    <glyph glyph-name="otilde" unicode="&#xf5;" horiz-adv-x="515"
           d="M481 246 Q481 178 462.5 129 Q444 80 412.5 48.5 Q381 17 340.5 2.5 Q300 -12 257 -12 Q214 -12 173.5 2.5 Q133 17 102 48.5 Q71 80 52 129 Q33 178 33 246 Q33 315 52 364 Q71 413 102 444.5 Q133 476 173.5 490.5 Q214 505 257 505 Q300 505 340.5 490.5 Q381 476 412.5 444.5 Q444 413 462.5 364 Q481 315 481 246 Z M344 246 Q344 323 319 356 Q294 389 257 389 Q220 389 195 356 Q170 323 170 246 Q170 169 195 136.5 Q220 104 257 104 Q295 104 319.5 136.5 Q344 169 344 246 Z M406 671 Q406 614 387.5 580.5 Q369 547 322 547 Q301 547 284 554 Q267 561 252 570 Q237 579 223.5 586 Q210 593 197 593 Q180 593 175 582.5 Q170 572 168 552 L107 552 Q107 610 125.5 643 Q144 676 190 676 Q211 676 228.5 669 Q246 662 261 653.5 Q276 645 289 638 Q302 631 316 631 Q332 631 338 641 Q344 651 345 671 L406 671 L406 671 Z "/>
    <glyph glyph-name="p" unicode="p" horiz-adv-x="530"
           d="M491 258 Q491 190 476.5 139 Q462 88 437.5 54.5 Q413 21 379.5 4.5 Q346 -12 308 -12 Q281 -12 261.5 -6.5 Q242 -1 229 7 Q216 15 208 24.5 Q200 34 194 42 L192 42 L192 -200 L58 -200 L58 493 L185 493 L185 445 L187 445 Q194 453 204 463.5 Q214 474 229.5 483 Q245 492 266 498.5 Q287 505 316 505 Q353 505 385.5 489.5 Q418 474 441 443.5 Q464 413 477.5 366.5 Q491 320 491 258 Z M354 249 Q354 321 330.5 355 Q307 389 266 389 Q237 389 219.5 376 Q202 363 192 351 L192 142 Q201 130 217.5 117 Q234 104 263 104 Q306 104 330 138 Q354 172 354 249 Z "/>
    <glyph glyph-name="thorn" unicode="&#xfe;" horiz-adv-x="533"
           d="M494 258 Q494 191 479.5 140.5 Q465 90 440 56 Q415 22 380.5 5 Q346 -12 307 -12 Q280 -12 262 -6.5 Q244 -1 231 7 Q218 15 210.5 24.5 Q203 34 197 42 L195 42 L195 -200 L61 -200 L61 710 L195 710 L195 451 L197 451 Q204 459 214 468.5 Q224 478 239 486 Q254 494 273.5 499.5 Q293 505 319 505 Q355 505 386.5 491 Q418 477 442 447 Q466 417 480 370 Q494 323 494 258 Z M357 249 Q357 323 333.5 356 Q310 389 269 389 Q240 389 222.5 376 Q205 363 195 351 L195 142 Q204 130 220.5 117 Q237 104 266 104 Q311 104 334 139 Q357 174 357 249 Z "/>
    <glyph glyph-name="q" unicode="q" horiz-adv-x="529"
           d="M471 -200 L336 -200 L336 42 L334 42 Q329 36 321.5 27 Q314 18 300 9 Q286 0 264.5 -6 Q243 -12 212 -12 Q173 -12 141 3 Q109 18 85.5 48.5 Q62 79 49 125.5 Q36 172 36 234 Q36 308 56.5 359.5 Q77 411 112.5 443.5 Q148 476 196 490.5 Q244 505 298 505 Q333 505 361 500.5 Q389 496 410 489.5 Q431 483 446 476 Q461 469 471 465 L471 -200 Z M336 381 Q326 386 313.5 388.5 Q301 391 282 391 Q259 391 239.5 383.5 Q220 376 205 358.5 Q190 341 181.5 313.5 Q173 286 173 247 Q173 205 179.5 177 Q186 149 198 133 Q210 117 226 110.5 Q242 104 262 104 Q294 104 310 115.5 Q326 127 336 138 L336 381 Z "/>
    <glyph glyph-name="r" unicode="r" horiz-adv-x="338"
           d="M321 387 L314 387 Q311 387 307 387.5 Q303 388 298 388 Q260 388 234 371.5 Q208 355 192 326 L192 0 L58 0 L58 493 L185 493 L185 425 L187 425 Q193 441 202.5 455 Q212 469 227 479.5 Q242 490 264.5 496.5 Q287 503 321 503 L321 387 Z "/>
    <glyph glyph-name="racute" unicode="&#x155;" horiz-adv-x="338"
           d="M321 387 L314 387 Q311 387 307 387.5 Q303 388 298 388 Q260 388 234 371.5 Q208 355 192 326 L192 0 L58 0 L58 493 L185 493 L185 425 L187 425 Q193 441 202.5 455 Q212 469 227 479.5 Q242 490 264.5 496.5 Q287 503 321 503 L321 387 Z M372 685 L243 547 L131 547 L226 687 L372 687 L372 685 Z "/>
    <glyph glyph-name="rcaron" unicode="&#x159;" horiz-adv-x="338"
           d="M321 387 L314 387 Q311 387 307 387.5 Q303 388 298 388 Q260 388 234 371.5 Q208 355 192 326 L192 0 L58 0 L58 493 L185 493 L185 425 L187 425 Q193 441 202.5 455 Q212 469 227 479.5 Q242 490 264.5 496.5 Q287 503 321 503 L321 387 Z M258 548 L119 548 L39 689 L128 689 L188 616 L190 616 L249 689 L339 689 L258 548 Z "/>
    <glyph glyph-name="rcommaaccent" unicode="&#x157;" horiz-adv-x="338"
           d="M321 387 L314 387 Q311 387 307 387.5 Q303 388 298 388 Q260 388 234 371.5 Q208 355 192 326 L192 0 L58 0 L58 493 L185 493 L185 425 L187 425 Q193 441 202.5 455 Q212 469 227 479.5 Q242 490 264.5 496.5 Q287 503 321 503 L321 387 Z M191 -122 Q191 -154 181.5 -176 Q172 -198 155.5 -212.5 Q139 -227 117.5 -235 Q96 -243 73 -247 L64 -208 Q86 -201 105 -188 Q124 -175 127 -146 L124 -146 Q98 -146 83.5 -132 Q69 -118 69 -94 Q69 -68 84.5 -54.5 Q100 -41 123 -41 Q153 -41 172 -61.5 Q191 -82 191 -122 Z "/>
    <glyph glyph-name="s" unicode="s" horiz-adv-x="416"
           d="M326 363 Q312 374 286 386.5 Q260 399 220 399 Q191 399 177.5 389.5 Q164 380 164 363 Q164 344 177 333 Q190 322 219 311 L250 298 Q312 273 346 238 Q380 203 380 143 Q380 110 368.5 81.5 Q357 53 333.5 32.5 Q310 12 274.5 0 Q239 -12 192 -12 Q158 -12 132 -6 Q106 0 86.5 8 Q67 16 53 25.5 Q39 35 30 43 L74 144 Q89 130 116.5 114 Q144 98 186 98 Q220 98 235.5 109 Q251 120 251 139 Q251 159 237 170 Q223 181 190 197 L160 210 Q134 220 112 233.5 Q90 247 73.5 264.5 Q57 282 48 305.5 Q39 329 39 359 Q39 393 52.5 420.5 Q66 448 89.5 466.5 Q113 485 146 495 Q179 505 218 505 Q249 505 273 500.5 Q297 496 315.5 489 Q334 482 347 474 Q360 466 370 459 L326 363 Z "/>
    <glyph glyph-name="sacute" unicode="&#x15b;" horiz-adv-x="416"
           d="M326 363 Q312 374 286 386.5 Q260 399 220 399 Q191 399 177.5 389.5 Q164 380 164 363 Q164 344 177 333 Q190 322 219 311 L250 298 Q312 273 346 238 Q380 203 380 143 Q380 110 368.5 81.5 Q357 53 333.5 32.5 Q310 12 274.5 0 Q239 -12 192 -12 Q158 -12 132 -6 Q106 0 86.5 8 Q67 16 53 25.5 Q39 35 30 43 L74 144 Q89 130 116.5 114 Q144 98 186 98 Q220 98 235.5 109 Q251 120 251 139 Q251 159 237 170 Q223 181 190 197 L160 210 Q134 220 112 233.5 Q90 247 73.5 264.5 Q57 282 48 305.5 Q39 329 39 359 Q39 393 52.5 420.5 Q66 448 89.5 466.5 Q113 485 146 495 Q179 505 218 505 Q249 505 273 500.5 Q297 496 315.5 489 Q334 482 347 474 Q360 466 370 459 L326 363 Z M397 685 L268 547 L156 547 L251 687 L397 687 L397 685 Z "/>
    <glyph glyph-name="scaron" unicode="&#x161;" horiz-adv-x="416"
           d="M326 363 Q312 374 286 386.5 Q260 399 220 399 Q191 399 177.5 389.5 Q164 380 164 363 Q164 344 177 333 Q190 322 219 311 L250 298 Q312 273 346 238 Q380 203 380 143 Q380 110 368.5 81.5 Q357 53 333.5 32.5 Q310 12 274.5 0 Q239 -12 192 -12 Q158 -12 132 -6 Q106 0 86.5 8 Q67 16 53 25.5 Q39 35 30 43 L74 144 Q89 130 116.5 114 Q144 98 186 98 Q220 98 235.5 109 Q251 120 251 139 Q251 159 237 170 Q223 181 190 197 L160 210 Q134 220 112 233.5 Q90 247 73.5 264.5 Q57 282 48 305.5 Q39 329 39 359 Q39 393 52.5 420.5 Q66 448 89.5 466.5 Q113 485 146 495 Q179 505 218 505 Q249 505 273 500.5 Q297 496 315.5 489 Q334 482 347 474 Q360 466 370 459 L326 363 Z M282 548 L143 548 L63 689 L152 689 L212 616 L214 616 L273 689 L363 689 L282 548 Z "/>
    <glyph glyph-name="scedilla" unicode="&#x15f;" horiz-adv-x="416"
           d="M296 -123 Q296 -165 265 -187.5 Q234 -210 178 -210 Q152 -210 135 -205 Q118 -200 108 -195 L108 -138 Q115 -143 128.5 -146 Q142 -149 159 -149 Q201 -149 201 -121 Q201 -104 185 -94 Q169 -84 127 -84 L124 -81 L159 -10 Q107 -5 76.5 12 Q46 29 30 43 L74 144 Q89 130 116.5 114 Q144 98 186 98 Q220 98 235.5 109 Q251 120 251 139 Q251 159 237 170 Q223 181 190 197 L160 210 Q134 220 112 233.5 Q90 247 73.5 264.5 Q57 282 48 305.5 Q39 329 39 359 Q39 393 52.5 420.5 Q66 448 89.5 466.5 Q113 485 146 495 Q179 505 218 505 Q249 505 273 500.5 Q297 496 315.5 489 Q334 482 347 474 Q360 466 370 459 L326 363 Q312 374 286 386.5 Q260 399 220 399 Q191 399 177.5 389.5 Q164 380 164 363 Q164 344 177 333 Q190 322 219 311 L250 298 Q312 273 346 238 Q380 203 380 143 Q380 84 343.5 42 Q307 0 232 -9 L212 -50 Q255 -52 275.5 -72.5 Q296 -93 296 -123 Z "/>
    <glyph glyph-name="scircumflex" unicode="&#x15d;" horiz-adv-x="416"
           d="M326 363 Q312 374 286 386.5 Q260 399 220 399 Q191 399 177.5 389.5 Q164 380 164 363 Q164 344 177 333 Q190 322 219 311 L250 298 Q312 273 346 238 Q380 203 380 143 Q380 110 368.5 81.5 Q357 53 333.5 32.5 Q310 12 274.5 0 Q239 -12 192 -12 Q158 -12 132 -6 Q106 0 86.5 8 Q67 16 53 25.5 Q39 35 30 43 L74 144 Q89 130 116.5 114 Q144 98 186 98 Q220 98 235.5 109 Q251 120 251 139 Q251 159 237 170 Q223 181 190 197 L160 210 Q134 220 112 233.5 Q90 247 73.5 264.5 Q57 282 48 305.5 Q39 329 39 359 Q39 393 52.5 420.5 Q66 448 89.5 466.5 Q113 485 146 495 Q179 505 218 505 Q249 505 273 500.5 Q297 496 315.5 489 Q334 482 347 474 Q360 466 370 459 L326 363 Z M273 545 L214 619 L212 619 L152 545 L63 545 L143 688 L282 688 L363 545 L273 545 Z "/>
    <glyph glyph-name="scommaaccent" unicode="&#x219;" horiz-adv-x="416"
           d="M326 363 Q312 374 286 386.5 Q260 399 220 399 Q191 399 177.5 389.5 Q164 380 164 363 Q164 344 177 333 Q190 322 219 311 L250 298 Q312 273 346 238 Q380 203 380 143 Q380 110 368.5 81.5 Q357 53 333.5 32.5 Q310 12 274.5 0 Q239 -12 192 -12 Q158 -12 132 -6 Q106 0 86.5 8 Q67 16 53 25.5 Q39 35 30 43 L74 144 Q89 130 116.5 114 Q144 98 186 98 Q220 98 235.5 109 Q251 120 251 139 Q251 159 237 170 Q223 181 190 197 L160 210 Q134 220 112 233.5 Q90 247 73.5 264.5 Q57 282 48 305.5 Q39 329 39 359 Q39 393 52.5 420.5 Q66 448 89.5 466.5 Q113 485 146 495 Q179 505 218 505 Q249 505 273 500.5 Q297 496 315.5 489 Q334 482 347 474 Q360 466 370 459 L326 363 Z M268 -122 Q268 -154 258.5 -176 Q249 -198 232.5 -212.5 Q216 -227 194.5 -235 Q173 -243 150 -247 L141 -208 Q163 -201 182 -188 Q201 -175 204 -146 L201 -146 Q175 -146 160.5 -132 Q146 -118 146 -94 Q146 -68 161.5 -54.5 Q177 -41 200 -41 Q230 -41 249 -61.5 Q268 -82 268 -122 Z "/>
    <glyph glyph-name="germandbls" unicode="&#xdf;" horiz-adv-x="607"
           d="M578 145 Q578 111 566.5 82 Q555 53 531.5 32 Q508 11 472.5 -0.5 Q437 -12 388 -12 Q358 -12 335 -7 Q312 -2 294.5 5 Q277 12 264.5 20.5 Q252 29 244 36 L284 140 Q299 126 324.5 112.5 Q350 99 385 99 Q420 99 434 110 Q448 121 448 141 Q448 161 434 172 Q420 183 389 197 L360 210 Q310 233 284.5 264 Q259 295 259 345 Q259 379 272 406 Q285 433 301 455.5 Q317 478 330 498 Q343 518 343 540 Q343 569 326.5 589 Q310 609 276 609 Q241 609 218 583.5 Q195 558 195 504 L195 0 L61 0 L61 514 Q61 568 78.5 607.5 Q96 647 126 672.5 Q156 698 195 710 Q234 722 276 722 Q318 722 353.5 710 Q389 698 414 676.5 Q439 655 453 624.5 Q467 594 467 557 Q467 521 454.5 494.5 Q442 468 426.5 446 Q411 424 398.5 404.5 Q386 385 386 364 Q386 341 399 328.5 Q412 316 436 305 L466 292 Q521 269 549.5 234.5 Q578 200 578 145 Z "/>
    <glyph glyph-name="t" unicode="t" horiz-adv-x="347"
           d="M317 382 L217 382 L217 181 Q217 133 234.5 119 Q252 105 282 105 Q295 105 303.5 106.5 Q312 108 317 110 L317 1 Q311 -1 292.5 -5.5 Q274 -10 248 -10 Q210 -10 179 -1.5 Q148 7 126.5 27 Q105 47 93.5 80 Q82 113 82 163 L82 382 L27 382 L27 493 L82 493 L82 603 L217 603 L217 493 L317 493 L317 382 Z "/>
    <glyph glyph-name="tbar" unicode="&#x167;" horiz-adv-x="349"
           d="M317 382 L217 382 L217 298 L302 298 L302 230 L217 230 L217 181 Q217 133 234.5 119 Q252 105 282 105 Q295 105 303.5 106.5 Q312 108 317 110 L317 1 Q311 -1 292.5 -5.5 Q274 -10 248 -10 Q210 -10 179 -1.5 Q148 7 126.5 27 Q105 47 93.5 80 Q82 113 82 163 L82 230 L33 230 L33 298 L82 298 L82 382 L27 382 L27 493 L82 493 L82 603 L217 603 L217 493 L317 493 L317 382 Z "/>
    <glyph glyph-name="tcaron" unicode="&#x165;" horiz-adv-x="438"
           d="M317 382 L217 382 L217 181 Q217 133 234.5 119 Q252 105 282 105 Q295 105 303.5 106.5 Q312 108 317 110 L317 1 Q311 -1 292.5 -5.5 Q274 -10 248 -10 Q210 -10 179 -1.5 Q148 7 126.5 27 Q105 47 93.5 80 Q82 113 82 163 L82 382 L27 382 L27 493 L82 493 L82 603 L217 603 L217 493 L317 493 L317 382 Z M422 663 Q422 631 412.5 609 Q403 587 386.5 572.5 Q370 558 348.5 550 Q327 542 304 538 L295 577 Q317 584 336 597 Q355 610 358 639 L355 639 Q329 639 314.5 653 Q300 667 300 691 Q300 717 315.5 730.5 Q331 744 354 744 Q384 744 403 723.5 Q422 703 422 663 Z "/>
    <glyph glyph-name="tcommaaccent" unicode="&#x163;" horiz-adv-x="347"
           d="M298 -123 Q298 -165 267 -187.5 Q236 -210 180 -210 Q154 -210 137 -205 Q120 -200 110 -195 L110 -138 Q117 -143 130.5 -146 Q144 -149 161 -149 Q203 -149 203 -121 Q203 -104 187 -94 Q171 -84 129 -84 L126 -81 L167 2 Q126 17 104 54.5 Q82 92 82 163 L82 382 L27 382 L27 493 L82 493 L82 603 L217 603 L217 493 L317 493 L317 382 L217 382 L217 181 Q217 133 234.5 119 Q252 105 282 105 Q295 105 303.5 106.5 Q312 108 317 110 L317 1 Q311 -1 292.5 -5.5 Q274 -10 248 -10 L234 -10 L214 -50 Q257 -52 277.5 -72.5 Q298 -93 298 -123 Z "/>
    <glyph glyph-name="uni021B" unicode="&#x21b;" horiz-adv-x="347"
           d="M317 382 L217 382 L217 181 Q217 133 234.5 119 Q252 105 282 105 Q295 105 303.5 106.5 Q312 108 317 110 L317 1 Q311 -1 292.5 -5.5 Q274 -10 248 -10 Q210 -10 179 -1.5 Q148 7 126.5 27 Q105 47 93.5 80 Q82 113 82 163 L82 382 L27 382 L27 493 L82 493 L82 603 L217 603 L217 493 L317 493 L317 382 Z M270 -122 Q270 -154 260.5 -176 Q251 -198 234.5 -212.5 Q218 -227 196.5 -235 Q175 -243 152 -247 L143 -208 Q165 -201 184 -188 Q203 -175 206 -146 L203 -146 Q177 -146 162.5 -132 Q148 -118 148 -94 Q148 -68 163.5 -54.5 Q179 -41 202 -41 Q232 -41 251 -61.5 Q270 -82 270 -122 Z "/>
    <glyph glyph-name="u" unicode="u" horiz-adv-x="532"
           d="M474 0 L347 0 L347 48 L345 48 Q339 40 330.5 30 Q322 20 306.5 10.5 Q291 1 267.5 -5.5 Q244 -12 209 -12 Q140 -12 99 31 Q58 74 58 173 L58 493 L192 493 L192 194 Q192 145 208 124.5 Q224 104 262 104 Q294 104 311.5 117 Q329 130 339 142 L339 493 L474 493 L474 0 Z "/>
    <glyph glyph-name="uacute" unicode="&#xfa;" horiz-adv-x="532"
           d="M474 0 L347 0 L347 48 L345 48 Q339 40 330.5 30 Q322 20 306.5 10.5 Q291 1 267.5 -5.5 Q244 -12 209 -12 Q140 -12 99 31 Q58 74 58 173 L58 493 L192 493 L192 194 Q192 145 208 124.5 Q224 104 262 104 Q294 104 311.5 117 Q329 130 339 142 L339 493 L474 493 L474 0 Z M450 685 L321 547 L209 547 L304 687 L450 687 L450 685 Z "/>
    <glyph glyph-name="ubreve" unicode="&#x16d;" horiz-adv-x="532"
           d="M474 0 L347 0 L347 48 L345 48 Q339 40 330.5 30 Q322 20 306.5 10.5 Q291 1 267.5 -5.5 Q244 -12 209 -12 Q140 -12 99 31 Q58 74 58 173 L58 493 L192 493 L192 194 Q192 145 208 124.5 Q224 104 262 104 Q294 104 311.5 117 Q329 130 339 142 L339 493 L474 493 L474 0 Z M395 678 Q394 650 386.5 625.5 Q379 601 363.5 583 Q348 565 323.5 554.5 Q299 544 265 544 Q231 544 207 554.5 Q183 565 167 583 Q151 601 143.5 625.5 Q136 650 135 678 L212 678 Q215 625 265 625 Q316 625 319 678 L395 678 L395 678 Z "/>
    <glyph glyph-name="ucircumflex" unicode="&#xfb;" horiz-adv-x="532"
           d="M474 0 L347 0 L347 48 L345 48 Q339 40 330.5 30 Q322 20 306.5 10.5 Q291 1 267.5 -5.5 Q244 -12 209 -12 Q140 -12 99 31 Q58 74 58 173 L58 493 L192 493 L192 194 Q192 145 208 124.5 Q224 104 262 104 Q294 104 311.5 117 Q329 130 339 142 L339 493 L474 493 L474 0 Z M325 545 L266 619 L264 619 L204 545 L115 545 L195 688 L334 688 L415 545 L325 545 Z "/>
    <glyph glyph-name="udieresis" unicode="&#xfc;" horiz-adv-x="532"
           d="M474 0 L347 0 L347 48 L345 48 Q339 40 330.5 30 Q322 20 306.5 10.5 Q291 1 267.5 -5.5 Q244 -12 209 -12 Q140 -12 99 31 Q58 74 58 173 L58 493 L192 493 L192 194 Q192 145 208 124.5 Q224 104 262 104 Q294 104 311.5 117 Q329 130 339 142 L339 493 L474 493 L474 0 Z M183 681 Q210 681 225.5 664.5 Q241 648 241 620 L241 614 Q241 585 225.5 568.5 Q210 552 183 552 Q156 552 140 568.5 Q124 585 124 614 L124 620 Q124 648 140 664.5 Q156 681 183 681 Z M348 681 Q375 681 391 664.5 Q407 648 407 620 L407 614 Q407 585 391 568.5 Q375 552 348 552 Q321 552 305 568.5 Q289 585 289 614 L289 620 Q289 648 305 664.5 Q321 681 348 681 Z "/>
    <glyph glyph-name="ugrave" unicode="&#xf9;" horiz-adv-x="532"
           d="M474 0 L347 0 L347 48 L345 48 Q339 40 330.5 30 Q322 20 306.5 10.5 Q291 1 267.5 -5.5 Q244 -12 209 -12 Q140 -12 99 31 Q58 74 58 173 L58 493 L192 493 L192 194 Q192 145 208 124.5 Q224 104 262 104 Q294 104 311.5 117 Q329 130 339 142 L339 493 L474 493 L474 0 Z M211 547 L82 685 L82 687 L228 687 L323 547 L211 547 Z "/>
    <glyph glyph-name="uhungarumlaut" unicode="&#x171;" horiz-adv-x="532"
           d="M474 0 L347 0 L347 48 L345 48 Q339 40 330.5 30 Q322 20 306.5 10.5 Q291 1 267.5 -5.5 Q244 -12 209 -12 Q140 -12 99 31 Q58 74 58 173 L58 493 L192 493 L192 194 Q192 145 208 124.5 Q224 104 262 104 Q294 104 311.5 117 Q329 130 339 142 L339 493 L474 493 L474 0 Z M333 685 L230 547 L146 547 L227 687 L333 687 L333 685 Z M487 685 L384 547 L299 547 L381 687 L487 687 L487 685 Z "/>
    <glyph glyph-name="umacron" unicode="&#x16b;" horiz-adv-x="532"
           d="M474 0 L347 0 L347 48 L345 48 Q339 40 330.5 30 Q322 20 306.5 10.5 Q291 1 267.5 -5.5 Q244 -12 209 -12 Q140 -12 99 31 Q58 74 58 173 L58 493 L192 493 L192 194 Q192 145 208 124.5 Q224 104 262 104 Q294 104 311.5 117 Q329 130 339 142 L339 493 L474 493 L474 0 Z M388 565 L145 565 L145 651 L388 651 L388 565 Z "/>
    <glyph glyph-name="uogonek" unicode="&#x173;" horiz-adv-x="532"
           d="M478 -195 Q470 -200 450.5 -206 Q431 -212 399 -212 Q348 -212 320 -187 Q292 -162 292 -118 Q292 -77 309.5 -46.5 Q327 -16 347 3 L347 48 L345 48 Q339 40 330.5 30 Q322 20 306.5 10.5 Q291 1 267.5 -5.5 Q244 -12 209 -12 Q140 -12 99 31 Q58 74 58 173 L58 493 L192 493 L192 194 Q192 145 208 124.5 Q224 104 262 104 Q294 104 311.5 117 Q329 130 339 142 L339 493 L474 493 L474 0 L437 0 Q427 -13 417 -34 Q407 -55 407 -81 Q407 -100 416.5 -108.5 Q426 -117 442 -117 Q457 -117 465.5 -115 Q474 -113 478 -111 L478 -195 Z "/>
    <glyph glyph-name="uring" unicode="&#x16f;" horiz-adv-x="532"
           d="M474 0 L347 0 L347 48 L345 48 Q339 40 330.5 30 Q322 20 306.5 10.5 Q291 1 267.5 -5.5 Q244 -12 209 -12 Q140 -12 99 31 Q58 74 58 173 L58 493 L192 493 L192 194 Q192 145 208 124.5 Q224 104 262 104 Q294 104 311.5 117 Q329 130 339 142 L339 493 L474 493 L474 0 Z M360 629 Q360 588 333.5 563.5 Q307 539 265 539 Q223 539 197 563.5 Q171 588 171 629 Q171 671 197 695 Q223 719 265 719 Q307 719 333.5 695 Q360 671 360 629 Z M298 629 Q298 646 288.5 655 Q279 664 265 664 Q251 664 241.5 655 Q232 646 232 629 Q232 612 241.5 603 Q251 594 265 594 Q279 594 288.5 603 Q298 612 298 629 Z "/>
    <glyph glyph-name="utilde" unicode="&#x169;" horiz-adv-x="532"
           d="M474 0 L347 0 L347 48 L345 48 Q339 40 330.5 30 Q322 20 306.5 10.5 Q291 1 267.5 -5.5 Q244 -12 209 -12 Q140 -12 99 31 Q58 74 58 173 L58 493 L192 493 L192 194 Q192 145 208 124.5 Q224 104 262 104 Q294 104 311.5 117 Q329 130 339 142 L339 493 L474 493 L474 0 Z M415 671 Q415 614 396.5 580.5 Q378 547 331 547 Q310 547 293 554 Q276 561 261 570 Q246 579 232.5 586 Q219 593 206 593 Q189 593 184 582.5 Q179 572 177 552 L116 552 Q116 610 134.5 643 Q153 676 199 676 Q220 676 237.5 669 Q255 662 270 653.5 Q285 645 298 638 Q311 631 325 631 Q341 631 347 641 Q353 651 354 671 L415 671 L415 671 Z "/>
    <glyph glyph-name="v" unicode="v" horiz-adv-x="496"
           d="M300 0 L196 0 L15 493 L156 493 L249 182 L251 182 L345 493 L481 493 L300 0 Z "/>
    <glyph glyph-name="w" unicode="w" horiz-adv-x="693"
           d="M554 0 L441 0 L347 313 L345 313 L252 0 L140 0 L21 493 L153 493 L206 206 L208 206 L293 493 L400 493 L485 206 L487 206 L540 493 L673 493 L554 0 Z "/>
    <glyph glyph-name="wacute" unicode="&#x1e83;" horiz-adv-x="693"
           d="M554 0 L441 0 L347 313 L345 313 L252 0 L140 0 L21 493 L153 493 L206 206 L208 206 L293 493 L400 493 L485 206 L487 206 L540 493 L673 493 L554 0 Z M530 685 L401 547 L289 547 L384 687 L530 687 L530 685 Z "/>
    <glyph glyph-name="wcircumflex" unicode="&#x175;" horiz-adv-x="693"
           d="M554 0 L441 0 L347 313 L345 313 L252 0 L140 0 L21 493 L153 493 L206 206 L208 206 L293 493 L400 493 L485 206 L487 206 L540 493 L673 493 L554 0 Z M406 545 L347 619 L345 619 L285 545 L196 545 L276 688 L415 688 L496 545 L406 545 Z "/>
    <glyph glyph-name="wdieresis" unicode="&#x1e85;" horiz-adv-x="693"
           d="M554 0 L441 0 L347 313 L345 313 L252 0 L140 0 L21 493 L153 493 L206 206 L208 206 L293 493 L400 493 L485 206 L487 206 L540 493 L673 493 L554 0 Z M264 681 Q291 681 306.5 664.5 Q322 648 322 620 L322 614 Q322 585 306.5 568.5 Q291 552 264 552 Q237 552 221 568.5 Q205 585 205 614 L205 620 Q205 648 221 664.5 Q237 681 264 681 Z M429 681 Q456 681 472 664.5 Q488 648 488 620 L488 614 Q488 585 472 568.5 Q456 552 429 552 Q402 552 386 568.5 Q370 585 370 614 L370 620 Q370 648 386 664.5 Q402 681 429 681 Z "/>
    <glyph glyph-name="wgrave" unicode="&#x1e81;" horiz-adv-x="693"
           d="M554 0 L441 0 L347 313 L345 313 L252 0 L140 0 L21 493 L153 493 L206 206 L208 206 L293 493 L400 493 L485 206 L487 206 L540 493 L673 493 L554 0 Z M291 547 L162 685 L162 687 L308 687 L403 547 L291 547 Z "/>
    <glyph glyph-name="x" unicode="x" horiz-adv-x="493"
           d="M316 256 L476 0 L330 0 L245 150 L243 150 L157 0 L18 0 L177 251 L27 493 L172 493 L248 357 L250 357 L327 493 L467 493 L316 256 Z "/>
    <glyph glyph-name="uni1E8B" unicode="&#x1e8b;" horiz-adv-x="493"
           d="M316 256 L476 0 L330 0 L245 150 L243 150 L157 0 L18 0 L177 251 L27 493 L172 493 L248 357 L250 357 L327 493 L467 493 L316 256 Z M250 696 Q282 696 301 678.5 Q320 661 320 629 L320 627 Q320 595 301 577.5 Q282 560 250 560 Q218 560 199 577.5 Q180 595 180 627 L180 629 Q180 661 199 678.5 Q218 696 250 696 Z "/>
    <glyph glyph-name="y" unicode="y" horiz-adv-x="529"
           d="M472 47 Q472 -88 414 -150 Q356 -212 231 -212 Q192 -212 162.5 -205 Q133 -198 111 -188 Q89 -178 74.5 -167 Q60 -156 50 -147 L97 -42 Q104 -49 115 -58.5 Q126 -68 141.5 -76.5 Q157 -85 177 -91 Q197 -97 222 -97 Q287 -97 312 -64.5 Q337 -32 337 36 L337 54 L335 54 Q330 48 322.5 38.5 Q315 29 300.5 19.5 Q286 10 263.5 3.5 Q241 -3 207 -3 Q137 -3 96 40 Q55 83 55 182 L55 493 L190 493 L190 201 Q190 152 206 131.5 Q222 111 260 111 Q292 111 309.5 124 Q327 137 337 149 L337 493 L472 493 L472 47 Z "/>
    <glyph glyph-name="yacute" unicode="&#xfd;" horiz-adv-x="529"
           d="M447 685 L318 547 L206 547 L301 687 L447 687 L447 685 Z M472 47 Q472 -88 414 -150 Q356 -212 231 -212 Q192 -212 162.5 -205 Q133 -198 111 -188 Q89 -178 74.5 -167 Q60 -156 50 -147 L97 -42 Q104 -49 115 -58.5 Q126 -68 141.5 -76.5 Q157 -85 177 -91 Q197 -97 222 -97 Q287 -97 312 -64.5 Q337 -32 337 36 L337 54 L335 54 Q330 48 322.5 38.5 Q315 29 300.5 19.5 Q286 10 263.5 3.5 Q241 -3 207 -3 Q137 -3 96 40 Q55 83 55 182 L55 493 L190 493 L190 201 Q190 152 206 131.5 Q222 111 260 111 Q292 111 309.5 124 Q327 137 337 149 L337 493 L472 493 L472 47 Z "/>
    <glyph glyph-name="ycircumflex" unicode="&#x177;" horiz-adv-x="529"
           d="M472 47 Q472 -88 414 -150 Q356 -212 231 -212 Q192 -212 162.5 -205 Q133 -198 111 -188 Q89 -178 74.5 -167 Q60 -156 50 -147 L97 -42 Q104 -49 115 -58.5 Q126 -68 141.5 -76.5 Q157 -85 177 -91 Q197 -97 222 -97 Q287 -97 312 -64.5 Q337 -32 337 36 L337 54 L335 54 Q330 48 322.5 38.5 Q315 29 300.5 19.5 Q286 10 263.5 3.5 Q241 -3 207 -3 Q137 -3 96 40 Q55 83 55 182 L55 493 L190 493 L190 201 Q190 152 206 131.5 Q222 111 260 111 Q292 111 309.5 124 Q327 137 337 149 L337 493 L472 493 L472 47 Z M323 545 L264 619 L262 619 L202 545 L113 545 L193 688 L332 688 L413 545 L323 545 Z "/>
    <glyph glyph-name="ydieresis" unicode="&#xff;" horiz-adv-x="529"
           d="M472 47 Q472 -88 414 -150 Q356 -212 231 -212 Q192 -212 162.5 -205 Q133 -198 111 -188 Q89 -178 74.5 -167 Q60 -156 50 -147 L97 -42 Q104 -49 115 -58.5 Q126 -68 141.5 -76.5 Q157 -85 177 -91 Q197 -97 222 -97 Q287 -97 312 -64.5 Q337 -32 337 36 L337 54 L335 54 Q330 48 322.5 38.5 Q315 29 300.5 19.5 Q286 10 263.5 3.5 Q241 -3 207 -3 Q137 -3 96 40 Q55 83 55 182 L55 493 L190 493 L190 201 Q190 152 206 131.5 Q222 111 260 111 Q292 111 309.5 124 Q327 137 337 149 L337 493 L472 493 L472 47 Z M181 681 Q208 681 223.5 664.5 Q239 648 239 620 L239 614 Q239 585 223.5 568.5 Q208 552 181 552 Q154 552 138 568.5 Q122 585 122 614 L122 620 Q122 648 138 664.5 Q154 681 181 681 Z M346 681 Q373 681 389 664.5 Q405 648 405 620 L405 614 Q405 585 389 568.5 Q373 552 346 552 Q319 552 303 568.5 Q287 585 287 614 L287 620 Q287 648 303 664.5 Q319 681 346 681 Z "/>
    <glyph glyph-name="ygrave" unicode="&#x1ef3;" horiz-adv-x="529"
           d="M208 547 L79 685 L79 687 L225 687 L320 547 L208 547 Z M472 47 Q472 -88 414 -150 Q356 -212 231 -212 Q192 -212 162.5 -205 Q133 -198 111 -188 Q89 -178 74.5 -167 Q60 -156 50 -147 L97 -42 Q104 -49 115 -58.5 Q126 -68 141.5 -76.5 Q157 -85 177 -91 Q197 -97 222 -97 Q287 -97 312 -64.5 Q337 -32 337 36 L337 54 L335 54 Q330 48 322.5 38.5 Q315 29 300.5 19.5 Q286 10 263.5 3.5 Q241 -3 207 -3 Q137 -3 96 40 Q55 83 55 182 L55 493 L190 493 L190 201 Q190 152 206 131.5 Q222 111 260 111 Q292 111 309.5 124 Q327 137 337 149 L337 493 L472 493 L472 47 Z "/>
    <glyph glyph-name="z" unicode="z" horiz-adv-x="455"
           d="M413 409 L219 115 L219 113 L423 113 L423 0 L36 0 L36 83 L240 379 L240 381 L50 381 L50 493 L413 493 L413 409 Z "/>
    <glyph glyph-name="zacute" unicode="&#x17a;" horiz-adv-x="455"
           d="M413 409 L219 115 L219 113 L423 113 L423 0 L36 0 L36 83 L240 379 L240 381 L50 381 L50 493 L413 493 L413 409 Z M416 685 L287 547 L175 547 L270 687 L416 687 L416 685 Z "/>
    <glyph glyph-name="zcaron" unicode="&#x17e;" horiz-adv-x="455"
           d="M413 409 L219 115 L219 113 L423 113 L423 0 L36 0 L36 83 L240 379 L240 381 L50 381 L50 493 L413 493 L413 409 Z M301 548 L162 548 L82 689 L171 689 L231 616 L233 616 L292 689 L382 689 L301 548 Z "/>
    <glyph glyph-name="zdotaccent" unicode="&#x17c;" horiz-adv-x="455"
           d="M413 409 L219 115 L219 113 L423 113 L423 0 L36 0 L36 83 L240 379 L240 381 L50 381 L50 493 L413 493 L413 409 Z M232 696 Q264 696 283 678.5 Q302 661 302 629 L302 627 Q302 595 283 577.5 Q264 560 232 560 Q200 560 181 577.5 Q162 595 162 627 L162 629 Q162 661 181 678.5 Q200 696 232 696 Z "/>
    <glyph glyph-name="uni01B6" unicode="&#x1b6;" horiz-adv-x="455"
           d="M413 409 L324 283 L394 283 L394 223 L282 223 L206 115 L206 113 L423 113 L423 0 L36 0 L36 83 L138 223 L70 223 L70 283 L182 283 L252 379 L252 381 L50 381 L50 493 L413 493 L413 409 Z "/>
    <glyph glyph-name="acute" unicode="&#xb4;" horiz-adv-x="324"
           d="M285 685 L156 547 L44 547 L139 687 L285 687 L285 685 Z "/>
    <glyph glyph-name="breve" unicode="&#x2d8;" horiz-adv-x="349"
           d="M304 678 Q303 650 295.5 625.5 Q288 601 272.5 583 Q257 565 232.5 554.5 Q208 544 174 544 Q140 544 116 554.5 Q92 565 76 583 Q60 601 52.5 625.5 Q45 650 44 678 L121 678 Q124 625 174 625 Q225 625 228 678 L304 678 L304 678 Z "/>
    <glyph glyph-name="caron" unicode="&#x2c7;" horiz-adv-x="385"
           d="M262 548 L123 548 L43 689 L132 689 L192 616 L194 616 L253 689 L343 689 L262 548 Z "/>
    <glyph glyph-name="cedilla" unicode="&#xb8;" horiz-adv-x="279"
           d="M235 -123 Q235 -165 204 -187.5 Q173 -210 117 -210 Q91 -210 74 -205 Q57 -200 47 -195 L47 -138 Q54 -143 67.5 -146 Q81 -149 98 -149 Q140 -149 140 -121 Q140 -104 124 -94 Q108 -84 66 -84 L63 -81 L108 9 L180 9 L151 -50 Q194 -52 214.5 -72.5 Q235 -93 235 -123 Z "/>
    <glyph glyph-name="circumflex" unicode="&#x2c6;" horiz-adv-x="385"
           d="M253 545 L194 619 L192 619 L132 545 L43 545 L123 688 L262 688 L343 545 L253 545 Z "/>
    <glyph glyph-name="commaaccent" unicode="&#xf6c3;" horiz-adv-x="215"
           d="M176 -122 Q176 -154 166.5 -176 Q157 -198 140.5 -212.5 Q124 -227 102.5 -235 Q81 -243 58 -247 L49 -208 Q71 -201 90 -188 Q109 -175 112 -146 L109 -146 Q83 -146 68.5 -132 Q54 -118 54 -94 Q54 -68 69.5 -54.5 Q85 -41 108 -41 Q138 -41 157 -61.5 Q176 -82 176 -122 Z "/>
    <glyph glyph-name="dieresis" unicode="&#xa8;" horiz-adv-x="362"
           d="M99 681 Q126 681 141.5 664.5 Q157 648 157 620 L157 614 Q157 585 141.5 568.5 Q126 552 99 552 Q72 552 56 568.5 Q40 585 40 614 L40 620 Q40 648 56 664.5 Q72 681 99 681 Z M264 681 Q291 681 307 664.5 Q323 648 323 620 L323 614 Q323 585 307 568.5 Q291 552 264 552 Q237 552 221 568.5 Q205 585 205 614 L205 620 Q205 648 221 664.5 Q237 681 264 681 Z "/>
    <glyph glyph-name="dotaccent" unicode="&#x2d9;" horiz-adv-x="224"
           d="M112 696 Q144 696 163 678.5 Q182 661 182 629 L182 627 Q182 595 163 577.5 Q144 560 112 560 Q80 560 61 577.5 Q42 595 42 627 L42 629 Q42 661 61 678.5 Q80 696 112 696 Z "/>
    <glyph glyph-name="grave" unicode="&#x60;" horiz-adv-x="324"
           d="M167 547 L38 685 L38 687 L184 687 L279 547 L167 547 Z "/>
    <glyph glyph-name="hungarumlaut" unicode="&#x2dd;" horiz-adv-x="418"
           d="M227 685 L124 547 L40 547 L121 687 L227 687 L227 685 Z M381 685 L278 547 L193 547 L275 687 L381 687 L381 685 Z "/>
    <glyph glyph-name="macron" unicode="&#xaf;" horiz-adv-x="330" d="M287 565 L44 565 L44 651 L287 651 L287 565 Z "/>
    <glyph glyph-name="ogonek" unicode="&#x2db;" horiz-adv-x="281"
           d="M233 -195 Q225 -200 205.5 -206 Q186 -212 154 -212 Q103 -212 75 -187 Q47 -162 47 -118 Q47 -87 58.5 -61.5 Q70 -36 85 -17 Q100 2 114.5 14.5 Q129 27 135 32 L202 11 Q197 6 190.5 -3 Q184 -12 177.5 -24 Q171 -36 166.5 -50.5 Q162 -65 162 -81 Q162 -100 171.5 -108.5 Q181 -117 197 -117 Q212 -117 220.5 -115 Q229 -113 233 -111 L233 -195 Z "/>
    <glyph glyph-name="ring" unicode="&#x2da;" horiz-adv-x="277"
           d="M233 629 Q233 588 206.5 563.5 Q180 539 138 539 Q96 539 70 563.5 Q44 588 44 629 Q44 671 70 695 Q96 719 138 719 Q180 719 206.5 695 Q233 671 233 629 Z M171 629 Q171 646 161.5 655 Q152 664 138 664 Q124 664 114.5 655 Q105 646 105 629 Q105 612 114.5 603 Q124 594 138 594 Q152 594 161.5 603 Q171 612 171 629 Z "/>
    <glyph glyph-name="tilde" unicode="&#x2dc;" horiz-adv-x="389"
           d="M344 671 Q344 614 325.5 580.5 Q307 547 260 547 Q239 547 222 554 Q205 561 190 570 Q175 579 161.5 586 Q148 593 135 593 Q118 593 113 582.5 Q108 572 106 552 L45 552 Q45 610 63.5 643 Q82 676 128 676 Q149 676 166.5 669 Q184 662 199 653.5 Q214 645 227 638 Q240 631 254 631 Q270 631 276 641 Q282 651 283 671 L344 671 L344 671 Z "/>
    <glyph glyph-name="bar" unicode="&#x7c;" horiz-adv-x="265" d="M187 -120 L78 -120 L78 710 L187 710 L187 -120 Z "/>
    <glyph glyph-name="brokenbar" unicode="&#xa6;" horiz-adv-x="265"
           d="M187 343 L78 343 L78 710 L187 710 L187 343 Z M187 -120 L78 -120 L78 247 L187 247 L187 -120 Z "/>
    <glyph glyph-name="slash" unicode="&#x2f;" horiz-adv-x="409" d="M106 -120 L-9 -120 L281 710 L396 710 L106 -120 Z "/>
    <glyph glyph-name="backslash" unicode="&#x5c;" horiz-adv-x="409"
           d="M12 710 L127 710 L417 -120 L302 -120 L12 710 Z "/>
    <glyph glyph-name="comma" unicode="&#x2c;" horiz-adv-x="259"
           d="M213 40 Q213 -3 200.5 -35.5 Q188 -68 168 -91.5 Q148 -115 121.5 -130 Q95 -145 67 -153 L42 -100 Q75 -85 99.5 -63 Q124 -41 130 0 L129 0 Q94 0 73 21.5 Q52 43 52 78 Q52 116 74 134.5 Q96 153 125 153 Q160 153 186.5 125 Q213 97 213 40 Z "/>
    <glyph glyph-name="period" unicode="&#x2e;" horiz-adv-x="259"
           d="M129 153 Q164 153 184.5 131.5 Q205 110 205 74 L205 70 Q205 34 184.5 12 Q164 -10 129 -10 Q94 -10 74 12 Q54 34 54 70 L54 74 Q54 110 74 131.5 Q94 153 129 153 Z "/>
    <glyph glyph-name="semicolon" unicode="&#x3b;" horiz-adv-x="259"
           d="M213 40 Q213 -3 200.5 -35.5 Q188 -68 168 -91.5 Q148 -115 121.5 -130 Q95 -145 67 -153 L42 -100 Q75 -85 99.5 -63 Q124 -41 130 0 L129 0 Q94 0 73 21.5 Q52 43 52 78 Q52 116 74 134.5 Q96 153 125 153 Q160 153 186.5 125 Q213 97 213 40 Z M127 501 Q162 501 182.5 479.5 Q203 458 203 422 L203 418 Q203 382 182.5 360 Q162 338 127 338 Q92 338 72 360 Q52 382 52 418 L52 422 Q52 458 72 479.5 Q92 501 127 501 Z "/>
    <glyph glyph-name="colon" unicode="&#x3a;" horiz-adv-x="259"
           d="M129 501 Q164 501 184.5 479.5 Q205 458 205 422 L205 418 Q205 382 184.5 360 Q164 338 129 338 Q94 338 74 360 Q54 382 54 418 L54 422 Q54 458 74 479.5 Q94 501 129 501 Z M129 153 Q164 153 184.5 131.5 Q205 110 205 74 L205 70 Q205 34 184.5 12 Q164 -10 129 -10 Q94 -10 74 12 Q54 34 54 70 L54 74 Q54 110 74 131.5 Q94 153 129 153 Z "/>
    <glyph glyph-name="uni2008" unicode="&#x2008;" horiz-adv-x="259" d=""/>
    <glyph glyph-name="periodcentered" unicode="&#xb7;" horiz-adv-x="259"
           d="M129 392 Q164 392 184.5 370.5 Q205 349 205 313 L205 309 Q205 273 184.5 251 Q164 229 129 229 Q94 229 74 251 Q54 273 54 309 L54 313 Q54 349 74 370.5 Q94 392 129 392 Z "/>
    <glyph glyph-name="dotmath" unicode="&#x22c5;" horiz-adv-x="259"
           d="M129 396 Q164 396 184.5 374.5 Q205 353 205 317 L205 313 Q205 277 184.5 255 Q164 233 129 233 Q94 233 74 255 Q54 277 54 313 L54 317 Q54 353 74 374.5 Q94 396 129 396 Z "/>
    <glyph glyph-name="ellipsis" unicode="&#x2026;" horiz-adv-x="861"
           d="M153 150 Q187 150 207.5 129 Q228 108 228 72 L228 68 Q228 33 207.5 11.5 Q187 -10 153 -10 Q118 -10 98 11.5 Q78 33 78 68 L78 72 Q78 108 98 129 Q118 150 153 150 Z M431 150 Q465 150 485.5 129 Q506 108 506 72 L506 68 Q506 33 485.5 11.5 Q465 -10 431 -10 Q396 -10 376 11.5 Q356 33 356 68 L356 72 Q356 108 376 129 Q396 150 431 150 Z M709 150 Q744 150 764 129 Q784 108 784 72 L784 68 Q784 33 764 11.5 Q744 -10 709 -10 Q675 -10 654.5 11.5 Q634 33 634 68 L634 72 Q634 108 654.5 129 Q675 150 709 150 Z "/>
    <glyph glyph-name="exclam" unicode="&#x21;" horiz-adv-x="290"
           d="M213 198 L90 198 L76 690 L227 690 L213 198 Z M152 150 Q187 150 207.5 129 Q228 108 228 72 L228 68 Q228 32 207.5 11 Q187 -10 152 -10 Q117 -10 96 11 Q75 32 75 68 L75 72 Q75 108 96 129 Q117 150 152 150 Z "/>
    <glyph glyph-name="exclamdown" unicode="&#xa1;" horiz-adv-x="290"
           d="M76 294 L199 294 L213 -198 L62 -198 L76 294 Z M137 342 Q102 342 81.5 363 Q61 384 61 420 L61 424 Q61 460 81.5 481 Q102 502 137 502 Q172 502 193 481 Q214 460 214 424 L214 420 Q214 384 193 363 Q172 342 137 342 Z "/>
    <glyph glyph-name="question" unicode="&#x3f;" horiz-adv-x="400"
           d="M381 535 Q381 495 369.5 467 Q358 439 341.5 417.5 Q325 396 305 380 Q285 364 268.5 348.5 Q252 333 240.5 315.5 Q229 298 229 275 Q229 249 237.5 230 Q246 211 254 200 L254 198 L130 198 Q119 212 107 234.5 Q95 257 95 295 Q95 320 105.5 339.5 Q116 359 132 376 Q148 393 166.5 408.5 Q185 424 201 440 Q217 456 227.5 474 Q238 492 238 514 Q238 547 219.5 566 Q201 585 164 585 Q126 585 102 572 Q78 559 66 547 L18 642 Q27 650 42.5 660.5 Q58 671 80 680 Q102 689 131.5 695.5 Q161 702 199 702 Q284 702 332.5 659 Q381 616 381 535 Z M190 150 Q225 150 245.5 129 Q266 108 266 72 L266 68 Q266 32 245.5 11 Q225 -10 190 -10 Q155 -10 134 11 Q113 32 113 68 L113 72 Q113 108 134 129 Q155 150 190 150 Z "/>
    <glyph glyph-name="questiondown" unicode="&#xbf;" horiz-adv-x="391"
           d="M19 -43 Q19 -3 30.5 25 Q42 53 58.5 74.5 Q75 96 95 112 Q115 128 131.5 143.5 Q148 159 159.5 176.5 Q171 194 171 217 Q171 243 162.5 262 Q154 281 146 292 L146 294 L270 294 Q281 280 293 257.5 Q305 235 305 197 Q305 172 294.5 152.5 Q284 133 268 116 Q252 99 233.5 83.5 Q215 68 199 52 Q183 36 172.5 18 Q162 0 162 -22 Q162 -55 180.5 -74 Q199 -93 236 -93 Q274 -93 298 -80 Q322 -67 334 -55 L382 -150 Q373 -158 357.5 -168.5 Q342 -179 320 -188 Q298 -197 268 -203.5 Q238 -210 201 -210 Q116 -210 67.5 -167 Q19 -124 19 -43 Z M210 342 Q175 342 154.5 363 Q134 384 134 420 L134 424 Q134 460 154.5 481 Q175 502 210 502 Q245 502 266 481 Q287 460 287 424 L287 420 Q287 384 266 363 Q245 342 210 342 Z "/>
    <glyph glyph-name="ampersand" unicode="&#x26;" horiz-adv-x="608"
           d="M47 163 Q47 203 60 234 Q73 265 94 289 Q115 313 142 331 Q169 349 198 363 Q180 401 169.5 439 Q159 477 159 522 Q159 565 174 598.5 Q189 632 214.5 655 Q240 678 275 690 Q310 702 350 702 Q391 702 422 690 Q453 678 474 656 Q495 634 505.5 604.5 Q516 575 516 540 Q516 499 502.5 466.5 Q489 434 467 408.5 Q445 383 416.5 363.5 Q388 344 357 329 L383 292 L585 0 L429 0 L263 255 Q258 262 254 268 Q250 274 246 281 Q217 264 196.5 241 Q176 218 176 178 Q176 134 198 113 Q220 92 260 92 Q283 92 298.5 96 Q314 100 320 102 L336 4 Q325 -1 300.5 -6.5 Q276 -12 239 -12 Q196 -12 160.5 -2 Q125 8 100 29 Q75 50 61 83 Q47 116 47 163 Z M284 528 Q284 498 290.5 469.5 Q297 441 311 411 Q349 432 373.5 460 Q398 488 398 533 Q398 565 383.5 582 Q369 599 344 599 Q318 599 301 581 Q284 563 284 528 Z "/>
    <glyph glyph-name="at" unicode="&#x40;" horiz-adv-x="827"
           d="M791 359 Q791 284 774.5 224 Q758 164 729 122.5 Q700 81 660 59 Q620 37 572 37 Q536 37 513.5 50.5 Q491 64 480 88 Q463 71 437 54 Q411 37 366 37 Q312 37 279.5 74.5 Q247 112 247 187 Q247 244 262 290.5 Q277 337 301.5 370 Q326 403 359 421 Q392 439 428 439 Q448 439 461.5 434 Q475 429 484 422 Q493 415 498.5 407 Q504 399 507 394 L509 394 L515 430 L615 430 L585 238 Q580 212 578.5 193 Q577 174 577 163 Q577 144 581 134.5 Q585 125 599 125 Q616 125 632 142.5 Q648 160 660 190.5 Q672 221 679 262.5 Q686 304 686 352 Q686 545 491 545 Q423 545 363.5 519 Q304 493 260 443.5 Q216 394 191 321 Q166 248 166 155 Q166 40 223 -14.5 Q280 -69 380 -69 Q418 -69 450.5 -64 Q483 -59 508 -51.5 Q533 -44 550.5 -37 Q568 -30 577 -25 L595 -110 Q586 -116 567.5 -125 Q549 -134 521 -143 Q493 -152 454.5 -158.5 Q416 -165 366 -165 Q301 -165 245 -146 Q189 -127 147 -88.5 Q105 -50 81 8.5 Q57 67 57 147 Q57 270 94 362.5 Q131 455 193 517 Q255 579 335 610 Q415 641 502 641 Q565 641 618.5 623.5 Q672 606 710 571 Q748 536 769.5 483 Q791 430 791 359 Z M406 127 Q429 127 443.5 137 Q458 147 468 158 Q468 172 470 188.5 Q472 205 475 221 L491 322 Q488 329 478.5 339 Q469 349 447 349 Q410 349 383.5 307.5 Q357 266 357 194 Q357 127 406 127 Z "/>
    <glyph glyph-name="asterisk" unicode="&#x2a;" horiz-adv-x="439"
           d="M184 554 L175 694 L264 694 L254 555 L370 632 L415 555 L290 493 L415 432 L370 355 L254 431 L264 293 L175 293 L184 432 L68 355 L23 432 L147 493 L23 555 L68 632 L184 554 Z "/>
    <glyph glyph-name="section" unicode="&#xa7;" horiz-adv-x="493"
           d="M40 320 Q40 368 61.5 399 Q83 430 117 450 Q86 490 86 550 Q86 584 98.5 612.5 Q111 641 134 660.5 Q157 680 188.5 691 Q220 702 259 702 Q287 702 308.5 697 Q330 692 346.5 685.5 Q363 679 375 671 Q387 663 395 657 L353 565 Q340 575 316.5 587 Q293 599 263 599 Q237 599 221 587.5 Q205 576 205 554 Q205 530 220.5 515.5 Q236 501 266 488 L336 459 Q395 434 424.5 397 Q454 360 454 304 Q454 257 433 225.5 Q412 194 380 174 Q410 133 410 77 Q410 3 361 -40.5 Q312 -84 232 -84 Q199 -84 173.5 -78.5 Q148 -73 129.5 -64.5 Q111 -56 97.5 -46 Q84 -36 74 -27 L117 68 Q124 61 134 53 Q144 45 157 37.5 Q170 30 186 25 Q202 20 222 20 Q288 20 288 67 Q288 93 271.5 108.5 Q255 124 224 138 L157 169 Q103 193 71.5 229 Q40 265 40 320 Z M213 382 Q206 384 200 387 Q194 390 188 393 Q174 384 165.5 371.5 Q157 359 157 342 Q157 316 172 301 Q187 286 219 272 L281 245 L309 231 Q339 252 339 280 Q339 307 325 323.5 Q311 340 276 356 L213 382 Z "/>
    <glyph glyph-name="dagger" unicode="&#x2020;" horiz-adv-x="428"
           d="M399 435 L269 435 L269 -72 L160 -72 L160 435 L30 435 L30 529 L160 529 L160 690 L269 690 L269 529 L399 529 L399 435 Z "/>
    <glyph glyph-name="daggerdbl" unicode="&#x2021;" horiz-adv-x="444"
           d="M406 435 L276 435 L276 298 L391 298 L391 203 L276 203 L276 -72 L167 -72 L167 203 L52 203 L52 298 L167 298 L167 435 L38 435 L38 529 L167 529 L167 690 L276 690 L276 529 L406 529 L406 435 Z "/>
    <glyph glyph-name="paragraph" unicode="&#xb6;" horiz-adv-x="555"
           d="M487 0 L386 0 L386 690 L487 690 L487 0 Z M328 0 L226 0 L226 345 L212 345 Q174 345 141.5 355.5 Q109 366 84.5 387.5 Q60 409 46 441.5 Q32 474 32 517 Q32 560 47.5 592.5 Q63 625 89 646.5 Q115 668 150.5 679 Q186 690 227 690 L328 690 L328 0 Z "/>
    <glyph glyph-name="copyright" unicode="&#xa9;" horiz-adv-x="766"
           d="M728 345 Q728 265 703 199.5 Q678 134 632 87 Q586 40 522.5 14 Q459 -12 383 -12 Q306 -12 243 14 Q180 40 134 87 Q88 134 63 199.5 Q38 265 38 345 Q38 425 63 490.5 Q88 556 134 603 Q180 650 243 676 Q306 702 383 702 Q459 702 522.5 676 Q586 650 632 603 Q678 556 703 490.5 Q728 425 728 345 Z M643 345 Q643 406 624.5 456.5 Q606 507 572 543.5 Q538 580 490 600.5 Q442 621 383 621 Q324 621 276 600.5 Q228 580 194 543.5 Q160 507 141.5 456.5 Q123 406 123 345 Q123 284 141.5 233.5 Q160 183 194 146.5 Q228 110 276 89.5 Q324 69 383 69 Q442 69 490 89.5 Q538 110 572 146.5 Q606 183 624.5 233.5 Q643 284 643 345 Z M203 347 Q203 399 220 437 Q237 475 265 500 Q293 525 327.5 536.5 Q362 548 397 548 Q425 548 446.5 543.5 Q468 539 483 532 Q498 525 507.5 518 Q517 511 523 506 L487 434 Q478 442 460 451.5 Q442 461 410 461 Q389 461 369.5 454.5 Q350 448 335 434.5 Q320 421 311 399 Q302 377 302 347 Q302 316 310 294.5 Q318 273 332.5 259.5 Q347 246 366 239.5 Q385 233 406 233 Q437 233 456 241.5 Q475 250 484 258 L517 189 Q510 183 500 176 Q490 169 475 162.5 Q460 156 438.5 151.5 Q417 147 389 147 Q354 147 320.5 158 Q287 169 261 193 Q235 217 219 255 Q203 293 203 347 Z "/>
    <glyph glyph-name="uni2117" unicode="&#x2117;" horiz-adv-x="766"
           d="M728 345 Q728 265 703 199.5 Q678 134 632 87 Q586 40 522.5 14 Q459 -12 383 -12 Q306 -12 243 14 Q180 40 134 87 Q88 134 63 199.5 Q38 265 38 345 Q38 425 63 490.5 Q88 556 134 603 Q180 650 243 676 Q306 702 383 702 Q459 702 522.5 676 Q586 650 632 603 Q678 556 703 490.5 Q728 425 728 345 Z M643 345 Q643 406 624.5 456.5 Q606 507 572 543.5 Q538 580 490 600.5 Q442 621 383 621 Q324 621 276 600.5 Q228 580 194 543.5 Q160 507 141.5 456.5 Q123 406 123 345 Q123 284 141.5 233.5 Q160 183 194 146.5 Q228 110 276 89.5 Q324 69 383 69 Q442 69 490 89.5 Q538 110 572 146.5 Q606 183 624.5 233.5 Q643 284 643 345 Z M553 405 Q553 336 509 295.5 Q465 255 385 255 L361 255 L361 151 L263 151 L263 540 L386 540 Q471 540 512 504 Q553 468 553 405 Z M457 397 Q457 423 440 439.5 Q423 456 385 456 L361 456 L361 334 L385 334 Q423 334 440 352 Q457 370 457 397 Z "/>
    <glyph glyph-name="registered" unicode="&#xae;" horiz-adv-x="491"
           d="M462 474 Q462 422 446 380.5 Q430 339 401 310.5 Q372 282 332.5 267 Q293 252 246 252 Q199 252 159 267 Q119 282 90.5 310.5 Q62 339 46 380.5 Q30 422 30 474 Q30 526 46 567.5 Q62 609 90.5 637.5 Q119 666 159 681 Q199 696 246 696 Q293 696 332.5 681 Q372 666 401 637.5 Q430 609 446 567.5 Q462 526 462 474 Z M401 474 Q401 556 358 598 Q315 640 246 640 Q177 640 133.5 598 Q90 556 90 474 Q90 392 133.5 350 Q177 308 246 308 Q315 308 358 350 Q401 392 401 474 Z M279 371 L247 442 L237 442 L223 442 L223 371 L166 371 L166 587 L239 587 Q285 587 309.5 569 Q334 551 334 516 Q334 474 300 455 L345 371 L279 371 Z M277 512 Q277 542 237 542 L223 542 L223 482 L237 482 Q277 482 277 512 Z "/>
    <glyph glyph-name="servicemark" unicode="&#x2120;" horiz-adv-x="863"
           d="M277 586 Q267 593 248 603.5 Q229 614 200 614 Q147 614 147 580 Q147 562 163 551 Q179 540 215 526 Q269 505 298 476.5 Q327 448 327 396 Q327 370 317 347 Q307 324 287.5 307 Q268 290 239 279.5 Q210 269 171 269 Q144 269 122.5 274.5 Q101 280 84 287.5 Q67 295 55 303.5 Q43 312 37 319 L79 393 Q90 381 112.5 367 Q135 353 168 353 Q225 353 225 390 Q225 409 210.5 420.5 Q196 432 158 448 Q134 458 113.5 469 Q93 480 78 495 Q63 510 54.5 529.5 Q46 549 46 575 Q46 603 57.5 625.5 Q69 648 89 664 Q109 680 137 688.5 Q165 697 198 697 Q247 697 275 683 Q303 669 316 659 L277 586 Z M811 276 L717 276 L717 504 L715 504 L635 276 L563 276 L483 504 L481 504 L481 276 L387 276 L387 690 L495 690 L599 409 L601 409 L705 690 L811 690 L811 276 Z "/>
    <glyph glyph-name="trademark" unicode="&#x2122;" horiz-adv-x="885"
           d="M365 608 L242 608 L242 276 L146 276 L146 608 L23 608 L23 690 L365 690 L365 608 Z M833 276 L740 276 L740 504 L738 504 L656 276 L586 276 L504 504 L502 504 L502 276 L409 276 L409 690 L516 690 L621 409 L623 409 L727 690 L833 690 L833 276 Z "/>
    <glyph glyph-name="ordfeminine" unicode="&#xaa;" horiz-adv-x="344"
           d="M36 453 Q36 504 73 530.5 Q110 557 172 557 Q176 557 181 556.5 Q186 556 191 556 L202 556 L202 561 Q202 591 190 604.5 Q178 618 151 618 Q122 618 105 606.5 Q88 595 79 586 L40 643 Q46 650 56.5 659.5 Q67 669 82 677.5 Q97 686 117 691.5 Q137 697 164 697 Q234 697 266 660.5 Q298 624 298 558 L298 368 L206 368 L206 399 L204 399 Q201 394 195 387.5 Q189 381 180 375 Q171 369 158 364.5 Q145 360 126 360 Q83 360 59.5 384.5 Q36 409 36 453 Z M127 466 Q127 433 159 433 Q179 433 188 439 Q197 445 202 450 L202 501 L196 501 Q193 501 189.5 501.5 Q186 502 182 502 Q127 502 127 466 Z "/>
    <glyph glyph-name="ordmasculine" unicode="&#xba;" horiz-adv-x="365"
           d="M333 527 Q333 482 320 450 Q307 418 286 398 Q265 378 238 368.5 Q211 359 183 359 Q154 359 126.5 368.5 Q99 378 78 398 Q57 418 44 450 Q31 482 31 527 Q31 572 44 604 Q57 636 78 656.5 Q99 677 126.5 686.5 Q154 696 183 696 Q211 696 238 686.5 Q265 677 286 656.5 Q307 636 320 604 Q333 572 333 527 Z M233 527 Q233 574 218.5 593.5 Q204 613 183 613 Q161 613 146.5 593.5 Q132 574 132 527 Q132 480 146.5 460.5 Q161 441 183 441 Q204 441 218.5 460.5 Q233 480 233 527 Z "/>
    <glyph glyph-name="bullet" unicode="&#x2022;" horiz-adv-x="424"
           d="M375 306 Q375 270 363.5 240 Q352 210 330.5 188.5 Q309 167 279 155 Q249 143 212 143 Q175 143 145 155 Q115 167 93.5 188.5 Q72 210 60.5 240 Q49 270 49 306 Q49 342 60.5 372 Q72 402 93.5 423 Q115 444 145 456 Q175 468 212 468 Q249 468 279 456 Q309 444 330.5 423 Q352 402 363.5 372 Q375 342 375 306 Z "/>
    <glyph glyph-name="uni2219" unicode="&#x2219;" horiz-adv-x="424"
           d="M375 306 Q375 270 363.5 240 Q352 210 330.5 188.5 Q309 167 279 155 Q249 143 212 143 Q175 143 145 155 Q115 167 93.5 188.5 Q72 210 60.5 240 Q49 270 49 306 Q49 342 60.5 372 Q72 402 93.5 423 Q115 444 145 456 Q175 468 212 468 Q249 468 279 456 Q309 444 330.5 423 Q352 402 363.5 372 Q375 342 375 306 Z "/>
    <glyph glyph-name="quotesinglbase" unicode="&#x201a;" horiz-adv-x="225"
           d="M187 33 Q187 -8 175 -38 Q163 -68 143 -88.5 Q123 -109 98 -121.5 Q73 -134 46 -140 L30 -92 Q44 -87 57.5 -80 Q71 -73 82 -62.5 Q93 -52 100.5 -36.5 Q108 -21 111 0 Q81 1 63.5 19.5 Q46 38 46 69 Q46 100 63.5 117.5 Q81 135 109 135 Q140 135 163.5 110.5 Q187 86 187 33 Z "/>
    <glyph glyph-name="quoteleft" unicode="&#x2018;" horiz-adv-x="225"
           d="M39 528 Q39 569 51 599 Q63 629 83 649.5 Q103 670 128 682.5 Q153 695 180 701 L196 653 Q167 643 143.5 623.5 Q120 604 115 561 Q145 559 162.5 541 Q180 523 180 492 Q180 461 162.5 443.5 Q145 426 117 426 Q86 426 62.5 450.5 Q39 475 39 528 Z "/>
    <glyph glyph-name="uni02BB" unicode="&#x2bb;" horiz-adv-x="225"
           d="M39.0114 528.002 Q39.0114 569 51.0107 598.998 Q63.0099 628.996 83.0087 649.495 Q103.008 669.993 128.006 682.493 Q153.004 694.992 180.003 700.991 L196.002 652.994 Q182.003 647.995 168.504 640.995 Q155.004 633.996 144.005 623.496 Q133.006 612.997 125.506 597.498 Q118.007 581.999 115.007 561 Q145.005 560 162.504 541.501 Q180.003 523.002 180.003 492.004 Q180.003 461.006 162.504 443.507 Q145.005 426.008 117.007 426.008 Q86.0085 426.008 62.51 450.507 Q39.0114 475.005 39.0114 528.002 Z "/>
    <glyph glyph-name="quoteright" unicode="&#x2019;" horiz-adv-x="225"
           d="M186 594 Q186 553 174 523 Q162 493 142 472.5 Q122 452 97 439.5 Q72 427 45 421 L29 469 Q43 474 56.5 481 Q70 488 81 498.5 Q92 509 99.5 524.5 Q107 540 110 561 Q80 562 62.5 580.5 Q45 599 45 630 Q45 661 62.5 678.5 Q80 696 108 696 Q139 696 162.5 671.5 Q186 647 186 594 Z "/>
    <glyph glyph-name="afii57929" unicode="&#x2bc;" horiz-adv-x="225"
           d="M187 594 Q187 553 175 523 Q163 493 143 472.5 Q123 452 98 439.5 Q73 427 46 421 L30 469 Q44 474 57.5 481 Q71 488 82 498.5 Q93 509 100.5 524.5 Q108 540 111 561 Q81 562 63.5 580.5 Q46 599 46 630 Q46 661 63.5 678.5 Q81 696 109 696 Q140 696 163.5 671.5 Q187 647 187 594 Z "/>
    <glyph glyph-name="quotedblbase" unicode="&#x201e;" horiz-adv-x="408"
           d="M187 33 Q187 -8 175 -38 Q163 -68 143 -88.5 Q123 -109 98 -121.5 Q73 -134 46 -140 L30 -92 Q44 -87 57.5 -80 Q71 -73 82 -62.5 Q93 -52 100.5 -36.5 Q108 -21 111 0 Q81 1 63.5 19.5 Q46 38 46 69 Q46 100 63.5 117.5 Q81 135 109 135 Q140 135 163.5 110.5 Q187 86 187 33 Z M369 33 Q369 -8 357 -38 Q345 -68 325 -88.5 Q305 -109 280 -121.5 Q255 -134 228 -140 L212 -92 Q226 -87 239.5 -80 Q253 -73 264 -62.5 Q275 -52 282.5 -36.5 Q290 -21 293 0 Q263 1 245.5 19.5 Q228 38 228 69 Q228 100 245.5 117.5 Q263 135 291 135 Q322 135 345.5 110.5 Q369 86 369 33 Z "/>
    <glyph glyph-name="quotedblleft" unicode="&#x201c;" horiz-adv-x="408"
           d="M39 528 Q39 569 51 599 Q63 629 83 649.5 Q103 670 128 682.5 Q153 695 180 701 L196 653 Q167 643 143.5 623.5 Q120 604 115 561 Q145 559 162.5 541 Q180 523 180 492 Q180 461 162.5 443.5 Q145 426 117 426 Q86 426 62.5 450.5 Q39 475 39 528 Z M222 528 Q222 569 234 599 Q246 629 266 649.5 Q286 670 311 682.5 Q336 695 363 701 L379 653 Q350 643 326.5 623.5 Q303 604 298 561 Q328 559 345.5 541 Q363 523 363 492 Q363 461 345.5 443.5 Q328 426 300 426 Q269 426 245.5 450.5 Q222 475 222 528 Z "/>
    <glyph glyph-name="quotedblright" unicode="&#x201d;" horiz-adv-x="408"
           d="M187 594 Q187 553 175 523 Q163 493 143 472.5 Q123 452 98 439.5 Q73 427 46 421 L30 469 Q44 474 57.5 481 Q71 488 82 498.5 Q93 509 100.5 524.5 Q108 540 111 561 Q81 562 63.5 580.5 Q46 599 46 630 Q46 661 63.5 678.5 Q81 696 109 696 Q140 696 163.5 671.5 Q187 647 187 594 Z M368 594 Q368 553 356 523 Q344 493 324 472.5 Q304 452 279 439.5 Q254 427 227 421 L211 469 Q225 474 238.5 481 Q252 488 263 498.5 Q274 509 281.5 524.5 Q289 540 292 561 Q262 562 244.5 580.5 Q227 599 227 630 Q227 661 244.5 678.5 Q262 696 290 696 Q321 696 344.5 671.5 Q368 647 368 594 Z "/>
    <glyph glyph-name="quotesingle" unicode="&#x27;" horiz-adv-x="244"
           d="M162 450 L66 450 L66 690 L181 690 L162 450 Z "/>
    <glyph glyph-name="quotedbl" unicode="&#x22;" horiz-adv-x="404"
           d="M162 450 L66 450 L66 690 L181 690 L162 450 Z M321 450 L225 450 L225 690 L340 690 L321 450 Z "/>
    <glyph glyph-name="asciicircum" unicode="&#x5e;" horiz-adv-x="477"
           d="M328 329 L240 531 L238 531 L149 329 L28 329 L202 690 L275 690 L449 329 L328 329 Z "/>
    <glyph glyph-name="degree" unicode="&#xb0;" horiz-adv-x="406"
           d="M379 525 Q379 486 366 453.5 Q353 421 329.5 397.5 Q306 374 274 361 Q242 348 203 348 Q164 348 131.5 361 Q99 374 75.5 397.5 Q52 421 39 453.5 Q26 486 26 525 Q26 564 39 596.5 Q52 629 75.5 652.5 Q99 676 131.5 689 Q164 702 203 702 Q242 702 274 689 Q306 676 329.5 652.5 Q353 629 366 596.5 Q379 564 379 525 Z M278 525 Q278 560 257 581.5 Q236 603 203 603 Q170 603 149 581.5 Q128 560 128 525 Q128 490 149 468 Q170 446 203 446 Q236 446 257 468 Q278 490 278 525 Z "/>
    <glyph glyph-name="numbersign" unicode="&#x23;" horiz-adv-x="611"
           d="M557 435 L473 431 L473 265 L557 265 L557 176 L473 171 L465 0 L363 0 L363 171 L247 171 L239 0 L138 0 L138 171 L54 171 L54 261 L138 265 L138 431 L54 431 L54 520 L138 525 L146 690 L247 690 L247 525 L363 525 L372 690 L473 690 L473 525 L557 525 L557 435 Z M247 431 L247 265 L363 265 L363 431 L247 431 Z "/>
    <glyph glyph-name="percent" unicode="&#x25;" horiz-adv-x="816"
           d="M369 520 Q369 473 355 438.5 Q341 404 317.5 381.5 Q294 359 264 348.5 Q234 338 202 338 Q171 338 141 348.5 Q111 359 88 381.5 Q65 404 50.5 438.5 Q36 473 36 520 Q36 567 50.5 601.5 Q65 636 88 658.5 Q111 681 141 691.5 Q171 702 202 702 Q234 702 264 691.5 Q294 681 317.5 658.5 Q341 636 355 601.5 Q369 567 369 520 Z M260 520 Q260 570 244 592.5 Q228 615 202 615 Q177 615 161.5 592.5 Q146 570 146 520 Q146 470 161.5 447.5 Q177 425 202 425 Q228 425 244 447.5 Q260 470 260 520 Z M229 0 L96 0 L591 690 L724 690 L229 0 Z M785 170 Q785 123 770.5 88.5 Q756 54 733 31.5 Q710 9 679.5 -1.5 Q649 -12 618 -12 Q587 -12 557 -1.5 Q527 9 503.5 31.5 Q480 54 465.5 88.5 Q451 123 451 170 Q451 217 465.5 251.5 Q480 286 503.5 308.5 Q527 331 557 341.5 Q587 352 618 352 Q649 352 679.5 341.5 Q710 331 733 308.5 Q756 286 770.5 251.5 Q785 217 785 170 Z M675 170 Q675 220 659 242.5 Q643 265 618 265 Q593 265 577 242.5 Q561 220 561 170 Q561 120 577 97.5 Q593 75 618 75 Q643 75 659 97.5 Q675 120 675 170 Z "/>
    <glyph glyph-name="perthousand" unicode="&#x2030;" horiz-adv-x="1133"
           d="M350 520 Q350 474 337.5 439.5 Q325 405 303 382.5 Q281 360 252.5 349 Q224 338 193 338 Q161 338 133 349 Q105 360 83 382.5 Q61 405 48.5 439.5 Q36 474 36 520 Q36 566 48.5 600.5 Q61 635 83 657.5 Q105 680 133 691 Q161 702 193 702 Q224 702 252.5 690.5 Q281 679 303 656.5 Q325 634 337.5 599.5 Q350 565 350 520 Z M244 520 Q244 568 230 591.5 Q216 615 193 615 Q169 615 155.5 591.5 Q142 568 142 520 Q142 472 155.5 448.5 Q169 425 193 425 Q216 425 230 448.5 Q244 472 244 520 Z M210 0 L78 0 L574 690 L706 690 L210 0 Z M748 170 Q748 124 735.5 89.5 Q723 55 701.5 32.5 Q680 10 651.5 -1 Q623 -12 591 -12 Q560 -12 531.5 -1 Q503 10 481.5 32.5 Q460 55 447 89.5 Q434 124 434 170 Q434 216 447 250.5 Q460 285 481.5 307.5 Q503 330 531.5 341 Q560 352 591 352 Q623 352 651.5 341 Q680 330 701.5 307.5 Q723 285 735.5 250.5 Q748 216 748 170 Z M642 170 Q642 218 628.5 241.5 Q615 265 591 265 Q568 265 554.5 241.5 Q541 218 541 170 Q541 122 554.5 98.5 Q568 75 591 75 Q615 75 628.5 98.5 Q642 122 642 170 Z M1102 170 Q1102 124 1089 89.5 Q1076 55 1054.5 32.5 Q1033 10 1004.5 -1 Q976 -12 945 -12 Q913 -12 884.5 -1 Q856 10 834.5 32.5 Q813 55 800.5 89.5 Q788 124 788 170 Q788 216 800.5 250.5 Q813 285 834.5 307.5 Q856 330 884.5 341 Q913 352 945 352 Q976 352 1004.5 341 Q1033 330 1054.5 307.5 Q1076 285 1089 250.5 Q1102 216 1102 170 Z M995 170 Q995 218 981.5 241.5 Q968 265 945 265 Q921 265 907.5 241.5 Q894 218 894 170 Q894 122 907.5 98.5 Q921 75 945 75 Q968 75 981.5 98.5 Q995 122 995 170 Z "/>
    <glyph glyph-name="cent" unicode="&#xa2;" horiz-adv-x="435"
           d="M210 -7 Q170 0 137.5 19 Q105 38 81.5 69.5 Q58 101 45.5 145 Q33 189 33 247 Q33 301 47 343 Q61 385 85 416 Q109 447 141.5 467 Q174 487 210 496 L210 595 L318 595 L318 502 Q356 497 379 485.5 Q402 474 419 462 L372 362 Q358 372 340 380.5 Q322 389 291 389 Q266 389 244 381 Q222 373 205.5 355.5 Q189 338 179.5 311 Q170 284 170 247 Q170 172 201.5 138 Q233 104 288 104 Q325 104 344.5 112.5 Q364 121 375 130 L412 32 Q396 21 375 9.5 Q354 -2 318 -8 L318 -105 L210 -105 L210 -7 Z "/>
    <glyph glyph-name="currency" unicode="&#xa4;" horiz-adv-x="569"
           d="M464 394 Q478 370 485.5 342.5 Q493 315 493 284 Q493 253 485.5 225 Q478 197 464 173 L541 97 L476 30 L400 107 Q375 91 346 82.5 Q317 74 284 74 Q251 74 222 82.5 Q193 91 168 107 L93 30 L28 97 L105 173 Q76 222 76 284 Q76 346 105 395 L28 471 L93 538 L168 460 Q219 494 284 494 Q349 494 400 460 L476 538 L541 471 L464 394 Z M383 284 Q383 328 356 356.5 Q329 385 284 385 Q239 385 212.5 356.5 Q186 328 186 284 Q186 240 212.5 211.5 Q239 183 284 183 Q329 183 356 211.5 Q383 240 383 284 Z "/>
    <glyph glyph-name="dollar" unicode="&#x24;" horiz-adv-x="498"
           d="M392 481 Q386 486 375.5 493.5 Q365 501 350 508 Q335 515 315.5 520 Q296 525 272 525 Q233 525 212.5 509.5 Q192 494 192 467 Q192 453 197.5 441.5 Q203 430 215 420 Q227 410 246 400 Q265 390 292 378 Q333 361 364 342.5 Q395 324 416 300.5 Q437 277 448 248 Q459 219 459 181 Q459 115 422.5 66 Q386 17 314 -2 L314 -105 L205 -105 L205 -11 Q172 -8 144.5 1 Q117 10 95.5 21.5 Q74 33 58 45 Q42 57 32 67 L90 174 Q99 165 112.5 154 Q126 143 143.5 133.5 Q161 124 182 117.5 Q203 111 228 111 Q273 111 295 128 Q317 145 317 171 Q317 199 295.5 220 Q274 241 218 266 Q180 283 149 302 Q118 321 96.5 344.5 Q75 368 63 397 Q51 426 51 463 Q51 533 92 578.5 Q133 624 205 638 L205 738 L314 738 L314 642 Q365 634 397 616 Q429 598 446 585 L392 481 Z "/>
    <glyph glyph-name="Euro" unicode="&#x20ac;" horiz-adv-x="539"
           d="M449 243 L244 243 Q257 169 292.5 139.5 Q328 110 384 110 Q421 110 443.5 119 Q466 128 477 137 L506 27 Q489 13 458.5 0.5 Q428 -12 371 -12 Q318 -12 272.5 1.5 Q227 15 192.5 45 Q158 75 134.5 123.5 Q111 172 101 243 L33 243 L33 318 L95 318 L95 345 L95 372 L33 372 L33 447 L103 447 Q115 515 142 563.5 Q169 612 206 642.5 Q243 673 288 687.5 Q333 702 381 702 Q432 702 463.5 690 Q495 678 512 665 L474 555 Q463 563 442.5 571.5 Q422 580 390 580 Q336 580 298.5 549 Q261 518 245 447 L449 447 L449 372 L236 372 L236 345 L236 318 L449 318 L449 243 Z "/>
    <glyph glyph-name="florin" unicode="&#x192;" horiz-adv-x="399"
           d="M364 315 L256 315 L256 13 Q256 -34 243.5 -67 Q231 -100 208.5 -121 Q186 -142 154 -152 Q122 -162 83 -162 Q59 -162 45.5 -159 Q32 -156 27 -154 L37 -44 Q42 -46 49.5 -47.5 Q57 -49 68 -49 Q93 -49 107.5 -34 Q122 -19 122 19 L122 315 L37 315 L37 425 L122 425 L122 511 Q122 559 135.5 595 Q149 631 174 654.5 Q199 678 232.5 690 Q266 702 307 702 Q335 702 352 696.5 Q369 691 375 689 L358 579 Q353 581 342.5 585 Q332 589 317 589 Q291 589 273.5 572 Q256 555 256 504 L256 425 L364 425 L364 315 Z "/>
    <glyph glyph-name="sterling" unicode="&#xa3;" horiz-adv-x="493"
           d="M401 271 L281 271 L281 264 Q281 213 264 178.5 Q247 144 226 120 L458 120 L458 0 L50 0 L50 95 Q66 107 82.5 122.5 Q99 138 112 158 Q125 178 133 204 Q141 230 141 262 L141 271 L67 271 L67 373 L126 373 Q120 399 115 428 Q110 457 110 498 Q110 550 126.5 588.5 Q143 627 171.5 652 Q200 677 237.5 689.5 Q275 702 317 702 Q347 702 369 697.5 Q391 693 407.5 686.5 Q424 680 435.5 672.5 Q447 665 456 659 L410 550 Q400 558 382.5 568 Q365 578 336 578 Q297 578 274.5 556.5 Q252 535 252 487 Q252 452 257 425.5 Q262 399 267 373 L401 373 L401 271 Z "/>
    <glyph glyph-name="yen" unicode="&#xa5;" horiz-adv-x="564"
           d="M489 139 L351 139 L351 0 L210 0 L210 139 L71 139 L71 218 L210 218 L210 272 L71 272 L71 351 L197 351 L25 690 L179 690 L282 455 L284 455 L387 690 L535 690 L363 351 L489 351 L489 272 L351 272 L351 218 L489 218 L489 139 Z "/>
    <glyph glyph-name="Delta" unicode="&#x2206;" horiz-adv-x="637"
           d="M579 0 L48 0 L48 109 L245 690 L381 690 L579 109 L579 0 Z M311 529 L309 529 L184 119 L436 119 L311 529 Z "/>
    <glyph glyph-name="uni0394" unicode="&#x394;" horiz-adv-x="637"
           d="M579 0 L48 0 L48 109 L245 690 L381 690 L579 109 L579 0 Z M311 529 L309 529 L184 119 L436 119 L311 529 Z "/>
    <glyph glyph-name="Omega" unicode="&#x2126;" horiz-adv-x="733"
           d="M679 399 Q679 329 664 280.5 Q649 232 627.5 199 Q606 166 581.5 146.5 Q557 127 539 115 L539 113 L687 113 L687 0 L402 0 L402 115 Q424 131 448 151 Q472 171 491 200 Q510 229 522.5 268.5 Q535 308 535 363 Q535 418 522 459 Q509 500 486.5 526 Q464 552 433 565 Q402 578 366 578 Q330 578 299 565 Q268 552 245.5 526 Q223 500 210 459 Q197 418 197 363 Q197 308 209 268.5 Q221 229 240.5 200 Q260 171 283 151 Q306 131 329 115 L329 0 L45 0 L45 113 L192 113 L192 115 Q174 127 150 147 Q126 167 104.5 200 Q83 233 68 281.5 Q53 330 53 399 Q53 470 76 526 Q99 582 140.5 621 Q182 660 239.5 681 Q297 702 366 702 Q435 702 492.5 681 Q550 660 591.5 621 Q633 582 656 526 Q679 470 679 399 Z "/>
    <glyph glyph-name="uni03A9" unicode="&#x3a9;" horiz-adv-x="733"
           d="M679 399 Q679 329 664 280.5 Q649 232 627.5 199 Q606 166 581.5 146.5 Q557 127 539 115 L539 113 L687 113 L687 0 L402 0 L402 115 Q424 131 448 151 Q472 171 491 200 Q510 229 522.5 268.5 Q535 308 535 363 Q535 418 522 459 Q509 500 486.5 526 Q464 552 433 565 Q402 578 366 578 Q330 578 299 565 Q268 552 245.5 526 Q223 500 210 459 Q197 418 197 363 Q197 308 209 268.5 Q221 229 240.5 200 Q260 171 283 151 Q306 131 329 115 L329 0 L45 0 L45 113 L192 113 L192 115 Q174 127 150 147 Q126 167 104.5 200 Q83 233 68 281.5 Q53 330 53 399 Q53 470 76 526 Q99 582 140.5 621 Q182 660 239.5 681 Q297 702 366 702 Q435 702 492.5 681 Q550 660 591.5 621 Q633 582 656 526 Q679 470 679 399 Z "/>
    <glyph glyph-name="mu" unicode="&#xb5;" horiz-adv-x="557"
           d="M192 -9 L192 -200 L58 -200 L58 493 L192 493 L192 182 Q193 143 207.5 123.5 Q222 104 260 104 Q292 104 310 118 Q328 132 339 143 L339 493 L473 493 L473 143 Q473 116 482 105.5 Q491 95 511 95 Q521 95 526 96.5 Q531 98 532 99 L532 4 Q527 2 511.5 -4 Q496 -10 470 -10 Q382 -10 354 48 Q346 39 333 29 Q320 19 302 10.5 Q284 2 259 -3.5 Q234 -9 202 -9 L192 -9 Z "/>
    <glyph glyph-name="uni03BC" unicode="&#x3bc;" horiz-adv-x="557"
           d="M192 -9 L192 -200 L58 -200 L58 493 L192 493 L192 182 Q193 143 207.5 123.5 Q222 104 260 104 Q292 104 310 118 Q328 132 339 143 L339 493 L473 493 L473 143 Q473 116 482 105.5 Q491 95 511 95 Q521 95 526 96.5 Q531 98 532 99 L532 4 Q527 2 511.5 -4 Q496 -10 470 -10 Q382 -10 354 48 Q346 39 333 29 Q320 19 302 10.5 Q284 2 259 -3.5 Q234 -9 202 -9 L192 -9 Z "/>
    <glyph glyph-name="pi" unicode="&#x3c0;" horiz-adv-x="639"
           d="M598 380 L500 380 L500 179 Q500 133 516 117.5 Q532 102 560 102 Q571 102 577.5 103 Q584 104 589 106 L595 -2 Q590 -4 573.5 -8 Q557 -12 533 -12 Q452 -12 409 27.5 Q366 67 366 162 L366 380 L258 380 Q255 264 239.5 173 Q224 82 200 0 L61 0 Q86 83 103 172 Q120 261 125 375 Q92 372 71 366.5 Q50 361 34 354 L12 458 Q25 464 41.5 470.5 Q58 477 82.5 482 Q107 487 141 490 Q175 493 222 493 L598 493 L598 380 Z "/>
    <glyph glyph-name="partialdiff" unicode="&#x2202;" horiz-adv-x="538"
           d="M499 365 Q499 274 479.5 203.5 Q460 133 424.5 85 Q389 37 338 12.5 Q287 -12 224 -12 Q133 -12 81 43 Q29 98 29 192 Q29 252 48.5 297 Q68 342 100 371 Q132 400 173.5 414.5 Q215 429 259 429 Q294 429 319 421 Q344 413 363 401 Q356 498 314.5 549 Q273 600 196 600 Q164 600 143 593.5 Q122 587 109 580 L78 694 Q95 704 128.5 713 Q162 722 212 722 Q355 722 427 630.5 Q499 539 499 365 Z M241 103 Q289 103 320.5 150.5 Q352 198 361 295 Q347 307 327 316 Q307 325 278 325 Q228 325 196 294 Q164 263 164 202 Q164 156 182.5 129.5 Q201 103 241 103 Z "/>
    <glyph glyph-name="product" unicode="&#x220f;" horiz-adv-x="643"
           d="M626 599 L534 599 L534 -150 L400 -150 L400 599 L241 599 L241 -150 L106 -150 L106 599 L16 599 L16 710 L626 710 L626 599 Z "/>
    <glyph glyph-name="summation" unicode="&#x2211;" horiz-adv-x="488"
           d="M451 588 L210 588 L414 290 L199 -28 L469 -28 L469 -150 L33 -150 L33 -52 L257 282 L33 612 L33 710 L451 710 L451 588 Z "/>
    <glyph glyph-name="plus" unicode="&#x2b;" horiz-adv-x="512"
           d="M464 257 L312 257 L312 85 L199 85 L199 257 L48 257 L48 368 L199 368 L199 539 L312 539 L312 368 L464 368 L464 257 Z "/>
    <glyph glyph-name="plusminus" unicode="&#xb1;" horiz-adv-x="512"
           d="M464 363 L312 363 L312 206 L199 206 L199 363 L48 363 L48 474 L199 474 L199 630 L312 630 L312 474 L464 474 L464 363 Z M464 60 L48 60 L48 171 L464 171 L464 60 Z "/>
    <glyph glyph-name="minus" unicode="&#x2212;" horiz-adv-x="512" d="M464 257 L48 257 L48 368 L464 368 L464 257 Z "/>
    <glyph glyph-name="divide" unicode="&#xf7;" horiz-adv-x="512"
           d="M320 147 Q320 120 303.5 104 Q287 88 258 88 Q229 88 212 104 Q195 120 195 147 Q195 174 212 190 Q229 206 258 206 Q287 206 303.5 190 Q320 174 320 147 Z M320 477 Q320 451 303.5 434.5 Q287 418 258 418 Q229 418 212 434.5 Q195 451 195 477 Q195 504 212 520 Q229 536 258 536 Q287 536 303.5 520 Q320 504 320 477 Z M464 257 L48 257 L48 368 L464 368 L464 257 Z "/>
    <glyph glyph-name="equal" unicode="&#x3d;" horiz-adv-x="512"
           d="M464 172 L48 172 L48 275 L464 275 L464 172 Z M464 350 L48 350 L48 453 L464 453 L464 350 Z "/>
    <glyph glyph-name="notequal" unicode="&#x2260;" horiz-adv-x="512"
           d="M464 172 L204 172 L152 84 L90 84 L142 172 L48 172 L48 275 L202 275 L247 350 L48 350 L48 453 L307 453 L359 540 L422 540 L370 453 L464 453 L464 350 L309 350 L265 275 L464 275 L464 172 Z "/>
    <glyph glyph-name="multiply" unicode="&#xd7;" horiz-adv-x="512"
           d="M335 312 L455 192 L376 113 L256 234 L136 113 L57 192 L176 312 L57 433 L136 511 L256 390 L376 511 L455 433 L335 312 Z "/>
    <glyph glyph-name="asciitilde" unicode="&#x7e;" horiz-adv-x="512"
           d="M466 395 Q466 357 460 324.5 Q454 292 440 268 Q426 244 403 230.5 Q380 217 346 217 Q319 217 295.5 227.5 Q272 238 250.5 250.5 Q229 263 209.5 273.5 Q190 284 172 284 Q146 284 138 266.5 Q130 249 128 225 L46 225 Q46 263 52 295.5 Q58 328 72 352 Q86 376 109 389.5 Q132 403 166 403 Q193 403 216.5 392.5 Q240 382 261.5 369.5 Q283 357 302.5 346.5 Q322 336 340 336 Q366 336 374 353.5 Q382 371 384 395 L466 395 L466 395 Z "/>
    <glyph glyph-name="approxequal" unicode="&#x2248;" horiz-adv-x="512"
           d="M466 286 Q466 248 460 218 Q454 188 440 167 Q426 146 403 135 Q380 124 346 124 Q319 124 295.5 134.5 Q272 145 250.5 157.5 Q229 170 209.5 180.5 Q190 191 172 191 Q146 191 138 173.5 Q130 156 128 132 L46 132 Q46 170 52 200.5 Q58 231 72 252 Q86 273 109 284 Q132 295 166 295 Q193 295 216.5 284.5 Q240 274 261.5 261.5 Q283 249 302.5 238.5 Q322 228 340 228 Q366 228 374 245.5 Q382 263 384 286 L466 286 Z M466 488 Q466 450 460 420 Q454 390 440 369 Q426 348 403 337 Q380 326 346 326 Q319 326 295.5 336.5 Q272 347 250.5 359 Q229 371 209.5 381.5 Q190 392 172 392 Q146 392 138 374.5 Q130 357 128 333 L46 333 Q46 371 52 401.5 Q58 432 72 453 Q86 474 109 485 Q132 496 166 496 Q193 496 216.5 485.5 Q240 475 261.5 462.5 Q283 450 302.5 439.5 Q322 429 340 429 Q366 429 374 447 Q382 465 384 488 L466 488 Z "/>
    <glyph glyph-name="congruent" unicode="&#x2245;" horiz-adv-x="512"
           d="M466 565 Q465 488 439.5 445 Q414 402 346 402 Q319 402 295.5 412.5 Q272 423 250.5 435.5 Q229 448 209.5 458.5 Q190 469 172 469 Q146 469 138 451.5 Q130 434 128 410 L46 410 Q46 448 52 478.5 Q58 509 72 530 Q86 551 109 562 Q132 573 166 573 Q193 573 216.5 562.5 Q240 552 261.5 539.5 Q283 527 302.5 516.5 Q322 506 340 506 Q366 506 374 524 Q382 542 384 565 L466 565 Z M464 70 L48 70 L48 173 L464 173 L464 70 Z M464 248 L48 248 L48 351 L464 351 L464 248 Z "/>
    <glyph glyph-name="logicalnot" unicode="&#xac;" horiz-adv-x="512"
           d="M461 137 L349 137 L349 257 L48 257 L48 368 L461 368 L461 137 Z "/>
    <glyph glyph-name="less" unicode="&#x3c;" horiz-adv-x="512"
           d="M460 398 L209 276 L209 274 L460 153 L460 33 L52 239 L52 312 L460 517 L460 398 Z "/>
    <glyph glyph-name="greater" unicode="&#x3e;" horiz-adv-x="512"
           d="M52 153 L303 275 L303 277 L52 398 L52 518 L460 312 L460 239 L52 34 L52 153 Z "/>
    <glyph glyph-name="lessequal" unicode="&#x2264;" horiz-adv-x="512"
           d="M464 451 L205 359 L205 357 L464 267 L464 160 L48 322 L48 395 L464 557 L464 451 Z M464 23 L48 23 L48 127 L464 127 L464 23 Z "/>
    <glyph glyph-name="greaterequal" unicode="&#x2265;" horiz-adv-x="512"
           d="M48 268 L307 354 L307 356 L48 448 L48 554 L464 392 L464 319 L48 161 L48 268 Z M464 23 L48 23 L48 127 L464 127 L464 23 Z "/>
    <glyph glyph-name="infinity" unicode="&#x221e;" horiz-adv-x="719"
           d="M686 310 Q686 271 673 240.5 Q660 210 638.5 189 Q617 168 587.5 157 Q558 146 525 146 Q496 146 471 154 Q446 162 425.5 174.5 Q405 187 388.5 202 Q372 217 359 231 Q346 216 329.5 201 Q313 186 293 174 Q273 162 248 154 Q223 146 194 146 Q161 146 131.5 157 Q102 168 80.5 189 Q59 210 46 240.5 Q33 271 33 310 Q33 349 46 380 Q59 411 80.5 432 Q102 453 131.5 464 Q161 475 194 475 Q223 475 248 467 Q273 459 293 446.5 Q313 434 329.5 419 Q346 404 359 390 Q372 405 388.5 420 Q405 435 425.5 447 Q446 459 471 467 Q496 475 525 475 Q558 475 587.5 464 Q617 453 638.5 432 Q660 411 673 380 Q686 349 686 310 Z M138 310 Q138 281 155.5 263 Q173 245 203 245 Q222 245 237.5 251.5 Q253 258 266 268 Q279 278 290 289.5 Q301 301 310 310 Q301 320 290 331.5 Q279 343 266 353 Q253 363 237.5 369.5 Q222 376 203 376 Q173 375 155.5 357 Q138 339 138 310 Z M581 310 Q581 339 563.5 357.5 Q546 376 516 376 Q497 376 481.5 369.5 Q466 363 453 353 Q440 343 429 331.5 Q418 320 409 310 Q418 301 429 289.5 Q440 278 453 268 Q466 258 481.5 251.5 Q497 245 516 245 Q546 246 563.5 263.5 Q581 281 581 310 Z "/>
    <glyph glyph-name="lozenge" unicode="&#x25ca;" horiz-adv-x="636"
           d="M401 -150 L236 -150 L25 280 L236 710 L401 710 L611 280 L401 -150 Z M319 586 L317 586 L180 280 L317 -26 L319 -26 L456 280 L319 586 Z "/>
    <glyph glyph-name="radical" unicode="&#x221a;" horiz-adv-x="662"
           d="M413 -150 L268 -150 L127 221 L28 190 L28 298 L226 361 L336 32 L338 32 L500 710 L647 710 L413 -150 Z "/>
    <glyph glyph-name="integral" unicode="&#x222b;" horiz-adv-x="348"
           d="M301 604 Q296 606 290 607 Q284 608 273 608 Q250 608 232 592 Q214 576 214 534 Q214 460 222.5 398 Q231 336 241.5 277 Q252 218 260.5 156 Q269 94 269 20 Q269 -26 255 -60.5 Q241 -95 216.5 -117.5 Q192 -140 159.5 -151 Q127 -162 90 -162 Q69 -162 55 -159.5 Q41 -157 36 -155 L47 -44 Q52 -46 58 -47 Q64 -48 75 -48 Q97 -48 115.5 -32 Q134 -16 134 26 Q134 100 125.5 162 Q117 224 106.5 283 Q96 342 87.5 404 Q79 466 79 540 Q79 586 93 620.5 Q107 655 131.5 677.5 Q156 700 188.5 711 Q221 722 258 722 Q278 722 292.5 719.5 Q307 717 312 715 L301 604 Z "/>
    <glyph glyph-name="parenleft" unicode="&#x28;" horiz-adv-x="322"
           d="M54 295 Q54 386 69 455 Q84 524 105.5 574.5 Q127 625 151 657.5 Q175 690 192 710 L300 710 Q284 692 261.5 659.5 Q239 627 218 576.5 Q197 526 182 456.5 Q167 387 167 295 Q167 203 182 134 Q197 65 218 14.5 Q239 -36 261.5 -69 Q284 -102 300 -120 L192 -120 Q175 -101 151 -68 Q127 -35 105.5 15.5 Q84 66 69 134.5 Q54 203 54 295 Z "/>
    <glyph glyph-name="parenright" unicode="&#x29;" horiz-adv-x="322"
           d="M267 295 Q267 203 252 134.5 Q237 66 215.5 15.5 Q194 -35 170 -68 Q146 -101 129 -120 L21 -120 Q37 -102 59.5 -69.5 Q82 -37 103 13.5 Q124 64 139 133.5 Q154 203 154 295 Q154 386 139 455.5 Q124 525 103 575.5 Q82 626 59.5 659 Q37 692 21 710 L129 710 Q146 690 170 657.5 Q194 625 215.5 574.5 Q237 524 252 455 Q267 386 267 295 Z "/>
    <glyph glyph-name="bracketleft" unicode="&#x5b;" horiz-adv-x="301"
           d="M267 628 L190 628 L190 -38 L267 -38 L267 -120 L81 -120 L81 710 L267 710 L267 628 Z "/>
    <glyph glyph-name="bracketright" unicode="&#x5d;" horiz-adv-x="301"
           d="M34 -38 L111 -38 L111 628 L34 628 L34 710 L220 710 L220 -120 L34 -120 L34 -38 Z "/>
    <glyph glyph-name="braceleft" unicode="&#x7b;" horiz-adv-x="334"
           d="M302 634 Q263 634 242 614 Q221 594 221 538 L221 399 Q221 348 195.5 323 Q170 298 128 296 L128 294 Q170 292 195.5 267 Q221 242 221 191 L221 51 Q221 -5 242 -24.5 Q263 -44 302 -44 L302 -126 Q260 -125 225.5 -118 Q191 -111 165.5 -93 Q140 -75 126 -44.5 Q112 -14 112 33 L112 184 Q112 222 93.5 237 Q75 252 37 254 L37 336 Q75 338 93.5 353 Q112 368 112 406 L112 557 Q112 604 126 634.5 Q140 665 165.5 683 Q191 701 225.5 708 Q260 715 302 716 L302 634 Z "/>
    <glyph glyph-name="braceright" unicode="&#x7d;" horiz-adv-x="334"
           d="M32 -44 Q71 -44 92 -24 Q113 -4 113 52 L113 191 Q113 242 138.5 267 Q164 292 206 294 L206 296 Q164 298 138.5 323 Q113 348 113 399 L113 539 Q113 595 92 614.5 Q71 634 32 634 L32 716 Q74 715 108.5 708 Q143 701 168.5 683 Q194 665 208 634.5 Q222 604 222 557 L222 406 Q222 368 240.5 353 Q259 338 297 336 L297 254 Q259 252 240.5 237 Q222 222 222 184 L222 33 Q222 -14 208 -44.5 Q194 -75 168.5 -93 Q143 -111 108.5 -118 Q74 -125 32 -126 L32 -44 Z "/>
    <glyph glyph-name="guilsinglleft" unicode="&#x2039;" horiz-adv-x="249"
           d="M128 120 L19 284 L128 450 L227 450 L146 284 L227 120 L128 120 Z "/>
    <glyph glyph-name="guilsinglright" unicode="&#x203a;" horiz-adv-x="249"
           d="M121 449 L230 285 L121 119 L22 119 L103 285 L22 449 L121 449 Z "/>
    <glyph glyph-name="guillemotleft" unicode="&#xab;" horiz-adv-x="403"
           d="M128 120 L19 284 L128 450 L220 450 L140 284 L220 120 L128 120 Z M288 120 L182 284 L288 450 L380 450 L300 284 L380 120 L288 120 Z "/>
    <glyph glyph-name="guillemotright" unicode="&#xbb;" horiz-adv-x="403"
           d="M275 449 L384 285 L275 119 L183 119 L263 285 L183 449 L275 449 Z M115 449 L221 285 L115 119 L23 119 L103 285 L23 449 L115 449 Z "/>
    <glyph glyph-name="hyphen" unicode="&#x2d;" horiz-adv-x="303" d="M264 241 L38 241 L38 354 L264 354 L264 241 Z "/>
    <glyph glyph-name="uni00AD" unicode="&#xad;" horiz-adv-x="303" d="M264 241 L38 241 L38 354 L264 354 L264 241 Z "/>
    <glyph glyph-name="endash" unicode="&#x2013;" horiz-adv-x="512" d="M467 256 L45 256 L45 369 L467 369 L467 256 Z "/>
    <glyph glyph-name="emdash" unicode="&#x2014;" horiz-adv-x="762" d="M717 256 L45 256 L45 369 L717 369 L717 256 Z "/>
    <glyph glyph-name="underscore" unicode="&#x5f;" horiz-adv-x="512"
           d="M497 -181 L15 -181 L15 -69 L497 -69 L497 -181 Z "/>
    <glyph glyph-name="zero" unicode="0" horiz-adv-x="598"
           d="M413 345 Q413 409 404.5 453.5 Q396 498 380.5 526 Q365 554 344 566.5 Q323 579 299 579 Q275 579 254 566.5 Q233 554 217.5 526 Q202 498 193.5 453.5 Q185 409 185 345 Q185 281 193.5 236.5 Q202 192 217.5 164 Q233 136 254 123.5 Q275 111 299 111 Q323 111 344 123.5 Q365 136 380.5 164 Q396 192 404.5 236.5 Q413 281 413 345 Z M555 345 Q555 249 534 181 Q513 113 477.5 70 Q442 27 395.5 7.5 Q349 -12 299 -12 Q249 -12 202.5 7.5 Q156 27 120.5 70 Q85 113 64 181 Q43 249 43 345 Q43 441 64 509 Q85 577 120.5 620 Q156 663 202.5 682.5 Q249 702 299 702 Q349 702 395.5 682.5 Q442 663 477.5 620 Q513 577 534 509 Q555 441 555 345 Z "/>
    <glyph glyph-name="one" unicode="1" horiz-adv-x="376"
           d="M304 0 L163 0 L163 547 L54 508 L18 618 L199 690 L304 690 L304 0 Z "/>
    <glyph glyph-name="two" unicode="2" horiz-adv-x="496"
           d="M450 510 Q450 462 438 423 Q426 384 408.5 351.5 Q391 319 370.5 293.5 Q350 268 332 248 L225 124 L225 122 L455 122 L455 0 L46 0 L46 94 L224 309 Q238 326 253 344.5 Q268 363 280 384.5 Q292 406 300 431 Q308 456 308 485 Q308 579 214 579 Q192 579 174.5 573.5 Q157 568 143.5 559.5 Q130 551 119.5 541 Q109 531 102 522 L36 607 Q48 622 65.5 638.5 Q83 655 108.5 669 Q134 683 168.5 692.5 Q203 702 247 702 Q297 702 335 688 Q373 674 398.5 648.5 Q424 623 437 587.5 Q450 552 450 510 Z "/>
    <glyph glyph-name="three" unicode="3" horiz-adv-x="468"
           d="M421 521 Q421 484 411 456 Q401 428 384 408 Q367 388 343 374 Q319 360 292 352 L292 350 Q353 336 392.5 293 Q432 250 432 173 Q432 88 376 38 Q320 -12 211 -12 Q170 -12 140.5 -4.5 Q111 3 89.5 14 Q68 25 53 37.5 Q38 50 27 61 L89 163 Q95 155 104.5 146 Q114 137 127.5 128.5 Q141 120 158.5 114.5 Q176 109 197 109 Q241 109 265 130.5 Q289 152 289 190 Q289 291 146 291 L121 291 L121 402 L146 402 Q215 402 247.5 428.5 Q280 455 280 501 Q280 539 258 560 Q236 581 197 581 Q157 581 132.5 565.5 Q108 550 94 533 L33 626 Q43 638 60 651.5 Q77 665 100 676 Q123 687 153.5 694.5 Q184 702 222 702 Q323 702 372 652 Q421 602 421 521 Z "/>
    <glyph glyph-name="four" unicode="4" horiz-adv-x="533"
           d="M500 169 L426 169 L426 0 L294 0 L294 169 L28 169 L28 265 L314 690 L426 690 L426 281 L500 281 L500 169 Z M294 498 L292 498 L159 281 L294 281 L294 498 Z "/>
    <glyph glyph-name="five" unicode="5" horiz-adv-x="499"
           d="M459 217 Q459 162 442 119.5 Q425 77 394 47.5 Q363 18 319.5 3 Q276 -12 223 -12 Q180 -12 149 -4.5 Q118 3 96 13.5 Q74 24 59 36 Q44 48 33 58 L90 169 Q97 160 108 150 Q119 140 134 131.5 Q149 123 167.5 117 Q186 111 209 111 Q260 111 287.5 136 Q315 161 315 212 Q315 278 270 304 Q225 330 141 330 L76 330 L105 690 L433 690 L433 568 L219 568 L209 437 Q265 434 311 419.5 Q357 405 390 378 Q423 351 441 311 Q459 271 459 217 Z "/>
    <glyph glyph-name="six" unicode="6" horiz-adv-x="533"
           d="M497 227 Q497 174 483.5 130 Q470 86 443 54.5 Q416 23 376.5 5.5 Q337 -12 286 -12 Q230 -12 186 8 Q142 28 111.5 70.5 Q81 113 64.5 179 Q48 245 48 338 Q48 437 72 506.5 Q96 576 135 619.5 Q174 663 225 682.5 Q276 702 330 702 Q366 702 393 696 Q420 690 438.5 681.5 Q457 673 469.5 664 Q482 655 490 648 L436 544 Q424 555 402.5 569 Q381 583 338 583 Q308 583 282.5 572.5 Q257 562 237 539.5 Q217 517 205 483 Q193 449 190 402 Q214 418 243.5 428 Q273 438 311 438 Q396 438 446.5 383.5 Q497 329 497 227 Z M278 334 Q249 334 228 325.5 Q207 317 190 304 Q191 248 198 209 Q205 170 218 146 Q231 122 249 111 Q267 100 289 100 Q326 100 346.5 129 Q367 158 367 218 Q367 334 278 334 Z "/>
    <glyph glyph-name="seven" unicode="7" horiz-adv-x="486"
           d="M469 598 L209 0 L54 0 L307 566 L307 568 L41 568 L41 690 L469 690 L469 598 Z "/>
    <glyph glyph-name="eight" unicode="8" horiz-adv-x="517"
           d="M465 524 Q465 491 456 464.5 Q447 438 432 418 Q417 398 398.5 382.5 Q380 367 361 355 L361 353 Q382 340 402.5 323.5 Q423 307 439.5 284.5 Q456 262 466.5 233 Q477 204 477 168 Q477 127 461 94 Q445 61 416 37.5 Q387 14 347 1 Q307 -12 259 -12 Q211 -12 171 1 Q131 14 101.5 37.5 Q72 61 56 94 Q40 127 40 168 Q40 204 50.5 233 Q61 262 77.5 284.5 Q94 307 114.5 323.5 Q135 340 156 353 L156 355 Q137 367 118.5 382.5 Q100 398 85 418 Q70 438 61 464.5 Q52 491 52 524 Q52 568 67.5 601 Q83 634 111 656.5 Q139 679 177 690.5 Q215 702 259 702 Q303 702 340.5 690.5 Q378 679 406 656.5 Q434 634 449.5 601 Q465 568 465 524 Z M338 512 Q338 550 316 569.5 Q294 589 259 589 Q224 589 201.5 569.5 Q179 550 179 512 Q179 474 202 449 Q225 424 259 404 Q291 424 314.5 449 Q338 474 338 512 Z M345 189 Q345 210 337 227 Q329 244 316.5 258.5 Q304 273 288.5 284 Q273 295 259 303 Q245 295 229.5 284 Q214 273 201 258.5 Q188 244 180 227 Q172 210 172 189 Q172 149 196.5 126.5 Q221 104 259 104 Q296 104 320.5 126.5 Q345 149 345 189 Z "/>
    <glyph glyph-name="nine" unicode="9" horiz-adv-x="534"
           d="M488 362 Q488 264 469.5 193.5 Q451 123 416.5 77.5 Q382 32 332.5 10 Q283 -12 222 -12 Q183 -12 154 -4.5 Q125 3 104.5 14 Q84 25 70.5 36.5 Q57 48 49 56 L102 160 Q106 154 115.5 145 Q125 136 139 127.5 Q153 119 171.5 113 Q190 107 212 107 Q336 107 346 279 Q323 263 293.5 253.5 Q264 244 227 244 Q188 244 153.5 258.5 Q119 273 93.5 301.5 Q68 330 53 372 Q38 414 38 468 Q38 523 54.5 566.5 Q71 610 100.5 640 Q130 670 169.5 686 Q209 702 255 702 Q367 702 427.5 618.5 Q488 535 488 362 Z M258 349 Q287 349 308.5 358 Q330 367 347 381 Q347 439 340.5 479 Q334 519 321.5 543.5 Q309 568 291 578.5 Q273 589 250 589 Q218 589 193.5 561 Q169 533 169 470 Q169 410 192 379.5 Q215 349 258 349 Z "/>
    <glyph glyph-name="uni2007" unicode="&#x2007;" horiz-adv-x="512" d=""/>
    <glyph glyph-name="fraction" unicode="&#x2044;" horiz-adv-x="246" d="M-11 0 L-136 0 L258 690 L383 690 L-11 0 Z "/>
    <glyph glyph-name="onequarter" unicode="&#xbc;" horiz-adv-x="887"
           d="M343 0 L218 0 L612 690 L737 690 L343 0 Z M232 363 L310 363 L310 276 L48 276 L48 363 L129 363 L129 589 L60 566 L35 644 L154 690 L232 690 L232 363 Z M859 98 L826 98 L826 0 L732 0 L732 98 L580 98 L580 165 L746 414 L826 414 L826 176 L859 176 L859 98 Z M732 290 L730 290 L662 176 L732 176 L732 290 Z "/>
    <glyph glyph-name="onehalf" unicode="&#xbd;" horiz-adv-x="887"
           d="M319 0 L194 0 L588 690 L713 690 L319 0 Z M232 363 L310 363 L310 276 L48 276 L48 363 L129 363 L129 589 L60 566 L35 644 L154 690 L232 690 L232 363 Z M844 301 Q844 272 837 248.5 Q830 225 819.5 206 Q809 187 796 172 Q783 157 771 145 L718 89 L718 87 L847 87 L847 0 L587 0 L587 65 L693 185 Q709 203 724 226.5 Q739 250 739 282 Q739 306 726.5 320 Q714 334 688 334 Q662 334 645.5 322 Q629 310 621 299 L575 358 Q582 367 594 378 Q606 389 623 398.5 Q640 408 662 414.5 Q684 421 713 421 Q776 421 810 388 Q844 355 844 301 Z "/>
    <glyph glyph-name="threequarters" unicode="&#xbe;" horiz-adv-x="887"
           d="M332 0 L207 0 L601 690 L726 690 L332 0 Z M859 98 L826 98 L826 0 L732 0 L732 98 L580 98 L580 165 L746 414 L826 414 L826 176 L859 176 L859 98 Z M732 290 L730 290 L662 176 L732 176 L732 290 Z M290 588 Q290 543 265 519 Q240 495 207 488 L207 486 Q242 479 268 454.5 Q294 430 294 382 Q294 332 258 300.5 Q222 269 149 269 Q122 269 102 274 Q82 279 67 286 Q52 293 42 301 Q32 309 26 315 L69 386 Q77 376 93 364.5 Q109 353 137 353 Q163 353 177 364 Q191 375 191 395 Q191 445 105 445 L90 445 L90 522 L106 522 Q188 522 188 571 Q188 590 175.5 601.5 Q163 613 140 613 Q113 613 97 602.5 Q81 592 73 582 L31 648 Q47 664 78 680.5 Q109 697 160 697 Q227 697 258.5 666.5 Q290 636 290 588 Z "/>
    <glyph glyph-name="uni2070" unicode="&#x2070;" horiz-adv-x="336"
           d="M212 483 Q212 556 199.5 584 Q187 612 168 612 Q149 612 136.5 584 Q124 556 124 483 Q124 446 127.5 421.5 Q131 397 137 382 Q143 367 151 360.5 Q159 354 168 354 Q177 354 185 360.5 Q193 367 199 382 Q205 397 208.5 421.5 Q212 446 212 483 Z M307 483 Q307 426 296.5 385 Q286 344 267.5 318.5 Q249 293 223.5 281 Q198 269 168 269 Q138 269 112.5 281 Q87 293 68.5 318.5 Q50 344 39.5 385 Q29 426 29 483 Q29 540 39.5 580.5 Q50 621 68.5 647 Q87 673 112.5 685 Q138 697 168 697 Q198 697 223.5 685 Q249 673 267.5 647 Q286 621 296.5 580.5 Q307 540 307 483 Z "/>
    <glyph glyph-name="onesuperior" unicode="&#xb9;" horiz-adv-x="336"
           d="M232 363 L310 363 L310 276 L48 276 L48 363 L129 363 L129 589 L60 566 L35 644 L154 690 L232 690 L232 363 Z "/>
    <glyph glyph-name="twosuperior" unicode="&#xb2;" horiz-adv-x="336"
           d="M294 577 Q294 548 287 524.5 Q280 501 269.5 482 Q259 463 246 448 Q233 433 221 421 L168 365 L168 363 L297 363 L297 276 L37 276 L37 341 L143 461 Q159 479 174 502.5 Q189 526 189 558 Q189 582 176.5 596 Q164 610 138 610 Q112 610 95.5 598 Q79 586 71 575 L25 634 Q32 643 44 654 Q56 665 73 674.5 Q90 684 112 690.5 Q134 697 163 697 Q226 697 260 664 Q294 631 294 577 Z "/>
    <glyph glyph-name="threesuperior" unicode="&#xb3;" horiz-adv-x="336"
           d="M289 588 Q289 543 264 519 Q239 495 206 488 L206 486 Q241 479 267 454.5 Q293 430 293 382 Q293 332 257 300.5 Q221 269 148 269 Q121 269 101 274 Q81 279 66 286 Q51 293 41 301 Q31 309 25 315 L68 386 Q76 376 92 364.5 Q108 353 136 353 Q162 353 176 364 Q190 375 190 395 Q190 445 104 445 L89 445 L89 522 L105 522 Q187 522 187 571 Q187 590 174.5 601.5 Q162 613 139 613 Q112 613 96 602.5 Q80 592 72 582 L30 648 Q46 664 77 680.5 Q108 697 159 697 Q226 697 257.5 666.5 Q289 636 289 588 Z "/>
    <glyph glyph-name="uni2074" unicode="&#x2074;" horiz-adv-x="336"
           d="M309 374 L276 374 L276 276 L182 276 L182 374 L30 374 L30 441 L196 690 L276 690 L276 452 L309 452 L309 374 Z M182 566 L180 566 L112 452 L182 452 L182 566 Z "/>
    <glyph glyph-name="uni2075" unicode="&#x2075;" horiz-adv-x="336"
           d="M297 408 Q297 345 259 307 Q221 269 151 269 Q124 269 103.5 273.5 Q83 278 68.5 284.5 Q54 291 44 298.5 Q34 306 27 312 L65 391 Q73 382 90 369 Q107 356 135 356 Q192 356 192 408 Q192 440 168.5 453.5 Q145 467 98 467 L53 467 L71 690 L281 690 L281 605 L151 605 L147 541 Q215 537 256 505 Q297 473 297 408 Z "/>
    <glyph glyph-name="uni2076" unicode="&#x2076;" horiz-adv-x="336"
           d="M310 414 Q310 349 277.5 309 Q245 269 182 269 Q112 269 74.5 320.5 Q37 372 37 478 Q37 537 51.5 578.5 Q66 620 90 646.5 Q114 673 145 685 Q176 697 209 697 Q231 697 247.5 693.5 Q264 690 276 684.5 Q288 679 295.5 673.5 Q303 668 308 664 L272 592 Q265 599 252.5 607 Q240 615 215 615 Q183 615 161.5 593 Q140 571 136 524 Q163 540 198 540 Q250 540 280 507 Q310 474 310 414 Z M175 470 Q163 470 153.5 467 Q144 464 136 459 Q136 395 148.5 371.5 Q161 348 183 348 Q200 348 210.5 362.5 Q221 377 221 409 Q221 470 175 470 Z "/>
    <glyph glyph-name="uni2077" unicode="&#x2077;" horiz-adv-x="336"
           d="M312 624 L158 276 L42 276 L193 601 L193 603 L40 603 L40 690 L312 690 L312 624 Z "/>
    <glyph glyph-name="uni2078" unicode="&#x2078;" horiz-adv-x="336"
           d="M295 588 Q295 548 277.5 525.5 Q260 503 237 489 L237 487 Q263 472 283 447 Q303 422 303 377 Q303 327 266.5 298 Q230 269 168 269 Q105 269 69 298 Q33 327 33 377 Q33 422 52.5 447 Q72 472 98 487 L98 489 Q75 503 58 525.5 Q41 548 41 588 Q41 641 76 669 Q111 697 168 697 Q224 697 259.5 669 Q295 641 295 588 Z M207 581 Q207 601 196 611 Q185 621 168 621 Q151 621 140 611 Q129 601 129 581 Q129 561 140 547 Q151 533 168 522 Q185 533 196 547 Q207 561 207 581 Z M211 392 Q211 413 197 428.5 Q183 444 168 453 Q153 444 139 428.5 Q125 413 125 392 Q125 371 137 359 Q149 347 168 347 Q187 347 199 359 Q211 371 211 392 Z "/>
    <glyph glyph-name="uni2079" unicode="&#x2079;" horiz-adv-x="336"
           d="M300 494 Q300 379 257 324 Q214 269 139 269 Q115 269 97 273.5 Q79 278 66 284.5 Q53 291 44.5 298.5 Q36 306 31 311 L66 383 Q71 375 88 363 Q105 351 131 351 Q195 351 201 437 Q174 421 139 421 Q91 421 59 455.5 Q27 490 27 556 Q27 623 64.5 660 Q102 697 159 697 Q228 697 264 645.5 Q300 594 300 494 Z M159 491 Q173 491 183.5 495 Q194 499 202 505 L202 507 Q202 571 189.5 594.5 Q177 618 155 618 Q140 618 128 603 Q116 588 116 556 Q116 491 159 491 Z "/>
    <glyph glyph-name="parenleft.sups" unicode="&#x207d;" horiz-adv-x="231"
           d="M39 483 Q39 538 48.5 579.5 Q58 621 71.5 651 Q85 681 99.5 700.5 Q114 720 125 732 L210 732 Q201 721 187.5 701.5 Q174 682 161 652 Q148 622 139 580 Q130 538 130 483 Q130 428 139 386 Q148 344 161 314 Q174 284 187.5 264.5 Q201 245 210 234 L125 234 Q114 246 99.5 265.5 Q85 285 71.5 315 Q58 345 48.5 386.5 Q39 428 39 483 Z "/>
    <glyph glyph-name="parenright.sups" unicode="&#x207e;" horiz-adv-x="231"
           d="M191.002 483.013 Q191.002 428.016 181.503 386.519 Q172.004 345.021 158.504 315.023 Q145.005 285.025 130.506 265.526 Q116.007 246.027 105.008 234.028 L20.0128 234.028 Q29.0123 245.027 42.5114 264.526 Q56.0106 284.025 69.0098 314.023 Q82.009 344.021 91.0085 386.019 Q100.008 428.016 100.008 483.013 Q100.008 538.009 91.0085 580.007 Q82.009 622.004 69.0098 652.002 Q56.0106 682 42.5114 701.499 Q29.0123 720.998 20.0128 731.997 L105.008 731.997 Q116.007 719.998 130.506 700.499 Q145.005 681.001 158.504 651.002 Q172.004 621.004 181.503 579.507 Q191.002 538.009 191.002 483.013 Z "/>
    <glyph glyph-name="uni2080" unicode="&#x2080;" horiz-adv-x="336"
           d="M212 58 Q212 131 199.5 159 Q187 187 168 187 Q149 187 136.5 159 Q124 131 124 58 Q124 21 127.5 -3.5 Q131 -28 137 -43 Q143 -58 151 -64.5 Q159 -71 168 -71 Q177 -71 185 -64.5 Q193 -58 199 -43 Q205 -28 208.5 -3.5 Q212 21 212 58 Z M307 58 Q307 1 296.5 -40 Q286 -81 267.5 -106.5 Q249 -132 223.5 -144 Q198 -156 168 -156 Q138 -156 112.5 -144 Q87 -132 68.5 -106.5 Q50 -81 39.5 -40 Q29 1 29 58 Q29 115 39.5 155.5 Q50 196 68.5 222 Q87 248 112.5 260 Q138 272 168 272 Q198 272 223.5 260 Q249 248 267.5 222 Q286 196 296.5 155.5 Q307 115 307 58 Z "/>
    <glyph glyph-name="uni2081" unicode="&#x2081;" horiz-adv-x="336"
           d="M232 -62 L310 -62 L310 -149 L48 -149 L48 -62 L129 -62 L129 164 L60 141 L35 219 L154 265 L232 265 L232 -62 Z "/>
    <glyph glyph-name="uni2082" unicode="&#x2082;" horiz-adv-x="336"
           d="M294 152 Q294 123 287 99.5 Q280 76 269.5 57 Q259 38 246 23 Q233 8 221 -4 L168 -60 L168 -62 L297 -62 L297 -149 L37 -149 L37 -84 L143 36 Q159 54 174 77.5 Q189 101 189 133 Q189 157 176.5 171 Q164 185 138 185 Q112 185 95.5 173 Q79 161 71 150 L25 209 Q32 218 44 229 Q56 240 73 249.5 Q90 259 112 265.5 Q134 272 163 272 Q226 272 260 239 Q294 206 294 152 Z "/>
    <glyph glyph-name="uni2083" unicode="&#x2083;" horiz-adv-x="336"
           d="M289 163 Q289 118 264 94 Q239 70 206 63 L206 61 Q241 54 267 29.5 Q293 5 293 -43 Q293 -93 257 -124.5 Q221 -156 148 -156 Q121 -156 101 -151 Q81 -146 66 -139 Q51 -132 41 -124 Q31 -116 25 -110 L68 -39 Q76 -49 92 -60.5 Q108 -72 136 -72 Q162 -72 176 -61 Q190 -50 190 -30 Q190 20 104 20 L89 20 L89 97 L105 97 Q187 97 187 146 Q187 165 174.5 176.5 Q162 188 139 188 Q112 188 96 177.5 Q80 167 72 157 L30 223 Q46 239 77 255.5 Q108 272 159 272 Q226 272 257.5 241.5 Q289 211 289 163 Z "/>
    <glyph glyph-name="uni2084" unicode="&#x2084;" horiz-adv-x="336"
           d="M309 -51 L276 -51 L276 -149 L182 -149 L182 -51 L30 -51 L30 16 L196 265 L276 265 L276 27 L309 27 L309 -51 Z M182 141 L180 141 L112 27 L182 27 L182 141 Z "/>
    <glyph glyph-name="uni2085" unicode="&#x2085;" horiz-adv-x="336"
           d="M297 -17 Q297 -80 259 -118 Q221 -156 151 -156 Q124 -156 103.5 -151.5 Q83 -147 68.5 -140.5 Q54 -134 44 -126.5 Q34 -119 27 -113 L65 -34 Q73 -43 90 -56 Q107 -69 135 -69 Q192 -69 192 -17 Q192 15 168.5 28.5 Q145 42 98 42 L53 42 L71 265 L281 265 L281 180 L151 180 L147 116 Q215 112 256 80 Q297 48 297 -17 Z "/>
    </font>
</svg>
